<svg id="Capa_1" enable-background="new 0 0 512 512" height="512" viewBox="0 0 512 512" width="512" xmlns="http://www.w3.org/2000/svg"><g><g><g><path d="m60 134.922h30v90h-30z" fill="#41474d"/></g></g><g><g><path d="m105 89.922h72.206v30h-72.206z" fill="#41474d"/></g></g><path d="m30 329.922h90v152h-90z" fill="#41474d"/><path d="m300.15 100.103-37.384 25.031-37.396 25.037 33.384 49.864 37.394-25.044 37.386-25.039z" fill="#41474d"/><path d="m275.653 107.546h44.994v59.998h-44.994z" fill="#282c33" transform="matrix(.831 -.556 .556 .831 -26.12 189.129)"/><g><path d="m482 269.922v212h-211v-212h90l15 30 15-30z" fill="#fabe2c"/></g><g><path d="m482 269.922v212h-106v-182l15-30z" fill="#ff9100"/></g><g><path d="m361 269.922h30v90h-30z" fill="#fed843"/></g><g><path d="m376 269.922h15v90h-15z" fill="#fabe2c"/></g><g><path d="m291.698 32.97c-23.161-34.605-69.794-42.966-104.033-20.01-34.365 22.998-43.608 69.668-20.61 104.048l41.733 62.329 62.325-41.735 62.318-41.732z" fill="#ff641a"/><path d="m291.698 32.97c-23.161-34.605-69.794-42.966-104.033-20.01l83.448 124.642 62.318-41.732z" fill="#f03800"/><path d="m308.603 166.636-12.461 8.346-12.471 8.353 50.083 74.795 12.466-8.349 12.466-8.35z" fill="#41474d"/><path d="m319.912 163.2h15v90.014h-15z" fill="#282c33" transform="matrix(.831 -.557 .557 .831 -60.485 217.425)"/></g><path d="m350.116 120.801-62.316 41.723-62.327 41.729 16.699 24.932 62.322-41.726 62.321-41.726z" fill="#e6f2ff"/><path d="m289.808 139.125h74.997v30.008h-74.997z" fill="#cdf" transform="matrix(.831 -.556 .556 .831 -30.418 208.15)"/><g><path d="m0 451.922h512v60h-512z" fill="#5c6366"/></g><path d="m376 451.922h136v60h-136z" fill="#41474d"/><g><g><g><path d="m75 359.922c-41.353 0-75-33.647-75-75s33.647-75 75-75 75 33.647 75 75-33.647 75-75 75z" fill="#ff641a"/></g></g></g><path d="m75 329.922c-24.853 0-45-20.147-45-45 0-24.853 20.147-45 45-45 24.853 0 45 20.147 45 45 0 24.853-20.147 45-45 45z" fill="#5c6366"/><g><g><path d="m60 269.922h30v30h-30z" fill="#ff9100"/></g></g><g><g><g><g><g><path d="m75 149.922c-24.814 0-45-20.186-45-45s20.186-45 45-45 45 20.186 45 45-20.186 45-45 45z" fill="#ff641a"/></g></g></g></g></g><circle cx="75" cy="104.922" fill="#5c6366" r="15"/></g></svg>