<?xml version="1.0"?>
<svg xmlns="http://www.w3.org/2000/svg" id="Layer_1" enable-background="new 0 0 479.988 479.988" height="512" viewBox="0 0 479.988 479.988" width="512" class=""><g><path d="m412.216 227.171c9.59 16.61-1.91 37.47-21.08 38.21-69.998 2.74-141.37 20.222-208.66 54.64l-22.25 12.84c0 .101-.307-.525 53.86 93.68 4.97 8.62 2.02 19.63-6.59 24.61l-17.55 10.13c-8.61 4.97-19.63 2.02-24.6-6.6l-54.03-93.58-8.77 5.07c-17.23 9.94-39.26 4.04-49.21-13.19l-40.52-70.18c-9.94-17.23-4.04-39.26 13.19-49.21l79.93-46.15c61.085-39.514 112.848-91.834 151.65-153.38 10.23-16.23 34.04-15.76 43.63.85l34.67 60.06c19.92-11.5 45.4-4.67 56.9 15.25s4.67 45.39-15.25 56.89z" fill="#d6f4fc" data-original="#D6F4FC" class=""/><path d="m392.786 110.222c11.5 19.92 4.67 45.39-15.25 56.89l-41.65-72.14c19.92-11.5 45.4-4.67 56.9 15.25z" fill="#4d4e59" data-original="#4D4E59" class="active-path" style="fill:#FB5252" data-old_color="#4d4e59"/><path d="m301.216 34.911c4.784 8.294 4.478 18.583-.817 26.561-42.712 64.357-99.96 122.51-169.973 167.809l-93.65 54.07c-6.43 3.72-11.52 8.87-15.08 14.82l-8.88-15.37c-9.94-17.23-4.04-39.26 13.19-49.21l79.93-46.15c61.085-39.514 112.848-91.834 151.65-153.38 10.23-16.23 34.04-15.759 43.63.85z" fill="#e8f8fc" data-original="#E8F8FC"/><path d="m105.936 187.442 76.54 132.58c-15.338 8.851-64.614 37.296-79.93 46.15-17.23 9.94-39.26 4.04-49.21-13.19l-40.52-70.18c-9.94-17.23-4.04-39.26 13.19-49.21z" fill="#fe4f60" data-original="#FE4F60"/><path d="m130.175 229.431c-101.705 58.715-94.965 54.63-98.246 57.183-6.179 4.807-15.197 2.966-19.114-3.813-9.94-17.23-4.04-39.26 13.19-49.21l79.93-46.15z" fill="#ff6d7a" data-original="#FF6D7A"/><path d="m174.796 358.202c-28.456 16.477-7.52 4.351-48.86 28.21l-14.62-25.31 48.91-28.23z" fill="#bdeffc" data-original="#BDEFFC"/><path d="m390.296 155.671c-3.3 4.53-7.59 8.46-12.76 11.44l-41.65-72.14c5.17-2.99 10.72-4.73 16.29-5.33 2.096 3.632 36.291 62.863 38.12 66.03z" fill="#42434d" data-original="#42434D" class=""/><path d="m388.139 169.472c31.221-25.502 20.437-75.934-18.576-86.386-10.194-2.731-20.747-2.163-30.421 1.522l-30.998-53.691c-12.614-21.849-43.899-22.428-57.331-1.125-38.127 60.474-88.921 111.908-149.225 150.939-3.434 2.218-4.707 6.802-2.675 10.533.326.597 51.672 89.52 52.012 90.109 2.208 3.824 7.098 5.138 10.928 2.928 3.826-2.209 5.137-7.102 2.928-10.928l-48.15-83.4c57.501-38.44 108.427-89.331 147.717-151.648 7.027-11.147 23.361-10.801 29.939.592l110.996 192.251c6.586 11.408-1.31 25.712-14.457 26.224-73.757 2.874-145.97 21.739-211.993 55.507-.281.143-75.137 43.368-80.292 46.344-13.381 7.726-30.551 3.125-38.275-10.256l-40.521-70.187c-7.725-13.38-3.124-30.55 10.256-38.275l48.769-28.157c3.826-2.209 5.137-7.102 2.928-10.928-2.209-3.827-7.103-5.137-10.928-2.928l-48.769 28.157c-21.02 12.135-28.248 39.11-16.112 60.131l40.522 70.186c12.137 21.022 39.112 28.248 60.132 16.112l1.845-1.065 50.029 86.653c7.186 12.447 23.076 16.71 35.53 9.521l17.547-10.131c12.45-7.188 16.708-23.079 9.52-35.53l-35.457-61.413c-2.209-3.826-7.102-5.137-10.928-2.928s-5.137 7.102-2.928 10.928l35.457 61.413c2.766 4.791 1.128 10.907-3.664 13.673l-17.547 10.131c-4.791 2.766-10.907 1.127-13.673-3.664l-50.029-86.653 64.055-36.983c62.681-32.026 132.413-50.838 205.15-53.671 25.208-.983 40.285-28.399 27.689-50.212zm-2.285-55.254c7.898 13.68 5.061 30.656-5.872 41.125l-32.685-56.613c14.329-4.203 30.532 1.587 38.557 15.488zm78.246-35.567-20.699 11.951c-3.829 2.21-8.72.897-10.928-2.928-2.21-3.826-.898-8.719 2.928-10.928l20.699-11.951c3.829-2.21 8.72-.897 10.928 2.928 2.209 3.826.898 8.719-2.928 10.928zm-89.018-45.596 5.048-18.836c1.144-4.268 5.528-6.799 9.799-5.657 4.268 1.144 6.8 5.531 5.656 9.798l-5.048 18.836c-1.141 4.257-5.517 6.801-9.799 5.657-4.267-1.144-6.799-5.53-5.656-9.798zm104.631 131.019c-.958 3.574-4.19 5.931-7.723 5.931-1.448 0-.435.165-20.912-5.322-4.268-1.144-6.801-5.53-5.657-9.798s5.531-6.798 9.798-5.657l18.837 5.047c4.267 1.144 6.801 5.531 5.657 9.799z" data-original="#000000" class="" style="fill:#00AF80" data-old_color="#000000"/></g> </svg>
