<svg height="512pt" viewBox="0 -13 512.00035 512" width="512pt" xmlns="http://www.w3.org/2000/svg"><path d="m203.734375 263.464844 60.800781 12.800781 48 6.402344 16.910156-2.417969c32.320313-40.53125 25.664063-99.589844-14.867187-131.910156-40.53125-32.320313-99.59375-25.664063-131.914063 14.867187-24.195312 30.347657-27.222656 72.457031-7.613281 105.949219zm0 0" fill="#fece2f"/><path d="m305.425781 341.332031c-17.839843.398438-35.589843-2.660156-52.269531-9-14.875-5.699219-30.722656-8.441406-46.648438-8.066406-15.953124-.378906-31.824218 2.363281-46.722656 8.074219-7.015625 2.570312-14.207031 4.652344-21.511718 6.226562-4.617188.945313-9.125-2.035156-10.070313-6.652344-.941406-4.621093 2.039063-9.128906 6.65625-10.070312 6.578125-1.425781 13.050781-3.3125 19.363281-5.640625 16.683594-6.34375 34.4375-9.398437 52.285156-9.003906 17.835938-.394531 35.582032 2.664062 52.257813 9.003906 14.878906 5.699219 30.730469 8.4375 46.660156 8.0625 15.953125.378906 31.824219-2.359375 46.726563-8.0625 7.050781-2.59375 14.273437-4.683594 21.617187-6.253906 4.617188-.945313 9.125 2.035156 10.070313 6.65625.941406 4.617187-2.039063 9.125-6.65625 10.066406-6.609375 1.429687-13.105469 3.320313-19.449219 5.660156-16.691406 6.34375-34.457031 9.398438-52.308594 9zm0 0" fill="#aedee2"/><path d="m170.667969 381.199219c-4.714844.003906-8.535157-3.816407-8.535157-8.53125 0-3.875 2.609376-7.265625 6.359376-8.25 6.03125-1.574219 12.144531-2.820313 18.3125-3.730469 17.570312-3.09375 35.574218-2.757812 53.015624.988281 5.574219 1.113281 11.203126 1.929688 16.863282 2.441407 4.699218.378906 8.207031 4.492187 7.828125 9.195312-.375 4.699219-4.492188 8.207031-9.195313 7.828125-6.226562-.570313-12.421875-1.460937-18.558594-2.671875-15.582031-3.386719-31.675781-3.699219-47.378906-.917969-5.566406.828125-11.085937 1.949219-16.535156 3.359375-.710938.191406-1.441406.289063-2.175781.289063zm0 0" fill="#a8d6da"/><path d="m286.71875 436.90625c-3.769531-2.828125-9.117188-2.0625-11.945312 1.707031l-10.238282 13.652344v-42.664063c0-4.714843-3.824218-8.535156-8.535156-8.535156s-8.535156 3.820313-8.535156 8.535156v42.664063l-10.238282-13.652344c-2.828124-3.769531-8.175781-4.535156-11.945312-1.707031-3.773438 2.828125-4.535156 8.175781-1.707031 11.949219l25.597656 34.132812c.113281.144531.292969.203125.402344.332031.867187.847657 1.820312 1.597657 2.851562 2.234376 2.25 1.128906 4.898438 1.128906 7.148438 0 1.03125-.636719 1.984375-1.386719 2.851562-2.234376.109375-.128906.289063-.1875.402344-.332031l25.597656-34.132812c2.828125-3.773438 2.066407-9.121094-1.707031-11.949219zm0 0" fill="#fd9226"/><path d="m198.75 213.332031c-.824219.003907-1.644531-.117187-2.433594-.355469-4.515625-1.34375-7.089844-6.089843-5.75-10.609374 6.589844-22.074219 23.859375-39.34375 45.933594-45.933594 4.527344-1.3125 9.261719 1.296875 10.570312 5.824218 1.296876 4.480469-1.242187 9.171876-5.707031 10.535157-16.546875 4.941406-29.492187 17.890625-34.4375 34.4375-1.078125 3.621093-4.402343 6.101562-8.175781 6.101562zm0 0" fill="#f3c52d"/><path d="m346.503906 139.894531c-4.710937 0-8.53125-3.820312-8.53125-8.535156 0-2.261719.898438-4.429687 2.5-6.03125l12.074219-12.074219c3.390625-3.273437 8.792969-3.179687 12.066406.210938 3.195313 3.304687 3.195313 8.550781 0 11.855468l-12.074219 12.066407c-1.601562 1.601562-3.769531 2.507812-6.035156 2.507812zm0 0" fill="#fbb540"/><path d="m165.496094 139.894531c-2.261719 0-4.433594-.898437-6.035156-2.5l-12.074219-12.074219c-3.273438-3.390624-3.179688-8.792968.210937-12.066406 3.308594-3.191406 8.550782-3.191406 11.855469 0l12.066406 12.074219c3.332031 3.332031 3.332031 8.738281 0 12.070313-1.601562 1.597656-3.769531 2.496093-6.03125 2.496093zm0 0" fill="#fbb540"/><g fill="#fece2f"><path d="m128 230.398438h-34.132812c-4.714844 0-8.535157-3.820313-8.535157-8.53125 0-4.714844 3.820313-8.535157 8.535157-8.535157h34.132812c4.710938 0 8.535156 3.820313 8.535156 8.535157 0 4.710937-3.824218 8.53125-8.535156 8.53125zm0 0"/><path d="m418.132812 230.398438h-34.132812c-4.710938 0-8.535156-3.820313-8.535156-8.53125 0-4.714844 3.824218-8.535157 8.535156-8.535157h34.132812c4.714844 0 8.535157 3.820313 8.535157 8.535157 0 4.710937-3.820313 8.53125-8.535157 8.53125zm0 0"/><path d="m256 102.398438c-4.710938 0-8.535156-3.820313-8.535156-8.53125v-25.601563c0-4.710937 3.824218-8.53125 8.535156-8.53125s8.535156 3.820313 8.535156 8.53125v25.601563c0 4.710937-3.824218 8.53125-8.535156 8.53125zm0 0"/></g><path d="m460.800781 51.199219c0-14.136719-11.460937-25.597657-25.601562-25.597657h-8.53125c-14.140625 0-25.601563 11.460938-25.601563 25.597657-14.136718 0-25.601562 11.460937-25.601562 25.601562 0 14.136719 11.464844 25.597657 25.601562 25.597657h59.734375c14.136719 0 25.597657-11.460938 25.597657-25.597657 0-14.140625-11.460938-25.601562-25.597657-25.601562zm0 0" fill="#b3e4e8"/><path d="m110.933594 25.601562c0-14.140624-11.460938-25.601562-25.601563-25.601562h-8.53125c-14.140625 0-25.601562 11.460938-25.601562 25.601562-14.136719 0-25.597657 11.460938-25.597657 25.597657 0 14.140625 11.460938 25.601562 25.597657 25.601562h59.734375c14.136718 0 25.601562-11.460937 25.601562-25.601562 0-14.136719-11.464844-25.597657-25.601562-25.597657zm0 0" fill="#aedee2"/><path d="m503.464844 290.132812c-17.847656.398438-35.601563-2.660156-52.289063-9.003906-14.894531-5.695312-30.753906-8.4375-46.695312-8.0625-15.957031-.378906-31.832031 2.359375-46.738281 8.0625-16.695313 6.347656-34.460938 9.40625-52.316407 9.003906-17.839843.394532-35.589843-2.660156-52.265625-9.003906-14.878906-5.699218-30.726562-8.4375-46.652344-8.0625-15.949218-.378906-31.816406 2.359375-46.710937 8.0625-16.683594 6.34375-34.433594 9.398438-52.277344 9.003906-17.835937.398438-35.582031-2.660156-52.257812-9.003906-14.902344-5.707031-30.777344-8.445312-46.726563-8.0625-4.714844 0-8.535156-3.820312-8.535156-8.53125 0-4.714844 3.820312-8.535156 8.535156-8.535156 17.835938-.394531 35.582032 2.660156 52.257813 9.003906 14.898437 5.707032 30.773437 8.449219 46.726562 8.0625 15.945313.378906 31.808594-2.359375 46.703125-8.0625 16.683594-6.34375 34.4375-9.398437 52.285156-9.003906 17.835938-.394531 35.582032 2.660156 52.257813 9.003906 14.878906 5.699219 30.730469 8.4375 46.660156 8.0625 15.953125.378906 31.824219-2.359375 46.726563-8.0625 16.699218-6.347656 34.46875-9.40625 52.328125-9.003906 17.84375-.398438 35.597656 2.660156 52.285156 9.003906 14.894531 5.699219 30.757813 8.4375 46.703125 8.0625 4.710938 0 8.53125 3.820313 8.53125 8.535156 0 4.710938-3.820312 8.53125-8.535156 8.53125zm0 0" fill="#b3e4e8"/></svg>