<svg id="Layer_1" enable-background="new 0 0 958.2 958.2" height="512" viewBox="0 0 958.2 958.2" width="512" xmlns="http://www.w3.org/2000/svg"><path d="m-1.2 479.4v478.8h960.6v-171.8c-305.4-155.9-622.4-285.7-960.6-307z" fill="#9bd65e"/><circle cx="699.8" cy="260.4" fill="#fdaa6a" r="105"/><path d="m699.8 365.5c82.7 0 132.2-91 89.4-160.3-39 75.6-15.9 97.1-100.6 112.7-20.1 3.7-46.8 4.2-74.4 3.3 19 26.8 50.3 44.3 85.6 44.3z" fill="#f0a567"/><path d="m715.8 156.6c-86.4-13.2-149.3 78.4-108.4 153.9 58.6-132.1 74.8-119.2 108.4-153.9z" fill="#fcbc80"/><path d="m-1.2 948.8c6.8 3.1 13.8 6.3 21 9.4h939.6v-171.8c-139.2-71.1-280.9-136.7-425.9-189.1-14.1 27.7-46.8 54.5-126.2 43.8-147.6-19.9-237.4-10-277.3 34.9-18.2 20.5-75.7 56.6-131.2 93.5z" fill="#91c656"/><path d="m-1.2 479.4v71.1c6.1-2.9 11.4-6 15.5-9 37.9-27.7 31.9-20.2 131.7-2.1 41.5 7.5 77.1-6.1 104.6-24.6-82.7-17.7-166.6-30-251.8-35.4z" fill="#aced70"/><path d="m959.4 601.2v357.1h-960.6v-71.7c305.4-156 622.4-264.2 960.6-285.4z" fill="#9bd65e"/><path d="m959.4 601.2c-249.1 15.7-486.6 78.5-716.5 172.8 21.4 16.2 68.1 31.9 166.4 5.8 161.6-42.9 196.5-124.7 339.6-94.8 72.3 15.1 150.8 20 210.5 14.5z" fill="#aced70"/><path d="m959.4 958.2v-109.6c-24.4 10.3-64.9 18.4-135.2 15.7-157.6-5.9-179.5-48.1-307.2 14.9-55.4 27.3-114.2 55.6-162.5 79z" fill="#91c656"/><g fill="#fcbc80"><path d="m688.5 96.4c16.6 0 30-13.4 30-30v-36.4c0-16.6-13.4-30-30-30s-30 13.4-30 30v36.4c0 16.6 13.4 30 30 30z"/><path d="m658.5 475.4v36.4c0 16.6 13.4 30 30 30s30-13.4 30-30v-36.4c0-16.6-13.4-30-30-30-16.6-.1-30 13.4-30 30z"/><path d="m833.1 156.3c7.7 0 15.4-2.9 21.2-8.8l25.7-25.7c11.7-11.7 11.7-30.7 0-42.5-11.7-11.7-30.7-11.7-42.5 0l-25.7 25.7c-18.9 19-5.2 51.3 21.3 51.3z"/><path d="m522.7 394.2-25.7 25.8c-11.7 11.7-11.7 30.7 0 42.5 11.7 11.7 30.7 11.7 42.5 0l25.7-25.7c11.7-11.7 11.7-30.7 0-42.5-11.8-11.8-30.8-11.8-42.5-.1z"/><path d="m811.9 394.2c-11.7 11.7-11.7 30.7 0 42.5l25.7 25.7c11.7 11.7 30.7 11.7 42.5 0 11.7-11.7 11.7-30.7 0-42.5l-25.7-25.7c-11.8-11.7-30.8-11.7-42.5 0z"/><path d="m522.7 147.5c11.7 11.7 30.7 11.7 42.5 0 11.7-11.7 11.7-30.7 0-42.5l-25.7-25.7c-11.7-11.7-30.7-11.7-42.5 0-11.7 11.7-11.7 30.7 0 42.5z"/><path d="m863 270.9c0 16.6 13.4 30 30 30h36.4c16.6 0 30-13.4 30-30s-13.4-30-30-30h-36.4c-16.6 0-30 13.4-30 30z"/><path d="m447.7 300.9h36.4c16.6 0 30-13.4 30-30s-13.4-30-30-30h-36.4c-16.6 0-30 13.4-30 30s13.4 30 30 30z"/></g><path d="m28.8 369.2c16.6 0 30-13.4 30-30 0-29.7 24.1-53.8 53.8-53.8 23.7 0 44.9 15.8 51.6 38.5 5.8 19.7 29.5 27.9 46.3 15.9 35.2-25.3 85.1-.1 85.1 43.8 0 16.6 13.4 30 30 30s30-13.4 30-30c0-77-75.4-132.2-148.9-108.4-20.9-30.5-56-49.9-94.1-49.9-62.8 0-113.9 51.1-113.9 113.9.1 16.5 13.5 30 30.1 30z" fill="#a2d0ff"/></svg>