<svg xmlns="http://www.w3.org/2000/svg" xmlns:xlink="http://www.w3.org/1999/xlink" viewBox="0 0 3403.09 2086.67"><defs><clipPath id="clip-path" transform="translate(13.47)"><path d="M142.24,181.92A142.24,142.24,0,1,0,284.47,324.15,142.23,142.23,0,0,0,142.24,181.92Zm0,217.58a75.35,75.35,0,1,1,75.35-75.35A75.34,75.34,0,0,1,142.24,399.5Z" fill="none"/></clipPath></defs><g id="Layer_2" data-name="Layer 2"><g id="Слой_1" data-name="Слой 1"><path d="M3256.33,1952.42c-258.1-12.62-1136.14,8.75-1403.18,17.09s-577-11-738-39.42S23.41,1932.51,65.64,2008.93s414.68,34.19,837,64.9,1372.24-3.84,1586.5,0,410.74-7.68,686.86-23S3405.94,1959.73,3256.33,1952.42Z" transform="translate(13.47)" fill="#2196f3" opacity="0.38"/><path d="M2696.55,270.25a249.87,249.87,0,0,0,1.56-27.78c0-5-.16-9.88-.45-14.76l-45.91-14.85a201.6,201.6,0,0,0-16.25-55l30.44-37.45a247.47,247.47,0,0,0-24.11-35.05l-45.91,15a204.56,204.56,0,0,0-45.45-34.94l2.61-48.23A245.88,245.88,0,0,0,2513,3l-28.35,39.13a203.9,203.9,0,0,0-57.31-1.51L2401.09,0a246.29,246.29,0,0,0-40.78,12.05l.06,48.31a203.84,203.84,0,0,0-47.23,32.49L2301,88.18l-32.93-12.7q-7.52,8.2-14.27,17.06v32.67l16.76,23a201.74,201.74,0,0,0-16.76,43.56V293.13a202.51,202.51,0,0,0,12,33.95l-12,14.8v50.5q2.78,3.66,5.7,7.21l41.5-13.54,4.41-1.44a203.77,203.77,0,0,0,45.45,34.93l-2.61,48.24a244.91,244.91,0,0,0,40.08,14.2l28.35-39.12a203.29,203.29,0,0,0,57.31,1.5l26.25,40.57A244.94,244.94,0,0,0,2541,472.88l-.06-48.3a203.42,203.42,0,0,0,47.24-32.5l45,17.38a248.64,248.64,0,0,0,25.94-33.72l-28.42-39a202.18,202.18,0,0,0,19.16-54.06ZM2450.67,145.42a97,97,0,1,0,97,97.05A97,97,0,0,0,2450.67,145.42Z" transform="translate(13.47)" fill="#2196f3" opacity="0.5"/><path d="M2583,354.53a5,5,0,0,1-3.84-8.2,162.82,162.82,0,0,0,28.69-156.82,5,5,0,1,1,9.45-3.25,172.77,172.77,0,0,1-30.45,166.46A5,5,0,0,1,2583,354.53Z" transform="translate(13.47)" fill="#fff"/><path d="M2569,125.47a5,5,0,0,1-3.43-1.36,161.43,161.43,0,0,0-55.95-34.48,5,5,0,1,1,3.41-9.4,171.43,171.43,0,0,1,59.4,36.6,5,5,0,0,1-3.43,8.64Z" transform="translate(13.47)" fill="#fff"/><path d="M2413,85a5,5,0,0,1-1.22-9.85,173,173,0,0,1,42.36-5.24,5,5,0,0,1,0,10,163.4,163.4,0,0,0-39.91,4.93A4.72,4.72,0,0,1,2413,85Z" transform="translate(13.47)" fill="#fff"/><path d="M754.56.71V929.59H2301V.71Zm1499.26,883.4H798.9V31.38H2253.82Z" transform="translate(13.47)" fill="#2196f3"/><path d="M2070.54,464.07c69.34-66,187.84-64.5,185.34,36s5.8,110,34.33,162.67c99,182.93-118,172.17-208.5,178.17s-83-164.5-67-259S2050.26,483.39,2070.54,464.07Z" transform="translate(13.47)" fill="#303c60"/><path d="M2102.86,1040.31c-22.22,186.67-62.61,324.66-67.11,413.16s-22.5,436.94-22.5,436.94,49.5-3.46,54-11,93-204,88.49-325.49,88.39-306.22,88.39-306.22l-22.39-181.25Z" transform="translate(13.47)" fill="#2196f3"/><path d="M2124.21,1121.57l-34.76,14.55c-9.45,59.19-19.93,112.41-29.14,159.62,55.32,35.76,83.9,154.92,96.14,227.77,6.24-81.52,44.7-180,68.56-234.49Z" transform="translate(13.47)" fill="#0582d8"/><path d="M2284.73,1021.49s74.93,95.57,72.58,204c-3.58,165-21.58,212.17,9.74,385.23,12.23,67.59-27,288.7-27,288.7s-33.51,2.62-51.51-6.34c1.5-16.24-21.66-280.52-66.76-402-21.84-58.83-52.54-223.59-69-318.09s-19.5-114-13.5-114S2284.73,1021.49,2284.73,1021.49Z" transform="translate(13.47)" fill="#2196f3"/><path d="M1857.88,756.07s3.33-49.45-2-64.72-51.34-28.61-51.34-28.61-2,70.67,2.67,79.33,32,33.34,32,33.34Z" transform="translate(13.47)" fill="#f09959"/><path d="M2116.54,720c-105.33,113.37-139.7,161.07-147.7,161.07-25-44.13-108-137.46-108-137.46l-35.41,22.76s81.82,213.77,133.82,216,157.7-73.72,159-82.44S2116.54,720,2116.54,720Z" transform="translate(13.47)" fill="#a2dff2"/><path d="M2006.69,971.31c51.52-21,110.56-64.86,111.56-71.36,1.34-8.72-1.71-179.91-1.71-179.91-23,24.72-43,46.64-60.41,65.81C2037.27,856.11,2038.5,932.62,2006.69,971.31Z" transform="translate(13.47)" fill="#96cfe0"/><path d="M2223.54,645.41s100.79,50.52,122.79,140-43.1,199.91-51.1,258.87-192,69.33-192,6.22c0-60.51-46.1-188.94-43.49-221.66C2065.85,752,2178.06,658,2178.06,658Z" transform="translate(13.47)" fill="#a2dff2"/><path d="M2194.25,529.56,2237.53,663s-46.2,35.66-125.28,121.43c3.08-57.08,50.89-119.29,50.89-119.29l-32.73-126Z" transform="translate(13.47)" fill="#f09959"/><path d="M2214.44,591.79l-20.19-62.23-63.84,9.56,32.73,126s-3.19,5.09-7.9,13.1C2186.07,655.33,2205,626.85,2214.44,591.79Z" transform="translate(13.47)" fill="#e38540"/><path d="M2170.41,559.67c-11.67,42.46-56.86,65.84-89,57s-39-46.51-27.32-89,47.17-69.73,79.28-60.9S2182.08,517.21,2170.41,559.67Z" transform="translate(13.47)" fill="#f09959"/><path d="M2095.2,990.62c14,88.79-38,278.74-38,278.74s31,7.05,124-1.95,134-101.82,148-104.41,21.19,86.38,28.1,93.41,8-112.35-10.1-159.29c-32-83.19-25.73-118.48-13.77-168.88C2354.7,838.61,2095.2,990.62,2095.2,990.62Z" transform="translate(13.47)" fill="#a2dff2"/><path d="M2015.5,1846.71c8.38,34-8.16,61-30.29,80.7-18,16-73.33,22.8-70.67,30.8s68,10.53,90,7.2,28-14,55.39-14c18,0,21.28-14.59,13.28-32.63s-10.8-28-3.57-44.2S2015.5,1846.71,2015.5,1846.71Z" transform="translate(13.47)" fill="#4476bd"/><path d="M2342,1846.71c-1.33,35.33-5.44,61.65,3.23,78,33.47,28,61.3,59.81,50.67,62-50.67,10.47-70-19.9-98.67-28.53-35.18-10.6,3.33-54.8-10.45-111.5-7.66-31.53,53.12-24,53.12-24Z" transform="translate(13.47)" fill="#4476bd"/><path d="M2354.77,1126.09c-2-11.08-4.52-21.06-7.56-29-32-83.19-25.73-118.48-13.77-168.88a39.88,39.88,0,0,0,1.21-10.53c2.7-9,5.21-18.09,7.42-27.26l-10.86-98-78.31-93c-58.69,86-19.08,193-27.89,252s-107.14,134.23-107.14,134.23l3.2,20.93a53.16,53.16,0,0,0,59.78,44.67c40.53-5.63,93.7-16.93,117.36-38.89C2321.11,1091.11,2341.38,1107.55,2354.77,1126.09Z" transform="translate(13.47)" fill="#96cfe0"/><path d="M2140.87,1082.26s-43.42,12.15-48.61,14.86-8.06,17.07-8.06,17.07-24.84,21.58-15.33,29.22,26.52,27,49,18c13.8-5.52,24.49-56.21,33.53-56.62S2140.87,1082.26,2140.87,1082.26Z" transform="translate(13.47)" fill="#f09959"/><path d="M2263.81,688.07c46.46,1.32,88.59,85,103.27,157.6s30.13,175.82,30.13,175.82-77,60.77-153.08,78.53c-66.37,15.5-100.26,21.55-100.26,21.55l-13.46-37.89,158.8-93.27s-58.39-110-64.2-193S2228.5,687.07,2263.81,688.07Z" transform="translate(13.47)" fill="#a2dff2"/><rect x="1707.26" y="656.98" width="118.13" height="75.02" transform="translate(-88.64 361.06) rotate(-11.35)" fill="#f5dc95"/><path d="M1830,750.07c1.6-30.42-13.48-71.91-22.14-71.85s2.66,27.19-2,45.19C1803.35,733.16,1830,750.07,1830,750.07Z" transform="translate(13.47)" fill="#f09959"/><path d="M2062.64,480.07c2.57,83.34,99.9,76.95,126.57,71.81s-32.46,175.81,18.33,186.25c37.31,7.67,28.9-50.68,70.34-46.78,18.33,1.72,36.76,30.06,36.76,30.06s-2.76-17.45-16.76-30.06-50.71-89.94-60.35-145.28-75-91.12-94.32-92.22-66.67,20.89-66.67,20.89Z" transform="translate(13.47)" fill="#303c60"/><path d="M2206.68,757a19.21,19.21,0,0,1-4-.43c-16.26-3.46-24.14-20.55-24.81-53.77-.57-28.48,4.13-65,9.12-103.72,2-15.64,4.09-31.8,5.81-47.46a2.44,2.44,0,0,1,4.84.54c-1.72,15.69-3.8,31.88-5.82,47.54-9.64,74.87-18.75,145.59,11.87,152.11a13.94,13.94,0,0,0,2.85.3c17.59,0,33.43-34.28,42.67-67.67a2.43,2.43,0,0,1,4.69,1.29C2247.8,707.76,2231.4,757,2206.68,757Z" transform="translate(13.47)" fill="#303c60"/><path d="M2200.17,776.36a19.21,19.21,0,0,1-14.39-6.4c-33.18-35.08-.38-211.06,1-218.53a2.43,2.43,0,0,1,4.78.9c-.34,1.81-33.77,181-2.28,214.28a14.53,14.53,0,0,0,13.24,4.72c17.23-2.28,27.18-25.66,36-46.28,8.52-20,16.52-38.91,30.79-38.41a2.45,2.45,0,0,1,2.35,2.52,2.42,2.42,0,0,1-2.52,2.35h-.36c-10.69,0-18,17.23-25.77,35.45-9.29,21.83-19.81,46.57-39.8,49.21A24.21,24.21,0,0,1,2200.17,776.36Z" transform="translate(13.47)" fill="#303c60"/><path d="M2192.82,567.89c-6.86,8.84-17.6,12-24,7s-6-16.15.83-25,17.6-12,24-7S2199.68,559.05,2192.82,567.89Z" transform="translate(13.47)" fill="#f09959"/><path d="M1436.55,876.47c23.76,47.52,4.09,102.24-42.64,121.57-47.05,19.46-98.49,8.41-122.25-39.11s-6.11-104.49,39.42-127.26S1412.79,829,1436.55,876.47Z" transform="translate(13.47)" fill="#303c60"/><path d="M1308.46,1003.75c-5.25,0-15.59-1.86-28.73-13.52-10.78-9.56-18.52-24.23-21.8-41.3-4.13-21.55-1.44-46.31,8-73.62a2.44,2.44,0,0,1,4.61,1.59c-9.16,26.49-11.8,50.41-7.82,71.11,3.07,16,10.26,29.72,20.24,38.58,16.67,14.79,27.85,12.1,28,12.07a2.43,2.43,0,0,1,1.31,4.69A14.65,14.65,0,0,1,1308.46,1003.75Z" transform="translate(13.47)" fill="#303c60"/><path d="M1381.12,1061.38c27.05,6.06,61.19,81.21,77.91,129.36,16.87,48.56,45.45,108.8,64.17,127.51s141.71,62.11,141.71,62.11-303.89.59-297.66,0S1381.12,1061.38,1381.12,1061.38Z" transform="translate(13.47)" fill="#a8ceff"/><path d="M1542.46,1356.22c-16.64-2.38-76.65,5.35-51.1-5.35s22-24.36,22-24.36-36.25,30.3-42.78,3.8c-5.64-22.84-7.79-103.51-29.18-184.37-17.68-40.09-40.8-80.2-60.26-84.56,0,0-.68,28.47-1.81,68.39,7.46,88.33,20.13,218.11,23.35,250.83,40.27.06,107.69,0,164.08-.08l37.51-1.79S1559.09,1358.6,1542.46,1356.22Z" transform="translate(13.47)" fill="#93bbf0"/><path d="M1281.69,1044.73s-86,48.06-106.08,58.29,56.19,310.27,73.14,323.13,166.22,2.21,183.21-14-13-65.92,1.67-165.47-44.86-185.5-52.51-185.31-57.59-16.65-57.59-16.65Z" transform="translate(13.47)" fill="#a8ceff"/><path d="M1248.75,1426.15c17,12.86,123.77,13.14,169.23-1,5.13-1.6,28.43-10.88,29-19.61-5.49-1-27.27,1.59-36.12-.45-30.75-7.06-47.68-45.15-47.68-45.15s-16.94-6.1-54.82-22.14-22.28-64.62-23.17-86-37.44-91.36-106.07-144.39l-6.29,2.82C1167.91,1159,1233.06,1414.25,1248.75,1426.15Z" transform="translate(13.47)" fill="#93bbf0"/><path d="M1839.79,1190.74H1632.64L1538.3,1391.5h228.17l85.4-181.73A13.35,13.35,0,0,0,1839.79,1190.74Z" transform="translate(13.47)" fill="#2196f3"/><path d="M1550.64,1394.35H1426a14,14,0,0,1,0-28h115.72L1619.94,1198a14,14,0,0,1,25.4,11.79l-82,176.48A14,14,0,0,1,1550.64,1394.35Z" transform="translate(13.47)" fill="#3e6bab"/><path d="M1334.49,1351.47c54.07,10.1,67.37,22.51,96.84,27.26,33.42,5.39,29.44,12.77,4.63,12.77s-87.18,1-108.59-3.79S1334.49,1351.47,1334.49,1351.47Z" transform="translate(13.47)" fill="#f09959"/><path d="M1168.85,1108.65c-41.44,132.5-100.19,282.85-90.83,282.85s247.32,9.62,256.68,1.61,6.69-38.76,5.35-42.77-135.29-27.78-135.29-27.78,17.64-34.38,24.33-101.56S1176.71,1083.52,1168.85,1108.65Z" transform="translate(13.47)" fill="#a8ceff"/><path d="M1313.2,929.59l-33.38,122s56.41,88.05,71.92,80.23-8.67-71.57-8.67-80.23,24.18-98,24.18-98Z" transform="translate(13.47)" fill="#f09959"/><path d="M1344.23,1057.8a32.63,32.63,0,0,1-1.16-6.22c0-8.66,24.18-98,24.18-98l-54-23.95-11,40.37C1311.8,1011.66,1329.21,1039.43,1344.23,1057.8Z" transform="translate(13.47)" fill="#e38540"/><path d="M1438.11,927.57c6.36,35.37,2.17,82.36-29.24,94.3s-69.25-10.91-84.51-51-2.17-82.36,29.24-94.31S1430.51,885.31,1438.11,927.57Z" transform="translate(13.47)" fill="#f09959"/><path d="M1331.8,947.48c4.4,12.36.58,25-8.54,28.27s-20.08-4.15-24.49-16.52-.57-25,8.55-28.27S1327.4,935.11,1331.8,947.48Z" transform="translate(13.47)" fill="#f09959"/><path d="M1438.48,883.13c-10.7,83-111.55,72.31-111.55,72.31s-20.8-27.34-30.16-13,13-84.16,70.85-87.26C1386.64,854.16,1438.48,883.13,1438.48,883.13Z" transform="translate(13.47)" fill="#303c60"/><ellipse cx="1294.81" cy="848.03" rx="54.62" ry="51.25" fill="#303c60"/><polygon points="1186.01 1994.67 1198.5 1994.67 1279.16 1620.96 1251.68 1620.96 1186.01 1994.67" fill="#2e5b9a"/><polygon points="1574.36 1994.67 1561.87 1994.67 1468 1607.75 1495.48 1607.75 1574.36 1994.67" fill="#2e5b9a"/><path d="M1315.06,1635c-50,0-81.73-9-102-28.69-25.08-24.43-30.27-62.27-30.34-111.57-.06-38.8-1-64.07-3.09-84.5a14,14,0,0,1,27.85-2.87c2.21,21.42,3.17,47.53,3.24,87.32.07,50,6.41,76.5,21.87,91.56,15.87,15.46,44.55,21.83,93,20.62,46.77-1.16,79-7.7,104.84-13,34-6.91,58.6-11.91,87.75,2a14,14,0,1,1-12.07,25.26c-20.69-9.88-38.24-6.31-70.11.16-26.94,5.48-60.48,12.29-109.72,13.51Q1320.54,1635,1315.06,1635Z" transform="translate(13.47)" fill="#2e5b9a"/><path d="M1201.39,1393.11l76.59,3.19-20.39,211.46s-57.09-36.44-56.2-75.66S1201.39,1393.11,1201.39,1393.11Z" transform="translate(13.47)" fill="#2e5b9a"/><path d="M1579.48,1412.81c64.77-9.83,86.77-6.73,126.41,67s92.4,206.57,122.74,223.73c45.69,25.83,60.83,89.16,79.58,86.32s30.84,5.44,10.43,22.41-53.38,31.41-64.66,28.4-20-51.72-49.46-67.53-20.59-28.81-18.66-42.8-85.94-78.39-152.18-158.49c-40.48-49-61.32-81.25-64.41-110.53S1579.48,1412.81,1579.48,1412.81Z" transform="translate(13.47)" fill="#f09959"/><path d="M1740,1680.29c-15-38.16-30.12-101.14-44.3-158.88-20.17-82.12-41.31-101.61-54.71-110.37-16.19-4.06-35.37-2.2-61.54,1.77,0,0-13.3,19.27-10.21,48.55s23.93,61.58,64.41,110.53c34.88,42.17,75.75,80,106.35,108.4Z" transform="translate(13.47)" fill="#e38540"/><path d="M1599.2,1477.73s-17.23,130-33.27,143.24c-11.48,9.45-19.61,10.08-27.63-28.7s12.48-183.51,12.48-183.51Z" transform="translate(13.47)" fill="#2e5b9a"/><polygon points="1598.94 1548.09 1439.46 1574.88 1529.5 1445.79 1598.02 1431.83 1639.11 1441.28 1598.94 1548.09" fill="#f09959"/><path d="M1785.86,1730.38c-5.17,20.84-4.54,36.24,4.44,44s42.93,65.07,42.93,65.07l10.57-1.61-24.48-52.48Z" transform="translate(13.47)" fill="#2e5b9a"/><path d="M1854,1840.71c11.28,3,44.24-11.44,64.66-28.4s8.33-25.26-10.43-22.41a8.11,8.11,0,0,1-3.14-.16c-9.37,20.93-40.19,36.63-50.13,14.52-9.86-21.91-52.08-65.52-69.09-74.85a4,4,0,0,1,0,1c-1.93,14-10.78,27,18.66,42.8S1842.71,1837.7,1854,1840.71Z" transform="translate(13.47)" fill="#2e5b9a"/><path d="M1254,1418c-56.58,101.54-17.93,166.07,50.84,172.65s177.34-6,240.62-58.57,115.23-108.19,108-116.48S1254,1418,1254,1418Z" transform="translate(13.47)" fill="#e38540"/><path d="M1574.84,1493.78c11.59-34.76,24.94-61.43,50.8-61.92,27.19-.51,43.92,13.64,45.08,58.12,1.38,53,3.25,228.39.8,306.39-1.85,59.05,15.36,78,13.91,139.5-1.1,46.36,48.32,22.94,29.23,47-13.12,16.54-52.2,11.13-76.21,8.08-21.39-2.72,11.07-66.82-18.53-84-25.4-14.7-25.9-38.58-9.86-56.65s1.79-71.55-8.91-109-27.28-77.93-38.18-166.44C1559.86,1549.65,1567.76,1515,1574.84,1493.78Z" transform="translate(13.47)" fill="#f09959"/><path d="M1697.75,1963.93c-8.19,2.5-18.28,5.26-27.08,5.55-17.82.59-23.17-19-24.36-45.65-1-23.26-17.93-59.89-35.25-74.74-.32.42-.65.84-1,1.23-16,18.07-15.54,42,9.86,56.65,29.6,17.14-2.86,81.24,18.53,84,24,3,63.09,8.46,76.21-8.08C1727.07,1967.23,1711.67,1966,1697.75,1963.93Z" transform="translate(13.47)" fill="#2e5b9a"/><path d="M1614.07,1843.69s-26,27.15-23.62,38.44,10.4,39.81,11.74,61.8,2.53,47.22,2.53,47.22,9.35,0,10.1-2.66,5.94-89.36,5.94-89.36Z" transform="translate(13.47)" fill="#2e5b9a"/><path d="M1226.72,1408.76s-33.56,142.43,8.84,181.91,218.48,4,260,1.6c28.07-1.6,55.26,32.67,55.26,32.67s-19.61-79.47-6.24-143.64,34.94-68.49,34.94-68.49l-28.7-4Z" transform="translate(13.47)" fill="#2196f3"/><path d="M1219.12,1371.52c14.35,30.45-15.45,83-5,98.19s70.23,2.12,109.41-29.41,113.34-38.47,113.34-38.47Z" transform="translate(13.47)" fill="#a8ceff"/><path d="M1279.82,1631c118.54,4.45,243.33,2.35,243.33-15.32s-5.35-30.14-97.16-23-154.19,16.94-181.82,10.7S1279.82,1631,1279.82,1631Z" transform="translate(13.47)" fill="#2e5b9a"/><rect x="874.3" y="1391.5" width="1696.03" height="32.27" rx="12.91" fill="#2e5b9a"/><path d="M2765.89,959c11.48,40.49-16.56,82.21-47.46,91s-52.95-18.75-64.43-59.24,4.25-80.41,35.15-89.18S2754.4,918.51,2765.89,959Z" transform="translate(13.47)" fill="#f09959"/><path d="M2592.65,1743.55s79.19,123,89.89,128.34,37.43,6.69,27.4,26.74-14,98.93-23.39,102.94-89.57,13.37-77.54,0,19.43-6.68,25.5-30.75,14.6-69.52,3.24-78.87-80.88-93.59-80.88-93.59Z" transform="translate(13.47)" fill="#f09959"/><path d="M2194.09,1796.37S2097.83,1955,2080,1969.28s-76.65,35.66-28.52,39.22,71.3-16,101.6-25,67.74-14.26,53.48-37.43-8.33-73.76,22.41-105.85S2194.09,1796.37,2194.09,1796.37Z" transform="translate(13.47)" fill="#f09959"/><path d="M2685.32,1428.48s-238.29-6.23-332.77,71.3c-55.26,83.79-188.94,331-199.33,358.23,7.13,7.13,47.24,20,65.06,18.21,52.59-62.7,122.1-116.91,149.74-166.09,34.07-60.61,44.56-90.91,99.82-96.26s180-23.17,217.48-23.17S2685.32,1428.48,2685.32,1428.48Z" transform="translate(13.47)" fill="#6791c9"/><polygon points="2906.59 2008.93 2894.09 2008.93 2804.53 1635.22 2832 1635.22 2906.59 2008.93" fill="#2e5b9a"/><polygon points="2532.41 2008.93 2544.9 2008.93 2647.69 1622.01 2620.21 1622.01 2532.41 2008.93" fill="#2e5b9a"/><path d="M2821.08,1412.16l-138.54,23.91s-184.11,1.69-268.26,17.37c-76.56,14.26-87.85,101.25,0,221,49.9,68,92.09,122.33,178.37,183.53,21.95-16.12,30.35-22.21,36.41-61-6.24-8.56-22.41-62.15-27.42-72.64-47.73-99.76-111.43-136-112.31-145.85,10.69-17.38,283.3,90.59,337.5,27.08C2878.58,1545,2821.08,1412.16,2821.08,1412.16Z" transform="translate(13.47)" fill="#75a1de"/><path d="M2826.83,1098.52c-36.49-5.13-73.65,1.81-108.4,27-30.37,31-64.74,82-62.63,166.22,2.67,107-16.55,113.82,3.5,143.23,83.64,34.54,226.69,182.93,193,23.84-24.39-115.19,53.5-201-9.34-328.83C2837.85,1119.55,2831.46,1109.46,2826.83,1098.52Z" transform="translate(13.47)" fill="#f37168"/><path d="M2655.78,1332c-1.63,55.76-9.5,72.18-3.48,89.66,34.09,3.48,96.46,17.13,112,39,17.82,25,35.65,28.52,27.33,10.1s-30.3-44.57,3.57-134.29,49.91-150.33,16.64-212.72Z" transform="translate(13.47)" fill="#d54a41"/><path d="M2826.83,1098.52c-22.47-53.19-28-112.95-28-112.95L2740,1003s33.42,74.86,1.34,101.6a305.36,305.36,0,0,0-22.93,20.94C2753.18,1100.33,2790.34,1093.39,2826.83,1098.52Z" transform="translate(13.47)" fill="#f09959"/><path d="M2800.62,999.73c-3.49-3.1-7.85-7-12.43-11l-48,14.18a2.77,2.77,0,0,1-.1.26c1.16,2.65,13.38,31.17,15,58.6,14.3-8.68,30-22.82,47.85-47.53C2802,1008.74,2801.21,1003.85,2800.62,999.73Z" transform="translate(13.47)" fill="#e38540"/><path d="M2785.48,1115.24c-60.59,21.19-53.87,85-109.63,179.15-28.85,48.71-55.65,48-55.65,48a1289.79,1289.79,0,0,1-149.54-9.46c-51.25-6.27-54.51,9-18.86,21.73,71.9,25.71,146.51,53.38,206.67,46.7s163.06-160.18,168.36-200.14C2834.17,1145.94,2816,1104.57,2785.48,1115.24Z" transform="translate(13.47)" fill="#f09959"/><path d="M2754.29,1649.23q-5.64,0-11.56-.15c-49.24-1.22-82.77-8-109.72-13.51-31.86-6.47-49.41-10-70.1-.15a14,14,0,0,1-12.08-25.27c29.15-13.93,53.74-8.93,87.76-2,25.87,5.26,58.06,11.8,104.83,13,52.67,1.3,84.89-6.6,101.35-24.85,14.7-16.3,19-43.47,13.63-85.52-1.84-14.24-3.67-26.08-5.28-36.52-4.53-29.31-7.53-48.68-3.83-78.53,3.45-27.83,12.68-65,34.07-137a14,14,0,0,1,26.84,8c-40,134.73-38,147.89-29.41,203.26,1.64,10.61,3.5,22.64,5.38,37.23,6.52,50.75,0,85-20.6,107.84C2844.36,1638.51,2809.77,1649.23,2754.29,1649.23Z" transform="translate(13.47)" fill="#2e5b9a"/><path d="M2200.64,1930.09c-63.87,31.23-98.25,49.14-118.73,47.43-4.83-.4-8.84-.9-12.2-1.42-22.77,13.46-59.13,29.37-18.22,32.4,48.13,3.57,71.3-16,101.6-25s67.74-14.26,53.48-37.43A48.84,48.84,0,0,1,2200.64,1930.09Z" transform="translate(13.47)" fill="#d54a41"/><path d="M2689.5,1874.5c-1.56,50.57-8.51,100.68-39.44,110.15a52,52,0,0,1-22.29,2c-4.86,6-10.8,6.08-18.76,14.93-12,13.37,68.18,4,77.54,0s13.37-82.89,23.39-102.94C2718.18,1882.16,2701.61,1878.31,2689.5,1874.5Z" transform="translate(13.47)" fill="#d54a41"/><path d="M2443.48,1394.35H2240.56a14,14,0,0,1-12.69-8.1l-82-176.48a14,14,0,1,1,25.39-11.79l78.24,168.37h194a14,14,0,0,1,0,28Z" transform="translate(13.47)" fill="#75a1de"/><path d="M2485.93,1334.67c-41-.59-81.66-25-101.87-21.46s-86.16,49.31-77.84,51.1,60.61-25.32,62.39-25.74,13.08,18.78,41,25.82.2-20.93,86.77,5.22C2552.67,1386.61,2485.93,1334.67,2485.93,1334.67Z" transform="translate(13.47)" fill="#f09959"/><path d="M2820.8,1050l6,48.54s-53,3.15-79.45,18S2682,1174.3,2682,1174.3l31.83-54.8,4.59-35.06Z" transform="translate(13.47)" fill="#f2e5de"/><path d="M2798.22,1109.4c-39.41-7.39-57.64,27.92-83.19,85.56s-69.17,127.64-77.84,136.67-146.17,0-146.17,0-4.16,39.81,0,44.56,27.93,4.16,27.93,4.16,9.5,7.59,18.42,13.6,84.37,17.3,119.43,15.52,67.14-4.76,71.9-10.11,100.42-152.7,106.36-205.59S2818.33,1113.17,2798.22,1109.4Z" transform="translate(13.47)" fill="#f2e5de"/><path d="M2682,867c-74.53,3.57-62.84,115.69-62.84,115.69s19.36,6,59.91-.71c-3.12-12-1.78-42.78-1.78-42.78s4.71,25,10.7,40.11c8.57,3.93,18.27.44,34.76-3.54,8.46,35.62,32.39,50.68,48.77,55.83,18.1,5.69,37.26,12.47,58.65,1.78s9.63-120-1.72-142c-17.05-33-45.39-62.54-94.41-47C2709.46,852.21,2682,867,2682,867Z" transform="translate(13.47)" fill="#303c60"/><path d="M2811.62,1000.12l30.47,44.51s-33.77,84.38,64.45,122.6c76.92,29.94,67.86,82.69,33.1,135.74s20.79,99.38,20.79,99.38,8.48-58.77,83.21-69.86c101.91-15.12,130.76-151.94,54.65-220.35-63-56.61-82.15-9.73-124.78-60.53s-123.12-16.49-123.12-16.49l-29.5-43Z" transform="translate(13.47)" fill="#303c60"/><path d="M3133.34,1249.69a2.44,2.44,0,0,1-2.13-3.61c25.68-46.94,4.72-103.81-5.82-119.21-1.11-1.63-2.17-3.28-3.28-5-10.36-16.18-23.26-36.31-92-48.68-16.46-3-29.82-12.77-44-23.15-29.32-21.52-62.55-45.92-134.75-12.69a2.43,2.43,0,1,1-2-4.42c74.81-34.43,109.27-9.13,139.68,13.19,13.67,10,26.58,19.51,41.93,22.28,70.83,12.75,84.36,33.87,95.23,50.84,1.1,1.71,2.13,3.33,3.21,4.89,6.35,9.29,14.19,28.52,17.4,50.55,2.79,19.1,3.08,47.41-11.34,73.76A2.42,2.42,0,0,1,3133.34,1249.69Z" transform="translate(13.47)" fill="#303c60"/><path d="M2795.34,1045.45a106.65,106.65,0,0,1-15.78-1.27c-26-3.89-60.83-18.66-63.57-101.67a2.44,2.44,0,0,1,2.36-2.52,2.4,2.4,0,0,1,2.51,2.36c1.13,34.36,8,59.79,20.28,75.59,9.39,12,21.82,18.83,39.14,21.42,24.26,3.64,40.34-.86,47.81-13.37a2.44,2.44,0,0,1,4.19,2.5C2825.53,1039.77,2813.14,1045.45,2795.34,1045.45Z" transform="translate(13.47)" fill="#303c60"/><path d="M469.35,1104.35c-86.51,49.47-206.83,255.08-181.43,288.64s161.77-54.68,161.77-54.68Z" transform="translate(13.47)" fill="#96cfe0"/><path d="M631,865.91c-33-.9-20.78-25.45-58.76-15.65-20,5.16-5.23,13.37-31.17,10.7s-38.71-5.35-42,11.58-4.86,22.29-17.33,25-18.12,25,0,40.11S491,959,487,971.48s9.66,13.37,17.09,24.95-6.84,13.78,3.86,23.83,25.7,9.15,25.7,9.15l45-86.33Z" transform="translate(13.47)" fill="#303c60"/><path d="M1303.93,1902.12s48.13,1.34,85.56-13.37,62.84-37.43,56.15-10.7-37.43,72.61-64.17,77.08-36.09,33.89-50.8,33.89-36.09-33.89-73.53-50.82C1223,1922.77,1303.93,1902.12,1303.93,1902.12Z" transform="translate(13.47)" fill="#2e5b9a"/><path d="M924.66,1897.61s20.24,27.91,55.46,47.33c36.38,20,78.36,29.7,52.33,38.77s-64.07,16.12-101.19,5.34c-26-7.56-56.55-9.14-64.62-21.44s9.49-43.19,2.19-89.35C863,1841.27,924.66,1897.61,924.66,1897.61Z" transform="translate(13.47)" fill="#2e5b9a"/><path d="M699.29,1449s278.8,104.39,301.26,133.58,315.52,295,315.52,314.62-49.91,55.27-49.91,55.27-251.35-154.2-313.74-232.63-214.66-116.25-295.61-123.51S699.29,1449,699.29,1449Z" transform="translate(13.47)" fill="#058dd8"/><path d="M710,1449s190.73-7.13,231.73,0,130.93,7,72.11,173.06c-46.1,130.12-61.32,294.86-61.32,294.86l-91.67,22.52s3.63-296.23,47.38-375.1c-31.86,5.25-90.33,15.49-171.37,38.67-150.33,43-232.75,21.46-232.75,21.46L481.72,1546Z" transform="translate(13.47)" fill="#2196f3"/><polygon points="564.17 956.49 517.56 1094.19 576.44 1132.96 609.81 1013.98 564.17 956.49" fill="#a86b48"/><path d="M568.24,1114.18l28.1-100.2L550.7,956.49l-17,50.37C539.54,1052.35,553.75,1090,568.24,1114.18Z" transform="translate(13.47)" fill="#7a4e34"/><path d="M669.58,979.8c1.52,41.88-19.06,78.13-51.75,81.35s-62.54-28-66.65-69.68,19.06-78.12,51.75-81.35S667.2,913.71,669.58,979.8Z" transform="translate(13.47)" fill="#a86b48"/><path d="M481.72,1090.18c-143.06,96.61-54.08,252.73-22.67,366.82,26.76,97.17,25.88,155.9,29.89,155.9s102.4-14.71,158.55-65.51,94.11-100,94.11-100-71.94-12.81-95.45-105.87c-11.93-47.24-6.51-72.89-33.72-147.76S481.72,1090.18,481.72,1090.18Z" transform="translate(13.47)" fill="#a2dff2"/><path d="M481.72,1090.18,497,1052.69s48.57,32.09,68,47.24,31.34,18.71,31.34,18.71,7,53.75,2.46,48.87C541.46,1106.06,481.72,1090.18,481.72,1090.18Z" transform="translate(13.47)" fill="#a2dff2"/><polygon points="431.78 2008.93 444.27 2008.93 533.84 1635.22 506.36 1635.22 431.78 2008.93" fill="#2e5b9a"/><polygon points="805.95 2008.93 793.46 2008.93 690.68 1622.01 718.16 1622.01 805.95 2008.93" fill="#2e5b9a"/><path d="M557.46,1649.22c-50,0-81.74-9-102-28.69-25.08-24.43-30.27-62.27-30.35-111.57-.15-103.65-5.89-125.08-35.07-188.37a14,14,0,1,1,25.43-11.72c30.84,66.9,37.48,91.49,37.64,200.05.08,50,6.42,76.49,21.88,91.55,15.87,15.46,44.54,21.83,93,20.62,46.77-1.16,79-7.7,104.83-13,34-6.91,58.61-11.91,87.76,2a14,14,0,1,1-12.07,25.27c-20.69-9.89-38.24-6.32-70.11.15-26.94,5.48-60.48,12.29-109.72,13.51C564.86,1649.18,561.11,1649.22,557.46,1649.22Z" transform="translate(13.47)" fill="#2e5b9a"/><path d="M1175.59,1392.73H972.68a14,14,0,1,1,0-28h194l78.23-168.37a14,14,0,1,1,25.39,11.8l-82,176.47A14,14,0,0,1,1175.59,1392.73Z" transform="translate(13.47)" fill="#3e6bab"/><path d="M487,1230.84s35.66,108.74,79.77,153.75,132.91,60.14,160.71,58.37c-22.16-8.91-64.37-34.27-81.34-101.45-11.93-47.24-6.51-72.89-33.72-147.76C592.24,1138.18,530,1108,499.27,1096.2c38.36,27.56,86.33,72.93,101.07,107.46C616.7,1242,487,1230.84,487,1230.84Z" transform="translate(13.47)" fill="#96cfe0"/><path d="M979.09,1326.27s61.5-28.07,68.18-25.4,74.87,43.85,74.87,50.67-60.16-25.42-60.16-25.42,6.68,17.82,2.67,26.37-50.26,8.54-92,5.87S979.09,1326.27,979.09,1326.27Z" transform="translate(13.47)" fill="#a86b48"/><path d="M489,1146.83c-56.69,116.19,137.77,234,253.13,244.44S994.54,1364,994.54,1364l-15.45-37.72s-231.13-30.16-237-34.39S509.74,1104.28,489,1146.83Z" transform="translate(13.47)" fill="#a2dff2"/><path d="M562.68,960.41c5.26,13.82,1.41,28.1-8.6,31.91S531.7,988,526.45,974.19s-1.41-28.1,8.6-31.91S557.43,946.59,562.68,960.41Z" transform="translate(13.47)" fill="#a86b48"/><path d="M669.66,872c15.67-6.54,33.31-13.54,27.85,13.07-2.38,11.59,0,8.32,4.16,19s-10.49,19.09-15.24,25,6.92,12.4-2.59,19.53-22-2.64-30.9,0c-26.44,7.89-23.17-12.91-38-17.23s-22.13-3.66-24.95,5.85,10.4,40.79-.89,37.82-13.84,22.28-16.87,36.55-10.78-9.85-10.28-26.16c.76-25-5.45-35.53-14.66-42.53s-13.14-70.65,31.42-73,44.85-6.68,63.86-10.7S662.52,874.93,669.66,872Z" transform="translate(13.47)" fill="#303c60"/><path d="M3168.16,1598.83c28.41,25.94,16.06,51.89-4.94,100.07S3138.51,1925,3138.51,1925l17.29-2.47s-2.47-182.85,21-232.27,33.35-74.12,54.36-58.06S3168.16,1598.83,3168.16,1598.83Z" transform="translate(13.47)" fill="#74b570"/><path d="M3152.55,1565.24c3.45-15.38,23.94-32,51.35-46.13-4.08,22.68-17.14,59.76-3.62,67.37,18.23,10.25,1.78-41.52,8.81-70a338.53,338.53,0,0,1,85.2-28c0,.11-.07.21-.12.32-16.06,40.76-37.06,56.83-28.41,63,6.5,4.65,27.7-42.44,55.68-66.58,21-1.12,38.77,1.72,49.29,10,16.25,12.86,27.15,24.27,10.81,63.44a73.51,73.51,0,0,1-35.48,12.86c-37.06,3.71-54.36,4.94-28.41,17.3,12.7,6,34-.35,51.26-4.24-5.6,10.32-12.48,22-20.85,35.31a131.57,131.57,0,0,1-17.36,22.1c-11.95,2.29-22.36,2.31-27.88,0-17.29-7.41-61.77-30.89-72.89-21-10.88,9.67,82.37,15.8,75.91,40.38-45.2,26-96.92,13.65-106.07-10.26C3187.5,1619.08,3142.16,1611.52,3152.55,1565.24Z" transform="translate(13.47)" fill="#9cd499"/><path d="M3246,1740.91c-49.42-37.07-100.07-2.48-126,37.06s-7.42,128.48-7.42,128.48,9.89,0,9.89-3.7-27.18-105,37.06-150.73c40.19-28.59,69.19-14.82,72.89-1.23s-16.06,38.3-16.06,38.3Z" transform="translate(13.47)" fill="#74b570"/><path d="M3132.33,1664.72c49.42,0,65.48,76.6,51.89,121.07S3152.1,1913,3152.1,1913l-12.36-12.35s47-116.13,35.83-168-38.3-60.54-43.24-60.54S3132.33,1664.72,3132.33,1664.72Z" transform="translate(13.47)" fill="#9cd499"/><path d="M3173.78,1786.14a35.78,35.78,0,0,1,13-10.94,97,97,0,0,1-2.57,10.59c-6.19,20.27-13.41,48.48-19.43,73.19-.55-3.16-1.39-8-2.7-15.56-.3-1.78-.54-3.71-.71-5.75A481.61,481.61,0,0,0,3173.78,1786.14Z" transform="translate(13.47)" fill="#74b570"/><path d="M3187.29,1786.51c93.89-39.54,44.42-93.79,127.2-58,5.83,2.52,12.94,8.89,20.05,17.66a61.62,61.62,0,0,1-26.23,2.11c-24.71-3.71-16.06,16.06,24.71,21a91.9,91.9,0,0,1,19.11,4c19.42,37.31,28.17,86.39-12.93,103.45-8.1,3.37-18.11,5.29-29.25,6-12.69-10.08,3.09-68.42-16.46-60.37-18.78,7.74,5.88,50,2.5,60.66-18.53-.33-39-3.36-58.65-8.22-7.76-4.35-13.68-10.18-15.51-17.84-6.18-26,34.59-42,35.83-64.25,1.14-20.44-14.94,45-57.54,54.61C3161.6,1829.41,3143.4,1805,3187.29,1786.51Z" transform="translate(13.47)" fill="#9cd499"/><path d="M3120.39,1716.61c9.88-21-16.06-25.95-14.83-9.89,1.1,14.24,1.22,48.83-13.38,58.25-25.17-2.73-59.42-12.87-85.31-28.33a10.54,10.54,0,0,1,1.09-6.44c11.12-22.24,82.78-40.77,60.54-48.18-17.71-5.91-48.75,28.94-73.75,46.49-15-11.4-25.09-25-25.09-40.14,0-20.53,24.94-43.76,57.19-54.87,14.52,1.47,28,9.4,49.06,21.34,31.11,17.63,23.92-10.88-5.5-27.79,25.4,1.31,50.71,12.16,69.39,38.08,0,0-1.77,11.08,9.95,28.22,32,46.75-4.92,74-49.05,72.27C3103.19,1753.3,3113.56,1731.12,3120.39,1716.61Z" transform="translate(13.47)" fill="#9cd499"/><path d="M3243,1738.81c24.16,18.67,51,40.5,83.94,55.32s26.36,63.15,26.36,63.15,4.94-41.73-22.51-56-45.58-31.3-66.45-34.59-32.39-6.59-32.39-6.59,6.59-13.18,2.74-18.12S3243,1738.81,3243,1738.81Z" transform="translate(13.47)" fill="#74b570"/><path d="M3362.11,1519.58c-88.41,23.61-153.21,80.17-165.29,93.9s-12.08,17.57-12.08,17.57l9.34,17.57,4.39-2.2s-7.14-14.82,11.53-34c32.2-33.15,71.39-59.31,98.29-70.84S3362.11,1519.58,3362.11,1519.58Z" transform="translate(13.47)" fill="#74b570"/><path d="M3118.07,1887.84h33.78a43.49,43.49,0,0,1,43.49,43.49v77.6a0,0,0,0,1,0,0H3074.59a0,0,0,0,1,0,0v-77.6A43.49,43.49,0,0,1,3118.07,1887.84Z" transform="translate(6283.39 3896.77) rotate(180)" fill="#75a1de"/><rect x="3088.05" y="1901.71" width="120.75" height="8.5" fill="#fff"/><rect x="3088.05" y="1917.21" width="120.75" height="5" fill="#fff"/><path d="M1685.57,267.29a167,167,0,0,0-164.84-167c-91.65-1.17-167.72,72.64-169.17,164.29a166.44,166.44,0,0,0,44.18,115.9,75.78,75.78,0,0,1,20.07,51.36v74.87a88.32,88.32,0,0,0,88.06,88.06h29.36c48.44,0,88.07-39.63,88.07-88.06V431.85a76.59,76.59,0,0,1,20.37-51.71A166.4,166.4,0,0,0,1685.57,267.29Z" transform="translate(13.47)" fill="#f5dc95"/><path d="M1662.24,278.5a143.68,143.68,0,0,0-141.81-143.67c-78.85-1-144.29,62.49-145.54,141.34a143.16,143.16,0,0,0,38,99.7,65.2,65.2,0,0,1,17.26,44.19v64.41a76,76,0,0,0,75.76,75.76h25.26a76,76,0,0,0,75.76-75.76v-64.4a65.88,65.88,0,0,1,17.53-44.48A143.18,143.18,0,0,0,1662.24,278.5Z" transform="translate(13.47)" fill="#fff" opacity="0.5"/><path d="M1543.24,461.86h-55a5,5,0,0,1-5-4.54c-.1-1.07-10.36-107.24-57.84-137a5,5,0,1,1,5.3-8.47c46.32,29,59.48,118.47,62,140H1538a164.09,164.09,0,0,1,4.5-40.09c5.69-24.66,19.64-61.86,53.8-99a5,5,0,1,1,7.36,6.77c-62.42,68-55.48,136.13-55.4,136.81a5,5,0,0,1-5,5.56Z" transform="translate(13.47)" fill="#94bdf2"/><path d="M1584.41,327.18c-18.57,0-43.88-13.19-70.55-27.49-34.43,18.34-66.59,34.79-84.6,23.88-8.46-5.13-12.5-15.17-12.36-30.69.13-14.61,4.32-24.46,12.45-29.28,18-10.68,50.26,6.36,84.53,24.75,34.95-18.63,67.85-36,85.82-25.05,8.07,4.92,12.07,14.9,11.88,29.69-.2,15.38-4.62,25.72-13.15,30.75A27.08,27.08,0,0,1,1584.41,327.18ZM1524.49,294c27.46,14.6,56.19,28.57,68.87,21.09,5.3-3.12,8.07-10.62,8.22-22.26.14-11-2.24-18.07-7.08-21C1582.25,264.38,1552.47,279.19,1524.49,294Zm-81.63-23.78a16.35,16.35,0,0,0-8.42,2c-4.91,2.9-7.45,9.89-7.54,20.76-.11,11.53,2.43,18.95,7.55,22,12.33,7.48,41.15-6.42,68.8-21C1480.9,282.08,1457.44,270.25,1442.86,270.25Z" transform="translate(13.47)" fill="#94bdf2"/><rect x="1497.2" y="574.53" width="73" height="44" rx="20.5" fill="#0468ad"/><path d="M1411,452.86v53c0,50.73,41.51,92.23,92.23,92.23h30.75c50.72,0,92.22-41.5,92.22-92.23v-53Z" transform="translate(13.47)" fill="#027dc1"/><rect x="1416.04" y="444.2" width="234.67" height="25.33" rx="12" fill="#2196f3"/><path d="M1626,488.52l-209.08,25.83a12,12,0,0,1-13.38-10.44l-.17-1.32a12,12,0,0,1,10.44-13.38l209.08-25.83a12,12,0,0,1,13.38,10.44l.17,1.32A12,12,0,0,1,1626,488.52Z" transform="translate(13.47)" fill="#2196f3"/><path d="M1626,525.11l-209.08,25.83a12,12,0,0,1-13.38-10.44l-.17-1.32a12,12,0,0,1,10.44-13.38L1622.89,500a12,12,0,0,1,13.38,10.44l.17,1.32A12,12,0,0,1,1626,525.11Z" transform="translate(13.47)" fill="#2196f3"/><path d="M1613.09,564.27,1439,585.78a11,11,0,0,1-12.28-9.58l-.4-3.28a11,11,0,0,1,9.58-12.28L1610,539.13a11,11,0,0,1,12.28,9.58l.4,3.28A11,11,0,0,1,1613.09,564.27Z" transform="translate(13.47)" fill="#2196f3"/><path d="M3120.74,611.75H3233c0,61.57-50.66,112.23-112.23,112.23S3008.5,673.32,3008.5,611.75s50.66-112.24,112.24-112.24Z" transform="translate(13.47)" fill="#2196f3"/><path d="M3251.77,596a112.24,112.24,0,0,0-112.24-112.24V596Z" transform="translate(13.47)" fill="#f39892"/><path d="M3027.3,596a112.24,112.24,0,0,0,112.23,112.24C3078,708.27,3027.3,657.6,3027.3,596Z" transform="translate(13.47)" fill="#f39892"/><path d="M3139.53,483.79A112.24,112.24,0,0,0,3027.3,596C3027.3,534.46,3078,483.79,3139.53,483.79Z" transform="translate(13.47)" fill="#f39892"/><path d="M3139.53,708.27A112.24,112.24,0,0,0,3251.77,596C3251.77,657.6,3201.1,708.27,3139.53,708.27Z" transform="translate(13.47)" fill="#f39892"/><rect x="937.59" y="537.5" width="24.51" height="70.93" fill="#2196f3"/><rect x="1251.78" y="560.58" width="24.51" height="47.85" fill="#2196f3"/><rect x="1041.47" y="442.48" width="24.51" height="165.95" fill="#2196f3"/><rect x="1093.41" y="533.84" width="24.51" height="74.59" fill="#2196f3"/><rect x="1145.36" y="512.73" width="24.51" height="95.71" fill="#2196f3"/><rect x="989.53" y="490.67" width="24.51" height="117.76" fill="#2196f3"/><rect x="1197.47" y="463.39" width="24.51" height="145.04" fill="#2196f3"/><g clip-path="url(#clip-path)"><path d="M270.79,402.77,142.24,324.15,119,473A150.86,150.86,0,0,0,270.79,402.77Z" transform="translate(13.47)" fill="aqua"/><path d="M270.93,402.59l.78-1.32A150.66,150.66,0,0,0,275,252.94c-45.49,23.83-18.4,9.35-132.8,71.21C271,402.9,251,390.75,270.93,402.59Z" transform="translate(13.47)" fill="#00b050"/><path d="M.92,272.08l141.32,52.07L274.8,252.47C212.79,137.8,45.88,151.55.92,272.08Z" transform="translate(13.47)" fill="#2196f3"/><path d="M119,473l23.26-148.89L.92,272.08C-32.68,362.17,27,458.53,119,473Z" transform="translate(13.47)" fill="#f15a24"/><path d="M-8.33,296.73a14.42,14.42,0,0,1,7.14,1.85A144.94,144.94,0,0,1,4,278.53L80.68,306.8s0-.05,0-.07A13.64,13.64,0,0,1,84,297.37l-7.69-2.83L7.44,269.16a147.61,147.61,0,0,1,22.19-37.33A14.94,14.94,0,0,1,22,225.4,157.87,157.87,0,0,0-1.94,265.7l-.08,0-1.74,4.67L-5.52,275l.09,0A154.59,154.59,0,0,0-11.06,297,13.9,13.9,0,0,1-8.33,296.73Z" transform="translate(13.47)" fill="#fff"/><path d="M281.5,254.54l.08,0-2.38-4.4-.15-.26-1.94-3.62-.08,0c-15-26.06-36.39-46.85-62.11-60.25A158.08,158.08,0,0,0,42.24,204.85a15.47,15.47,0,0,1,6.36,7.74A146,146,0,0,1,132.78,179c55.77-3.88,107.11,23.42,135.17,71.5L228.8,271.66c-8.08,4.35-19.38,10.46-38.3,20.7l-46.9,25.37-1.21.66L138.45,316l-.21,1.37-27.57-10.16a13.84,13.84,0,0,1-3.69,9.3l29.68,10.94-21.83,139.8a145.86,145.86,0,0,1-98.45-70.17A144.52,144.52,0,0,1-3.47,325.84a14.17,14.17,0,0,1-4.86.89,14.48,14.48,0,0,1-5.14-.94A154.53,154.53,0,0,0,7.74,402.1a155.82,155.82,0,0,0,105.55,75l0,.09,4.93.78,5,.78v-.09a155.85,155.85,0,0,0,149.36-69.32l.1.06,1-1.6s1.59-2.62,1.59-2.62c.25-.4.54-.9.71-1.18l.1-.18.08-.13,1.59-2.59-.08,0A156.29,156.29,0,0,0,281.5,254.54ZM124.71,468.79,146,332.33l55.47,33.92c22.36,13.68,35.15,21.51,43.2,26.42l19.15,11.71A145.09,145.09,0,0,1,124.71,468.79Zm144.44-73.07-.95-.56c-5.25-3.11-7.53-4.46-18-10.85l-97.94-59.89,81.3-44c11.94-6.43,16.83-9,29-15.33l10.39-5.43A146.26,146.26,0,0,1,269.15,395.72Z" transform="translate(13.47)" fill="#e7f3fe"/></g><rect x="557.34" y="156.97" width="430.9" height="194.73" rx="8.17" fill="#2196f3"/><rect x="569.12" y="208.14" width="407.34" height="134.43" rx="6.6" fill="#fff"/><rect x="575.1" y="171.31" width="16.88" height="15.19" rx="3.66" fill="#fff"/><rect x="605.79" y="171.31" width="16.88" height="15.19" rx="3.66" fill="#fff"/><rect x="636.48" y="171.31" width="16.88" height="15.19" rx="3.66" fill="#fff"/><path d="M946.42,237.6H731a6.45,6.45,0,1,1,0-12.89H946.42a6.45,6.45,0,0,1,0,12.89Z" transform="translate(13.47)" fill="#9ec8ff"/><path d="M784.36,337H568.9a6.45,6.45,0,1,1,0-12.89H784.36a6.45,6.45,0,1,1,0,12.89Z" transform="translate(13.47)" fill="#9ec8ff"/><rect x="813.02" y="324.15" width="26.7" height="12.89" rx="2.2" fill="#9ec8ff"/><rect x="846.63" y="324.15" width="26.7" height="12.89" rx="2.2" fill="#9ec8ff"/><path d="M948.49,265.68H591.69a4.37,4.37,0,1,1,0-8.74h356.8a4.37,4.37,0,0,1,0,8.74Z" transform="translate(13.47)" fill="#9ec8ff"/><path d="M948.49,284.56H591.69a4.38,4.38,0,1,1,0-8.75h356.8a4.38,4.38,0,0,1,0,8.75Z" transform="translate(13.47)" fill="#9ec8ff"/><path d="M2024.91,227.71h-184V120.47h138.37l45.63,45.62Z" transform="translate(13.47)" fill="#ffb8b3"/><polygon points="1989.37 120.47 1989.37 177.71 2038.37 177.71 2038.37 166.71 1992.44 120.78 1989.37 120.47" fill="#f39892"/><polygon points="1992.75 120.47 1992.75 166.71 2038.37 166.71 1992.75 120.47" fill="#ffb8b3"/><path d="M1943.66,160.71h-82a3.25,3.25,0,0,1,0-6.5h82a3.25,3.25,0,0,1,0,6.5Z" transform="translate(13.47)" fill="#fff"/><path d="M1943.66,177.34h-82a3.25,3.25,0,0,1,0-6.5h82a3.25,3.25,0,0,1,0,6.5Z" transform="translate(13.47)" fill="#fff"/><path d="M1943.66,194.84h-82a3.25,3.25,0,0,1,0-6.5h82a3.25,3.25,0,0,1,0,6.5Z" transform="translate(13.47)" fill="#fff"/><circle cx="1940.87" cy="128.71" r="5.5" fill="#3e6bab"/><rect x="1104.46" y="113.34" width="116.94" height="141" transform="translate(69.46 -217.27) rotate(10.94)" fill="#fae8b6"/><path d="M1209.42,185.56l-60.87-11.76a3,3,0,1,1,1.14-5.89l60.87,11.76a3,3,0,1,1-1.14,5.89Z" transform="translate(13.47)" fill="#9ec8ff"/><path d="M1206.48,200.78,1145.61,189a3,3,0,1,1,1.14-5.89l60.87,11.76a3,3,0,1,1-1.14,5.89Z" transform="translate(13.47)" fill="#9ec8ff"/><path d="M1203.46,216.42l-60.87-11.77a3,3,0,1,1,1.14-5.89l60.87,11.76a3,3,0,0,1-1.14,5.9Z" transform="translate(13.47)" fill="#9ec8ff"/><path d="M1168.22,122.09a5,5,0,1,1-4-5.86A5,5,0,0,1,1168.22,122.09Z" transform="translate(13.47)" fill="#3e6bab"/><path d="M2109.83,377.76,1932.13,359l11.73-111.38,140.9,14.84,32.92,40.68Z" transform="translate(13.47)" fill="#2196f3"/><polygon points="2095.7 270.45 1963.43 256.51 1953.53 350.49 2117.97 367.82 2123.77 312.79 2091.6 309.4 2095.7 270.45" fill="#fff"/><path d="M2064.3,304.59l-85.68-9a3.59,3.59,0,0,1,.76-7.14l85.68,9a3.59,3.59,0,0,1-.76,7.14Z" transform="translate(13.47)" fill="#2196f3"/><path d="M2062.32,323.47l-85.68-9a3.59,3.59,0,1,1,.75-7.14l85.68,9a3.59,3.59,0,0,1-.75,7.14Z" transform="translate(13.47)" fill="#2196f3"/><path d="M2060.24,343.19l-85.68-9a3.59,3.59,0,0,1,.75-7.14l85.68,9a3.59,3.59,0,0,1-.75,7.14Z" transform="translate(13.47)" fill="#2196f3"/><circle cx="2023.82" cy="273.38" r="5.5" fill="#3e6bab"/><path d="M2992.73,186.5a61.35,61.35,0,1,1-61.35-61.35A61.35,61.35,0,0,1,2992.73,186.5Z" transform="translate(13.47)" fill="#00b050"/><path d="M2925.29,207.5h-.11a3,3,0,0,1-2.14-1l-16.66-18.94a3,3,0,0,1,4.5-4l14.57,16.56,33.34-32.63a3,3,0,1,1,4.2,4.29l-35.6,34.84A3,3,0,0,1,2925.29,207.5Z" transform="translate(13.47)" fill="#fff"/><rect x="150.71" y="596.66" width="386.67" height="159.34" rx="16.48" transform="translate(701.55 1352.66) rotate(180)" fill="#2196f3"/><path d="M490.68,732v87.91L389.37,718.57S488.61,732,490.68,732Z" transform="translate(13.47)" fill="#2196f3"/><rect x="170.71" y="612.46" width="346.67" height="127.74" rx="13.97" transform="translate(701.55 1352.66) rotate(180)" fill="#fff"/><path d="M328.59,644.05H485.18a6.87,6.87,0,0,0,0-13.74H328.59a6.87,6.87,0,1,0,0,13.74Z" transform="translate(13.47)" fill="#9ec8ff"/><rect x="193.98" y="662.59" width="298.07" height="7.72" rx="3.82" transform="translate(699.49 1332.9) rotate(180)" fill="#9ec8ff"/><rect x="193.98" y="677.54" width="298.07" height="7.72" rx="3.82" transform="translate(699.49 1362.8) rotate(180)" fill="#9ec8ff"/><rect x="2776.08" y="615.23" width="32.71" height="29.44" rx="7.09" transform="translate(5598.34 1259.9) rotate(180)" fill="#9ec8ff"/><rect x="2716.6" y="615.23" width="32.71" height="29.44" rx="7.09" transform="translate(5479.38 1259.9) rotate(180)" fill="#9ec8ff"/><rect x="2657.12" y="615.23" width="32.71" height="29.44" rx="7.09" transform="translate(5360.42 1259.9) rotate(180)" fill="#9ec8ff"/></g></g></svg>