<svg xmlns="http://www.w3.org/2000/svg" viewBox="0 0 1652.36 1337.25"><g id="Layer_2" data-name="Layer 2"><g id="OBJECTS"><circle cx="1569.87" cy="887.68" r="82.5" transform="translate(-167.88 1370.06) rotate(-45)" fill="#e5e5ff" opacity="0.4"/><circle cx="212.34" cy="311.85" r="125.85" transform="translate(-158.32 241.49) rotate(-45)" fill="#e5e5ff" opacity="0.4"/><circle cx="647.65" cy="125.25" r="65.61" fill="#e5e5ff" opacity="0.4"/><path d="M553.73,157.68a77.71,77.71,0,0,1-12.18-1l.39-2.47a75.16,75.16,0,0,0,11.79.92h.46v2.5Zm13.11-1.1-.41-2.47a76,76,0,0,0,11.9-3l.81,2.37A80.9,80.9,0,0,1,566.84,156.58Zm-37.62-2.81a80,80,0,0,1-11.71-4.9l1.15-2.22A76.39,76.39,0,0,0,530,151.39Zm61.56-5.34-1.17-2.21A77,77,0,0,0,600,139.61l1.52,2A80.53,80.53,0,0,1,590.78,148.43Zm-84-6.25a79.89,79.89,0,0,1-9.56-8.34l1.79-1.75a75.63,75.63,0,0,0,9.26,8.07Zm104.19-9.05-1.82-1.72a76.23,76.23,0,0,0,7.71-9.56l2.07,1.41A78.83,78.83,0,0,1,610.93,133.13Zm-121.84-9.06a78.72,78.72,0,0,1-6.42-10.94l2.25-1.09a76.92,76.92,0,0,0,6.21,10.6Zm136.08-11.83-2.26-1.06a78.48,78.48,0,0,0,4.31-11.51l2.4.69A80.12,80.12,0,0,1,625.17,112.24ZM478.08,101.3a79.93,79.93,0,0,1-2.65-12.41l2.48-.32a76,76,0,0,0,2.57,12Zm154-13.38-2.48-.29a75.76,75.76,0,0,0,.52-8.9c0-1.12,0-2.26-.07-3.38l2.5-.11c0,1.16.07,2.33.07,3.49A78.42,78.42,0,0,1,632.11,87.92ZM477.31,76.3l-2.5-.08a78.68,78.68,0,0,1,1.44-12.61l2.45.48A77.26,77.26,0,0,0,477.31,76.3ZM628.54,63.16a76.72,76.72,0,0,0-3.47-11.78l2.33-.9A79.58,79.58,0,0,1,631,62.65ZM482,52.27l-2.35-.87A80.08,80.08,0,0,1,485,39.89l2.18,1.23A76.17,76.17,0,0,0,482,52.27ZM624.84,50.8a76.79,76.79,0,0,0-5.39-11l2.15-1.27a79.09,79.09,0,0,1,5.57,11.4ZM494.07,30.94l-1.95-1.56a78.33,78.33,0,0,1,8.7-9.23L502.49,22A77.39,77.39,0,0,0,494.07,30.94Zm118.3-1.22A76.5,76.5,0,0,0,603.76,21l1.63-1.89a78.33,78.33,0,0,1,8.9,9ZM512.24,14.54l-1.35-2.11a80,80,0,0,1,11.18-6l1,2.3A76.55,76.55,0,0,0,512.24,14.54Zm81.61-.83a76.13,76.13,0,0,0-10.94-5.59l1-2.31a79.05,79.05,0,0,1,11.3,5.77Zm-59.16-9-.63-2.42A78.22,78.22,0,0,1,546.56.13l.23,2.49A76.58,76.58,0,0,0,534.69,4.72Zm36.53-.37a76.88,76.88,0,0,0-12.15-1.86L559.25,0a78.18,78.18,0,0,1,12.54,1.92Z" fill="#2196f3"/><path d="M1341.33,1031.38l0-2.5c4.14-.07,8.33-.24,12.43-.5l.16,2.49C1349.73,1031.14,1345.51,1031.31,1341.33,1031.38Zm-12.56-.07c-4.16-.12-8.38-.34-12.53-.65l.18-2.5c4.12.31,8.3.53,12.42.65Zm37.6-1.53-.27-2.48c4.1-.46,8.25-1,12.32-1.67l.39,2.47C1374.71,1028.75,1370.52,1029.32,1366.37,1029.78Zm-62.63-.36c-4.12-.51-8.3-1.12-12.42-1.83l.43-2.46c4.07.7,8.21,1.3,12.3,1.81Zm87.42-3.58-.51-2.45c4.06-.84,8.13-1.79,12.12-2.82l.62,2.42C1399.37,1024,1395.25,1025,1391.16,1025.84Zm-112.16-.66c-4.07-.89-8.17-1.9-12.19-3l.65-2.42c4,1.08,8,2.07,12.08,3Zm136.47-5.61-.74-2.39c4-1.22,7.92-2.55,11.79-3.95l.85,2.35C1423.46,1017,1419.46,1018.34,1415.47,1019.57Zm-160.7-.94c-4-1.28-8-2.67-11.88-4.14l.88-2.34c3.88,1.46,7.84,2.84,11.77,4.1ZM1439,1011l-1-2.3c3.79-1.58,7.61-3.28,11.34-5l1.07,2.26C1446.72,1007.74,1442.87,1009.45,1439,1011Zm-207.82-1.25c-3.84-1.65-7.68-3.42-11.43-5.25l1.09-2.24c3.72,1.81,7.53,3.56,11.33,5.19Zm230.47-9.45-1.17-2.21c3.63-1.93,7.28-4,10.82-6.09l1.28,2.15C1469,996.32,1465.36,998.38,1461.69,1000.34Zm-253.07-1.58c-3.65-2-7.31-4.12-10.88-6.3l1.31-2.13c3.53,2.16,7.16,4.26,10.77,6.24Zm274.63-11.22-1.38-2.09c3.45-2.28,6.89-4.66,10.21-7.08l1.47,2C1490.2,982.83,1486.73,985.24,1483.25,987.54Zm-296.07-1.88c-3.45-2.33-6.89-4.79-10.24-7.29l1.5-2c3.32,2.48,6.73,4.91,10.14,7.22Zm316.34-12.9-1.57-2c3.22-2.58,6.42-5.27,9.51-8l1.65,1.88C1510,967.43,1506.76,970.16,1503.52,972.76Zm-336.45-2.15c-3.22-2.66-6.42-5.42-9.5-8.21l1.68-1.86c3,2.77,6.22,5.51,9.41,8.14Zm355.26-14.46-1.74-1.79c3-2.88,5.89-5.86,8.72-8.87l1.82,1.71C1528.28,950.24,1525.32,953.25,1522.33,956.15Zm-373.87-2.4c-3-3-5.88-6-8.69-9.06l1.85-1.69c2.78,3,5.67,6.06,8.61,9Zm391-15.91-1.9-1.62c2.68-3.15,5.33-6.39,7.85-9.65l2,1.54C1544.89,931.39,1542.22,934.67,1539.51,937.84Zm-408-2.61c-2.67-3.2-5.29-6.51-7.8-9.82l2-1.51c2.48,3.28,5.08,6.56,7.72,9.73ZM1554.91,918l-2.05-1.44c2.38-3.38,4.71-6.86,6.92-10.34l2.11,1.34C1559.66,911.07,1557.31,914.59,1554.91,918Zm-438.52-2.78c-2.35-3.43-4.65-7-6.84-10.51l2.13-1.31c2.17,3.51,4.45,7,6.78,10.41Zm452-18.42-2.17-1.24c2-3.59,4-7.27,5.92-11l2.23,1.14C1572.46,889.46,1570.45,893.18,1568.38,896.8Zm-465.17-2.9c-2-3.65-4-7.38-5.81-11.11l2.24-1.1c1.82,3.69,3.76,7.39,5.76,11Zm476.6-19.5-2.28-1c1.71-3.78,3.34-7.64,4.86-11.47l2.32.92C1583.18,866.69,1581.53,870.58,1579.81,874.4Zm-487.7-3c-1.67-3.82-3.27-7.72-4.75-11.59l2.34-.9c1.46,3.84,3,7.71,4.7,11.48Zm497-20.43-2.36-.81c1.33-3.9,2.59-7.89,3.74-11.86l2.4.7C1591.68,843,1590.41,847.07,1589.06,851Zm-505.9-3c-1.3-4-2.53-8-3.63-12l2.41-.67c1.09,4,2.3,8,3.6,11.9Zm512.89-21.12-2.43-.58c1-4,1.83-8.1,2.6-12.16l2.46.46C1597.9,818.72,1597,822.86,1596.05,826.9Zm-519.58-3.08c-.92-4.05-1.76-8.19-2.49-12.3l2.47-.44c.72,4.08,1.55,8.18,2.45,12.19Zm524.25-21.58-2.48-.35c.58-4.08,1.06-8.23,1.45-12.35l2.49.23C1601.79,793.93,1601.3,798.12,1600.72,802.24Zm-528.63-3.13c-.53-4.12-1-8.32-1.31-12.49l2.49-.2c.33,4.12.77,8.29,1.3,12.37Zm531-21.86-2.5-.12c.19-4.11.29-8.29.29-12.43h2.5C1603.34,768.88,1603.24,773.1,1603.05,777.25Zm-533-3.16c-.11-3.1-.16-6.26-.16-9.39,0-1.06,0-2.11,0-3.16l2.5,0c0,1,0,2.08,0,3.13,0,3.1,0,6.23.16,9.3Zm530.72-15.54c-.09-4.13-.29-8.31-.57-12.42l2.49-.18c.29,4.15.48,8.37.58,12.55Zm-527.93-9.41-2.5-.15c.25-4.17.59-8.38,1-12.51l2.48.26C1073.42,740.83,1073.08,745,1072.84,749.14Zm526.21-15.39c-.48-4.09-1.06-8.24-1.73-12.32l2.46-.4c.68,4.12,1.27,8.3,1.75,12.43Zm-523.61-9.34L1073,724c.63-4.12,1.37-8.28,2.19-12.36l2.45.49C1076.8,716.2,1076.07,720.32,1075.44,724.41ZM1595,709.21c-.86-4-1.83-8.09-2.88-12.09l2.42-.64c1.06,4,2,8.14,2.91,12.21ZM1080.36,700l-2.43-.61c1-4,2.15-8.12,3.36-12.1l2.39.72C1082.48,692,1081.37,696,1080.36,700Zm508.3-14.87c-1.24-3.94-2.59-7.9-4-11.77l2.35-.86c1.44,3.91,2.8,7.9,4.06,11.88Zm-501.09-9-2.35-.84c1.4-3.94,2.91-7.89,4.49-11.75l2.31.94C1090.46,668.39,1089,672.31,1087.57,676.21Zm492.51-14.34c-1.6-3.79-3.31-7.59-5.1-11.32l2.26-1.08c1.8,3.76,3.53,7.6,5.15,11.42ZM1097,653.15l-2.27-1.06c1.76-3.77,3.64-7.56,5.59-11.26l2.21,1.16C1100.62,645.66,1098.76,649.41,1097,653.15Zm472.33-13.66c-1.95-3.62-4-7.25-6.15-10.79l2.14-1.29c2.15,3.58,4.24,7.24,6.21,10.89ZM1108.6,631.1l-2.15-1.26c2.11-3.6,4.33-7.19,6.61-10.69l2.1,1.37C1112.9,624,1110.69,627.54,1108.6,631.1Zm448-12.89c-2.29-3.43-4.69-6.85-7.14-10.17l2-1.49c2.48,3.36,4.9,6.81,7.21,10.27Zm-434.35-8-2-1.47c2.44-3.37,5-6.74,7.59-10l2,1.56C1127.14,603.58,1124.61,606.91,1122.2,610.26Zm419.6-12c-2.6-3.2-5.31-6.39-8.06-9.46l1.86-1.67c2.78,3.11,5.52,6.32,8.14,9.55Zm-404.11-7.43-1.88-1.64c2.75-3.14,5.6-6.26,8.48-9.26l1.81,1.74C1143.24,584.59,1140.41,587.67,1137.69,590.78Zm387.55-11.11c-2.9-2.95-5.9-5.87-8.92-8.67l1.7-1.84c3,2.83,6.08,5.78,9,8.76Zm-370.32-6.82-1.71-1.81c3-2.87,6.15-5.7,9.31-8.42l1.63,1.9C1161,567.21,1157.92,570,1154.92,572.85ZM1507,562.75c-3.15-2.66-6.41-5.29-9.69-7.81l1.52-2c3.32,2.54,6.61,5.2,9.78,7.88Zm-333.26-6.13-1.54-2c3.27-2.56,6.66-5.09,10-7.5l1.45,2C1180.35,551.57,1177,554.08,1173.75,556.62Zm313.52-9c-3.4-2.36-6.89-4.67-10.39-6.86l1.33-2.12c3.53,2.21,7.06,4.54,10.49,6.93ZM1194,542.23l-1.35-2.11c3.5-2.25,7.11-4.44,10.71-6.52l1.25,2.16C1201,537.82,1197.47,540,1194,542.23Zm272.18-7.86c-3.59-2-7.29-4-11-5.86l1.13-2.23c3.73,1.87,7.46,3.86,11.09,5.91ZM1215.5,529.8l-1.15-2.22c3.7-1.91,7.49-3.75,11.27-5.49l1,2.28C1222.91,526.08,1219.16,527.91,1215.5,529.8Zm228.44-6.62c-3.78-1.68-7.65-3.3-11.51-4.8l.91-2.33c3.89,1.52,7.8,3.14,11.61,4.84Zm-205.88-3.72-.93-2.32c3.87-1.55,7.83-3,11.75-4.4l.83,2.36C1245.81,516.45,1241.9,517.92,1238.06,519.46Zm182.65-5.32c-3.91-1.32-7.91-2.55-11.88-3.68l.68-2.4c4,1.13,8,2.38,12,3.71Zm-159.17-2.85-.71-2.4c4-1.18,8.07-2.28,12.12-3.27l.6,2.42C1269.53,509,1265.5,510.12,1261.54,511.29Zm135.25-3.94c-4-.93-8.11-1.78-12.17-2.53l.45-2.46c4.1.75,8.23,1.62,12.29,2.56Zm-111.1-2-.47-2.45c4.09-.8,8.25-1.51,12.37-2.11l.36,2.47C1293.87,503.88,1289.75,504.58,1285.69,505.37Zm86.64-2.5c-4.08-.56-8.24-1-12.36-1.38l.22-2.49c4.15.36,8.35.83,12.48,1.39Zm-62-1.1-.24-2.49c4.13-.41,8.35-.73,12.52-.94l.13,2.49C1318.56,501.05,1314.39,501.36,1310.29,501.77Zm37.28-1.08c-3.64-.14-7.32-.22-11-.22h-1.49V498h1.5c3.66,0,7.38.08,11.05.23Z" fill="#2196f3"/><path d="M254.51,738.93c-4.2,0-8.43-.19-12.57-.51l.19-2.5c4.09.32,8.26.49,12.39.51Zm12.58-.37-.17-2.49c4.11-.27,8.26-.69,12.34-1.25l.34,2.48C275.46,737.87,271.25,738.29,267.09,738.56ZM229.44,737c-4.14-.62-8.31-1.39-12.37-2.3l.54-2.44c4,.9,8.11,1.66,12.19,2.27ZM292,735.14l-.52-2.44c4-.85,8.08-1.86,12-3l.69,2.4C300.19,733.26,296.08,734.28,292,735.14Zm-87.11-3.62c-4-1.2-8-2.57-11.93-4.06l.9-2.33c3.85,1.46,7.8,2.81,11.75,4Zm111.28-3.33-.87-2.35c3.86-1.42,7.72-3,11.47-4.69l1,2.27C324,725.14,320.08,726.75,316.17,728.19Zm-134.81-5.64c-3.78-1.77-7.55-3.7-11.21-5.73l1.22-2.19c3.6,2,7.32,3.91,11,5.65Zm157.7-4.71-1.19-2.2c3.61-2,7.21-4.08,10.68-6.29l1.35,2.1C346.37,713.7,342.73,715.85,339.06,717.84Zm-179.68-7.55c-3.49-2.29-6.95-4.73-10.27-7.27l1.51-2c3.28,2.5,6.69,4.92,10.13,7.17Zm200.87-6-1.49-2c3.3-2.46,6.56-5.06,9.68-7.75l1.63,1.89C366.91,699.17,363.6,701.81,360.25,704.31ZM139.38,695c-3.13-2.76-6.2-5.67-9.13-8.66l1.78-1.75c2.89,2.94,5.92,5.81,9,8.54ZM379.3,687.9l-1.76-1.78c2.92-2.9,5.78-6,8.49-9l1.88,1.64C385.16,681.86,382.27,685,379.3,687.9ZM121.75,677.09c-2.7-3.19-5.33-6.51-7.8-9.87l2-1.48c2.44,3.32,5,6.59,7.7,9.73Zm274.09-8.15-2-1.51c2.49-3.29,4.88-6.71,7.12-10.17l2.09,1.36C400.78,662.13,398.36,665.6,395.84,668.94Zm-289-12.11c-2.23-3.54-4.36-7.19-6.32-10.88l2.2-1.17c1.94,3.62,4,7.23,6.23,10.71Zm302.64-9-2.19-1.2c2-3.62,3.87-7.35,5.59-11.09l2.27,1.05C413.43,640.36,411.53,644.15,409.51,647.81ZM95,634.66c-1.7-3.82-3.28-7.74-4.7-11.66l2.36-.85c1.39,3.86,3,7.73,4.62,11.49Zm325-9.72-2.34-.88c1.45-3.86,2.77-7.82,3.93-11.77l2.4.71C422.83,617,421.49,621,420,624.94ZM86.49,611c-1.13-4-2.13-8.14-3-12.23l2.45-.5c.82,4,1.81,8.08,2.93,12.05Zm340.63-10.21-2.44-.53c.87-4,1.61-8.13,2.2-12.21l2.47.35C428.76,592.56,428,596.73,427.12,600.81ZM81.44,586.38c-.54-4.14-.94-8.35-1.19-12.52l2.5-.15c.24,4.11.63,8.27,1.17,12.35Zm349.25-10.47-2.5-.17c.29-4.1.44-8.27.44-12.4h2.5C431.13,567.53,431,571.76,430.69,575.91ZM82.45,561.31l-2.5,0c0-4.19.25-8.42.59-12.57l2.49.2C82.69,553,82.5,557.18,82.45,561.31Zm346-6.29c-.19-4.13-.54-8.29-1-12.36l2.49-.3c.49,4.14.84,8.36,1,12.54ZM84.49,536.6,82,536.22c.64-4.14,1.44-8.29,2.38-12.36l2.43.56C85.91,528.43,85.12,532.53,84.49,536.6Zm341-6.2c-.78-4-1.72-8.11-2.79-12.09l2.42-.64c1.08,4,2,8.16,2.82,12.26ZM90,512.44l-2.39-.73c1.23-4,2.62-8,4.14-11.91l2.33.91C92.63,504.55,91.26,508.5,90,512.44Zm329-6c-1.36-3.88-2.87-7.77-4.49-11.55l2.29-1c1.65,3.83,3.19,7.77,4.56,11.71ZM99,489.3l-2.26-1.07c1.79-3.77,3.74-7.54,5.8-11.18l2.18,1.23C102.72,481.87,100.79,485.58,99,489.3Zm310.24-5.58c-1.9-3.66-3.95-7.29-6.1-10.79l2.13-1.31c2.18,3.56,4.26,7.24,6.19,10.95Zm-298-16-2.09-1.38c2.32-3.48,4.78-6.92,7.34-10.23l2,1.53C116,460.88,113.52,464.27,111.24,467.7Zm285.07-5.1c-2.4-3.35-4.95-6.65-7.58-9.82l1.92-1.59c2.67,3.21,5.26,6.56,7.69,9.95ZM126.4,448.07l-1.87-1.66c2.79-3.12,5.72-6.17,8.72-9.08l1.74,1.79C132,442,129.14,445,126.4,448.07Zm254.06-4.54c-2.85-3-5.84-5.88-8.9-8.64l1.68-1.85c3.1,2.8,6.13,5.75,9,8.76ZM144.19,430.81l-1.61-1.92c3.2-2.69,6.53-5.29,9.91-7.75l1.47,2C150.63,425.59,147.34,428.16,144.19,430.81Zm217.88-3.91c-3.25-2.53-6.63-5-10.05-7.29l1.4-2.07c3.46,2.33,6.89,4.82,10.19,7.39ZM164.25,416.25l-1.32-2.13c3.55-2.2,7.22-4.31,10.91-6.25l1.16,2.21C171.36,412,167.75,414.07,164.25,416.25Zm177.23-3.19c-3.57-2.05-7.27-4-11-5.78l1.08-2.26c3.77,1.82,7.52,3.79,11.15,5.87Zm-155.31-8.35-1-2.29c3.82-1.68,7.75-3.23,11.68-4.63l.84,2.36C193.81,401.52,189.94,403.06,186.17,404.71Zm133-2.41c-3.83-1.51-7.77-2.91-11.71-4.14l.75-2.39c4,1.25,8,2.67,11.88,4.21Zm-109.6-5.87-.66-2.41c4-1.11,8.14-2.08,12.24-2.9l.49,2.45C217.55,394.38,213.49,395.34,209.52,396.43Zm85.93-1.56c-4-.94-8.1-1.75-12.16-2.41l.4-2.47c4.12.67,8.27,1.49,12.34,2.45Zm-61.61-3.27-.32-2.49c4.14-.51,8.36-.89,12.54-1.11l.13,2.5C242.07,390.72,237.91,391.09,233.84,391.6Zm37.14-.67c-4.1-.36-8.26-.58-12.39-.66l.05-2.5c4.18.08,8.41.3,12.56.67Z" fill="#2196f3"/><path d="M958.65,142.4a42.19,42.19,0,1,1,42.18-42.18A42.23,42.23,0,0,1,958.65,142.4Zm0-82.49A40.31,40.31,0,1,0,999,100.22,40.36,40.36,0,0,0,958.65,59.91Z" fill="#2196f3"/><path d="M1397.55,293.84V1054a28.63,28.63,0,0,1-28.62,28.65H264.23A28.64,28.64,0,0,1,235.58,1054V293.84a28.64,28.64,0,0,1,28.65-28.65h1104.7A28.63,28.63,0,0,1,1397.55,293.84Z" fill="#fff" opacity="0.2"/><path d="M1368.93,1083.91H264.23a29.93,29.93,0,0,1-29.9-29.9V293.84a29.93,29.93,0,0,1,29.9-29.9h1104.7a29.92,29.92,0,0,1,29.87,29.9V1054A29.92,29.92,0,0,1,1368.93,1083.91ZM264.23,266.44a27.43,27.43,0,0,0-27.4,27.4V1054a27.43,27.43,0,0,0,27.4,27.4h1104.7a27.42,27.42,0,0,0,27.37-27.4V293.84a27.42,27.42,0,0,0-27.37-27.4Z" fill="#2196f3" stroke="#2196f3" stroke-miterlimit="10" stroke-width="5"/><path d="M1397.55,293.84v45.1h-1162v-45.1a28.64,28.64,0,0,1,28.65-28.65h1104.7A28.63,28.63,0,0,1,1397.55,293.84Z" fill="#fff" opacity="0.3"/><path d="M1398.8,340.19H234.33V293.84a29.93,29.93,0,0,1,29.9-29.9h1104.7a29.92,29.92,0,0,1,29.87,29.9Zm-1162-2.5H1396.3V293.84a27.42,27.42,0,0,0-27.37-27.4H264.23a27.43,27.43,0,0,0-27.4,27.4Z" fill="#2196f3" stroke="#2196f3" stroke-miterlimit="10" stroke-width="5"/><circle cx="300.09" cy="302.06" r="13.33" fill="#2196f3"/><path d="M350.93,288.73a13.33,13.33,0,1,0,13.33,13.33A13.35,13.35,0,0,0,350.93,288.73Z" fill="#2196f3"/><path d="M401.76,315.39a13.33,13.33,0,1,1,13.33-13.33A13.35,13.35,0,0,1,401.76,315.39Zm0-24.16a10.83,10.83,0,1,0,10.83,10.83A10.84,10.84,0,0,0,401.76,291.23Z" fill="#2196f3"/><path d="M729.83,316.9H482a14.84,14.84,0,0,1,0-29.68H729.83a14.84,14.84,0,1,1,0,29.68ZM482,289.72a12.34,12.34,0,0,0,0,24.68H729.83a12.34,12.34,0,1,0,0-24.68Z" fill="#2196f3"/><path d="M1045,692.69c0,119.7-97,216.75-216.73,216.75S611.49,812.39,611.49,692.69c0-112.3,85.43-204.65,194.83-215.65l7.22,71.12a145.12,145.12,0,1,0,154.23,104.2l68.72-19.85A216.12,216.12,0,0,1,1045,692.69Z" fill="#2196f3"/><circle cx="828.24" cy="692.68" r="175" fill="#fff"/><circle cx="828.24" cy="692.68" r="175" fill="#2196f3" opacity="0.5"/><ellipse cx="828.24" cy="692.68" rx="123.95" ry="123.99" fill="#fff"/><path d="M842.38,753.65V772.5H818.44v-18c-17-1-33.44-5.61-43.63-11.88l12.9-29.22a81.44,81.44,0,0,0,39.22,10.87c11.37,0,15.45-2.38,15.45-6.46,0-14.94-65.71-2.88-65.71-47.21,0-19.19,13.92-35.32,41.77-39.23V612.86h23.94V631c12.56,1.19,24.79,4.42,34.47,9.86l-12.06,29C853.07,664,842,661.1,831.68,661.1c-11.72,0-15.45,3.39-15.45,7.46,0,14.28,65.71,2.38,65.71,46.2C881.94,733.1,868.69,749.07,842.38,753.65Z" fill="#2196f3"/><path d="M1175.52,551.38l-29.86-82.49A87.74,87.74,0,1,0,1253.36,511Z" fill="#ffcaca"/><path d="M1265,479.72a87.74,87.74,0,0,0-107.71-42.08l29.87,82.49Z" fill="#2196f3"/><rect x="1092.18" y="832.46" width="207.5" height="197.5" fill="#c0e3f9"/><rect x="1124.68" y="884.96" width="116.25" height="8.34" fill="#fff"/><rect x="1124.68" y="909.96" width="116.25" height="8.34" fill="#fff"/><rect x="327.18" y="454.96" width="180.44" height="305" fill="#f9c0c0"/><rect x="354.68" y="499.13" width="118.33" height="108.33" fill="#fff"/><rect x="412.59" y="473.08" width="2.5" height="160.43" transform="translate(-273.71 484.92) rotate(-47.53)" fill="#ebebff"/><rect x="333.63" y="552.04" width="160.43" height="2.5" transform="translate(-265.03 424.73) rotate(-42.48)" fill="#ebebff"/><rect x="1.19" y="579.53" width="412.71" height="271.93" fill="#fff"/><path d="M415.1,852.65H0V578.34H415.1ZM2.39,850.27H412.71V580.73H2.39Z" fill="#2196f3"/><polyline points="44.68 785.79 71.34 735.79 126.34 787.46 163.01 680.79 231.34 755.79 276.34 737.46 358.01 630.79" fill="#fff"/><polygon points="126.9 789.7 71.68 737.82 45.78 786.38 43.57 785.21 71.01 733.76 125.79 785.23 162.51 678.39 231.68 754.31 275.56 736.43 357.02 630.03 359 631.55 277.13 738.49 231.01 757.28 230.42 756.64 163.51 683.2 126.9 789.7" fill="#2196f3"/><circle cx="71.55" cy="735.59" r="6.87" fill="red"/><circle cx="125.93" cy="786.21" r="6.87" fill="red"/><circle cx="163.43" cy="681.21" r="6.87" fill="red"/><line x1="120.05" y1="624.13" x2="295.05" y2="624.13" fill="#fff"/><rect x="120.05" y="622.88" width="175" height="2.5" fill="#2196f3"/><rect x="1128.28" y="116.89" width="471.51" height="288.31" fill="#f0fbff" stroke="#2196f3" stroke-miterlimit="10"/><path d="M1601,406.45H1127V115.64h474ZM1129.53,404h469V118.14h-469Z" fill="#e3f6ff" stroke="#2196f3" stroke-miterlimit="10" stroke-width="3"/><rect x="1187.64" y="313.43" width="27.14" height="49.84" fill="#2196f3" stroke="#2196f3" stroke-miterlimit="10"/><rect x="1241.91" y="290.66" width="27.14" height="72.61" fill="#2196f3" stroke="#2196f3" stroke-miterlimit="10"/><rect x="1296.19" y="309.28" width="27.14" height="53.99" fill="#2196f3" stroke="#2196f3" stroke-miterlimit="10"/><rect x="1350.47" y="271.28" width="27.14" height="91.98" fill="#2196f3" stroke="#2196f3" stroke-miterlimit="10"/><rect x="1404.74" y="246.98" width="27.14" height="116.29" fill="#2196f3" stroke="#2196f3" stroke-miterlimit="10"/><rect x="1459.02" y="212.28" width="27.14" height="150.99" fill="#2196f3" stroke="#2196f3" stroke-miterlimit="10"/><rect x="1513.29" y="158.83" width="27.14" height="204.44" fill="#2196f3" stroke="#2196f3" stroke-miterlimit="10"/><rect x="1187.64" y="183.09" width="21.57" height="24.42" fill="#2196f3" stroke="#2196f3" stroke-miterlimit="10"/><rect x="1242.53" y="194.39" width="146.06" height="6.26" fill="#2196f3" stroke="#2196f3" stroke-miterlimit="10"/><path d="M982.45,1236.83A211.22,211.22,0,0,1,1123,1005.1c-26.28,18.39-42.33,48.13-53.52,78.19s-18.54,61.62-32.35,90.58-35.59,56-65.78,66.84Z" fill="#2196f3"/><path d="M975.19,1237.23a485,485,0,0,0-32-164.19c-7.13-18.57-15.67-37.12-29.57-51.36s-34.11-23.63-53.7-20.15c24.4,18.26,37,48.3,44.16,77.93s9.86,60.39,19.88,89.17,29.19,56.52,57.88,66.81Z" fill="#2196f3"/><path d="M971.37,1240.91c-14-37.57-29.11-76.08-57.17-104.69s-72.49-45-109.23-29a135.62,135.62,0,0,1,75.89,47.94c13.83,17.58,23.14,38.42,37.37,55.68s35.94,31.17,57.93,27.05Z" fill="#95d1f9"/><path d="M966.91,1238.34c-5.72-41.23-11.43-83.12-5.41-124.3s25.5-82.3,60.39-105c-19.32,18.94-25.76,47.62-25.77,74.67s5.46,53.85,5.93,80.9-4.91,55.77-23.21,75.7Z" fill="#9cd2f7"/><path d="M986.21,1232.33c13.38-34.07,27.63-69.44,54.86-93.9a118.92,118.92,0,0,1,63-29.15c-16.33,13-26.56,32.12-35,51.21s-15.79,39-28.07,55.87-30.73,30.8-51.6,31.7Z" fill="#88cefc"/><polygon points="1054.12 1336 903.93 1336 880.78 1220.47 1077.27 1220.47 1054.12 1336" fill="#fff"/><path d="M1055.14,1337.25H902.91l-23.66-118H1078.8ZM905,1334.75h148.13l22.66-113H882.3Z" fill="#2196f3"/><polygon points="1322.99 1266.53 1322.99 1336 1232.89 1336 1274.14 1302.35 1276.31 1260.02 1322.99 1266.53" fill="#d1d1ff"/><rect x="1281.49" y="1298.66" width="2.5" height="23.74" transform="translate(-550.9 1336.76) rotate(-46.43)" fill="#1b1b43"/><rect x="1283.42" y="1284.96" width="30.83" height="2.5" fill="#1b1b43"/><polygon points="1428.28 1269.79 1431.54 1336 1341.44 1336 1379.43 1303.44 1379.43 1263.27 1428.28 1269.79" fill="#d1d1ff"/><rect x="1385.18" y="1300.28" width="2.5" height="18.67" transform="translate(-512.96 1481.67) rotate(-48.54)" fill="#1b1b43"/><rect x="1389.67" y="1286.21" width="30.42" height="2.5" fill="#1b1b43"/><path d="M1332.06,867.2q2.32,207.65,35,408.56h75.92c-15.79-102.41-22.93-226.76-14.1-391.63L1374,839.23Z" fill="#fe5b52"/><path d="M1272,885.51l-34.35,152.78A272.88,272.88,0,0,0,1236,1150l24.13,124.79h75.92l-23-163.83L1368,861.2Z" fill="#fe5b52"/><path d="M1337.18,1031.91c-.19-3.14-4.52-73.41-5-82.31l-19.84-7.21.86-2.35,21.45,7.79v.88c0,1.54,3.27,55,5,83Z" fill="#be443d"/><path d="M1501.55,540.59l4.06-9.69s-14.69-30.94-10-35,12.19,7.5,12.19,7.5-2.19-37.5,5-37.81c6.06-.27,5.62,10.62,6.25,26.87,0,0,3.75-5,10.65.17,3.1-5.17,9.66-1.73,11.54,1.39,2.18-2.5,11.25-1.87,10,8.75-1.59,13.48-7.82,38.44-7.82,38.44l-20,16.56Z" fill="#ffbc96"/><path d="M1340.92,670l30.41-.24c53.35-4.76,95-48.09,95-48.09l35.21-81,41.87.62-24.58,95.25a69.68,69.68,0,0,1-21.8,35.22l-87.37,75.78Z" fill="#2196f3"/><polygon points="1257.57 738.92 1272.05 885.51 1428.84 884.13 1423.42 707.46 1340.92 669.96 1283.84 694.13 1257.57 738.92" fill="#2196f3"/><path d="M1160.47,753.16a15.74,15.74,0,0,0-9.19-3.94c-17.34-1.45-71.52-5.63-71-1.43.63,5,41.88,23.75,41.88,23.75l26.46,29.78,24.24-37.16Z" fill="#ffbc96"/><path d="M1278.65,684.07a36,36,0,0,0-25.91,19.15L1206.53,794l-33.67-29.88-24.24,37.16,8.85,10c13.09,14.73,28.36,34.53,48.79,38.82,10.42,2.19,20.12-2.14,27.58-9.31a89.6,89.6,0,0,0,14.27-18.25l18.42-30.37,58.75-116.25Z" fill="#2196f3"/><rect x="1260.71" y="738.71" width="2.5" height="90.63" transform="translate(-70 125.9) rotate(-5.56)" fill="#d1d1ff"/><polygon points="1424.36 734.34 1409.67 747.46 1425.3 773.4 1424.36 734.34" fill="#1b1b43"/><path d="M1524.47,511.11c-5.9,0-6.36-7.73-6.36-18.65H1520c0,12.85,1,16.77,4.48,16.77a2.37,2.37,0,0,0,1.8-.84c1.67-1.79,2.32-6,2.52-9.73-.13-2.72-.07-5.09,0-6.07l1.87,0a52.43,52.43,0,0,1,0,5.87c.26,5.09,1.12,10.12,2.82,10.63a2.68,2.68,0,0,0,2.51-.37c2-1.46,3.16-5.58,3.75-9.26a46,46,0,0,1,.56-5.55l1.86.17a46.63,46.63,0,0,1-.47,5c-.14,3.9.31,7.68,1.88,8.34a3.09,3.09,0,0,0,3,0c2.15-1.31,2.93-5.73,3-7.32l1.86.14c0,.27-.54,6.7-3.93,8.78a4.92,4.92,0,0,1-4.66.14c-.43-.18-1.81-1-2.58-3.91a10.2,10.2,0,0,1-3.17,5,4.52,4.52,0,0,1-4.15.65c-1.65-.5-2.67-2.6-3.29-5.23a9.84,9.84,0,0,1-2,4A4.24,4.24,0,0,1,1524.47,511.11Z" fill="#d28572"/><path d="M1327.7,705.54a24.17,24.17,0,0,1-26-22.15l-.28-3.38-3.8-47.15,29.38-2.35L1345.8,629l4,50.5A24.19,24.19,0,0,1,1327.7,705.54Z" fill="#ffbc96"/><path d="M1336.35,646.41c-9.15,16.13-22.25,27.73-35,33.6l-3.8-47.15,29.38-2.35Z" fill="#1b1b43"/><path d="M1345.93,597l-5.83,49.17s-18.75,17.93-46.25,17.08c-10-.3-15.92-9.8-19.37-21.88a111,111,0,0,1-3.13-16,220.72,220.72,0,0,1-1.25-35.87l42.5-14.15Z" fill="#ffbc96"/><path d="M1339.47,617.25c-4.43-15.77-12.38-23.71-23.13-25.41-34.17,18.54-56.35,7.5-72.5-13.13,39.58,7.71,56.88-48.54,94.79-11,28.13,8.54,27.61,35.42,11.67,57.29Z" fill="#1b1b43"/><ellipse cx="1345.46" cy="621.01" rx="13.69" ry="11.87" transform="translate(478 1822.43) rotate(-78.95)" fill="#ffbc96"/><path d="M1349.84,615.91c-2,.34-3.23,1.82-4.18,3.5a18.31,18.31,0,0,0-1.91,5.68l-.74,0a7.76,7.76,0,0,1-.12-3.39,9.72,9.72,0,0,1,1.14-3.24,7.61,7.61,0,0,1,2.37-2.62,4.4,4.4,0,0,1,3.49-.7Z" fill="#1b1b43"/><path d="M1280.3,619.23c0,2.13-1,3.86-2.29,3.86s-2.29-1.73-2.29-3.86,1-3.85,2.29-3.85S1280.3,617.1,1280.3,619.23Z" fill="#1b1b43"/><path d="M1299.24,617.66c0,2.31-1.11,4.18-2.48,4.18s-2.49-1.87-2.49-4.18,1.12-4.18,2.49-4.18S1299.24,615.35,1299.24,617.66Z" fill="#1b1b43"/><path d="M1285.5,622.36a4.17,4.17,0,0,1-.64,2.09,10.65,10.65,0,0,1-1.27,1.64,7.06,7.06,0,0,0-1.91,2.78,3.2,3.2,0,0,0,.85,2.8,30.38,30.38,0,0,0,2.66,2.67l-.41.61a10.84,10.84,0,0,1-3.47-2.17,5.47,5.47,0,0,1-1.29-1.89,4.1,4.1,0,0,1-.15-2.45,5,5,0,0,1,1.11-2.07,12.27,12.27,0,0,1,1.49-1.42,6.94,6.94,0,0,0,2.31-2.7Z" fill="#1b1b43"/><path d="M1287.31,643.19a22.89,22.89,0,0,0,7.27-2.79,23.87,23.87,0,0,0,3.12-2.3c1-.85,1.94-1.78,2.93-2.73l.59.43a15,15,0,0,1-5.67,6.2,13.47,13.47,0,0,1-8.2,1.92Z" fill="#1b1b43"/><path d="M1293.75,607.31c-.54,2.82,8.32,3.73,9.92,4,1.31.23,3.19.38,3.46-1.61.34-2.47-2.34-2.73-3.86-3.06S1294.25,604.65,1293.75,607.31Z" fill="#1b1b43"/><path d="M1281.41,609.05c0,2.72-7.09,3-8.38,3.16-1.06.13-2.54.15-2.43-1.77.14-2.38,2.27-2.45,3.51-2.66S1281.45,606.47,1281.41,609.05Z" fill="#1b1b43"/><circle cx="1314.52" cy="626.05" r="9.06" fill="#fe5b52" opacity="0.2"/><path d="M1278.13,634.19a8.91,8.91,0,0,1-3.65,7.22,111,111,0,0,1-3.13-16A9.11,9.11,0,0,1,1278.13,634.19Z" fill="#fe5b52" opacity="0.2"/><rect x="458.27" y="926.2" width="173.92" height="11.71" fill="#2196f3"/><polygon points="632.18 926.21 485.3 926.21 540.93 790.59 687.8 790.59 632.18 926.21" fill="#fff"/><path d="M633,927.46H483.44l56.65-138.12H689.67ZM487.17,925H631.34l54.6-133.12H541.77Z" fill="#2196f3"/><polygon points="619.5 914.81 504.07 914.81 547.78 808.23 663.21 808.23 619.5 914.81" fill="#ddcad8"/><rect x="571.2" y="941.66" width="2.5" height="394.98" fill="#1b1b43"/><rect x="432.18" y="937.92" width="280.55" height="22.31" fill="#2177f3"/><rect x="203.28" y="1107.57" width="2.5" height="229.07" fill="#1b1b43"/><path d="M273.14,1118.19H135.92a30.06,30.06,0,0,1,29.42-23.91h78.37a30.07,30.07,0,0,1,29.43,23.91Z" fill="#d1d1ff"/><path d="M184.59,1320.28h39.87A15.68,15.68,0,0,1,240.15,1336v0a0,0,0,0,1,0,0H168.91a0,0,0,0,1,0,0v0A15.68,15.68,0,0,1,184.59,1320.28Z" fill="#d1d1ff"/><path d="M310.39,767.7c3.51,5,8.54,12.19,9.1,18.43.81,9.08-13.72,2.71-13.89,3.5Z" fill="#d28572"/><rect x="242.28" y="778.38" width="45.92" height="67.3" fill="#ffbc96"/><path d="M288.21,789.92V838c-14.47-9.09-27-22.59-37.79-38.17Z" fill="#1b1b43"/><path d="M314,771.78c-1.43,23.25-10.37,49.55-34.79,43.06C260.06,809.75,239,793.6,239,770.31s16.12-42.18,36-42.18c12.43,0,28.08,6,35.44,17.69C314.82,752.81,314.64,761.65,314,771.78Z" fill="#ffbc96"/><path d="M273.38,765c6.5-17.24,21.38-18.94,21.38-18.94s34.46,34.08,32.32-1.13c-1.69-28-29-25.34-29-25.34-13.36-17.39-34.79-10.59-42.61-.5s-5,4.28-23.44,10.84-8.57,34.53-11.85,36.55c-24.45,0-19.91,24.2-19.91,24.2l57.88,18.88,13.95-38.06Z" fill="#1b1b43"/><ellipse cx="270.77" cy="772" rx="9.98" ry="12.96" transform="translate(-349.73 238.82) rotate(-30)" fill="#ffbc96"/><path d="M272,774.48a16.08,16.08,0,0,0-2.59-4.17,8.31,8.31,0,0,0-1.87-1.36c-.71-.38-1.5-.7-2.31-1.08l.12-.65a7.35,7.35,0,0,1,2.77.36,6.22,6.22,0,0,1,2.49,1.55,6.87,6.87,0,0,1,1.52,2.47,8.55,8.55,0,0,1,.51,2.72Z" fill="#1b1b43"/><ellipse cx="249.4" cy="711.74" rx="19.45" ry="21.08" transform="translate(-33.41 12.6) rotate(-2.71)" fill="#1b1b43"/><circle cx="294.05" cy="784.96" r="8.75" fill="#fe5b52" opacity="0.2"/><path d="M328.43,1011.21,181.35,992.46l27.73-146.17a32.06,32.06,0,0,1,43.25-23.85l50.12,22.27A29.77,29.77,0,0,1,320,868.54l2.83,47.75L326,970.41Z" fill="#ffa121"/><path d="M463,906.21l38.93-11.44a9.86,9.86,0,0,1,8.25,1.24c10.66,7.08,39,27.09,31.86,35.27-3.57,4.09-36.12-5.49-36.12-5.49L458.8,939Z" fill="#ffbc96"/><path d="M326,970.41c-12.25-15.6-19.52-36.2-21.95-61.7l18.73,7.58Z" fill="#1b1b43"/><path d="M298,842.88l5.86,2.52a92.16,92.16,0,0,1,31.71,22.65l48.26,53.16,79.17-15,10.42,42.5L374,979.8a23.31,23.31,0,0,1-21.27-7.19l-71.75-78.07Z" fill="#ffa121"/><path d="M382.92,922.06c-.23-.26-23.78-25.9-44.18-48.77-20.16-22.6-50.9-33.59-51.21-33.7l.83-2.36c.32.11,31.65,11.3,52.25,34.4,20.38,22.85,43.92,48.48,44.15,48.74Z" fill="#1b1b43"/><rect x="318.05" y="890.2" width="2.5" height="95.93" transform="translate(-562.8 486.5) rotate(-44.09)" fill="#1b1b43"/><polygon points="323.1 1232.31 291.37 1294.11 371.52 1335.26 350.19 1286.48 367.59 1247.83 323.1 1232.31" fill="#d1d1ff"/><rect x="326.94" y="1288.58" width="23.74" height="2.5" transform="translate(-350.44 148.17) rotate(-16.4)" fill="#1b1b43"/><path d="M373,1272.92l-72.61-27.09,49.72-154.72c8.55-22.91,34.88-34.24,58.81-25.31h0c23.93,8.93,36.41,34.74,27.86,57.65Z" fill="#2196f3"/><polygon points="443.43 1262.46 450.51 1336 540.61 1336 499.36 1302.35 489.68 1259.96 443.43 1262.46" fill="#d1d1ff"/><rect x="476.49" y="1306.99" width="24.38" height="2.5" transform="translate(-570.88 398.5) rotate(-28.87)" fill="#1b1b43"/><path d="M508.43,1271.21l-78.75,12.5-53.93-158.57-9.82-28.93L232,1097.29a55.23,55.23,0,0,1-56.22-60.63l5.57-44.2,132.5,16.68,87.08,9.57c36.25,6.25,47.37,28.2,54.92,56.4Z" fill="#2196f3"/><path d="M375.75,1125.14l-9.82-28.93,18.12-.62C385.73,1106.49,381.4,1118.66,375.75,1125.14Z" fill="#1b1b43"/></g></g></svg>