<?xml version="1.0" encoding="iso-8859-1"?>
<!-- Generator: Adobe Illustrator 19.0.0, SVG Export Plug-In . SVG Version: 6.00 Build 0)  -->
<svg version="1.1" id="Capa_1" xmlns="http://www.w3.org/2000/svg" xmlns:xlink="http://www.w3.org/1999/xlink" x="0px" y="0px"
	 viewBox="0 0 512 512" style="enable-background:new 0 0 512 512;" xml:space="preserve">
<g>
	<path style="fill:#004A7B;" d="M451,346v90c0,8.401-6.599,15-15,15s-15-6.599-15-15v-90c0-8.401-6.599-15-15-15H105
		c-8.401,0-15,6.599-15,15v90c0,8.401-6.599,15-15,15s-15-6.599-15-15v-90c0-24.901,20.099-45,45-45h301
		C430.901,301,451,321.099,451,346z"/>
	<path style="fill:#004A7B;" d="M271,256v180c0,8.401-6.599,15-15,15s-15-6.599-15-15V256c0-8.401,6.599-15,15-15
		S271,247.599,271,256z"/>
</g>
<g>
	<path style="fill:#00345B;" d="M451,346v90c0,8.401-6.599,15-15,15s-15-6.599-15-15v-90c0-8.401-6.599-15-15-15H256v-30h150
		C430.901,301,451,321.099,451,346z"/>
	<path style="fill:#00345B;" d="M271,256v180c0,8.401-6.599,15-15,15V241C264.401,241,271,247.599,271,256z"/>
</g>
<path style="fill:#E1E4FB;" d="M421,90v136c0,24.901-20.099,45-45,45H136c-24.901,0-45-20.099-45-45V90l30-30h270L421,90z"/>
<path style="fill:#C5C9F7;" d="M376,271H256V60h135l30,30v136C421,250.901,400.901,271,376,271z"/>
<g>
	<path style="fill:#17ACE8;" d="M135,512H15c-8.291,0-15-6.709-15-15v-61c0-8.291,6.709-15,15-15h120c8.291,0,15,6.709,15,15v61
		C150,505.291,143.291,512,135,512z"/>
	<path style="fill:#17ACE8;" d="M316,421H196c-8.401,0-15,6.599-15,15v61c0,8.401,6.599,15,15,15h120c8.401,0,15-6.599,15-15v-61
		C331,427.599,324.401,421,316,421z"/>
</g>
<g>
	<path style="fill:#1689FC;" d="M497,512H376c-8.291,0-15-6.709-15-15v-61c0-8.291,6.709-15,15-15h121c8.291,0,15,6.709,15,15v61
		C512,505.291,505.291,512,497,512z"/>
	<path style="fill:#1689FC;" d="M331,436v61c0,8.401-6.599,15-15,15h-60v-91h60C324.401,421,331,427.599,331,436z"/>
</g>
<path style="fill:#FD3C65;" d="M361,30v30l-30,30H91V45c0-24.901,20.099-45,45-45h195L361,30z"/>
<polygon style="fill:#FD003A;" points="361,30 361,60 331,90 256,90 256,0 331,0 "/>
<path style="fill:#004A7B;" d="M376,0h-45v90h90V45C421,20.186,400.814,0,376,0z"/>
<g>
</g>
<g>
</g>
<g>
</g>
<g>
</g>
<g>
</g>
<g>
</g>
<g>
</g>
<g>
</g>
<g>
</g>
<g>
</g>
<g>
</g>
<g>
</g>
<g>
</g>
<g>
</g>
<g>
</g>
</svg>
