<svg height="454pt" viewBox="-1 0 453 454" width="454pt" xmlns="http://www.w3.org/2000/svg"><path d="m331.171875 3c-21.691406 0-39.277344 17.585938-39.277344 39.277344v32.378906c0 21.695312 17.585938 39.277344 39.277344 39.277344s39.277344 17.585937 39.277344 39.277344v147.578124c0 21.691407-17.585938 39.273438-39.277344 39.273438s-39.277344 17.585938-39.277344 39.277344v32.382812c0 21.691406 17.585938 39.273438 39.277344 39.273438 65.085937 0 117.851563-52.761719 117.851563-117.847656v-212.296876c-.003907-65.089843-52.765626-117.851562-117.851563-117.851562zm0 0" fill="#8ac6dd"/><path d="m331.171875 0c-23.3125 0-42.277344 18.964844-42.277344 42.277344v32.378906c0 23.3125 18.964844 42.277344 42.277344 42.277344 20.003906 0 36.277344 16.273437 36.277344 36.277344v62.507812c0 1.65625 1.34375 3 3 3s3-1.34375 3-3v-62.507812c0-23.3125-18.964844-42.277344-42.277344-42.277344-20.003906 0-36.277344-16.273438-36.277344-36.277344v-32.378906c0-20.003906 16.273438-36.277344 36.277344-36.277344 63.328125 0 114.847656 51.523438 114.847656 114.851562v212.296876c0 63.328124-51.523437 114.851562-114.847656 114.851562-20.003906 0-36.277344-16.273438-36.277344-36.277344v-32.378906c0-20.003906 16.273438-36.277344 36.277344-36.277344 23.308594 0 42.277344-18.964844 42.277344-42.277344v-54.507812c0-1.65625-1.34375-3-3-3s-3 1.34375-3 3v54.507812c0 20.003907-16.273438 36.277344-36.277344 36.277344-23.3125 0-42.277344 18.964844-42.277344 42.277344v32.378906c0 23.3125 18.964844 42.277344 42.277344 42.277344 66.632813 0 120.847656-54.210938 120.847656-120.851562v-212.296876c0-66.640624-54.214843-120.851562-120.847656-120.851562zm0 0" fill="#3a312a"/><path d="m331.171875 3c-21.691406 0-39.277344 17.585938-39.277344 39.277344v32.378906c0 21.695312 17.585938 39.277344 39.277344 39.277344 4.148437 0 8.136719.65625 11.886719 1.851562v-112.160156c-3.910156-.398438-7.871094-.625-11.886719-.625zm0 0" fill="#d7e057"/><path d="m343.359375.636719c-4.164063-.421875-8.265625-.636719-12.1875-.636719-23.3125 0-42.277344 18.964844-42.277344 42.277344v32.378906c0 23.3125 18.964844 42.277344 42.277344 42.277344 3.726563 0 7.421875.578125 10.972656 1.707031.296875.09375.605469.144531.910157.144531.628906 0 1.25-.199218 1.769531-.578125.777343-.566406 1.230469-1.464843 1.230469-2.421875v-112.164062c0-1.535156-1.164063-2.828125-2.695313-2.984375zm-3.304687 111.246093c-2.914063-.628906-5.890626-.949218-8.882813-.949218-20.003906 0-36.277344-16.273438-36.277344-36.277344v-32.378906c0-20.003906 16.273438-36.277344 36.277344-36.277344 2.917969 0 5.847656.121094 8.882813.363281zm0 0" fill="#3a312a"/><path d="m331.171875 340.066406c-21.695313 0-39.277344 17.582032-39.277344 39.277344v32.378906c0 21.691406 17.582031 39.277344 39.277344 39.277344 4.015625 0 7.972656-.226562 11.882813-.625v-112.160156c-3.746094 1.195312-7.738282 1.851562-11.882813 1.851562zm0 0" fill="#d7e057"/><path d="m344.824219 335.792969c-.773438-.570313-1.769531-.726563-2.679688-.4375-3.554687 1.132812-7.25 1.710937-10.972656 1.710937-23.3125 0-42.277344 18.964844-42.277344 42.277344v32.378906c0 23.3125 18.964844 42.277344 42.277344 42.277344 3.925781 0 8.027344-.214844 12.191406-.640625 1.53125-.15625 2.695313-1.445313 2.695313-2.984375v-112.160156c-.003906-.957032-.457032-1.855469-1.234375-2.421875zm-4.769531 111.84375c-3.03125.242187-6.011719.363281-8.882813.363281-20.003906 0-36.277344-16.273438-36.277344-36.277344v-32.378906c0-20.003906 16.273438-36.277344 36.277344-36.277344 2.992187 0 5.96875-.320312 8.882813-.949218zm0 0" fill="#3a312a"/><path d="m346.058594 7v6.199219c43.722656 16.222656 74.960937 58.339843 74.960937 107.640625v212.320312c0 49.300782-31.238281 91.417969-74.960937 107.640625v6.199219c56.320312-7.320312 99.960937-55.558594 99.960937-113.839844v-212.320312c0-58.28125-43.640625-106.519532-99.960937-113.839844zm0 0" fill="#68a8bc"/><path d="m65.382812 22.78125c-1.949218 23.128906-26.050781 26.78125-26.050781 26.78125 20.695313.972656 25.851563 28.117188 25.851563 28.117188.441406-19.355469 26.640625-28.402344 26.640625-28.402344-19.625-1.175782-26.441407-26.496094-26.441407-26.496094zm0 0" fill="#d7e057"/><path d="m92.007812 46.28125c-17.210937-1.03125-23.667968-24.050781-23.730468-24.28125-.378906-1.402344-1.691406-2.316406-3.164063-2.203125-1.453125.132813-2.597656 1.28125-2.71875 2.734375-1.71875 20.429688-22.628906 23.925781-23.507812 24.066406-1.527344.226563-2.625 1.578125-2.546875 3.117188.082031 1.542968 1.3125 2.769531 2.855468 2.84375 18.058594.847656 23 25.433594 23.046876 25.683594.273437 1.421874 1.519531 2.433593 2.945312 2.433593.082031 0 .167969 0 .25-.011719 1.527344-.125 2.714844-1.382812 2.75-2.917968.386719-17.019532 24.382812-25.554688 24.625-25.636719 1.351562-.472656 2.183594-1.828125 1.988281-3.246094-.199219-1.414062-1.367187-2.496093-2.792969-2.582031zm-27.132812 20.691406c-2.714844-6.261718-7.417969-13.816406-15.175781-17.753906 5.863281-2.808594 12.820312-7.824219 16.40625-16.542969 3.101562 6.140625 8.398437 13.761719 16.664062 17.445313-6.011719 3.277344-13.84375 8.808594-17.894531 16.851562zm0 0" fill="#3a312a"/><path d="m21.984375 56.742188c-1.378906 16.359374-18.425781 18.945312-18.425781 18.945312 14.636718.6875 18.285156 19.886719 18.285156 19.886719.3125-13.691407 18.84375-20.089844 18.84375-20.089844-13.882812-.832031-18.703125-18.742187-18.703125-18.742187zm0 0" fill="#d7e057"/><path d="m40.867188 72.488281c-11.53125-.691406-15.945313-16.371093-15.988282-16.53125-.378906-1.402343-1.714844-2.328125-3.164062-2.203125-1.449219.128906-2.597656 1.285156-2.71875 2.734375-1.15625 13.742188-15.292969 16.136719-15.882813 16.230469-1.527343.230469-2.628906 1.578125-2.546875 3.121094.078125 1.539062 1.3125 2.765625 2.855469 2.839844 12.070313.566406 15.445313 17.289062 15.476563 17.453124.269531 1.425782 1.515624 2.4375 2.945312 2.4375.082031 0 .164062 0 .25-.007812 1.527344-.125 2.714844-1.386719 2.75-2.921875.261719-11.421875 16.664062-17.269531 16.828125-17.324219 1.351563-.46875 2.1875-1.828125 1.988281-3.246094-.195312-1.414062-1.363281-2.496093-2.792968-2.582031zm-19.167969 13.589844c-1.847657-3.769531-4.679688-7.894531-8.894531-10.558594 3.710937-2.082031 7.394531-5.261719 9.742187-9.832031 2.113281 3.746094 5.308594 7.90625 9.882813 10.445312-3.703126 2.203126-7.980469 5.480469-10.730469 9.945313zm0 0" fill="#3a312a"/><path d="m21.984375 3.429688c-1.378906 16.355468-18.425781 18.941406-18.425781 18.941406 14.636718.6875 18.285156 19.886718 18.285156 19.886718.3125-13.691406 18.84375-20.089843 18.84375-20.089843-13.882812-.832031-18.703125-18.738281-18.703125-18.738281zm0 0" fill="#d7e057"/><path d="m40.867188 19.171875c-11.53125-.691406-15.941407-16.371094-15.988282-16.527344-.378906-1.40625-1.714844-2.335937-3.164062-2.203125-1.449219.128906-2.597656 1.28125-2.71875 2.734375-1.15625 13.742188-15.292969 16.132813-15.882813 16.226563-1.527343.230468-2.628906 1.578125-2.546875 3.121094.078125 1.539062 1.3125 2.769531 2.855469 2.84375 12.070313.566406 15.445313 17.285156 15.476563 17.449218.269531 1.425782 1.515624 2.441406 2.945312 2.441406.082031 0 .164062-.003906.25-.011718 1.527344-.125 2.714844-1.386719 2.75-2.921875.261719-11.417969 16.664062-17.265625 16.828125-17.320313 1.351563-.46875 2.1875-1.828125 1.988281-3.246094-.195312-1.417968-1.363281-2.5-2.792968-2.585937zm-19.167969 13.589844c-1.847657-3.769531-4.679688-7.894531-8.894531-10.558594 3.710937-2.082031 7.394531-5.257813 9.742187-9.832031 2.113281 3.746094 5.308594 7.910156 9.882813 10.445312-3.703126 2.203125-7.980469 5.480469-10.730469 9.945313zm0 0" fill="#3a312a"/><path d="m10.808594 140.308594c-4.511719 4.210937-7.3125 10.171875-7.3125 16.808594v139.761718c0 6.636719 2.800781 12.601563 7.3125 16.8125l104.238281-86.691406zm0 0" fill="#f16c7a"/><path d="m116.964844 224.695312-104.238282-86.691406c-1.160156-.96875-2.859374-.917968-3.964843.109375-5.328125 4.972657-8.261719 11.71875-8.261719 19.003907v139.765624c0 7.28125 2.933594 14.03125 8.261719 19.003907.574219.535156 1.308593.804687 2.046875.804687.679687 0 1.363281-.230468 1.917968-.695312l104.234376-86.6875c.6875-.570313 1.082031-1.414063 1.082031-2.304688 0-.894531-.394531-1.738281-1.078125-2.308594zm-105.914063 84.890626c-2.949219-3.5625-4.550781-7.988282-4.550781-12.703126v-139.765624c0-4.714844 1.601562-9.140626 4.550781-12.703126l99.304688 82.585938zm0 0" fill="#3a312a"/><path d="m297.730469 140.308594-104.238281 86.691406 104.238281 86.691406c4.488281-4.210937 7.308593-10.171875 7.308593-16.8125v-139.761718c0-6.636719-2.820312-12.597657-7.308593-16.808594zm0 0" fill="#f16c7a"/><path d="m299.78125 138.121094c-1.105469-1.035156-2.808594-1.085938-3.96875-.117188l-104.234375 86.6875c-.6875.570313-1.082031 1.417969-1.082031 2.304688 0 .890625.394531 1.738281 1.082031 2.308594l104.234375 86.6875c.558594.464843 1.238281.695312 1.917969.695312.738281 0 1.476562-.273438 2.050781-.808594 5.328125-4.992187 8.257812-11.738281 8.257812-19v-139.761718c0-7.257813-2.929687-14.007813-8.257812-18.996094zm2.257812 158.761718c0 4.703126-1.601562 9.125-4.554687 12.703126l-99.296875-82.585938 99.292969-82.585938c2.957031 3.578126 4.558593 8 4.558593 12.703126zm0 0" fill="#3a312a"/><path d="m193.488281 227-22.785156-18.941406c-9.070313-7.542969-23.808594-7.542969-32.878906 0l-22.78125 18.941406-104.238281 86.683594c4.09375 3.855468 9.636718 6.21875 15.730468 6.21875h255.460938c6.09375 0 11.636718-2.363282 15.730468-6.21875zm0 0" fill="#f16c7a"/><path d="m299.644531 311.375-127.023437-105.625c-10.121094-8.414062-26.589844-8.414062-36.714844 0l-127.019531 105.625c-.660157.546875-1.054688 1.355469-1.082031 2.214844-.027344.855468.316406 1.683594.941406 2.273437 4.8125 4.539063 11.128906 7.035157 17.789062 7.035157h255.460938c6.65625 0 12.972656-2.5 17.789062-7.035157.625-.589843.964844-1.417969.9375-2.273437-.023437-.859375-.417968-1.667969-1.078125-2.214844zm-17.648437 5.523438h-255.460938c-3.953125 0-7.75-1.140626-10.976562-3.269532l124.1875-103.265625c8.007812-6.65625 21.035156-6.65625 29.042968 0l124.1875 103.265625c-3.230468 2.128906-7.023437 3.269532-10.980468 3.269532zm0 0" fill="#3a312a"/><path d="m281.996094 134.101562h-255.460938c-6.09375 0-11.636718 2.359376-15.730468 6.21875l104.238281 86.679688 22.785156 18.941406c9.070313 7.542969 23.808594 7.542969 32.878906 0l22.78125-18.941406 104.238281-86.683594c-4.09375-3.855468-9.636718-6.214844-15.730468-6.214844zm0 0" fill="#f16c7a"/><path d="m299.785156 138.136719c-4.8125-4.539063-11.132812-7.035157-17.789062-7.035157h-155.203125c-1.65625 0-3 1.339844-3 3 0 1.65625 1.34375 3 3 3h155.203125c3.957031 0 7.75 1.140626 10.980468 3.269532l-124.1875 103.265625c-8.007812 6.65625-21.035156 6.65625-29.042968 0l-124.1875-103.265625c3.226562-2.128906 7.019531-3.269532 10.976562-3.269532h70.75c1.660156 0 3-1.34375 3-3 0-1.660156-1.339844-3-3-3h-70.75c-6.65625 0-12.972656 2.496094-17.789062 7.035157-.625.589843-.964844 1.417969-.941406 2.273437.03125.859375.421874 1.667969 1.082031 2.214844l127.023437 105.625c5.0625 4.207031 11.707032 6.3125 18.355469 6.3125s13.296875-2.105469 18.355469-6.3125l127.023437-105.625c.660157-.546875 1.054688-1.355469 1.078125-2.214844.03125-.855468-.3125-1.683594-.9375-2.273437zm0 0" fill="#3a312a"/><g fill="#ce4e61"><path d="m297.480469 144.421875-22.441407 18.679687v127.796876l22.441407 18.679687c2.960937-3.578125 4.558593-8 4.558593-12.699219v-139.757812c0-4.699219-1.597656-9.121094-4.558593-12.699219zm0 0"/><path d="m274.960938 298.640625c-.441407 5.917969-3.140626 11.21875-7.222657 15.058594l-.019531-.019531c-1.320312 1.242187-2.777344 2.320312-4.378906 3.21875h18.660156c3.960938 0 7.738281-1.136719 10.980469-3.277344zm0 0"/><path d="m282 137.101562h-18.660156c1.601562.898438 3.058594 1.976563 4.378906 3.21875l.019531-.019531c4.082031 3.839844 6.78125 9.140625 7.222657 15.058594l18.019531-14.980469c-3.242188-2.140625-7.019531-3.277344-10.980469-3.277344zm0 0"/></g></svg>