<svg id="Layer_1" enable-background="new 0 0 512 512" height="512" viewBox="0 0 512 512" width="512" xmlns="http://www.w3.org/2000/svg"><g><g><path d="m477.44 488.57v13.63c0 5.41-4.39 9.8-9.8 9.8h-423.28c-5.41 0-9.8-4.39-9.8-9.8v-13.63c0-31.43 22.29-58.45 53.16-64.43l22.95-5.06 51.14-11.26 48.9-10.77h89.62l27.81 6.08 21.63 4.73 51.13 11.17 23.38 5.11c30.87 5.98 53.16 33 53.16 64.43z" fill="#3eb1ff"/><path d="m477.44 488.57v13.63c0 5.41-4.39 9.8-9.8 9.8h-25c5.41 0 9.8-4.39 9.8-9.8v-13.63c0-30.69-21.86-62.52-51.54-69.54l23.38 5.11c30.87 5.98 53.16 33 53.16 64.43z" fill="#4390ff"/><path d="m349.77 407.86v104.14h-21.63v-108.87z" fill="#4390ff"/><path d="m110.67 473.01h290.23v38.99h-290.23z" fill="#668fa3"/><path d="m149.773 243.916c-14.557 0-26.408-14.317-26.587-32.119-.182-18.114 11.775-32.917 26.587-32.917l10 32.518z" fill="#ffab8a"/><path d="m362.277 243.916c14.557 0 26.408-14.317 26.587-32.119.182-18.114-11.775-32.917-26.587-32.917l-10 32.518z" fill="#ffab8a"/><path d="m299.53 395.45.8 1.6v1.78c0 24.71-20.1 44.8-44.81 44.8-11.74 0-22.84-4.5-31.25-12.69-8.74-8.51-13.56-19.91-13.56-32.11v-1.78l.81-1.6c2.17-4.3 3.6-8.9 4.26-13.67.19-1.4.31-2.8.37-4.2.22-5.7-.68-11.43-2.65-16.79l-6.05-16.39h96.14l-6.04 16.39c-2.02 5.48-2.91 11.33-2.63 17.15.06 1.28.17 2.56.35 3.83.65 4.77 2.09 9.38 4.26 13.68z" fill="#ffd9c0"/><path d="m297.55 360.79c-2.02 5.48-2.91 11.33-2.63 17.15-11.43 7.8-25.06 12.04-38.95 12.04h-.31c-14.13 0-27.97-4.37-39.51-12.4.22-5.7-.68-11.43-2.65-16.79l-6.05-16.39h96.14z" fill="#ffbca1"/><path d="m364.47 258.63c0 25.58-20.97 55.76-62.33 89.75-.01.01-.01.01-.02.02-.85.7-1.72 1.4-2.59 2.11-12.28 9.98-27.75 15.47-43.56 15.47h-.31c-15.86 0-31.35-5.5-43.65-15.51-43.06-34.83-64.9-65.74-64.9-91.84 0-2.9.11-5.65.34-8.18 1.04-10.61 1.35-44.36.73-78.52-.02-.68.24-1.32.71-1.8s1.11-.75 1.78-.75h.01l192.38.04h18.12c.67 0 1.31.27 1.78.74.47.48.73 1.13.72 1.8-.52 28.87-.71 66.72.45 78.39.22 2.75.34 5.52.34 8.28z" fill="#ffd9c0"/><path d="m364.47 258.63c0 25.58-20.97 55.76-62.33 89.75 28.12-31.84 43.65-66.75 43.65-89.75 0-2.76-.1-5.53-.29-8.28-.95-11.67-.79-49.52-.37-78.39.01-.67-.2-1.32-.59-1.8-.39-.47-.92-.74-1.48-.74h18.12c.67 0 1.31.27 1.78.74.47.48.73 1.13.72 1.8-.52 28.87-.71 66.72.45 78.39.22 2.75.34 5.52.34 8.28z" fill="#ffbca1"/><g fill="#668fa3"><path d="m161.81 407.82v104.18h-51.14v-92.92z"/><path d="m400.9 419.03v92.97h-51.13v-104.14l29.5 6.44z"/></g><path d="m284.271 276.08c-4.003-1.071-8.114 1.303-9.186 5.304-2.362 8.823-10.408 14.985-19.565 14.985-9.151 0-17.192-6.162-19.555-14.985-1.072-4.001-5.187-6.375-9.185-5.304-4.001 1.071-6.376 5.184-5.304 9.185 4.116 15.37 18.116 26.104 34.044 26.104 15.935 0 29.939-10.734 34.055-26.104 1.072-4.001-1.303-8.114-5.304-9.185z" fill="#ffab8a"/><path d="m400.9 419.03v92.97h-21.63v-97.7z" fill="#4c7889"/><path d="m110.67 473.01h51.14v38.99h-51.14z" fill="#d4efff"/><path d="m349.77 473.01h51.13v38.99h-51.13z" fill="#d4efff"/><path d="m328.14 473.01h21.63v38.99h-21.63z" fill="#4c7889"/><path d="m379.27 473.01h21.63v38.99h-21.63z" fill="#b7d4e2"/></g><path d="m381.54 117.37v39.06c0 4.15-3.35 7.5-7.5 7.5h-236.53c-4.14 0-7.5-3.35-7.5-7.5v-39.06c0-55.55 45.2-100.74 100.76-100.74h50.01c55.56 0 100.76 45.19 100.76 100.74z" fill="#ffc73b"/><path d="m381.54 117.37v39.06c0 4.15-3.35 7.5-7.5 7.5h-19.11c3.3 0 5.97-3.35 5.97-7.5v-39.06c0-55.55-35.94-100.74-80.12-100.74 55.56 0 100.76 45.19 100.76 100.74z" fill="#ffa73e"/><path d="m381.54 117.37v39.06c0 4.15-3.35 7.5-7.5 7.5h-236.53c-4.14 0-7.5-3.35-7.5-7.5v-39.06z" fill="#ffa73e"/><path d="m360.9 117.37h20.64v39.06c0 4.15-3.35 7.5-7.5 7.5h-19.11c3.3 0 5.97-3.35 5.97-7.5z" fill="#ff8440"/><path d="m280.51 7.5v148.93c0 4.15-3.35 7.5-7.5 7.5h-32.92c-4.14 0-7.5-3.35-7.5-7.5v-148.93c0-4.14 3.36-7.5 7.5-7.5h32.92c4.15 0 7.5 3.36 7.5 7.5z" fill="#ffa73e"/><path d="m280.51 117.37v39.06c0 4.15-3.35 7.5-7.5 7.5h-32.92c-4.14 0-7.5-3.35-7.5-7.5v-39.06z" fill="#ff8440"/><path d="m411.48 156.43v13.31c0 15.19-12.36 27.55-27.56 27.55h-255.84c-15.19 0-27.56-12.36-27.56-27.55v-13.31c0-4.14 3.36-7.5 7.5-7.5h295.96c4.14 0 7.5 3.36 7.5 7.5z" fill="#ffc73b"/><path d="m411.48 156.43v13.31c0 15.19-12.36 27.55-27.56 27.55h-22.61c15.22 0 27.56-12.34 27.56-27.55v-13.31c0-4.14-3.36-7.5-7.5-7.5h22.61c4.14 0 7.5 3.36 7.5 7.5z" fill="#ffa73e"/></g></svg>