<svg id="Layer_1" enable-background="new 0 0 512 512" height="512" viewBox="0 0 512 512" width="512" xmlns="http://www.w3.org/2000/svg"><g><path d="m419.19 229.02c0 90.32-73.22 163.54-163.54 163.54-90.22 0-163.38-73.06-163.54-163.24v-.3c0-70.01 44-129.75 105.86-153.07 17.94-6.76 37.38-10.46 57.68-10.46 90.32 0 163.54 73.22 163.54 163.53z" fill="#ffe26f"/><path d="m255.65 65.49c-20.3 0-39.74 3.7-57.68 10.46 12.56-3.22 25.72-4.92 39.28-4.92 80 0 146.14 59.36 156.79 136.44 1.6 11.56-7.48 21.85-19.16 21.85h-282.77c.16 90.18 73.32 163.24 163.54 163.24 90.32 0 163.54-73.22 163.54-163.54 0-90.31-73.22-163.53-163.54-163.53z" fill="#ffc54b"/><path d="m364.69 229.02c0 60.23-48.82 109.05-109.04 109.05-60.12 0-108.88-48.66-109.04-108.75v-.3c0-55.08 40.85-100.63 93.9-107.98 4.95-.7 10-1.06 15.14-1.06 60.22 0 109.04 48.82 109.04 109.04z" fill="#ffc54b"/><path d="m364.69 229.02c0 60.23-48.82 109.05-109.04 109.05-60.12 0-108.88-48.66-109.04-108.75h167.6c12.88 0 22.6-11.93 19.72-24.48-10.18-44.36-47.42-78.4-93.42-83.8 4.95-.7 10-1.06 15.14-1.06 60.22 0 109.04 48.82 109.04 109.04z" fill="#fb963f"/><g><path d="m482.282 261.17c0 74.59-36.04 140.77-91.66 182.07l-79.73 27.68-15.55-6.52-242.37-101.56c-9.4-18.68-16.28-38.83-20.22-60.03l15.35-41.64z" fill="#7ac2ed"/><path d="m482.282 261.17c0 74.59-36.04 140.77-91.66 182.07l-79.73 27.68-15.55-6.52c86.82-26.76 149.93-107.64 149.93-203.23z" fill="#68a6dc"/><path d="m85.762 261.17c-7.98 18.93-22.51 35.41-53.01 41.64-2.51-13.5-3.82-27.42-3.82-41.64z" fill="#d1e16f"/><g fill="#d0edf5"><path d="m40.358 496.999h-32.857c-4.143 0-7.501 3.358-7.501 7.5s3.359 7.5 7.501 7.5h32.857c4.143 0 7.501-3.358 7.501-7.5s-3.358-7.5-7.501-7.5z"/><path d="m143.377 496.999h-67.863c-4.143 0-7.501 3.358-7.501 7.5s3.359 7.5 7.501 7.5h67.863c4.143 0 7.501-3.358 7.501-7.5.001-4.142-3.358-7.5-7.501-7.5z"/><path d="m27.505 479.999h62.862c4.143 0 7.501-3.358 7.501-7.5s-3.359-7.5-7.501-7.5h-62.862c-4.143 0-7.501 3.358-7.501 7.5s3.358 7.5 7.501 7.5z"/><path d="m414.954 496.999h-62.862c-4.143 0-7.501 3.358-7.501 7.5s3.359 7.5 7.501 7.5h62.862c4.143 0 7.501-3.358 7.501-7.5s-3.359-7.5-7.501-7.5z"/><path d="m504.403 464.998h-92.868c-4.143 0-7.501 3.358-7.501 7.5s3.359 7.5 7.501 7.5h92.868c4.143 0 7.501-3.358 7.501-7.5.001-4.142-3.358-7.5-7.501-7.5z"/></g><path d="m296.162 321.92c-7.14 16.33-58.72 12.6-71.33 0-9.76-9.76-14.28-43.03-8.19-60.75h41.43c22.65 16.36 44.62 45.81 38.09 60.75z" fill="#d1e16f"/><path d="m390.617 443.237c-37.707 28.001-84.426 44.572-135.015 44.572-55.17 0-105.73-19.701-145.027-52.462-23.844-19.861-43.528-44.532-57.601-72.503 89.307 0 34.106-60.032 75.514-60.032 55.33 0 48.189 89.813 78.415 105.414 29.856 15.421 52.16-16.881 94.608-16.881 32.246 0 32.596 28.101 54.59 42.952 7.891 5.32 18.573 8.94 34.516 8.94z" fill="#d1e16f"/><path d="m356.101 434.297c7.891 5.32 18.573 8.94 34.516 8.94-37.707 28.001-84.426 44.572-135.015 44.572-55.17 0-105.73-19.701-145.027-52.462 34.536 24.241 76.614 38.461 122.023 38.461 46.049.001 88.687-14.64 123.503-39.511z" fill="#9ccc4b"/><g><path d="m511.905 370.358c0 10.588-8.594 19.18-19.183 19.18h-101.949c-14.443 0-26.148-11.712-26.148-26.152 0-14.433 11.706-26.145 26.148-26.145 6.017 0 11.56 2.034 15.98 5.451 3.334-18.607 19.604-32.734 39.169-32.734 8.907 0 17.142 2.928 23.778 7.874 9.718 7.255 16.018 18.852 16.018 31.916 0 .933-.031 1.865-.092 2.783 2.194-.871 4.587-1.353 7.095-1.353 10.59 0 19.184 8.585 19.184 19.18z" fill="#e6f8fc"/><path d="m511.905 370.358c0 10.588-8.594 19.18-19.183 19.18h-101.949c-14.443 0-26.148-11.712-26.148-26.152 0 7.178 8.877 13.646 16.048 13.646h56.724c21.156-.206 38.236-17.422 38.236-38.621 0-7.568-2.171-14.624-5.933-20.579 9.718 7.255 16.018 18.852 16.018 31.916 0 .933-.031 1.865-.092 2.783 2.194-.871 4.587-1.353 7.095-1.353 10.59 0 19.184 8.585 19.184 19.18z" fill="#d0edf5"/></g></g><path d="m504.5 253.428h-497c-4.142 0-7.5 3.358-7.5 7.5s3.358 7.5 7.5 7.5h497c4.142 0 7.5-3.358 7.5-7.5s-3.358-7.5-7.5-7.5z" fill="#3a4b56"/><g fill="#ffc54b"><path d="m255.651 0c-4.142 0-7.5 3.358-7.5 7.5v28.029c0 4.142 3.358 7.5 7.5 7.5s7.5-3.358 7.5-7.5v-28.029c0-4.142-3.358-7.5-7.5-7.5z"/><path d="m62.114 221.678h-28.003c-4.142 0-7.5 3.358-7.5 7.5s3.358 7.5 7.5 7.5h28.002c4.142 0 7.5-3.358 7.5-7.5s-3.357-7.5-7.499-7.5z"/><path d="m477.19 221.678h-28.002c-4.142 0-7.5 3.358-7.5 7.5s3.358 7.5 7.5 7.5h28.002c4.142 0 7.5-3.358 7.5-7.5s-3.358-7.5-7.5-7.5z"/><path d="m454.003 114.552c-2.073-3.587-6.66-4.814-10.246-2.741l-24.251 14.014c-3.586 2.072-4.814 6.66-2.741 10.246 1.39 2.405 3.91 3.749 6.5 3.749 1.273 0 2.564-.325 3.746-1.008l24.251-14.014c3.587-2.072 4.814-6.66 2.741-10.246z"/><path d="m370.168 30.642c-3.588-2.07-8.174-.839-10.244 2.749l-14.001 24.274c-2.07 3.588-.839 8.175 2.749 10.244 1.181.681 2.469 1.005 3.741 1.005 2.593 0 5.115-1.347 6.503-3.754l14.001-24.274c2.07-3.588.839-8.175-2.749-10.244z"/><path d="m91.795 125.825-24.251-14.014c-3.586-2.073-8.173-.846-10.246 2.741-2.073 3.586-.845 8.174 2.741 10.246l24.251 14.014c1.182.683 2.472 1.008 3.746 1.008 2.591 0 5.111-1.344 6.5-3.749 2.073-3.587.846-8.174-2.741-10.246z"/><path d="m151.378 33.392c-2.07-3.589-6.658-4.82-10.244-2.75-3.588 2.069-4.819 6.656-2.75 10.244l14.001 24.274c1.389 2.408 3.911 3.754 6.503 3.754 1.271 0 2.56-.324 3.74-1.005 3.588-2.069 4.819-6.656 2.75-10.244z"/></g></g></svg>