<svg id="Layer_1" enable-background="new 0 0 480 480" height="512" viewBox="0 0 480 480" width="512" xmlns="http://www.w3.org/2000/svg"><path d="m472 103v274c0 17.67-14.33 32-32 32h-400c-17.67 0-32-14.33-32-32v-274c0-17.67 14.33-32 32-32h400c17.67 0 32 14.33 32 32z" fill="#d1e7ff"/><path d="m472 103v24.79c0 9.403-7.988 15.98-15.24 15.98-168.05 8.255-299.246 108.949-354.098 254.87-2.345 6.238-8.307 10.36-14.971 10.36h-47.691c-17.673 0-32-14.327-32-32v-274c0-17.673 14.327-32 32-32h400c17.673 0 32 14.327 32 32z" fill="#e8f3ff"/><path d="m424 311c0 31.016-38.181 45.635-59 23.04-20.838 22.616-59 7.935-59-23.04 0-31.013 38.181-45.636 59-23.04 20.832-22.611 59-7.945 59 23.04z" fill="#a2d0ff"/><circle cx="340" cy="311" fill="#b9dcff" r="34"/><path d="m8 143h464v68h-464z" fill="#b9dcff"/><path d="m460.97 143c-9.937 3.238-108.559-1.663-211.27 67.83-.351.264 10.95.17-241.7.17v-68z" fill="#d1e7ff"/><path d="m480 103v274c0 22.056-17.944 40-40 40h-400c-22.056 0-40-17.944-40-40v-120c0-4.418 3.582-8 8-8s8 3.582 8 8v120c0 13.233 10.767 24 24 24h400c13.233 0 24-10.767 24-24v-274c0-13.233-10.767-24-24-24h-400c-13.233 0-24 10.767-24 24v32h410c4.418 0 8 3.582 8 8s-3.582 8-8 8h-410v52h410c4.418 0 8 3.582 8 8s-3.582 8-8 8h-418c-4.418 0-8-3.582-8-8v-108c0-22.056 17.944-40 40-40h400c22.056 0 40 17.944 40 40zm-64 208c0-20.537-22.83-32.992-40.125-21.817 16.971 27.8-3.117 63.817-35.875 63.817-23.159 0-42-18.841-42-42 0-34.467 39.438-54.21 67-33.726 27.685-20.479 67-.677 67 33.726 0 23.159-18.841 42-42 42-4.418 0-8-3.582-8-8s3.582-8 8-8c14.337 0 26-11.663 26-26zm-50 0c0-14.337-11.663-26-26-26s-26 11.663-26 26 11.663 26 26 26 26-11.663 26-26zm-293-17h67c4.418 0 8-3.582 8-8s-3.582-8-8-8h-67c-4.418 0-8 3.582-8 8s3.582 8 8 8zm0 50h67c4.418 0 8-3.582 8-8s-3.582-8-8-8h-67c-4.418 0-8 3.582-8 8s3.582 8 8 8z" fill="#2e58ff"/></svg>