<svg id="Layer_1" data-name="Layer 1" xmlns="http://www.w3.org/2000/svg" xmlns:xlink="http://www.w3.org/1999/xlink" viewBox="0 0 500 396.18"><defs><linearGradient id="linear-gradient" x1="198" y1="-163.02" x2="346.11" y2="-163.02" gradientTransform="translate(0 188)" gradientUnits="userSpaceOnUse"><stop offset="0" stop-color="#7fcbd0" stop-opacity="0"/><stop offset="0.54" stop-color="#7fcbd0"/><stop offset="0.99" stop-color="#7fcbd0" stop-opacity="0"/></linearGradient><linearGradient id="linear-gradient-2" x1="215.5" y1="-157.21" x2="363.61" y2="-157.21" xlink:href="#linear-gradient"/><linearGradient id="linear-gradient-3" x1="217.43" y1="-93.78" x2="365.54" y2="-93.78" xlink:href="#linear-gradient"/><linearGradient id="linear-gradient-4" x1="225.64" y1="-99.54" x2="428.89" y2="-99.54" xlink:href="#linear-gradient"/><linearGradient id="linear-gradient-5" x1="202.94" y1="-105.91" x2="406.19" y2="-105.91" xlink:href="#linear-gradient"/><linearGradient id="linear-gradient-6" x1="347.4" y1="62.56" x2="495.51" y2="62.56" xlink:href="#linear-gradient"/><linearGradient id="linear-gradient-7" x1="312.56" y1="56.8" x2="515.81" y2="56.8" xlink:href="#linear-gradient"/><linearGradient id="linear-gradient-8" x1="289.87" y1="50.43" x2="493.12" y2="50.43" xlink:href="#linear-gradient"/></defs><g id="BACKGROUND"><rect x="-74.91" y="-97" width="750" height="500" fill="none"/></g><g id="OBJECT"><ellipse cx="228.26" cy="388.68" rx="223.12" ry="7.5" fill="#6ca8bc"/><path d="M123.71,150.05H109.55a4.79,4.79,0,0,0-4.77,4.77h0v8.84a4.78,4.78,0,0,0,4.77,4.78H121v-3.52h0a13,13,0,0,0,9.21-3.82l1.72-1.72Z" fill="#eba58e"/><polygon points="123.71 150.05 131.94 159.38 167.3 151.16 162.4 138.09 123.71 150.05" fill="#eba58e"/><polygon points="162.4 138.09 160.68 138.62 160.12 152.83 167.3 151.16 162.4 138.09" fill="#dd8c76"/><path d="M230.09,87.5h0A11.08,11.08,0,0,0,214.85,89l-36.67,42.53-6.63,2.24,6.16,16.47,3.47-.76a28.06,28.06,0,0,0,14.41-8.09l35.69-37.51a11.08,11.08,0,0,0-.38-15.68h0A10.69,10.69,0,0,0,230.09,87.5Z" fill="#00b050"/><path d="M177.9,150.75l-.19-.52-6.16-16.47-.61-1.63a1.8,1.8,0,0,0-2.31-1.06h0l-6.06,2.27a1.78,1.78,0,0,0-1.07,2.29h0L162,137l5.76,15.4.71,1.9a1.82,1.82,0,0,0,2.32,1.06l6.06-2.27a1.8,1.8,0,0,0,1.06-2.31Z" fill="#02893c"/><path d="M217.17,90.76a11.17,11.17,0,0,1,13.71-2.57c-.25-.24-.51-.47-.79-.69h0A11.08,11.08,0,0,0,214.85,89l-36.67,42.53-6.63,2.24,1,2.64L180,133.9Z" fill="#048e3f"/><path d="M217.33,176,140.9,196.36a20.53,20.53,0,0,0-12.35,30.43l44.56,74.29,24.81-11-35.65-67.79,72.59-15.17A23.8,23.8,0,0,0,252.48,176Z" fill="#422c4f"/><path d="M194.71,295.14l-1.87-2.81-14.09,6.25,3.32,6,15.71-4.41C196.81,298.49,195.8,296.79,194.71,295.14Z" fill="#eba58e"/><path d="M190.83,307.31l-1.31,3.34,1.75-1.23a4.09,4.09,0,0,1,2.37-.75h8.23a80.32,80.32,0,0,0-4.09-8.46l-15.71,4.41.94,1.73h7.16a.7.7,0,0,1,.71.69h0A.86.86,0,0,1,190.83,307.31Z" fill="#fff"/><path d="M172.77,321.7h33.3l-.61-2.35a78.82,78.82,0,0,0-3.59-10.68h-8.23a4.09,4.09,0,0,0-2.37.75l-1.75,1.23,1.31-3.34a.68.68,0,0,0-.32-.92h0a.75.75,0,0,0-.33-.07H183l-5.29,5a12.94,12.94,0,0,1-8.85,3.51h-3.6a9.33,9.33,0,0,0-8.2,4.87l6.87,1.23A50.44,50.44,0,0,0,172.77,321.7Z" fill="#422c4f"/><path d="M172.77,321.7a51.29,51.29,0,0,1-8.83-.77l-6.87-1.23a9.36,9.36,0,0,0-1.13,4.14l10.49,1c1.66.15,3.32.22,5,.22h35.5l-.85-3.31Z" fill="#fff"/><polygon points="192.84 292.33 178.75 298.58 180.27 301.35 195.62 296.56 192.84 292.33" fill="#422c4f"/><path d="M105.87,162.29h-3.61L93,195.14a103.66,103.66,0,0,0,8.17,76.79l4.52,1.71Z" fill="#a34262"/><path d="M93,195.14l9.28-32.85H98.9L79.82,233a14.61,14.61,0,0,1-14.09,10.8.9.9,0,0,0-.91.89h0v13.5l36.33,13.69A103.67,103.67,0,0,1,93,195.14Z" fill="#00b050"/><circle cx="62.34" cy="329.3" r="50.74" fill="#422c4f"/><circle cx="62.34" cy="329.3" r="36.54" fill="#495375"/><circle cx="62.34" cy="329.3" r="29.83" fill="#c7d2d7"/><path d="M62.34,299.46A29.63,29.63,0,0,0,47,303.74a26.37,26.37,0,1,1,0,51.11,29.83,29.83,0,1,0,15.39-55.39Z" fill="#99a3b0"/><circle cx="62.34" cy="329.3" r="13.16" fill="#99a3b0"/><circle cx="62.34" cy="329.31" r="8.91" fill="#a34262"/><circle cx="322.99" cy="329.3" r="50.74" fill="#422c4f"/><circle cx="322.99" cy="329.3" r="36.54" fill="#495375"/><circle cx="322.99" cy="329.3" r="29.83" fill="#c7d2d7"/><path d="M323,299.46a29.59,29.59,0,0,0-15.39,4.28,26.37,26.37,0,1,1,0,51.11A29.83,29.83,0,1,0,323,299.46Z" fill="#99a3b0"/><circle cx="322.99" cy="329.3" r="13.16" fill="#99a3b0"/><circle cx="323" cy="329.3" r="8.91" fill="#a34262"/><path d="M64.79,262.09c26.14.82,48.49,19.11,55.44,44.32l1.13,4.1,1.23.6-2.36-8.54c-7-25.21-29.3-43.5-55.44-44.33h-2a62.88,62.88,0,0,0-31.53,8.42L33,269.54a62.82,62.82,0,0,1,29.8-7.45C63.44,262.06,64.12,262.07,64.79,262.09Z" fill="#fff"/><path d="M69.56,285.05l51.8,25.46-1.13-4.1c-7-25.21-29.3-43.5-55.44-44.32h-2A62.82,62.82,0,0,0,33,269.54l9.3,15.54Z" fill="#f2c8c2"/><path d="M125,315H100.83a41,41,0,0,1-29-12h0a41.08,41.08,0,0,0-29-12H14.08l9.09-9.08a56,56,0,0,1,39.59-16.4h0A56,56,0,0,1,110,291.32Z" fill="#00b050"/><path d="M105.87,162.29l-9.29,32.85a103.8,103.8,0,0,0,9.09,78.5l4.64,8.36a74.47,74.47,0,0,0,65.15,38.38H404l-8.19-29.71A120.57,120.57,0,0,0,343,220.16L328.24,211H201.09v5.56a8.56,8.56,0,0,0,5.85,8.14h0a37.29,37.29,0,0,1,25.11,30.82h0a37.28,37.28,0,0,1-32.46,41.55h0a36.13,36.13,0,0,1-4.53.28H176.44a52,52,0,0,1-44-24.16l-8.62-13.57a67.69,67.69,0,0,1-9.06-50.42l10-46.91Z" fill="#00b050"/><path d="M328.24,211H190.82V194.69H300.4a28.25,28.25,0,0,1,20.24,8.53Z" fill="#422c4f"/><path d="M248.35,322.64h-61.7a76.78,76.78,0,0,1-67.13-39.54l-4.63-8.37a105.3,105.3,0,0,1-9.29-80.2,34.43,34.43,0,0,0-3.14-26.13,2.25,2.25,0,1,1,3.92-2.22h0a38.93,38.93,0,0,1,3.56,29.57,100.85,100.85,0,0,0,8.89,76.79l4.64,8.37a72.23,72.23,0,0,0,63.18,37.22h61.7a2.26,2.26,0,0,1,0,4.51Z" fill="#f2c8c2"/><path d="M250.58,311.55H392l-2.16,2.16a18.43,18.43,0,0,1-13,5.4H265.47A18.44,18.44,0,0,1,250.58,311.55Z" fill="#a34262"/><circle cx="312.32" cy="304.21" r="30.58" fill="#99a3b0"/><path d="M312.32,327.72a23.52,23.52,0,1,1,23.52-23.52h0A23.53,23.53,0,0,1,312.32,327.72Zm0-44.53a21,21,0,1,0,21,21h0A21,21,0,0,0,312.32,283.19Z" fill="#495375"/><path d="M327.59,305.46H297.05a1.26,1.26,0,0,1,0-2.51h30.54a1.26,1.26,0,0,1,0,2.51Z" fill="#495375"/><path d="M325,300.45H299.68a1.25,1.25,0,0,1,0-2.5H325a1.25,1.25,0,0,1,0,2.5Z" fill="#495375"/><path d="M321.43,295.45H303.21a1.25,1.25,0,0,1,0-2.5h18.22a1.25,1.25,0,0,1,0,2.5Z" fill="#495375"/><path d="M317.23,290.44h-9.82a1.25,1.25,0,0,1,0-2.5h9.82a1.25,1.25,0,0,1,0,2.5Z" fill="#495375"/><path d="M325,310.46H299.68a1.25,1.25,0,0,1,0-2.5H325a1.25,1.25,0,0,1,0,2.5Z" fill="#495375"/><path d="M321.43,315.46H303.21a1.25,1.25,0,0,1,0-2.5h18.22a1.25,1.25,0,0,1,0,2.5Z" fill="#495375"/><path d="M317.23,320.47h-9.82a1.25,1.25,0,0,1,0-2.5h9.82a1.25,1.25,0,0,1,0,2.5Z" fill="#495375"/><path d="M345.32,238h0a92.86,92.86,0,0,0-48.27-13.52h-5.71c-29,0-53.59,23.72-53.57,52.72a52.4,52.4,0,0,0,12.81,34.37H392l-5.42-19.28A92.87,92.87,0,0,0,345.32,238Z" fill="#236e3a"/><path d="M337.17,257.67h0a68.12,68.12,0,0,0-35.35-9.9h-4.18c-21.24,0-39.24,17.37-39.23,38.61a38.47,38.47,0,0,0,9.38,25.17H371.31l-4-14.12A68.16,68.16,0,0,0,337.17,257.67Z" fill="#00b050"/><path d="M337.82,303.76H290.23a1.35,1.35,0,0,1,0-2.7h47.59a1.35,1.35,0,0,1,0,2.7Z" fill="#495375"/><path d="M336.35,298.41H288.76a1.36,1.36,0,0,1,0-2.71h47.59a1.36,1.36,0,0,1,0,2.71Z" fill="#495375"/><path d="M334.88,293.05H287.29a1.36,1.36,0,0,1,0-2.71h47.59a1.36,1.36,0,0,1,.23,2.71Z" fill="#495375"/><path d="M333.42,287.69H285.83a1.35,1.35,0,1,1,0-2.7h47.59a1.35,1.35,0,1,1,0,2.7Z" fill="#495375"/><path d="M332,282.33H284.36a1.35,1.35,0,0,1,0-2.7H332a1.35,1.35,0,0,1,0,2.7Z" fill="#495375"/><path d="M201.09,211H328.24a15,15,0,0,1-10.61,4.4H212.86A18.05,18.05,0,0,1,201.09,211Z" fill="#a34262"/><path d="M124.81,162.29H86.93V138h8.22a48.25,48.25,0,0,1,20.43,4.53l6.09,2.84a8.93,8.93,0,0,1,4.86,10.36Z" fill="#2c8b49"/><rect x="82.94" y="138.01" width="3.98" height="24.28" fill="#f2c8c2"/><rect x="80.91" y="138.01" width="2.03" height="24.28" fill="#fff"/><path d="M388.14,207.52a1.35,1.35,0,1,0-1.92-1.91h0l-11.33,11.33h3.83Z" fill="#c7d2d7"/><path d="M374.89,216.94,356.54,235.3a1.38,1.38,0,0,0,0,1.92,1.31,1.31,0,0,0,.93.39,1.4,1.4,0,0,0,1-.4l20.27-20.27Z" fill="#fff"/><path d="M319.46,222.09H243.2a2.26,2.26,0,1,1-.31-4.51h76.57a20.23,20.23,0,0,0,14.42-6,24.72,24.72,0,0,1,17.61-7.3h74.18a2.26,2.26,0,0,1,0,4.51H351.49a20.23,20.23,0,0,0-14.42,6A24.72,24.72,0,0,1,319.46,222.09Z" fill="#fff"/><polygon points="99.41 169.17 118.35 169.17 117.91 171.22 98.83 171.22 99.41 169.17" fill="#a34262"/><rect x="318.03" y="112.57" width="133.35" height="98.63" fill="#f0bf6c"/><rect x="314.21" y="96.47" width="140.98" height="16.09" fill="#f0bf6c"/><rect x="318.03" y="112.57" width="133.35" height="7.82" fill="#a0f9c6"/><text transform="translate(333.06 154.47)" font-size="20.12" fill="#00b050" font-family="Ubuntu-Bold, Ubuntu" font-weight="700" style="isolation:isolate">Laams</text><text transform="translate(333.06 176.11)" font-size="20.12" fill="#00b050" font-family="Ubuntu-Bold, Ubuntu" font-weight="700" style="isolation:isolate">Delivery</text><polygon points="334.67 132.2 334.07 134.74 384.7 134.74 402.84 132.2 334.67 132.2" fill="#00b050"/><polygon points="335.58 128.2 334.98 130.75 423.77 130.75 441.91 128.2 335.58 128.2" fill="#00b050"/><polygon points="334.67 186.77 334.07 189.32 384.7 189.32 402.84 186.77 334.67 186.77" fill="#00b050"/><polygon points="335.58 182.78 334.98 185.32 423.77 185.32 441.91 182.78 335.58 182.78" fill="#00b050"/><path d="M217.33,176l-63.74,19.05a22.56,22.56,0,0,0-15.15,28.08h0a22.81,22.81,0,0,0,2.26,5.13l43.67,72.81,24.81-11-35.65-67.79,72.6-15.17a23.81,23.81,0,0,0,18.42-28.19h0a24.78,24.78,0,0,0-.81-2.92Z" fill="#454f6b"/><path d="M206,295.14l-1.86-2.81L190,298.58l3.32,6L209,300.21C208.08,298.49,207.06,296.79,206,295.14Z" fill="#f2c9ad"/><path d="M202.09,307.31l-1.31,3.34,1.75-1.23a4.09,4.09,0,0,1,2.37-.75h8.24a80.4,80.4,0,0,0-4.1-8.46l-15.71,4.41.95,1.73h7.16a.7.7,0,0,1,.7.7h0A.75.75,0,0,1,202.09,307.31Z" fill="#fff"/><path d="M184,321.7h33.3l-.61-2.35a80.18,80.18,0,0,0-3.58-10.68H204.9a4.09,4.09,0,0,0-2.37.75l-1.75,1.23,1.31-3.34a.68.68,0,0,0-.32-.92h0a.71.71,0,0,0-.32-.07h-7.16l-5.29,5a12.94,12.94,0,0,1-8.85,3.51h-3.61a9.33,9.33,0,0,0-8.2,4.87l6.87,1.23A52,52,0,0,0,184,321.7Z" fill="#422c4f"/><path d="M184,321.7a51.29,51.29,0,0,1-8.83-.77l-6.87-1.23a9.36,9.36,0,0,0-1.13,4.14l10.49,1c1.66.15,3.32.22,5,.22h35.5l-.85-3.31Z" fill="#fff"/><polygon points="204.11 292.33 190.01 298.58 191.53 301.35 206.88 296.56 204.11 292.33" fill="#422c4f"/><path d="M203.19,63.24,201.26,52.3A7.67,7.67,0,0,0,193.71,46h-11l1,5.2a27.75,27.75,0,0,1-.2,11.37L183,64.65a1.43,1.43,0,0,0,1.07,1.72h2.56a15.26,15.26,0,0,0,24,8L224.28,64,217,69a8.88,8.88,0,0,1-13.81-5.76Z" fill="#f2c9ad"/><path d="M182,42.21l.7,3.75h11a7.67,7.67,0,0,1,7.55,6.34l1.93,10.94A8.88,8.88,0,0,0,217,69l7.23-5h0V42.21Z" fill="#eba58e"/><polygon points="224.24 63.93 210.62 74.39 212.43 79.59 224.24 63.93 224.24 63.93" fill="#422c4f"/><polygon points="233.78 78.38 224.24 63.93 212.43 79.59 215.52 88.46 233.78 78.38" fill="#f2c9ad"/><path d="M190.92,54.6c.2,1.25-.18,2.35-.86,2.47s-1.39-.82-1.59-2.07.17-2.36.85-2.47S190.71,53.34,190.92,54.6Z" fill="#422c4f"/><path d="M187.69,50.19a3.23,3.23,0,0,1,3.47.15c1.06.71,2-1,1-1.69a5.19,5.19,0,0,0-5.46-.16c-1.1.62-.11,2.32,1,1.7Z" fill="#422c4f"/><path d="M190.36,62.25l2.2.76a16.89,16.89,0,0,0,10,.3l5.5-1.55-1.29-2.57-4.21,1.17a16.89,16.89,0,0,1-10-.31l-2.2-.75a37.49,37.49,0,0,0-6-1.55l-.79-.14-.72,2.86,1.51.23A40,40,0,0,1,190.36,62.25Z" fill="#fff"/><path d="M208.05,61.76l-5.5,1.55a16.89,16.89,0,0,1-10-.3l-2.2-.76a40,40,0,0,0-6-1.55l-1.51-.23-.23.94a8.45,8.45,0,0,0,.25,5l1.23,3.4a15.85,15.85,0,0,0,14,10.41h0A15.89,15.89,0,0,0,209,76.62l4.58-3.75Z" fill="#00b050"/><path d="M202.67,60.32l.52,2.92a8.86,8.86,0,0,0,9.26,7.32l-5.69-11.37Z" fill="#422c4f" opacity="0.3" style="isolation:isolate"/><path d="M210.62,66.33l-4.16,11.86a.56.56,0,0,0,.34.71.57.57,0,0,0,.26,0h0a9.92,9.92,0,0,0,7.42-4.9l5.28-9.15Z" fill="#454f6b"/><path d="M206.55,48.21l2.3,13A3.6,3.6,0,0,0,213,64.14a3.55,3.55,0,0,0,.64-.17l22.59-8.37V39.43A30.08,30.08,0,0,0,206.16,9.35h0a30.07,30.07,0,0,0-30,29.17H195A11.72,11.72,0,0,1,206.55,48.21Z" fill="#00b050"/><path d="M224.84,33.77a4.06,4.06,0,0,1-3.6-2.18,17,17,0,0,0-15.08-9.16,4.06,4.06,0,0,1,0-8.12,25.07,25.07,0,0,1,22.28,13.52,4.06,4.06,0,0,1-3.6,5.94Z" fill="#fff"/><path d="M193.74,26.44a4.06,4.06,0,0,1-2.4-7.34l.19-.13a4.06,4.06,0,0,1,4.76,6.58h0l-.13.09A4.06,4.06,0,0,1,193.74,26.44Z" fill="#fff"/><path d="M213.65,64A3.61,3.61,0,0,1,209,61.88a4.64,4.64,0,0,1-.17-.64l-2.3-13A11.72,11.72,0,0,0,195,38.52H176.11v3.69H194a9,9,0,0,1,8.89,7.45l2.27,12.89a7.21,7.21,0,0,0,8.35,5.85h0a7.13,7.13,0,0,0,1.63-.49l18.91-8.3a3.6,3.6,0,0,0,2.16-3.3v-.72Z" fill="#a34262"/><path d="M211.8,169.08l5.53-24.19-7.94-43.5a12.26,12.26,0,0,1,6.13-12.93l18.26-10.08a6.53,6.53,0,0,1,7.42.76h0A75.91,75.91,0,0,1,267.42,130l3.44,38.23a7.15,7.15,0,0,1-6.49,7.75h-47a5.67,5.67,0,0,1-5.67-5.67h0A5.66,5.66,0,0,1,211.8,169.08Z" fill="#00b050"/><path d="M239.33,96.46l.15.59a26.17,26.17,0,0,1-3.85,21.52l-18.3,26.32-3.72-20.38Z" fill="#037734"/><polygon points="213.81 83.55 208.8 86.14 213.81 91.55 215.52 88.46 213.81 83.55" fill="#5dabff"/><polygon points="208.8 86.14 207.66 95.39 212.82 90.49 208.8 86.14" fill="#00b050"/><polygon points="236.73 77.56 231.41 72.87 212.43 83.25 215.03 94.22 236.73 77.56" fill="#04873c"/><path d="M129.56,154.57H115.41a4.79,4.79,0,0,0-4.77,4.77h0v8.85a4.76,4.76,0,0,0,4.75,4.77h11.48v-3.52h0a13.05,13.05,0,0,0,9.21-3.81l1.72-1.72Z" fill="#f2c9ad"/><polygon points="129.56 154.57 137.8 163.91 173.15 155.69 168.26 142.61 129.56 154.57" fill="#f2c9ad"/><polygon points="168.26 142.61 166.53 143.14 165.97 157.36 173.15 155.69 168.26 142.61" fill="#eba58e"/><path d="M236,92h0a11.09,11.09,0,0,0-15.25,1.48L184,136.05l-6.63,2.23,6.16,16.47L187,154a28.07,28.07,0,0,0,14.4-8.09l35.7-37.51a11.11,11.11,0,0,0-.29-15.7C236.55,92.46,236.28,92.22,236,92Z" fill="#00b050"/><path d="M183.75,155.27l-.19-.52-6.16-16.47-.61-1.63a1.8,1.8,0,0,0-2.32-1.05h0l-6.06,2.26a1.82,1.82,0,0,0-1.06,2.32l.49,1.32,5.76,15.41.71,1.9a1.81,1.81,0,0,0,2.33,1.05l6.06-2.26A1.81,1.81,0,0,0,183.75,155.27Z" fill="#03843a"/><path d="M223,95.28a11.17,11.17,0,0,1,13.71-2.56q-.37-.36-.78-.69h0a11.09,11.09,0,0,0-15.25,1.48L184,136.05l-6.63,2.23,1,2.65,7.44-2.51Z" fill="#02d35c"/><path d="M131.52,169.42A4.05,4.05,0,0,1,137,167.8h0l-.24-.16-9.08-5a4.06,4.06,0,0,0-3.9,7.12l9.07,5A4,4,0,0,1,131.52,169.42Z" fill="#422c4f"/><path d="M134.85,175.28a4.05,4.05,0,0,0,2.19-7.46h0a4.07,4.07,0,0,0-4.14,7h0A4,4,0,0,0,134.85,175.28Z" fill="#495375"/><rect x="198" y="23.52" width="148.11" height="2.92" fill="url(#linear-gradient)"/><rect x="215.5" y="29.33" width="148.11" height="2.92" fill="url(#linear-gradient-2)"/><rect x="217.43" y="92.76" width="148.11" height="2.92" fill="url(#linear-gradient-3)"/><rect x="225.64" y="87" width="203.25" height="2.92" fill="url(#linear-gradient-4)"/><rect x="202.94" y="80.63" width="203.25" height="2.92" fill="url(#linear-gradient-5)"/><rect x="347.4" y="249.1" width="148.11" height="2.92" fill="url(#linear-gradient-6)"/><rect x="312.56" y="243.34" width="203.25" height="2.92" fill="url(#linear-gradient-7)"/><rect x="289.87" y="236.97" width="203.25" height="2.92" fill="url(#linear-gradient-8)"/></g></svg>