<?xml version="1.0"?>
<svg xmlns="http://www.w3.org/2000/svg" xmlns:xlink="http://www.w3.org/1999/xlink" xmlns:svgjs="http://svgjs.com/svgjs" version="1.1" width="512" height="512" x="0" y="0" viewBox="0 0 256 256" style="enable-background:new 0 0 512 512" xml:space="preserve" class=""><g><g xmlns="http://www.w3.org/2000/svg" id="Layer_50"><g><g><path d="m160.356 140.279c-4.81 2.656-10.327 4.174-16.183 4.174-6.254 0-12.123-1.728-17.155-4.73v4.375c0 2.277-.621 4.457-1.735 6.343l13.883 13.883c.468.469.72 1.064.781 1.676h7.478c.061-.611.313-1.207.782-1.676l13.896-13.896c-1.113-1.885-1.747-4.055-1.747-6.331z" fill="#f9d0b4" data-original="#f9d0b4" style="" class=""/></g><g><g><g><path d="m219.749 48.85c-4.5-.8-8-4.3-8.9-8.7 0-.2-.4-.2-.4 0-.9 4.4-4.4 7.9-8.9 8.7-.2 0-.2.3 0 .4 4.5.8 8 4.3 8.9 8.7 0 .2.4.2.4 0 .9-4.4 4.4-7.9 8.9-8.7.2-.1.2-.4 0-.4z" fill="#f54c4c" data-original="#f5c84c" style="" class=""/></g></g></g><g><g><g><path d="m198.174 139.401c-2.238-.398-3.978-2.138-4.425-4.326 0-.099-.199-.099-.199 0-.448 2.188-2.188 3.928-4.425 4.326-.099 0-.099.149 0 .199 2.238.398 3.978 2.138 4.425 4.326 0 .099.199.099.199 0 .448-2.188 2.188-3.928 4.425-4.326.099-.05.099-.199 0-.199z" fill="#87d147" data-original="#87d147" style=""/></g></g></g><g><g><g><path d="m57.649 212.5h-2.3v-2.3c0-1.7-1.4-3.2-3.2-3.2s-3.2 1.4-3.2 3.2v2.3h-2.3c-1.7 0-3.2 1.4-3.2 3.2s1.4 3.2 3.2 3.2h2.3v2.3c0 1.7 1.4 3.2 3.2 3.2s3.2-1.4 3.2-3.2v-2.3h2.3c1.7 0 3.2-1.4 3.2-3.2s-1.4-3.2-3.2-3.2z" fill="#fc657e" data-original="#fc657e" style="" class=""/></g></g></g><g><g><g><circle cx="71.749" cy="237.4" fill="#f54c4c" r="3.4" data-original="#f5c84c" style="" class=""/></g></g></g><g><g><g><circle cx="188.749" cy="27.4" fill="#00b050" r="3.4" data-original="#70d6f9" style="" class=""/></g></g></g><g><path d="m85.318 55.101-23.292-30.288c-.566-.736-1.721-.562-2.045.308l-4.096 10.993c-.277.744-1.194 1.008-1.825.527l-7.604-5.806c-1.01-.771-2.464-.506-3.137.571l-4.391 7.025c-.618.989-.338 2.29.633 2.937l18.819 12.538c.634.423 1.497.143 1.763-.571l4.016-10.781c.273-.732 1.167-1.003 1.8-.545l18.845 13.619c.349.252.775-.187.514-.527z" fill="#f54c4c" data-original="#f5c84c" style="" class=""/></g><g><path d="m216.627 250.084-.939-69.053c-.613-6.364-5.029-11.719-11.16-13.533l-30.548-9.041c-.052.627-.306 1.24-.786 1.719l-14.567 14.567c-1.077 1.077-2.824 1.077-3.901 0l-6.519-6.519c-.609-.609-.861-1.43-.782-2.225h-7.478c.079.795-.173 1.616-.781 2.225l-6.519 6.519c-1.077 1.077-2.824 1.077-3.901 0l-14.567-14.567c-.56-.56-.822-1.301-.8-2.035l-20.917-3.151-13.284 31.793c-1.387 3.656-4.13 6.361-7.415 7.823l17.484 2.237c3.03 1.14 5.036 4.038 5.036 7.276v46.011c0 1.861 1.509 3.37 3.37 3.37h115.604c1.879 0 3.395-1.537 3.37-3.416z" fill="#00b050" data-original="#70d6f9" style="" class=""/></g><g><path d="m191.673 213.5v40h21.584c1.879 0 3.395-1.537 3.37-3.416l-.497-36.584z" fill="#f9d0b4" data-original="#f9d0b4" style="" class=""/></g><g><path d="m177.853 80.232c-.019-.955-.784-1.743-1.739-1.771-13.994-.41-21.367-5.957-24.201-8.734-.773-.758-2.022-.678-2.696.17-12.304 15.472-30.454 13.289-36.556 12.012-.359-.075-.71-.029-1.025.094.116 3.744 2.041 9.391 3.528 13.218l.077.2c1.211 3.127.772 6.615-1.04 9.437-1.422 2.214-2.648 4.546-3.688 6.961.563 18.044 15.485 32.632 33.659 32.632 18.527 0 33.686-15.159 33.686-33.686v-30.006c.001-.176-.001-.351-.005-.527z" fill="#f9d0b4" data-original="#f9d0b4" style="" class=""/></g><g><path d="m170.533 44.501c-3.59 0-6.946 1.014-9.83 2.744-3.369-5.622-9.506-9.418-16.501-9.418h-9.881c-8.925 0-17.091 3.41-23.265 8.989 1.48 1.309 1.998 3.468 1.112 5.338l-8.422 17.776c.787-1.153 1.811-1.904 3.144-1.905 5.764-.003 4.72 7.596 4.724 13.622 0 .111.018.241.022.356.315-.123.666-.169 1.025-.094 6.103 1.277 24.253 3.461 36.556-12.012.674-.848 1.922-.928 2.696-.17 2.833 2.777 10.207 8.323 24.201 8.734.955.028 1.72.815 1.739 1.771.003.175.005.351.005.527v4.506c.705-.109 1.426-.171 2.162-.171 3.791 0 7.225 1.507 9.755 3.947v-25.298c0-10.583-8.659-19.242-19.242-19.242z" fill="#754e34" data-original="#754e34" style="" class=""/></g><g><path d="m180.02 85.093c-.736 0-1.457.062-2.162.171v25.502c0 .76-.035 1.512-.085 2.259.733.118 1.48.196 2.246.196 7.767 0 14.064-6.297 14.064-14.064s-6.295-14.064-14.063-14.064z" fill="#f9d0b4" data-original="#f9d0b4" style="" class=""/></g><g><path d="m144.173 146.952c-19.521 0-35.399-15.283-36.148-34.794-.053-1.379 1.022-2.541 2.402-2.594 1.37-.059 2.54 1.022 2.594 2.402.635 16.534 14.609 29.985 31.152 29.985 17.195 0 31.186-13.99 31.186-31.186v-29.83c-13.416-.552-21.04-5.583-24.65-8.907-13.323 16.125-32.843 13.523-38.559 12.326-1.352-.283-2.218-1.607-1.936-2.959.283-1.352 1.617-2.216 2.959-1.935 6.51 1.36 22.855 3.004 34.088-11.121.762-.958 1.897-1.551 3.116-1.626 1.206-.075 2.414.372 3.287 1.228 2.327 2.281 9.179 7.628 22.523 8.02 2.289.067 4.118 1.92 4.165 4.218l.006.578v30.007c0 19.955-16.232 36.188-36.185 36.188z" fill="#000000" data-original="#000000" style="" class=""/></g><g><path d="m189.775 91.208c-1.381 0-2.5-1.119-2.5-2.5v-24.965c0-9.231-7.511-16.742-16.742-16.742-2.983 0-5.938.826-8.545 2.388-.569.341-1.25.441-1.893.281-.644-.161-1.196-.571-1.537-1.14-3.031-5.06-8.532-8.203-14.356-8.203h-9.881c-7.779 0-15.308 2.84-21.2 7.998-1.04.91-2.619.805-3.527-.235-.91-1.039-.805-2.618.234-3.528 6.804-5.956 15.502-9.235 24.493-9.235h9.881c6.782 0 13.222 3.269 17.314 8.665 2.836-1.308 5.912-1.991 9.017-1.991 11.988 0 21.742 9.753 21.742 21.742v24.965c0 1.381-1.119 2.5-2.5 2.5z" fill="#000000" data-original="#000000" style="" class=""/></g><g><path d="m180.021 115.722c-.52 0-1.046-.029-1.609-.089-1.373-.145-2.368-1.376-2.223-2.749.146-1.373 1.374-2.36 2.75-2.223.386.041.74.061 1.082.061 6.376 0 11.563-5.188 11.563-11.564s-5.188-11.564-11.563-11.564c-.352 0-.699.018-1.042.05-1.383.138-2.595-.88-2.724-2.254s.88-2.594 2.255-2.723c.508-.048 1.016-.072 1.511-.072 9.133 0 16.563 7.431 16.563 16.564 0 9.132-7.431 16.563-16.563 16.563z" fill="#000000" data-original="#000000" style="" class=""/></g><g><path d="m158.766 113.475c-.058-.581-.627-.964-1.186-.794-2.281.693-7.965 2.233-13.407 2.233-5.443 0-11.126-1.54-13.407-2.233-.559-.17-1.128.212-1.186.794-.288 2.879-.467 10.622 5.062 15.376 5.301 4.558 13.902 4.438 19.063 0 5.528-4.754 5.349-12.497 5.061-15.376z" fill="#fc657e" data-original="#fc657e" style="" class=""/></g><g><path d="m163.135 102.211c-.28 0-.565-.047-.845-.147l-8.102-2.909c-.885-.318-1.517-1.104-1.635-2.037-.119-.932.294-1.852 1.07-2.382l8.102-5.527c1.141-.778 2.695-.483 3.475.657.778 1.141.484 2.696-.656 3.474l-4.054 2.765 3.489 1.253c1.3.467 1.975 1.898 1.508 3.198-.366 1.02-1.327 1.655-2.352 1.655z" fill="#000000" data-original="#000000" style="" class=""/></g><g><path d="m125.212 102.211c-1.025 0-1.986-.635-2.353-1.656-.467-1.299.208-2.731 1.508-3.198l3.489-1.253-4.054-2.765c-1.141-.778-1.435-2.333-.656-3.474s2.334-1.435 3.475-.657l8.102 5.527c.776.53 1.189 1.45 1.07 2.382-.118.932-.75 1.719-1.635 2.037l-8.102 2.909c-.279.101-.564.148-.844.148z" fill="#000000" data-original="#000000" style="" class=""/></g><g><path d="m144.173 134.715c-4.042 0-8.083-1.322-11.161-3.969-6.373-5.48-6.263-14.078-5.919-17.52.104-1.028.653-1.943 1.509-2.513.855-.569 1.907-.724 2.892-.424 2.103.638 7.548 2.124 12.68 2.124s10.577-1.486 12.681-2.125c.983-.3 2.038-.144 2.892.425.855.57 1.405 1.485 1.509 2.509v.003c.344 3.442.454 12.04-5.92 17.52-3.078 2.647-7.121 3.97-11.163 3.97zm-12.21-19.096c-.038 3.18.587 8.136 4.309 11.336 4.283 3.683 11.52 3.683 15.803 0 3.722-3.2 4.347-8.155 4.31-11.336-2.922.775-7.633 1.794-12.211 1.794-4.578.001-9.289-1.018-12.211-1.794z" fill="#000000" data-original="#000000" style="" class=""/></g><g><path d="m115.242 95.421-.078-.2c-1.533-3.945-3.548-9.84-3.55-13.574-.003-6.026 1.041-13.625-4.724-13.622-1.333 0-2.357.752-3.144 1.905l8.422-17.776c1.108-2.339.048-5.153-2.385-6.156-2.076-.856-4.471.047-5.675 1.943l-10.681 16.816c-3.626 6.298-4.624 13.771-2.778 20.8l3.252 12.382s.036.184.069.514c.178 1.77-.192 3.553-1 5.138l-39.217 71.488c-3.868 7.078-.985 15.953 6.304 19.406 7.4 3.505 16.216-.046 19.121-7.701l31.017-74.236c1.101-2.678 2.442-5.251 4.007-7.689 1.812-2.822 2.251-6.31 1.04-9.438z" fill="#f9d0b4" data-original="#f9d0b4" style="" class=""/></g><g><path d="m101.135 84.545c-1.381 0-2.499-1.118-2.5-2.498 0-.847.069-8.401 2.629-12.86.687-1.198 2.217-1.612 3.412-.923 1.198.687 1.611 2.215.924 3.413-1.607 2.801-1.963 8.435-1.965 10.37-.001 1.379-1.12 2.498-2.5 2.498z" fill="#000000" data-original="#000000" style="" class=""/></g><g><path d="m66.066 198.331c-2.427 0-4.85-.531-7.079-1.587-4.153-1.967-7.224-5.458-8.644-9.829-1.421-4.372-.989-9 1.216-13.034l39.219-71.492c.575-1.132.831-2.43.705-3.687-.011-.104-.021-.187-.03-.243l-3.222-12.268c-2.026-7.715-.95-15.771 3.029-22.682.019-.031.037-.063.057-.093l10.682-16.816c1.9-2.991 5.574-4.219 8.738-2.913 1.81.746 3.193 2.159 3.896 3.979.692 1.794.618 3.82-.206 5.559l-5.903 12.461c1.251.261 2.32.839 3.19 1.728 2.633 2.689 2.532 7.337 2.436 11.833-.018.813-.036 1.62-.035 2.399.001 2.564 1.201 7.063 3.379 12.67l.077.197c.001.002.001.004.002.006 1.47 3.795.996 8.165-1.268 11.691-1.479 2.303-2.756 4.755-3.798 7.289l-31.022 74.249c-1.601 4.222-4.983 7.673-9.248 9.391-1.977.796-4.075 1.192-6.171 1.192zm29.501-132.281c-3.297 5.754-4.185 12.454-2.5 18.871l3.252 12.382c.013.047.028.119.038.167 0 0 .052.259.1.726.224 2.22-.213 4.475-1.26 6.53l-39.253 71.556c-1.535 2.81-1.836 6.039-.846 9.087.991 3.049 3.132 5.484 6.029 6.856 2.939 1.392 6.222 1.49 9.241.275 3.019-1.216 5.317-3.561 6.473-6.604l31.047-74.313c1.15-2.798 2.569-5.519 4.21-8.075 1.403-2.187 1.707-4.873.813-7.184l-.076-.194c-2.467-6.352-3.718-11.223-3.72-14.481-.001-.816.018-1.66.036-2.511.064-2.971.152-7.04-1.009-8.226-.113-.116-.379-.387-1.247-.387-.001 0-.002 0-.002 0-.158 0-.526 0-1.081.814-.737 1.077-2.179 1.408-3.309.76-1.133-.649-1.575-2.06-1.016-3.239l8.422-17.776c.242-.513.264-1.086.06-1.616-.205-.529-.608-.94-1.139-1.159-.898-.37-2.023.047-2.611.972z" fill="#000000" data-original="#000000" style="" class=""/></g><g><path d="m139.166 164.324-14.567-14.567c-1.077-1.077-2.824-1.077-3.901 0l-6.519 6.519c-1.077 1.077-1.077 2.824 0 3.901l14.567 14.567c1.077 1.077 2.824 1.077 3.901 0l6.519-6.519c1.078-1.077 1.078-2.824 0-3.901z" fill="#03f772" data-original="#9be5f9" style="" class=""/></g><g><path d="m148.207 164.324 14.567-14.567c1.077-1.077 2.824-1.077 3.901 0l6.519 6.519c1.077 1.077 1.077 2.824 0 3.901l-14.567 14.567c-1.077 1.077-2.824 1.077-3.901 0l-6.519-6.519c-1.077-1.077-1.077-2.824 0-3.901z" fill="#03f772" data-original="#9be5f9" style="" class=""/></g><g><path d="m130.697 178.049c-1.347 0-2.692-.512-3.718-1.537l-14.567-14.568c-2.051-2.05-2.051-5.386 0-7.436l6.519-6.519c.992-.994 2.313-1.541 3.719-1.541 1.404 0 2.726.547 3.719 1.541l14.565 14.566c.993.993 1.541 2.314 1.541 3.719s-.548 2.726-1.542 3.719l-6.518 6.518c-1.024 1.025-2.371 1.538-3.718 1.538zm-8.048-26.6c-.071 0-.133.025-.183.076l-6.52 6.519c-.05.05-.075.112-.075.183s.025.133.075.183l14.566 14.567c.101.1.264.101.366 0l6.519-6.519c.051-.051.076-.112.076-.183s-.025-.132-.075-.182c-.001 0-.001 0-.001-.001l-14.566-14.567c-.05-.051-.111-.076-.182-.076z" fill="#000000" data-original="#000000" style="" class=""/></g><g><path d="m156.677 178.051c-1.404 0-2.725-.547-3.718-1.54l-6.52-6.519c-2.051-2.05-2.051-5.387 0-7.437l14.567-14.567c.992-.994 2.313-1.541 3.719-1.541 1.404 0 2.726.547 3.719 1.541l6.518 6.519c2.051 2.05 2.051 5.386 0 7.436l-14.567 14.567c-.994.994-2.314 1.541-3.718 1.541zm-6.702-11.96c-.05.05-.075.112-.075.183s.025.132.075.183l6.52 6.519c.102.101.264.1.365 0l14.567-14.567c.05-.05.075-.112.075-.183s-.025-.132-.075-.183l-6.519-6.519c-.102-.101-.266-.1-.365 0z" fill="#000000" data-original="#000000" style="" class=""/></g><g><path d="m146.625 168.5h-6.083c-1.381 0-2.5-1.119-2.5-2.5s1.119-2.5 2.5-2.5h6.083c1.381 0 2.5 1.119 2.5 2.5s-1.119 2.5-2.5 2.5z" fill="#000000" data-original="#000000" style="" class=""/></g><g><path d="m125.496 152.562c-.404 0-.814-.098-1.194-.305-1.212-.66-1.659-2.179-.999-3.391.795-1.46 1.216-3.109 1.216-4.769v-3.722c0-1.381 1.119-2.5 2.5-2.5s2.5 1.119 2.5 2.5v3.722c0 2.492-.631 4.968-1.825 7.16-.454.833-1.312 1.305-2.198 1.305z" fill="#000000" data-original="#000000" style="" class=""/></g><g><path d="m161.769 152.323c-.903 0-1.775-.491-2.221-1.348-1.107-2.131-1.692-4.509-1.692-6.878v-3.306c0-1.381 1.119-2.5 2.5-2.5s2.5 1.119 2.5 2.5v3.306c0 1.569.391 3.15 1.13 4.572.637 1.225.159 2.734-1.066 3.371-.369.192-.763.283-1.151.283z" fill="#000000" data-original="#000000" style="" class=""/></g><g><path d="m112.881 160.566c-.124 0-.249-.009-.375-.028l-19.813-2.984c-1.365-.206-2.306-1.479-2.1-2.845.206-1.365 1.482-2.306 2.844-2.1l19.813 2.984c1.365.206 2.306 1.479 2.1 2.845-.187 1.239-1.253 2.128-2.469 2.128z" fill="#000000" data-original="#000000" style="" class=""/></g><g><path d="m213.257 256h-115.604c-3.236 0-5.87-2.633-5.87-5.87v-46.011c0-2.095-1.264-4.006-3.172-4.836l-16.92-2.165c-1.369-.175-2.338-1.428-2.162-2.797.175-1.369 1.427-2.333 2.797-2.163l17.238 2.206c.192.025.381.072.563.14 3.981 1.498 6.656 5.362 6.656 9.615v46.011c0 .48.391.87.87.87h115.604c.316 0 .524-.163.619-.259.096-.097.256-.307.251-.623l-.937-68.945c-.555-5.333-4.224-9.754-9.371-11.278l-30.246-8.951c-1.324-.392-2.08-1.783-1.688-3.107.393-1.325 1.786-2.079 3.106-1.688l30.246 8.952c7.145 2.114 12.224 8.273 12.939 15.69.007.068.011.137.012.206l.938 69.053c.021 1.583-.579 3.076-1.691 4.203-1.111 1.126-2.595 1.747-4.178 1.747z" fill="#000000" data-original="#000000" style="" class=""/></g><g><path d="m191.673 255c-1.381 0-2.5-1.119-2.5-2.5v-56c0-1.381 1.119-2.5 2.5-2.5s2.5 1.119 2.5 2.5v56c0 1.381-1.119 2.5-2.5 2.5z" fill="#000000" data-original="#000000" style="" class=""/></g><g><path d="m215.5 216h-23.187c-1.381 0-2.5-1.119-2.5-2.5s1.119-2.5 2.5-2.5h23.187c1.381 0 2.5 1.119 2.5 2.5s-1.119 2.5-2.5 2.5z" fill="#000000" data-original="#000000" style="" class=""/></g><g><path d="m96.999 10.498-8.402 4.513c-.568.305-1.27-.025-1.397-.658l-2.088-10.44c-.193-.966-1.143-1.585-2.105-1.371l-6.75 1.5c-.977.217-1.575 1.204-1.316 2.17l5.627 21.001c.16.599.837.891 1.383.598l8.24-4.426c.559-.3 1.251.014 1.392.634l4.194 18.432c.077.34.573.301.596-.047l2.04-30.997c.049-.752-.749-1.266-1.414-.909z" fill="#f54c4c" data-original="#f5c84c" style="" class=""/></g><g><path d="m96.063 45.188c-1.306 0-2.432-.888-2.726-2.183l-3.744-16.46-6.46 3.47c-.937.503-2.034.549-3.011.128-.977-.422-1.694-1.254-1.97-2.282l-5.627-21c-.299-1.116-.126-2.323.473-3.31.6-.988 1.59-1.698 2.717-1.948l6.75-1.5c1.126-.25 2.279-.042 3.246.588.968.63 1.625 1.6 1.852 2.732l1.682 8.403 6.571-3.529c1.108-.594 2.453-.543 3.511.138s1.663 1.883 1.58 3.139l-2.04 30.996c-.094 1.405-1.179 2.5-2.578 2.61-.077.005-.152.008-.226.008zm2.149-3.294.001.003c0-.001 0-.002-.001-.003zm-7.569-21.125c.487 0 .975.104 1.436.314.993.452 1.7 1.32 1.941 2.383l.849 3.727.867-13.178-5.956 3.198c-.961.517-2.126.547-3.113.082s-1.704-1.383-1.918-2.454l-1.939-9.694-5.253 1.167 4.924 18.375 6.528-3.506c.512-.276 1.072-.414 1.634-.414zm-.992-6.909v.002s0-.001 0-.002zm7.348-3.361h.01z" fill="#000000" data-original="#000000" style="" class=""/></g><g><path d="m54.722 72.441c-1.229 0-2.301-.907-2.474-2.159-.188-1.368.768-2.629 2.135-2.818l20.897-2.881c1.376-.189 2.63.768 2.818 2.135.188 1.368-.768 2.629-2.135 2.818l-20.897 2.881c-.116.016-.231.024-.344.024z" fill="#000000" data-original="#000000" style="" class=""/></g><g><path d="m112.674 33c-.238 0-.479-.034-.72-.106-1.322-.396-2.072-1.791-1.676-3.113l3-10c.397-1.323 1.789-2.074 3.113-1.676 1.322.396 2.072 1.791 1.676 3.113l-3 10c-.325 1.083-1.318 1.782-2.393 1.782z" fill="#000000" data-original="#000000" style="" class=""/></g><g><path d="m68.523 85.369c-.91 0-1.788-.499-2.229-1.366-.627-1.23-.138-2.736 1.093-3.362l9.304-4.737c1.229-.623 2.736-.137 3.362 1.094.627 1.23.138 2.736-1.093 3.362l-9.304 4.737c-.363.184-.751.272-1.133.272z" fill="#000000" data-original="#000000" style="" class=""/></g><g><path d="m85.027 58.206c-.585 0-1.174-.181-1.685-.55l-17.444-12.606-3.411 9.159c-.396 1.062-1.241 1.87-2.317 2.218-1.077.349-2.233.188-3.175-.439l-18.818-12.539c-2.11-1.407-2.711-4.192-1.367-6.343l4.391-7.025c.692-1.108 1.827-1.879 3.114-2.113 1.283-.232 2.619.086 3.66.88l6.189 4.726 3.475-9.326c.467-1.253 1.579-2.156 2.901-2.355 1.328-.195 2.652.336 3.468 1.396l23.292 30.288c.001 0 .001.001.002.002.875 1.141.783 2.718-.219 3.75-.562.579-1.306.877-2.056.877zm-1.693-1.585s0 .001.001.002zm-42.107-17.148 17.156 11.431 3.435-9.221c.406-1.088 1.275-1.904 2.385-2.239 1.108-.336 2.284-.139 3.223.541l7.011 5.066-12.943-16.829-3.266 8.765c-.404 1.086-1.312 1.929-2.427 2.251-1.117.324-2.334.094-3.257-.61l-7.305-5.577z" fill="#000000" data-original="#000000" style="" class=""/></g></g></g></g></svg>
