<?xml version="1.0" encoding="iso-8859-1"?>
<!-- Generator: Adobe Illustrator 19.0.0, SVG Export Plug-In . SVG Version: 6.00 Build 0)  -->
<svg version="1.1" id="Capa_1" xmlns="http://www.w3.org/2000/svg" xmlns:xlink="http://www.w3.org/1999/xlink" x="0px" y="0px"
	 viewBox="0 0 512 512" style="enable-background:new 0 0 512 512;" xml:space="preserve">
<path style="fill:#F2F2F2;" d="M277.695,390.508H17.356C7.767,390.508,0,382.742,0,373.153V17.356C0,7.767,7.767,0,17.356,0h468.61
	c9.589,0,17.356,7.767,17.356,17.356v355.797"/>
<circle style="fill:#D6B321;" cx="390.508" cy="390.508" r="104.136"/>
<g>
	<path style="fill:#CCCCCC;" d="M0,34.712h503.322V17.356C503.322,7.767,495.555,0,485.966,0H17.356C7.767,0,0,7.767,0,17.356
		V34.712z"/>
	<path style="fill:#CCCCCC;" d="M500.996,381.831c1.527-2.638,2.334-5.632,2.326-8.678v-52.068h-26.034"/>
	<path style="fill:#CCCCCC;" d="M303.729,321.085H0v52.068c0,9.589,7.767,17.356,17.356,17.356h251.661"/>
</g>
<path style="fill:#999999;" d="M303.729,468.61h-52.068h-95.458l26.034-78.102h95.458"/>
<path style="fill:#CCCCCC;" d="M390.508,503.322H60.746V468.61h251.661"/>
<path style="fill:#29485A;" d="M242.983,347.119h17.356v17.356h-17.356V347.119z"/>
<path style="fill:#0071BC;" d="M217.296,108.865c-49.022-0.026-88.776,39.693-88.81,88.706
	c-0.035,49.013,39.693,88.776,88.706,88.81c23.578,0.009,46.193-9.355,62.854-26.043l-62.759-62.716v-88.758L217.296,108.865z"/>
<path style="fill:#F8CF26;" d="M307.556,95.458c-16.627-16.679-39.207-26.051-62.759-26.034v88.75L307.556,95.458z"/>
<path style="fill:#39B54A;" d="M320.399,128.581l-62.75,62.759l62.75,62.759C355.059,219.44,355.059,163.25,320.399,128.581
	C320.408,128.59,320.399,128.581,320.399,128.581z"/>
<path style="fill:#ED1C24;" d="M34.712,104.136h17.356v34.712H34.712V104.136z"/>
<path style="fill:#F8CF26;" d="M60.746,86.78h17.356v52.068H60.746V86.78z"/>
<path style="fill:#0071BC;" d="M86.78,60.746h17.356v78.102H86.78V60.746z"/>
<path style="fill:#ED1C24;" d="M387.966,249.118l-12.271-12.271l34.712-34.712c3.384-3.384,8.886-3.384,12.271,0l11.221,11.221
	l37.254-37.255l12.271,12.271l-43.39,43.39c-3.384,3.384-8.886,3.384-12.271,0l-11.221-11.221L387.966,249.118z"/>
<g>
	<path style="fill:#29485A;" d="M390.508,60.746h78.102v17.356h-78.102V60.746z"/>
	<path style="fill:#29485A;" d="M390.508,86.78h78.102v17.356h-78.102V86.78z"/>
	<path style="fill:#29485A;" d="M390.508,112.814h78.102v17.356h-78.102V112.814z"/>
	<path style="fill:#29485A;" d="M34.712,260.339h26.034v17.356H34.712V260.339z"/>
	<path style="fill:#29485A;" d="M34.712,286.373h26.034v17.356H34.712V286.373z"/>
</g>
<g>
	<path style="fill:#F8CF26;" d="M390.508,512c-67.098,0-121.492-54.393-121.492-121.492s54.394-121.492,121.492-121.492
		S512,323.41,512,390.508C511.931,457.58,457.58,511.931,390.508,512z M390.508,286.373C333,286.373,286.373,333,286.373,390.508
		S333,494.644,390.508,494.644s104.136-46.627,104.136-104.136C494.583,333.026,447.991,286.434,390.508,286.373z"/>
	<path style="fill:#F8CF26;" d="M407.864,381.831h-34.712c-4.79,0-8.678-3.888-8.678-8.678v-17.356
		c0-9.589,7.767-17.356,17.356-17.356h17.356c9.589,0,17.356,7.767,17.356,17.356h17.356c0-19.17-15.542-34.712-34.712-34.712
		v-17.356h-17.356v17.356c-19.17,0-34.712,15.542-34.712,34.712v17.356c0,14.379,11.654,26.034,26.034,26.034h34.712
		c4.79,0,8.678,3.888,8.678,8.678v17.356c0,9.589-7.767,17.356-17.356,17.356h-17.356c-9.589,0-17.356-7.767-17.356-17.356v-8.678
		h-17.356v8.678c0,19.17,15.542,34.712,34.712,34.712v17.356h17.356v-17.356c19.17,0,34.712-15.542,34.712-34.712v-17.356
		C433.898,393.485,422.244,381.831,407.864,381.831z"/>
</g>
<g>
</g>
<g>
</g>
<g>
</g>
<g>
</g>
<g>
</g>
<g>
</g>
<g>
</g>
<g>
</g>
<g>
</g>
<g>
</g>
<g>
</g>
<g>
</g>
<g>
</g>
<g>
</g>
<g>
</g>
</svg>
