<?xml version="1.0" encoding="iso-8859-1"?>
<!-- Generator: Adobe Illustrator 19.0.0, SVG Export Plug-In . SVG Version: 6.00 Build 0)  -->
<svg version="1.1" id="Capa_1" xmlns="http://www.w3.org/2000/svg" xmlns:xlink="http://www.w3.org/1999/xlink" x="0px" y="0px"
	 viewBox="0 0 512.297 512.297" style="enable-background:new 0 0 512.297 512.297;" xml:space="preserve">
<polygon style="fill:#ADB3BA;" points="113.338,286.755 89.872,264.355 70.672,224.889 93.072,223.822 94.138,224.889 "/>
<path style="fill:#415A6B;" d="M87.738,211.022c0,0,4.267,33.067,7.467,41.6c3.2,8.533,14.933,25.6,18.133,35.2
	c3.2,9.6,4.267,23.467,4.267,23.467s1.067-28.8-3.2-43.733c-5.333-16-13.867-26.667-16-36.267
	C95.205,221.689,94.138,212.089,87.738,211.022z"/>
<path style="fill:#FFD15C;" d="M418.405,136.355c0,0-12.8,14.933-16,27.733c0,0-1.067,3.2,0,5.333s1.067,3.2-1.067,6.4
	c-2.133,3.2-6.4,7.467-4.267,10.667c2.133,3.2,6.4,4.267,6.4,4.267s-4.267,7.467,0,9.6c0,0-3.2,2.133,0,6.4
	c3.2,3.2-3.2,11.733,9.6,16c13.867,3.2,17.067,7.467,19.2,10.667c1.067,3.2,1.067,3.2,1.067,3.2l45.867-14.933c0,0-3.2-6.4-3.2-16
	c0-9.6,0-9.6,0-9.6S452.539,139.555,418.405,136.355z"/>
<path style="fill:#CED6E0;" d="M412.005,279.289c0,0-2.133-5.333,1.067-13.867c3.2-8.533,5.333-5.333,7.467-16
	c1.067-11.733,0-16,0-16l24.533-8.533l50.133,30.933c0,0,2.133,43.733-3.2,64c-5.333,19.2-21.333,39.467-21.333,39.467
	L412.005,279.289z"/>
<path style="fill:#F3F3F3;" d="M420.539,233.422c0,0,2.133-1.067,2.133,3.2c1.067,4.267,5.333,17.067,5.333,19.2
	c0,2.133-1.067,2.133-1.067,2.133s22.4-13.867,33.067-17.067c10.667-4.267,24.533-13.867,24.533-13.867s0-6.4-1.067-9.6
	c0-1.067-2.133-2.133-3.2-2.133C460.005,219.555,439.739,224.889,420.539,233.422z"/>
<path style="fill:#F3705A;" d="M391.738,286.755l5.333,114.133c0,0-304,5.333-304,0c0-5.333,58.667-129.067,58.667-129.067
	L391.738,286.755z"/>
<path style="fill:#CED6E0;" d="M248.805,285.689l-5.333,3.2l-4.267,10.667c0,1.067-1.067,2.133-1.067,2.133
	c0,1.067,0,2.133,1.067,2.133l46.933,1.067c2.133,0,3.2-1.067,3.2-3.2l-1.067-11.733L248.805,285.689z"/>
<g>
	<rect x="243.472" y="275.022" style="fill:#ADB3BA;" width="45.867" height="14.933"/>
	<path style="fill:#ADB3BA;" d="M353.338,284.622l-185.6-3.2c-3.2,0-5.333-2.133-5.333-5.333v-128c0-3.2,2.133-5.333,5.333-5.333
		l190.933,3.2c3.2,0,5.333,2.133,5.333,5.333l-4.267,126.933C358.672,282.489,356.539,284.622,353.338,284.622z"/>
	<path style="fill:#ADB3BA;" d="M362.939,152.355l-4.267,114.133l-197.333-6.4v-112c0-3.2,2.133-5.333,5.333-5.333l190.933,3.2
		C360.805,147.022,364.005,149.155,362.939,152.355z"/>
</g>
<path style="fill:#415A6B;" d="M358.672,147.022l-190.933-3.2c-3.2,0-5.333,2.133-5.333,5.333v112l197.333,6.4l3.2-115.2
	C364.005,149.155,360.805,147.022,358.672,147.022z"/>
<polygon style="fill:#FFFFFF;" points="170.938,152.355 172.005,251.555 351.205,257.955 354.405,155.555 "/>
<path style="fill:#CED6E0;" d="M359.738,266.489v12.8c0,3.2-2.133,5.333-5.333,5.333l-185.6-3.2c-3.2,0-5.333-2.133-5.333-5.333v-16
	L359.738,266.489z"/>
<path style="fill:#FFD15C;" d="M191.205,268.622c0,0,7.467-2.133,10.667-5.333c3.2-3.2,2.133-4.267,3.2-5.333
	c1.067-1.067,5.333-2.133,5.333-2.133s10.667,0,6.4-7.467l-4.267,1.067c0,0-1.067,0-3.2,0s-4.267,0-8.533-1.067
	c-3.2,0-6.4-1.067-8.533,1.067c-2.133,1.067-5.333,5.333-6.4,6.4c-2.133,1.067-20.267,7.467-20.267,7.467l8.533,16
	c0,0,12.8,0,20.267-3.2c7.467-2.133,13.867-7.467,16-11.733c2.133-4.267,2.133-8.533,2.133-8.533s-8.533,11.733-13.867,13.867
	C193.339,272.889,191.205,268.622,191.205,268.622z"/>
<path style="fill:#FFFFFF;" d="M162.405,265.422l8.533-3.2c0,0,2.133,16,8.533,22.4l-22.4,9.6L162.405,265.422z"/>
<path style="fill:#FFD15C;" d="M186.938,276.089l12.8-3.2l12.8-9.6l2.133-4.267v-5.333l-16,3.2
	C199.739,255.822,180.538,270.755,186.938,276.089z"/>
<path style="fill:#415A6B;" d="M197.605,271.822l2.133,2.133c1.067,0,4.267-3.2,10.667-10.667c1.067-1.067,2.133-2.133,3.2-3.2
	c3.2-4.267,6.4-8.533,10.667-12.8l2.133-2.133c2.133-3.2,4.267-6.4,6.4-10.667l0,0l0,0c-3.2,2.133-6.4,4.267-9.6,7.467l-2.133,2.133
	c-3.2,4.267-7.467,8.533-10.667,12.8c-1.067,1.067-2.133,2.133-3.2,3.2C199.739,266.489,198.672,269.689,197.605,271.822z"/>
<path style="fill:#4ABAA5;" d="M225.339,244.089c1.067-1.067,1.067-2.133,2.133-2.133l-3.2-3.2
	c-1.067,1.067-1.067,1.067-2.133,2.133l-2.133,2.133c0,1.067-1.067,1.067-1.067,2.133l3.2,3.2c0-1.067,1.067-1.067,1.067-2.133
	L225.339,244.089z"/>
<path style="fill:#F3705A;" d="M197.605,272.889L197.605,272.889l2.133,1.067l-1.067,1.067c0,0-1.067,1.067-2.133,0
	C197.605,273.955,196.538,272.889,197.605,272.889z"/>
<g>
	<path style="fill:#4ABAA5;" d="M202.938,263.289c0,1.067,0,2.133,1.067,3.2c1.067,1.067,2.133,1.067,3.2,0
		c-1.067,1.067-2.133,2.133-2.133,3.2c-1.067,0-1.067,0-2.133,1.067c-1.067,0-1.067,0-2.133,0c0,0,0-1.067,0-2.133
		c0-1.067,0-1.067,0-2.133C200.805,266.489,201.872,265.422,202.938,263.289z"/>
	
		<ellipse transform="matrix(-0.6438 0.7652 -0.7652 -0.6438 541.2953 273.372)" style="fill:#4ABAA5;" cx="207.02" cy="262.674" rx="9.6" ry="1.067"/>
</g>
<g>
	<path style="fill:#FFD15C;" d="M197.605,269.689c0,0-3.2,2.133-1.067,5.333c2.133,3.2,8.533,2.133,9.6,1.067
		c1.067-1.067,2.133-3.2,2.133-3.2s4.267-1.067,4.267-3.2c0-2.133,0-2.133,0-2.133s3.2-1.067,4.267-3.2
		c1.067-2.133-1.067-4.267-1.067-4.267v-1.067c0,0,5.333,0,5.333-3.2c0-3.2-2.133-4.267-2.133-4.267s-8.533,5.333-5.333,8.533v1.067
		c0,0-2.133,1.067-5.333,1.067c-3.2,0-3.2,0-4.267,0c-1.067,0-4.267,2.133-1.067,4.267c3.2,2.133,2.133,2.133,2.133,2.133
		s-2.133,1.067-3.2,0c-1.067-1.067-2.133-1.067-3.2,0C197.605,267.555,197.605,269.689,197.605,269.689z"/>
	<path style="fill:#FFD15C;" d="M216.805,249.422l-4.267,1.067c0,0-1.067,0-3.2,0c-1.067,0-3.2,0-4.267,0v8.533
		c1.067-1.067,5.333-2.133,5.333-2.133S220.005,256.889,216.805,249.422z"/>
</g>
<path style="fill:#415A6B;" d="M421.605,262.222c0,0,19.2-7.467,34.133-6.4s33.067,18.133,35.2,40.533
	c2.133,22.4-11.733,44.8-51.2,55.467c-38.4,10.667-42.667,19.2-42.667,19.2v29.867h83.2c0,0,33.067-103.467,32-129.067
	s-26.667-45.867-26.667-45.867s-18.133,6.4-32,10.667C439.739,240.889,424.805,256.889,421.605,262.222z"/>
<g>
	<path style="fill:#FFD15C;" d="M286.138,307.022l-3.2,2.133c0,0-3.2,9.6-3.2,11.733s3.2,2.133,4.267,0
		c1.067-2.133,3.2-8.533,3.2-8.533l2.133-3.2c0,0-2.133,5.333-2.133,8.533c0,3.2,0,5.333,2.133,6.4c2.133,0,3.2-1.067,3.2-2.133
		c0,0,1.067,1.067,2.133,1.067c2.133,0,2.133-1.067,2.133-2.133c0,0,1.067,1.067,2.133,1.067c1.067,0,2.133,0,2.133,0l2.133-4.267
		v-8.533l-4.267-5.333L286.138,307.022z"/>
	<path style="fill:#FFD15C;" d="M290.405,313.422c0,0-4.267,1.067-6.4,4.267c-2.133,2.133,0,5.333,3.2,5.333
		c3.2,0,7.467-1.067,9.6-3.2c2.133-1.067,5.333-3.2,7.467-3.2c2.133,0,4.267,2.133,11.733,2.133s20.267-2.133,26.667-2.133
		c6.4,1.067,6.4,1.067,6.4,1.067l-7.467-16c0,0-12.8,1.067-16,0s-20.267-5.333-22.4-6.4c-3.2-1.067-4.267,0-5.333,1.067
		c-1.067,1.067-10.667,6.4-11.733,7.467c-1.067,1.067-2.133,5.333-2.133,5.333l4.267,2.133c0,0,1.067-1.067,2.133-2.133
		s4.267-3.2,4.267-3.2s4.267,0,6.4,0l1.067,3.2C301.072,308.089,295.738,312.355,290.405,313.422z"/>
</g>
<path style="fill:#CED6E0;" d="M336.272,320.889c0,0-2.133-14.933,2.133-19.2l23.467,1.067c0,0,6.4-2.133,11.733-2.133
	s8.533-1.067,11.733-1.067c3.2-1.067,17.067-4.267,17.067-4.267l13.867,23.467c0,0-25.6,5.333-36.267,5.333
	c-10.667,0-19.2-1.067-19.2-1.067L336.272,320.889z"/>
<path style="fill:#F3F3F3;" d="M371.472,327.289c0,0-1.067,2.133,1.067,0c2.133-2.133,9.6-4.267,10.667-6.4
	c2.133-2.133,8.533-8.533,10.667-13.867c2.133-5.333,2.133-11.733,6.4-16s11.733-35.2,33.067-25.6
	c20.267,9.6,32,33.067,30.933,49.067c-1.067,17.067,1.067,24.533-6.4,30.933c-7.467,6.4-34.133,21.333-50.133,25.6
	s-25.6,6.4-29.867,8.533c-4.267,1.067-16,2.133-21.333-1.067c-5.333-4.267-8.533-14.933-5.333-25.6c3.2-10.667,3.2-16,3.2-16
	S356.539,331.555,371.472,327.289z"/>
<path style="fill:#415A6B;" d="M416.272,190.755l7.467,2.133c0,0-1.067-7.467,4.267-11.733c5.333-4.267,13.867,5.333,19.2,16
	c5.333,10.667,27.733,8.533,27.733,8.533s0-7.467,5.333-16c5.333-8.533,12.8-41.6-12.8-59.733s-53.333-2.133-53.333-2.133
	s-5.333,9.6,1.067,12.8s7.467,1.067,6.4,6.4c-1.067,4.267-5.333,6.4-6.4,10.667c0,1.067,0,3.2,1.067,4.267
	C417.339,165.155,419.472,171.555,416.272,190.755z"/>
<path style="fill:#344A5E;" d="M167.738,262.222c0,0-13.867,4.267-18.133,6.4c-4.267,2.133-3.2,2.133-5.333,3.2
	c-2.133,0-4.267,0-7.467,1.067c-3.2,1.067-4.267,2.133-6.4,2.133c-2.133,0-4.267,0-7.467,1.067
	c-2.133,1.067-8.533,1.067-8.533,1.067l-14.933,1.067l9.6,35.2c0,0,26.667-7.467,34.133-10.667c8.533-4.267,30.933-9.6,30.933-9.6
	S163.472,270.755,167.738,262.222z"/>
<path style="fill:#FFD15C;" d="M125.072,150.222c0,0-3.2,8.533-4.267,10.667c-2.133,2.133-1.067,4.267,0,6.4
	c1.067,2.133,4.267,6.4,5.333,7.467s0,4.267-2.133,4.267s-4.267,0-4.267,0s2.133,8.533-2.133,8.533c0,0,2.133,2.133,0,3.2
	c-2.133,2.133,2.133,9.6-9.6,11.733c-11.733,3.2-22.4,21.333-22.4,21.333l-37.333-27.733l2.133-7.467c0,0,9.6-39.467,25.6-46.933
	C90.938,135.289,126.138,137.422,125.072,150.222z"/>
<path style="fill:#415A6B;" d="M50.405,188.622c0,0,22.4-2.133,23.467-18.133c2.133-17.067,19.2-12.8,20.267-5.333
	c1.067,7.467,2.133,6.4,2.133,6.4l0,0l5.333-1.067c0,0-5.333-6.4,1.067-11.733c6.4-5.333,9.6-2.133,11.733-6.4
	c0,0-2.133,6.4-5.333,8.533c0,0,9.6,0,12.8-3.2c3.2-3.2,6.4-9.6,7.467-16c0-6.4-7.467-18.133-25.6-24.533
	c-18.133-6.4-23.467-10.667-40.533-6.4s-20.267,28.8-20.267,36.267C41.872,156.622,47.205,179.022,50.405,188.622z"/>
<path style="fill:#FFFFFF;" d="M50.405,188.622c0,0,5.333,8.533,14.933,16s27.733,17.067,27.733,17.067l-10.667,29.867
	l-39.467-50.133L50.405,188.622z"/>
<path style="fill:#344A5E;" d="M117.605,346.489c-12.8,27.733-24.533,53.333-24.533,55.467l0,0H21.605c0,0-10.667-54.4-16-73.6
	c-4.267-18.133-6.4-53.333-5.333-60.8c2.133-7.467,4.267-10.667,8.533-23.467c4.267-13.867,5.333-8.533,14.933-22.4
	c9.6-14.933,17.067-20.267,17.067-20.267s54.4,61.867,64,76.8c9.6,13.867,11.733,45.867,11.733,45.867v22.4H117.605z"/>
<g>
	<path style="fill:#415A6B;" d="M70.672,311.289c1.067-18.133-5.333-37.333-13.867-46.933c-8.533-9.6-24.533-10.667-37.333,3.2
		c-12.8,13.867-7.467,36.267-7.467,36.267s11.733,30.933,13.867,41.6c1.067,10.667,14.933,32,30.933,41.6
		c9.6,5.333,25.6,9.6,37.333,12.8c2.133-5.333,7.467-18.133,14.933-33.067C92.005,347.555,69.605,321.955,70.672,311.289z"/>
	<path style="fill:#415A6B;" d="M48.272,192.889c0,0,4.267,12.8,16,24.533c11.733,11.733,40.533,52.267,46.933,64
		c6.4,11.733,6.4,41.6,6.4,41.6s-3.2-21.333-6.4-30.933c-3.2-9.6-24.533-35.2-34.133-43.733c-8.533-7.467-28.8-30.933-35.2-41.6
		c-1.067-3.2,0-5.333,1.067-7.467L48.272,192.889z"/>
</g>
<polygon style="fill:#66C6B9;" points="239.205,224.889 239.205,245.155 233.872,245.155 233.872,224.889 "/>
<polygon style="fill:#FFD15C;" points="250.938,203.555 250.938,245.155 245.605,245.155 245.605,203.555 "/>
<polygon style="fill:#55C0EB;" points="261.605,233.422 261.605,245.155 256.272,245.155 256.272,233.422 "/>
<polygon style="fill:#415A6B;" points="273.339,221.689 273.339,246.222 268.005,246.222 268.005,221.689 "/>
<polygon style="fill:#F3705A;" points="284.005,216.355 284.005,246.222 278.672,246.222 278.672,215.289 "/>
<polygon style="fill:#FFD15C;" points="295.738,238.755 295.738,246.222 290.405,246.222 290.405,238.755 "/>
<polygon style="fill:#55C0EB;" points="306.405,208.889 306.405,247.289 301.072,246.222 301.072,208.889 "/>
<polygon style="fill:#415A6B;" points="318.138,232.355 318.138,247.289 312.805,247.289 312.805,232.355 "/>
<polygon style="fill:#66C6B9;" points="328.805,222.755 328.805,247.289 323.472,247.289 323.472,221.689 "/>
<polygon style="fill:#F3705A;" points="340.538,229.155 340.538,248.355 335.205,247.289 335.205,229.155 "/>
<path style="fill:#415A6B;" d="M205.072,169.422c-6.4,0-12.8,2.133-17.067,6.4l17.067,18.133V169.422z"/>
<path style="fill:#66C6B9;" d="M222.138,176.889c-4.267-4.267-10.667-7.467-17.067-7.467v24.533L222.138,176.889z"/>
<path style="fill:#F3705A;" d="M205.072,193.955l6.4,23.467c10.667-3.2,18.133-12.8,18.133-23.467c0-6.4-2.133-12.8-7.467-17.067
	L205.072,193.955z"/>
<path style="fill:#55C0EB;" d="M188.005,176.889c-4.267,4.267-7.467,10.667-7.467,18.133c0,11.733,8.533,21.333,19.2,24.533
	l5.333-24.533L188.005,176.889z"/>
<path style="fill:#FFD15C;" d="M199.739,218.489c2.133,0,3.2,0,5.333,0s4.267,0,6.4-1.067l-6.4-23.467L199.739,218.489z"/>
<g>
</g>
<g>
</g>
<g>
</g>
<g>
</g>
<g>
</g>
<g>
</g>
<g>
</g>
<g>
</g>
<g>
</g>
<g>
</g>
<g>
</g>
<g>
</g>
<g>
</g>
<g>
</g>
<g>
</g>
</svg>
