<svg id="Delivery_service" xmlns="http://www.w3.org/2000/svg" viewBox="0 0 192 122.22"><path d="M191.45,74.47s-14,22.81-33.74,9.5-30.8-25.64-53.82-8.3c0,0,17.18-33.6,46.14-24.33a143.85,143.85,0,0,1,19.35,9.6C180.62,67.49,191.45,74.47,191.45,74.47Z" transform="translate(0 -0.14)" fill="#2aace2"/><path d="M156.11,86.51s-8.33,13.56-20.13,5.64-18.36-15.25-32.09-4.93c0,0,10.25-20,27.52-14.48a85.4,85.4,0,0,1,11.53,5.72C149.65,82.35,156.11,86.51,156.11,86.51Z" transform="translate(0 -0.14)" fill="#2aace2"/><path d="M132.18,93.49s-4.51,7.57-10.9,3.15-10-8.5-17.39-2.75c0,0,5.55-11.14,14.91-8.07A46.35,46.35,0,0,1,125.05,89C128.68,91.18,132.18,93.49,132.18,93.49Z" transform="translate(0 -0.14)" fill="#2aace2"/><path d="M.27,74.69s14,22.8,33.75,9.49,30.8-25.64,53.82-8.29c0,0-17.18-33.61-46.15-24.33a142.64,142.64,0,0,0-19.34,9.6C11.11,67.71.27,74.69.27,74.69Z" transform="translate(0 -0.14)" fill="#2aace2"/><path d="M35.62,86.72S44,100.29,55.74,92.37s18.37-15.25,32.1-4.93c0,0-10.25-20-27.52-14.48a86.34,86.34,0,0,0-11.54,5.71C42.08,82.57,35.62,86.72,35.62,86.72Z" transform="translate(0 -0.14)" fill="#2aace2"/><path d="M59.55,93.71s4.51,7.56,10.9,3.15,10-8.51,17.39-2.75c0,0-5.55-11.15-14.91-8.07a45.42,45.42,0,0,0-6.25,3.18C63.05,91.39,59.55,93.71,59.55,93.71Z" transform="translate(0 -0.14)" fill="#2aace2"/><path d="M92.05.14S106.6,8.63,98.19,20.8s-16.22,19-5.12,33c0,0-21.43-10.43-15.62-28.21a86.47,86.47,0,0,1,6-11.89C87.64,6.8,92.05.14,92.05.14Z" transform="translate(0 -0.14)" fill="#ff6700"/><path d="M99.05,22.5s8.66,5.07,3.65,12.32-9.65,11.31-3,19.69c0,0-12.75-6.22-9.29-16.82A51.22,51.22,0,0,1,94,30.6C96.43,26.48,99.05,22.5,99.05,22.5Z" transform="translate(0 -0.14)" fill="#ff6700"/><path d="M103.46,36.79s4.83,2.75,2,6.68-5.38,6.12-1.7,10.66c0,0-7.11-3.37-5.18-9.11a27.8,27.8,0,0,1,2-3.84C102,39,103.46,36.79,103.46,36.79Z" transform="translate(0 -0.14)" fill="#ff6700"/><path d="M102.72,79.31a75,75,0,0,1,.39-7.64l.2-1.93a.54.54,0,0,1,.21-.36c2.55-2,.5-7.28,0-8.54a.86.86,0,0,1,0-.57,5,5,0,0,0-.19-3.61,4,4,0,0,0-.68-.88.73.73,0,0,0-.92-.09,12.13,12.13,0,0,1-6.83,2,6.47,6.47,0,0,1-3.57-1.22,6.94,6.94,0,0,1-.91-.81.42.42,0,0,0-.65,0,2.68,2.68,0,0,0-.41.79c-.08.23-.14.47-.19.68a6.3,6.3,0,0,0-.13,1.3V87l13.74-1.45Z" transform="translate(0 -0.14)" fill="#ff6700"/><polygon points="102.71 86.06 88.97 87.5 88.97 87.53 102.71 86.08 102.71 86.06" fill="#e37825"/><polygon points="102.71 88.33 88.97 89.78 88.97 91.53 102.71 90.09 102.71 88.33" fill="#2aace2"/><polygon points="102.71 86.08 88.97 87.53 88.97 89.28 102.71 87.83 102.71 86.08" fill="#2aace2"/><polygon points="102.71 90.57 88.97 92.02 88.97 93.77 102.71 92.32 102.71 90.57" fill="#2aace2"/><path d="M95,93.76l-1.27.14-4.62.5v0s.49,1.29,3.09,2.68a.32.32,0,0,1,.16.37l-.8,2.91a.53.53,0,0,0,.12.48c.52.57,2,2.55,3.51,7.54l0,.1a.77.77,0,0,0,0,.15.68.68,0,0,0,.43.63v-8.73a.64.64,0,0,1-.38-.73.65.65,0,0,1,.45-.47.64.64,0,0,1,.8.62.62.62,0,0,1-.39.58v8.73a.68.68,0,0,0,.42-.63.71.71,0,0,0,0-.15l0-.1h0c1.46-5,3-7,3.51-7.54a.53.53,0,0,0,.12-.48l-.8-2.91a.31.31,0,0,1,.16-.37,8.12,8.12,0,0,0,2.84-2.2,1.68,1.68,0,0,0,.26-.56l.16-1.42Z" transform="translate(0 -0.14)" fill="#ff6700"/><path d="M7.69,122.23H5.74v-4H2v4H0v-9.41H2v3.81H5.74v-3.81h2Z" transform="translate(0 -0.14)" fill="#2aace2"/><path d="M9.16,118.67a4.13,4.13,0,0,1,.4-1.86,3,3,0,0,1,1.16-1.26,3.46,3.46,0,0,1,1.76-.44,3.25,3.25,0,0,1,2.32.86,3.51,3.51,0,0,1,1,2.35v.48a3.62,3.62,0,0,1-.9,2.58,3.14,3.14,0,0,1-2.42,1,3.17,3.17,0,0,1-2.42-1,3.7,3.7,0,0,1-.91-2.64Zm1.88.13a2.61,2.61,0,0,0,.37,1.52,1.25,1.25,0,0,0,1.08.53,1.23,1.23,0,0,0,1.06-.52,2.81,2.81,0,0,0,.39-1.67,2.54,2.54,0,0,0-.39-1.51,1.33,1.33,0,0,0-2.14,0A2.88,2.88,0,0,0,11,118.8Z" transform="translate(0 -0.14)" fill="#2aace2"/><path d="M21,120.29a.59.59,0,0,0-.34-.53,3.69,3.69,0,0,0-1.09-.36c-1.67-.35-2.5-1.05-2.5-2.12a1.9,1.9,0,0,1,.77-1.55,3.17,3.17,0,0,1,2-.62,3.44,3.44,0,0,1,2.14.62,2,2,0,0,1,.8,1.63H20.88a.87.87,0,0,0-.26-.66,1.11,1.11,0,0,0-.81-.26,1.13,1.13,0,0,0-.73.21.67.67,0,0,0-.26.54.57.57,0,0,0,.29.5,3,3,0,0,0,1,.33,8.46,8.46,0,0,1,1.18.32,1.94,1.94,0,0,1,1.49,1.88,1.82,1.82,0,0,1-.83,1.54,3.52,3.52,0,0,1-2.12.6,3.7,3.7,0,0,1-1.57-.32,2.59,2.59,0,0,1-1.08-.86A2,2,0,0,1,16.8,120h1.77a1,1,0,0,0,.37.77,1.52,1.52,0,0,0,.92.26,1.44,1.44,0,0,0,.82-.2A.65.65,0,0,0,21,120.29Z" transform="translate(0 -0.14)" fill="#2aace2"/><path d="M26,116a2.33,2.33,0,0,1,1.88-.89q2.28,0,2.31,2.64v4.48H28.32V117.8a1.31,1.31,0,0,0-.26-.89,1.14,1.14,0,0,0-.87-.28,1.29,1.29,0,0,0-1.19.63v5H24.13V112.3H26Z" transform="translate(0 -0.14)" fill="#2aace2"/><path d="M33.55,115.24l.06.78a2.47,2.47,0,0,1,2-.91,1.87,1.87,0,0,1,1.86,1.06,2.41,2.41,0,0,1,2.11-1.06,2.1,2.1,0,0,1,1.7.66,3,3,0,0,1,.56,2v4.47H40v-4.46a1.29,1.29,0,0,0-.24-.87,1,1,0,0,0-.82-.27,1.17,1.17,0,0,0-1.17.8v4.8H35.88v-4.45a1.3,1.3,0,0,0-.24-.88,1,1,0,0,0-.82-.27,1.22,1.22,0,0,0-1.15.65v5H31.79v-7Z" transform="translate(0 -0.14)" fill="#2aace2"/><path d="M47.55,122.23a2.35,2.35,0,0,1-.19-.63,2.28,2.28,0,0,1-1.77.76,2.48,2.48,0,0,1-1.71-.6,1.9,1.9,0,0,1-.68-1.5,2,2,0,0,1,.83-1.7,4,4,0,0,1,2.39-.6h.87v-.4a1.18,1.18,0,0,0-.25-.78,1,1,0,0,0-.79-.29,1.14,1.14,0,0,0-.75.23.78.78,0,0,0-.26.62H43.36a1.9,1.9,0,0,1,.38-1.13,2.52,2.52,0,0,1,1.06-.81,4,4,0,0,1,1.54-.29,3.06,3.06,0,0,1,2.07.65,2.28,2.28,0,0,1,.76,1.82v3a3.19,3.19,0,0,0,.28,1.51v.11ZM46,120.93a1.57,1.57,0,0,0,.77-.19,1.23,1.23,0,0,0,.52-.49v-1.2h-.71c-.93,0-1.43.32-1.49,1v.11a.72.72,0,0,0,.25.57A1,1,0,0,0,46,120.93Z" transform="translate(0 -0.14)" fill="#2aace2"/><path d="M52.52,115.24l.06.8a2.46,2.46,0,0,1,2-.93,2.07,2.07,0,0,1,1.66.65,3.08,3.08,0,0,1,.56,1.95v4.52H54.94v-4.47a1.24,1.24,0,0,0-.26-.87,1.19,1.19,0,0,0-.86-.26,1.28,1.28,0,0,0-1.19.67v4.93H50.75v-7Z" transform="translate(0 -0.14)" fill="#2aace2"/><path d="M58.13,118.68a4.18,4.18,0,0,1,.74-2.6,2.38,2.38,0,0,1,2-1,2.16,2.16,0,0,1,1.7.76V112.3h1.88v9.93h-1.7l-.09-.75a2.18,2.18,0,0,1-1.8.88,2.39,2.39,0,0,1-2-1A4.31,4.31,0,0,1,58.13,118.68Zm1.88.14a2.77,2.77,0,0,0,.34,1.51,1.12,1.12,0,0,0,1,.52,1.26,1.26,0,0,0,1.23-.73v-2.76a1.24,1.24,0,0,0-1.22-.73Q60,116.63,60,118.82Z" transform="translate(0 -0.14)" fill="#2aace2"/><path d="M71.79,122.23h-2v-9.41h2Z" transform="translate(0 -0.14)" fill="#2aace2"/><path d="M75.38,115.24l.06.8a2.45,2.45,0,0,1,2-.93,2.08,2.08,0,0,1,1.67.65,3.08,3.08,0,0,1,.55,1.95v4.52H77.8v-4.47a1.24,1.24,0,0,0-.26-.87,1.19,1.19,0,0,0-.86-.26,1.28,1.28,0,0,0-1.19.67v4.93H73.61v-7Z" transform="translate(0 -0.14)" fill="#2aace2"/><path d="M83.53,113.52v1.72h1.2v1.37h-1.2v3.48a.9.9,0,0,0,.14.56.77.77,0,0,0,.58.17,3,3,0,0,0,.55,0v1.42a4,4,0,0,1-1.14.17,1.8,1.8,0,0,1-2-2v-3.76h-1v-1.37h1v-1.72Z" transform="translate(0 -0.14)" fill="#2aace2"/><path d="M89.19,122.36a3.47,3.47,0,0,1-2.52-1,3.36,3.36,0,0,1-1-2.51v-.18a4.22,4.22,0,0,1,.41-1.88,3,3,0,0,1,1.16-1.28,3.26,3.26,0,0,1,1.71-.45,2.93,2.93,0,0,1,2.27.9,3.68,3.68,0,0,1,.83,2.57v.76H87.6a1.81,1.81,0,0,0,.55,1.1,1.69,1.69,0,0,0,1.16.41,2,2,0,0,0,1.69-.78l.93,1a2.92,2.92,0,0,1-1.15.92A3.78,3.78,0,0,1,89.19,122.36ZM89,116.61a1.17,1.17,0,0,0-.9.38,2,2,0,0,0-.45,1.08h2.61v-.15a1.43,1.43,0,0,0-.33-1A1.26,1.26,0,0,0,89,116.61Z" transform="translate(0 -0.14)" fill="#2aace2"/><path d="M97.27,117a4.23,4.23,0,0,0-.67,0,1.37,1.37,0,0,0-1.4.71v4.58H93.33v-7H95.1l.05.83a1.74,1.74,0,0,1,1.56-1,2.21,2.21,0,0,1,.59.08Z" transform="translate(0 -0.14)" fill="#2aace2"/><path d="M100.08,115.24l.06.8a2.47,2.47,0,0,1,2-.93,2.05,2.05,0,0,1,1.66.65,3,3,0,0,1,.56,1.95v4.52H102.5v-4.47a.95.95,0,0,0-1.12-1.13,1.29,1.29,0,0,0-1.19.67v4.93H98.32v-7Z" transform="translate(0 -0.14)" fill="#2aace2"/><path d="M110.06,122.23a2,2,0,0,1-.19-.63,2.31,2.31,0,0,1-1.77.76,2.48,2.48,0,0,1-1.71-.6,1.87,1.87,0,0,1-.68-1.5,1.94,1.94,0,0,1,.83-1.7,4,4,0,0,1,2.39-.6h.86v-.4a1.13,1.13,0,0,0-.25-.78,1,1,0,0,0-.79-.29,1.13,1.13,0,0,0-.74.23.75.75,0,0,0-.27.62h-1.88a1.9,1.9,0,0,1,.38-1.13,2.59,2.59,0,0,1,1.06-.81,4,4,0,0,1,1.55-.29,3,3,0,0,1,2.06.65,2.25,2.25,0,0,1,.76,1.82v3a3.46,3.46,0,0,0,.28,1.51v.11Zm-1.56-1.3a1.54,1.54,0,0,0,.77-.19,1.18,1.18,0,0,0,.52-.49v-1.2h-.7c-.94,0-1.44.32-1.5,1v.11a.76.76,0,0,0,.25.57A1,1,0,0,0,108.5,120.93Z" transform="translate(0 -0.14)" fill="#2aace2"/><path d="M115.54,113.52v1.72h1.2v1.37h-1.2v3.48a.83.83,0,0,0,.15.56.76.76,0,0,0,.57.17,3,3,0,0,0,.55,0v1.42a3.86,3.86,0,0,1-1.13.17,1.79,1.79,0,0,1-2-2v-3.76h-1v-1.37h1v-1.72Z" transform="translate(0 -0.14)" fill="#2aace2"/><path d="M118,113.43a.94.94,0,0,1,.28-.69,1.23,1.23,0,0,1,1.54,0,.9.9,0,0,1,.28.69.91.91,0,0,1-.29.7,1.05,1.05,0,0,1-.76.27,1.07,1.07,0,0,1-.76-.27A1,1,0,0,1,118,113.43Zm2,8.8h-1.88v-7H120Z" transform="translate(0 -0.14)" fill="#2aace2"/><path d="M121.39,118.67a4.27,4.27,0,0,1,.4-1.86,3,3,0,0,1,1.16-1.26,3.48,3.48,0,0,1,1.76-.44A3.25,3.25,0,0,1,127,116a3.47,3.47,0,0,1,1,2.35v.48a3.62,3.62,0,0,1-.9,2.58,3.49,3.49,0,0,1-4.84,0,3.7,3.7,0,0,1-.91-2.64Zm1.88.13a2.61,2.61,0,0,0,.37,1.52,1.25,1.25,0,0,0,1.08.53,1.23,1.23,0,0,0,1.06-.52,2.81,2.81,0,0,0,.39-1.67,2.54,2.54,0,0,0-.39-1.51,1.33,1.33,0,0,0-2.14,0A2.88,2.88,0,0,0,123.27,118.8Z" transform="translate(0 -0.14)" fill="#2aace2"/><path d="M131.11,115.24l.06.8a2.46,2.46,0,0,1,2-.93,2.07,2.07,0,0,1,1.66.65,3.08,3.08,0,0,1,.56,1.95v4.52h-1.88v-4.47a1.24,1.24,0,0,0-.26-.87,1.19,1.19,0,0,0-.86-.26,1.28,1.28,0,0,0-1.19.67v4.93h-1.88v-7Z" transform="translate(0 -0.14)" fill="#2aace2"/><path d="M141.08,122.23a2,2,0,0,1-.19-.63,2.28,2.28,0,0,1-1.77.76,2.48,2.48,0,0,1-1.71-.6,1.9,1.9,0,0,1-.68-1.5,2,2,0,0,1,.83-1.7A4,4,0,0,1,140,118h.86v-.4a1.13,1.13,0,0,0-.25-.78,1,1,0,0,0-.78-.29,1.14,1.14,0,0,0-.75.23.75.75,0,0,0-.27.62h-1.87a1.83,1.83,0,0,1,.38-1.13,2.52,2.52,0,0,1,1.06-.81,4,4,0,0,1,1.54-.29,3,3,0,0,1,2.06.65,2.26,2.26,0,0,1,.77,1.82v3a3.19,3.19,0,0,0,.28,1.51v.11Zm-1.55-1.3a1.57,1.57,0,0,0,.77-.19,1.15,1.15,0,0,0,.51-.49v-1.2h-.7c-.93,0-1.43.32-1.5,1v.11a.72.72,0,0,0,.25.57A.94.94,0,0,0,139.53,120.93Z" transform="translate(0 -0.14)" fill="#2aace2"/><path d="M146.3,122.23h-1.88V112.3h1.88Z" transform="translate(0 -0.14)" fill="#2aace2"/><path d="M156.55,119.76a1,1,0,0,0-.39-.84,4.84,4.84,0,0,0-1.4-.62,9.83,9.83,0,0,1-1.6-.65,2.58,2.58,0,0,1-1.61-2.33A2.25,2.25,0,0,1,152,114a2.77,2.77,0,0,1,1.24-.93,4.56,4.56,0,0,1,1.81-.34,4.18,4.18,0,0,1,1.81.37,2.81,2.81,0,0,1,1.22,1,2.6,2.6,0,0,1,.44,1.51h-1.94a1.29,1.29,0,0,0-.41-1,1.7,1.7,0,0,0-1.15-.35,1.79,1.79,0,0,0-1.11.3,1,1,0,0,0-.4.79.93.93,0,0,0,.47.77,5.44,5.44,0,0,0,1.36.58,5.84,5.84,0,0,1,2.42,1.23,2.44,2.44,0,0,1,.76,1.84,2.27,2.27,0,0,1-.92,1.91,4.12,4.12,0,0,1-2.5.7,4.94,4.94,0,0,1-2-.4,3.13,3.13,0,0,1-1.36-1.09,2.72,2.72,0,0,1-.48-1.6h2c0,1,.62,1.55,1.87,1.55a1.8,1.8,0,0,0,1.08-.28A.9.9,0,0,0,156.55,119.76Z" transform="translate(0 -0.14)" fill="#2aace2"/><path d="M162.8,120.85a1.25,1.25,0,0,0,.85-.28,1,1,0,0,0,.33-.76h1.76a2.31,2.31,0,0,1-.39,1.3,2.51,2.51,0,0,1-1,.92,3.3,3.3,0,0,1-1.47.33,3,3,0,0,1-2.38-1,3.74,3.74,0,0,1-.87-2.63v-.12a3.74,3.74,0,0,1,.86-2.58,3,3,0,0,1,2.37-1,3,3,0,0,1,2.11.74,2.65,2.65,0,0,1,.81,2H164a1.28,1.28,0,0,0-.33-.89,1.18,1.18,0,0,0-.86-.34,1.12,1.12,0,0,0-1,.48,2.77,2.77,0,0,0-.33,1.54v.2a2.79,2.79,0,0,0,.33,1.55A1.14,1.14,0,0,0,162.8,120.85Z" transform="translate(0 -0.14)" fill="#2aace2"/><path d="M168.83,116a2.32,2.32,0,0,1,1.87-.89c1.53,0,2.3.88,2.32,2.64v4.48h-1.87V117.8a1.31,1.31,0,0,0-.26-.89,1.14,1.14,0,0,0-.87-.28,1.28,1.28,0,0,0-1.19.63v5H167V112.3h1.88Z" transform="translate(0 -0.14)" fill="#2aace2"/><path d="M174.33,118.67a4.13,4.13,0,0,1,.4-1.86,3,3,0,0,1,1.16-1.26,3.45,3.45,0,0,1,1.75-.44A3.21,3.21,0,0,1,180,116a3.48,3.48,0,0,1,1,2.35v.48a3.62,3.62,0,0,1-.9,2.58,3.14,3.14,0,0,1-2.42,1,3.21,3.21,0,0,1-2.43-1,3.74,3.74,0,0,1-.9-2.64Zm1.87.13a2.6,2.6,0,0,0,.38,1.52,1.25,1.25,0,0,0,1.08.53,1.23,1.23,0,0,0,1.06-.52,2.82,2.82,0,0,0,.38-1.67,2.54,2.54,0,0,0-.38-1.51,1.33,1.33,0,0,0-2.14,0A2.87,2.87,0,0,0,176.2,118.8Z" transform="translate(0 -0.14)" fill="#2aace2"/><path d="M182,118.67a4.13,4.13,0,0,1,.4-1.86,3,3,0,0,1,1.16-1.26,3.45,3.45,0,0,1,1.75-.44,3.21,3.21,0,0,1,2.32.86,3.48,3.48,0,0,1,1,2.35v.48a3.62,3.62,0,0,1-.9,2.58,3.14,3.14,0,0,1-2.42,1,3.21,3.21,0,0,1-2.43-1,3.74,3.74,0,0,1-.9-2.64Zm1.87.13a2.6,2.6,0,0,0,.38,1.52,1.25,1.25,0,0,0,1.08.53,1.23,1.23,0,0,0,1.06-.52,2.82,2.82,0,0,0,.38-1.67,2.54,2.54,0,0,0-.38-1.51,1.33,1.33,0,0,0-2.14,0A2.87,2.87,0,0,0,183.9,118.8Z" transform="translate(0 -0.14)" fill="#2aace2"/><path d="M192,122.23h-1.88V112.3H192Z" transform="translate(0 -0.14)" fill="#2aace2"/><path d="M83.23,102.76H78.61v-1l2.13-2.24a2.56,2.56,0,0,0,.79-1.42,1,1,0,0,0-.19-.65.74.74,0,0,0-1.11.07,1.21,1.21,0,0,0-.22.75H78.47a2.14,2.14,0,0,1,.31-1.13,2.18,2.18,0,0,1,.84-.81A2.57,2.57,0,0,1,80.83,96a2.49,2.49,0,0,1,1.66.5A1.75,1.75,0,0,1,83.07,98a2.07,2.07,0,0,1-.15.77,3,3,0,0,1-.45.77,9,9,0,0,1-1,1.09l-.86,1h2.61Z" transform="translate(0 -0.14)" fill="#2aace2"/><path d="M88.74,100.05a3.19,3.19,0,0,1-.6,2.07,2.36,2.36,0,0,1-3.42,0,3.14,3.14,0,0,1-.6-2.06V98.84a3.15,3.15,0,0,1,.6-2.07,2.36,2.36,0,0,1,3.41,0,3.14,3.14,0,0,1,.61,2.07ZM87.2,98.64A2.46,2.46,0,0,0,87,97.57a.63.63,0,0,0-.59-.35.61.61,0,0,0-.58.33,2.25,2.25,0,0,0-.19,1v1.69a2.47,2.47,0,0,0,.18,1.09.64.64,0,0,0,.6.34.6.6,0,0,0,.57-.33,2.15,2.15,0,0,0,.19-1Z" transform="translate(0 -0.14)" fill="#2aace2"/><path d="M105.81,102.76h-1.54v-4.9l-1.51.44V97.13l2.91-1h.14Z" transform="translate(0 -0.14)" fill="#2aace2"/><path d="M112.41,97.9a1.53,1.53,0,0,1-.24.85,1.72,1.72,0,0,1-.66.59,2,2,0,0,1,.76.64,1.66,1.66,0,0,1,.27,1,1.72,1.72,0,0,1-.61,1.4,2.51,2.51,0,0,1-1.69.52,2.63,2.63,0,0,1-1.7-.52,1.73,1.73,0,0,1-.62-1.4,1.67,1.67,0,0,1,.27-.94,1.87,1.87,0,0,1,.78-.65,1.68,1.68,0,0,1-.67-.59,1.53,1.53,0,0,1-.24-.85,1.72,1.72,0,0,1,.59-1.37,2.76,2.76,0,0,1,3.17,0A1.69,1.69,0,0,1,112.41,97.9ZM111,100.81a.86.86,0,0,0-.21-.63.71.71,0,0,0-.55-.22.72.72,0,0,0-.56.22.82.82,0,0,0-.22.63.84.84,0,0,0,.22.62.7.7,0,0,0,.56.23.73.73,0,0,0,.56-.22A1,1,0,0,0,111,100.81Zm-.77-3.59a.55.55,0,0,0-.47.2.85.85,0,0,0-.16.56.9.9,0,0,0,.16.57.63.63,0,0,0,1,0,1,1,0,0,0,.15-.57.87.87,0,0,0-.16-.56A.57.57,0,0,0,110.23,97.22Z" transform="translate(0 -0.14)" fill="#2aace2"/></svg>