<svg id="Layer_1" height="512" viewBox="0 0 512 512" width="512" xmlns="http://www.w3.org/2000/svg" data-name="Layer 1"><path d="m335.951 419.345h-8.034v-12h8.034a5.139 5.139 0 0 0 5.133-5.133v-65.563h12v65.563a17.153 17.153 0 0 1 -17.133 17.133z" fill="#d4e1f4"/><path d="m184.083 419.345h-8.034a17.153 17.153 0 0 1 -17.133-17.133v-65.563h12v65.563a5.139 5.139 0 0 0 5.133 5.133h8.034z" fill="#d4e1f4"/><path d="m384.41 13.65a29.431 29.431 0 0 1 29.19 29.67 29.189 29.189 0 1 1 -58.37 0 29.423 29.423 0 0 1 29.18-29.67z" fill="#c79a83"/><ellipse cx="256" cy="43.32" fill="#efc597" rx="29.18" ry="29.67"/><path d="m127.59 13.65a29.423 29.423 0 0 1 29.18 29.67 29.189 29.189 0 1 1 -58.37 0 29.431 29.431 0 0 1 29.19-29.67z" fill="#ffd8b7"/><path d="m459.84 161h-407.68l-42.43 101h492.54z" fill="#d4e1f4"/><path d="m10 262h492v22h-492z" fill="#b6c9e0"/><path d="m435.5 284.33h29.59v126.02h-29.59z" fill="#5d6b84"/><path d="m47.78 284.33h29.59v126.02h-29.59z" fill="#5d6b84"/><path d="m317.31 397.64h-121.97a11.643 11.643 0 0 0 -11.6 11.61v8.19a11.643 11.643 0 0 0 11.6 11.61h121.97a11.651 11.651 0 0 0 11.61-11.61v-8.19a11.651 11.651 0 0 0 -11.61-11.61z" fill="#fb6771"/><path d="m328.82 261.955a11.831 11.831 0 0 0 -11.64-9.955h-121.7a11.648 11.648 0 0 0 -11.47 9.955l-.01 91.405a11.465 11.465 0 0 0 11.48 11.64h121.7a11.761 11.761 0 0 0 11.82-11.64z" fill="#fb6771"/><path d="m279.81 472.91h-46.63a19.568 19.568 0 0 0 -19.57 19.57v5.87h85.77v-5.87a19.568 19.568 0 0 0 -19.57-19.57z" fill="#4a5160"/><path d="m243.94 429.05h25.11v43.86h-25.11z" fill="#b6c9e0"/><path d="m303.22 252.01h-93.78a32.388 32.388 0 0 1 30.03-20.47h33.72a32.4 32.4 0 0 1 30.03 20.47z" fill="#49bdff"/><path d="m256.33 164.6c16.92 0 30.64 14.7 30.64 31.62a30.64 30.64 0 0 1 -61.28 0c0-16.92 13.72-31.62 30.64-31.62z" fill="#6d7486"/><path d="m354.89 321.51h-25.97v16.14h25.97a8.07 8.07 0 0 0 0-16.14z" fill="#56568c"/><path d="m313.7 365.1v21.41a11.126 11.126 0 0 1 -11.13 11.13h-30.92v-32.54z" fill="#4a5160"/><path d="m241.01 365.1h30.64v32.54h-30.64z" fill="#b6c9e0"/><path d="m241.01 365.1v32.54h-33.71a11.126 11.126 0 0 1 -11.13-11.13v-21.41z" fill="#4a5160"/><path d="m183.08 321.51h-25.97a8.07 8.07 0 0 0 0 16.14h26.63v-16.14z" fill="#56568c"/><path d="m403.18 82h-37.53c-19.77 0-35.65 18.3-35.65 38.07v40.93h109v-40.93c0-19.77-16.05-38.07-35.82-38.07z" fill="#adf8d1"/><path d="m274.77 82h-37.54c-19.76 0-36.23 18.3-36.23 38.07v40.93h110v-40.93c0-19.77-16.47-38.07-36.23-38.07z" fill="#eadf53"/><path d="m146.35 82h-37.53c-19.77 0-35.82 18.3-35.82 38.07v40.93h109v-40.93c0-19.77-15.88-38.07-35.65-38.07z" fill="#867af4"/><path d="m390.17 99.53 6.41 35.74-12.17 7.3-12.17-7.31 6.44-35.73h11.48z" fill="#49bdff"/><path d="m394.65 82.13v.01l-4.49 17.39h-11.48-.02l-4.48-17.4z" fill="#3090fc"/><path d="m261.76 99.53 6.41 35.74-12.17 7.3-12.17-7.31 6.44-35.73h11.48z" fill="#6addc7"/><path d="m266.24 82.13v.01l-4.49 17.39h-11.48-.03l-4.48-17.4z" fill="#61a3bc"/><path d="m133.35 99.53 6.41 35.74-12.18 7.3-12.16-7.31 6.44-35.73h11.48z" fill="#eadf53"/><path d="m137.82 82.13v.01l-4.48 17.39h-11.48-.03l-4.48-17.4z" fill="#edb740"/><path d="m52.16 161-42.43 101h30l42.43-101z" fill="#a7bad1"/><path d="m213.74 417.44v-8.19a11.643 11.643 0 0 1 11.6-11.61h-30a11.643 11.643 0 0 0 -11.6 11.61v8.19a11.643 11.643 0 0 0 11.6 11.61h30a11.643 11.643 0 0 1 -11.6-11.61z" fill="#e75163"/><path d="m195.48 365h30a11.465 11.465 0 0 1 -11.48-11.64l.01-91.405a11.648 11.648 0 0 1 11.47-9.955h-30a11.648 11.648 0 0 0 -11.47 9.955l-.01 91.405a11.465 11.465 0 0 0 11.48 11.64z" fill="#e75163"/><path d="m10 262h30v22h-30z" fill="#7f9cb2"/><g fill="#fff"><path d="m76.166 192.935h-7.6a6 6 0 0 1 0-12h7.6a6 6 0 0 1 0 12z"/><path d="m183.75 192.935h-87.507a6 6 0 0 1 0-12h87.507a6 6 0 0 1 0 12z"/></g></svg>