<svg height="512" viewBox="0 0 512 512" width="512" xmlns="http://www.w3.org/2000/svg"><g id="Layer_18" data-name="Layer 18"><path d="m368 488h-104l-24-48c-14.56006-29.12-42.36-25.12-59.3-66.34009-4.55-1.81991-8.85991-3.73999-12.7-5.65991-12.37-6.17993-10.39-21.92993-1.47-28.75-2.38-1.17-4.57007-2.27-6.53-3.25-15.89-7.95-8.1-42.18994 15.53-34.8 1.83.8501 3.7 1.68 5.59 2.49 3.26 1.38013 6.6 2.68006 10.01 3.81006-3.92-1.61-7.38-3.02-9.99-4.07007-3.20006-1.29999-5.14-2.07999-5.14-2.07999-.15991-.04993-.32007-.1-.47-.15-8.84009-4.12-16.88-8.6-23.53-11.92993-14.04-7.02-9.6-32.53 7.92993-33.25-14.84985-20.33013 1.69007-48.02007 32.07007-48.02007 22.67993 0 32.5 12.86 29.45 24h86.64014c3.86986-11.84009 10.50986-19.3 19.90986-24 16-8 32 8 24 32s-56 168 16 248z" fill="#f5a971"/><circle cx="256" cy="136" fill="#f0cd81" r="112"/><path d="m221.47 138.56006a14.11326 14.11326 0 0 1 7.09-8.43018 18.08988 18.08988 0 0 0 -.33 8.07007c1.72 9.67017 8.95 13.79 15.2 12.86011 5.99-.89014 11.49-6.51 10.42-15.53a16.18464 16.18464 0 0 0 -8.99-12.32006 26.95833 26.95833 0 0 1 11.14-3.21 26.95833 26.95833 0 0 1 11.14 3.21 16.18464 16.18464 0 0 0 -8.99 12.32c-1.07 9.02 4.43 14.63989 10.42 15.53a11.15848 11.15848 0 0 0 1.74.12988c5.79 0 11.9-4.2 13.46-12.99a18.08988 18.08988 0 0 0 -.33-8.07007 14.09126 14.09126 0 0 1 7.09 8.42017l-.00855.01929.00855-.00928 5.345-2.40308-.755-6.207a21.32868 21.32868 0 0 0 -17.58-9.16991c-6.48-6.04-16.15-8.78-21.54-8.78s-15.06 2.74-21.54 8.78a21.316 21.316 0 0 0 -17.58 9.17l-.755 6.207zm52.78-9.43994a9.93785 9.93785 0 0 1 1.65 7.67993c-.88 4.88989-3.72 6.71-6.15 6.34985-2.02-.2998-4.18-2.23-3.65-6.67993.46-3.8999 4.17-6.46997 8.15-7.34985zm-36.5 0c3.98.87988 7.69 3.45 8.15 7.34985.53 4.45-1.63 6.38013-3.65 6.67993-2.43.36011-5.27-1.46-6.15-6.34985a9.93785 9.93785 0 0 1 1.65-7.67993z" fill="#d13913"/><path d="m238.40991 228v9.41992h-8.02991v-9.41992c-1.06994-23.27-5.38-74.3-22.86-97.6001a3.99994 3.99994 0 0 1 6.3999-4.79992c1.03 1.37 2.01 2.83 2.96008 4.35 1.11 1.72 3.94007 7.17005 4.59 8.61011 12.76002 27.58981 16.08007 69.10983 16.93993 89.43991z" fill="#e34e03"/><path d="m304.48 130.3999c-17.49 23.3201-21.79006 74.3301-22.86 97.6001v9.41992h-8.02991v-9.41992c.85991-20.34009 4.17991-61.84009 16.92991-89.42993 0-.01.01-.01.01-.02.65991-1.45007 3.48-6.88013 4.59-8.6001.95007-1.53 1.93-2.98 2.96008-4.35a3.99994 3.99994 0 0 1 6.3999 4.79992z" fill="#e34e03"/><path d="m320 253.48843a11.90732 11.90732 0 0 0 -13.38424-11.81543l-104.18536 13.0232a11.90732 11.90732 0 0 0 -10.4304 11.81537 11.90732 11.90732 0 0 0 13.38424 11.81543l104.18536-13.0232a11.90732 11.90732 0 0 0 10.4304-11.81537z" fill="#0a4b69"/><path d="m319.73 232a11.88857 11.88857 0 0 1 -10.15991 9.3l-104.19009 13.03a12.56824 12.56824 0 0 1 -1.5.09 11.91246 11.91246 0 0 1 -5.57995-22.42z" fill="#0e638b"/><path d="m320 277.48843a11.90732 11.90732 0 0 0 -13.38424-11.81543l-104.18536 13.0232a11.90732 11.90732 0 0 0 -10.4304 11.81537 11.90732 11.90732 0 0 0 13.38424 11.81543l104.18536-13.0232a11.90732 11.90732 0 0 0 10.4304-11.81537z" fill="#0e638b"/><path d="m280 336h-48l-8-24h64z" fill="#062938"/><path d="m240 336h32a0 0 0 0 1 0 0v8a8 8 0 0 1 -8 8h-16a8 8 0 0 1 -8-8v-8a0 0 0 0 1 0 0z" fill="#b1cdb4"/><path d="m320 301.49a11.91393 11.91393 0 0 1 -6.3 10.51h-121.43a11.88828 11.88828 0 0 1 10.15991-9.3l104.19007-13.03a11.911 11.911 0 0 1 13.38002 11.82z" fill="#0a4b69"/><path d="m352 240c-4.88 14.62988-24.62 73.85986-22.97 136h-57.03c-32-64 32-80 32-112s8-48 24-56 32 8 24 32z" fill="#f5a971"/><path d="m189.4126 265.1123a3.99151 3.99151 0 0 1 -1.44629-.272c-10.834-4.2041-19.59815-7.43164-19.96582-7.56689l-.06153-.021a24.37837 24.37837 0 0 0 -5.5122-1.1748 3.99981 3.99981 0 1 1 .70215-7.96875 32.49784 32.49784 0 0 1 7.40136 1.5747l.17774.062c.42578.15625 9.2539 3.40722 20.15283 7.63671a4.00062 4.00062 0 0 1 -1.44824 7.73z" fill="#e37066"/><path d="m168 257.2732c-24-8-32 24-16 32s40 22.7268 64 22.7268 24-24 8-32-56-22.7268-56-22.7268z" fill="#f5a971"/><path d="m221.07031 319.8667a3.9889 3.9889 0 0 1 -1.61914-.34424c-18.07517-8.01416-42.42334-17.76074-43.45117-18.17187l-.01465-.00538a3.99982 3.99982 0 0 1 2.55957-7.5791l.42334.15577c1.03565.41406 25.51709 10.21386 43.7251 18.2871a4.00064 4.00064 0 0 1 -1.62305 7.65772z" fill="#e37066"/><path d="m176 301.35054c-24-8-32 26.64946-16 34.64946s48 24 64 24 24-26.64946 8-34.64946-56-24-56-24z" fill="#f5a971"/><path d="m176 336c-16 0-24 24-8 32s40 16 56 16 16-16 8-24-40-24-56-24z" fill="#f5a971"/><path d="m241.63147 359.51685a28.01358 28.01358 0 0 0 2.72351-3.7522 4 4 0 0 0 -6.84277-4.14453c-3.17821 5.24707-8.2295 8.37988-13.51221 8.37988-15.14453 0-45.17041-14.71582-55.0376-19.55127a3.99994 3.99994 0 1 0 -3.52051 7.18359c17.84034 8.74368 43.32081 20.36768 58.55811 20.36768a22.21075 22.21075 0 0 0 11.39233-3.19751c1.99683 4.10022 2.43079 8.79883.95484 12.363-1.82569 4.40726-6.21094 6.83451-12.34717 6.83451-8.81689 0-20.98-2.48877-34.24854-7.00732a4.00018 4.00018 0 0 0 -2.5791 7.57324c9.95899 3.39108 24.43264 7.43408 36.82764 7.43408 9.30566 0 16.68408-4.40088 19.73828-11.77295 2.58838-6.24951 1.7002-14.19934-2.10681-20.7102z" fill="#e37066"/><path d="m268.42529 381.79a3.99987 3.99987 0 0 1 -3.58056-2.21192 97.01938 97.01938 0 0 1 -8.26905-22.73583 4.00022 4.00022 0 1 1 7.82129-1.6836 89.01472 89.01472 0 0 0 7.60303 20.84135 4.00175 4.00175 0 0 1 -3.57471 5.79z" fill="#e37066"/><path d="m159.23437 224.03125c6.14063-9.28125 17.76563-16.03125 32.76563-16.03125 40 0 40 40 0 40h-16z" fill="#f5a971"/><path d="m188.9751 252h-4.9751a4 4 0 0 1 0-8h4.9751a4 4 0 0 1 0 8z" fill="#e37066"/></g></svg>