<svg id="Capa_1" enable-background="new 0 0 512 512" height="512" viewBox="0 0 512 512" width="512" xmlns="http://www.w3.org/2000/svg"><g><g><path d="m332 0v90l-60 242v164.984c0 6-3.6 11.4-9.3 13.801-4.402 2.199-11.796 1.595-16.199-3.301l-19.501-19.2-19.501 19.199c-5.7 6-15.298 6-20.999 0l-19.5-19.199-19.501 19.199c-5.7 6-15.298 6-20.999 0l-19.5-19.199-19.501 19.199c-5.7 6-15.298 6-20.999 0l-19.5-19.199-21.501 19.199c-4.199 4.501-10.8 5.7-16.199 3.301-5.7-2.401-9.3-7.8-9.3-13.801v-421.983c0-41.4 33.6-75 75-75z" fill="#ecf2ff"/></g><path d="m137 511.984c3.823 0 7.65-1.501 10.499-4.501l19.501-19.199 19.501 19.199c5.7 6 15.298 6 20.999 0l19.5-19.199 19.501 19.199c4.404 4.896 11.797 5.501 16.199 3.301 5.7-2.401 9.3-7.8 9.3-13.801v-164.983l60-242v-90h-195z" fill="#ccdcff"/><path d="m452 332h-180v-272c0-32.999 27.001-60 60-60 32.757 0 60 26.904 60 60v157.224z" fill="#b3ceff"/><g id="Invoice_4_"><g><path d="m197 332h-120c-8.291 0-15-6.709-15-15s6.709-15 15-15h120c8.291 0 15 6.709 15 15s-6.709 15-15 15z" fill="#4d5e80"/></g><g><path d="m197 392h-120c-8.291 0-15-6.709-15-15s6.709-15 15-15h120c8.291 0 15 6.709 15 15s-6.709 15-15 15z" fill="#4d5e80"/></g><path d="m197 197c0-24.814-20.186-45-45-45h-30c-8.262 0-15-6.724-15-15s6.738-15 15-15h30c8.262 0 15 6.724 15 15 0 8.291 6.709 15 15 15s15-6.709 15-15c0-24.814-20.186-45-45-45v-15c0-8.291-6.709-15-15-15s-15 6.709-15 15v15c-24.814 0-45 20.186-45 45s20.186 45 45 45h30c8.262 0 15 6.724 15 15s-6.738 15-15 15h-30c-8.262 0-15-6.724-15-15 0-8.291-6.709-15-15-15s-15 6.709-15 15c0 24.814 20.186 45 45 45v15c0 8.291 6.709 15 15 15s15-6.709 15-15v-15c24.814 0 45-20.186 45-45z" fill="#ffd580"/></g><path d="m486.393 207.607c4.29-4.29 10.742-5.573 16.347-3.252 5.605 2.322 9.26 7.791 9.26 13.858v53.787c0 33.296-27.626 60-60 60-32.999 0-60-27.001-60-60v-53.787c0-6.067 3.655-11.536 9.26-13.858s12.057-1.038 16.347 3.252l4.393 4.393 19.393-19.393c5.858-5.858 15.355-5.858 21.213 0l19.394 19.393z" fill="#ccdcff"/><g fill="#ffb366"><path d="m152 257v-15c24.814 0 45-20.186 45-45s-20.186-45-45-45h-15v30h15c8.262 0 15 6.724 15 15s-6.738 15-15 15h-15v60c8.291 0 15-6.709 15-15z"/><path d="m152 122c8.262 0 15 6.724 15 15 0 8.291 6.709 15 15 15s15-6.709 15-15c0-24.814-20.186-45-45-45v-15c0-8.291-6.709-15-15-15v60z"/></g><g fill="#3d4566"><path d="m197 362h-60v30h60c8.291 0 15-6.709 15-15s-6.709-15-15-15z"/><path d="m197 302h-60v30h60c8.291 0 15-6.709 15-15s-6.709-15-15-15z"/></g></g></svg>