<?xml version="1.0" encoding="iso-8859-1"?>
<!-- Generator: Adobe Illustrator 19.0.0, SVG Export Plug-In . SVG Version: 6.00 Build 0)  -->
<svg version="1.1" id="Capa_1" xmlns="http://www.w3.org/2000/svg" xmlns:xlink="http://www.w3.org/1999/xlink" x="0px" y="0px"
	 viewBox="0 0 512.478 512.478" style="enable-background:new 0 0 512.478 512.478;" xml:space="preserve">
<path style="fill:#FDBF5E;" d="M356.163,205.839c0-53.6-47.2-96.8-104.8-93.6c-48.8,2.4-90.4,39.2-94.4,85.6
	c-2.4,23.2,4.8,45.6,18.4,63.2c16,20.8,27.2,20.8,31.2,46.4l1.6,17.6h97.6l0.8-7.2c4-27.2,16-35.2,32-57.6
	C348.963,244.239,356.163,225.839,356.163,205.839z"/>
<path style="fill:#F16051;" d="M308.163,324.239h-104c-3.2,0-6.4,2.4-6.4,6.4v37.6c0,3.2,2.4,6.4,6.4,6.4h104c3.2,0,6.4-2.4,6.4-6.4
	v-37.6C314.563,326.639,311.363,324.239,308.163,324.239z"/>
<path style="fill:#2EA2DB;" d="M286.563,373.039l-61.6,0.8v4c0,16.8,14.4,30.4,31.2,30.4l0,0c16.8,0,30.4-14.4,30.4-31.2V373.039z"
	/>
<g>
	<circle style="fill:#FFFFFF;" cx="426.56" cy="345.84" r="35.2"/>
	<circle style="fill:#FFFFFF;" cx="78.56" cy="171.44" r="35.2"/>
</g>
<path style="fill:#193651;" d="M506.563,307.439c-4-17.6-9.6-34.4-16-52c33.6-83.2,29.6-164.8-19.2-213.6
	c-28-27.2-66.4-41.6-111.2-41.6c-33.6,0-68.8,8-104,22.4c-35.2-14.4-70.4-22.4-104-22.4c-44.8,0-83.2,14.4-110.4,41.6
	c-37.6,37.6-50.4,96-36,163.2c4,17.6,9.6,35.2,16.8,52c-33.6,83.2-29.6,164.8,19.2,213.6c27.2,27.2,65.6,41.6,110.4,41.6l0,0
	c33.6,0,68.8-8,104-22.4c35.2,14.4,70.4,22.4,104,22.4l0,0c44.8,0,83.2-14.4,110.4-41.6
	C508.163,433.039,520.963,374.639,506.563,307.439z M360.163,16.239c40.8,0,75.2,12.8,99.2,36.8c41.6,41.6,47.2,109.6,21.6,181.6
	c-20-41.6-48.8-82.4-84.8-118.4c-36.8-36-77.6-64.8-119.2-84.8C304.963,21.839,332.963,16.239,360.163,16.239z M21.763,201.839
	c-13.6-62.4-2.4-115.2,31.2-148.8c24-24,58.4-36.8,99.2-36.8c26.4,0,54.4,5.6,82.4,15.2c-40.8,20-81.6,48.8-117.6,85.6
	c-5.6,5.6-11.2,12-16.8,17.6c-6.4-4-13.6-6.4-21.6-6.4c-24,0-43.2,19.2-43.2,43.2c0,12.8,5.6,24,14.4,32
	c-6.4,11.2-12.8,22.4-17.6,32.8C27.363,225.039,24.163,213.039,21.763,201.839z M51.363,171.439c0-15.2,12-27.2,27.2-27.2
	s27.2,12,27.2,27.2s-12,27.2-27.2,27.2S51.363,186.639,51.363,171.439z M152.163,496.239c-40.8,0-75.2-12.8-99.2-36.8
	c-41.6-41.6-46.4-109.6-21.6-181.6c20,41.6,48.8,81.6,84.8,117.6s76.8,65.6,118.4,85.6
	C207.363,490.639,179.363,496.239,152.163,496.239z M256.163,473.039c-44.8-19.2-88.8-49.6-128-88.8c-38.4-38.4-68.8-82.4-88-127.2
	c6.4-15.2,14.4-30.4,23.2-45.6c4.8,1.6,9.6,3.2,15.2,3.2c24,0,43.2-19.2,43.2-43.2c0-10.4-3.2-19.2-9.6-26.4
	c4.8-5.6,10.4-11.2,16-17.6c39.2-39.2,83.2-69.6,128-88.8c44.8,19.2,88.8,49.6,128,88.8s68.8,83.2,88,128
	c-7.2,17.6-16.8,34.4-27.2,52c-5.6-2.4-12-4.8-18.4-4.8c-24,0-43.2,19.2-43.2,43.2c0,10.4,4,20,10.4,28c-3.2,3.2-6.4,7.2-9.6,10.4
	C344.963,423.439,300.963,453.839,256.163,473.039z M400.163,345.839c0-15.2,12-27.2,27.2-27.2s27.2,12,27.2,27.2
	s-12,27.2-27.2,27.2S400.163,361.039,400.163,345.839z M459.363,459.439c-24,24-58.4,36.8-99.2,36.8l0,0c-26.4,0-54.4-5.6-82.4-15.2
	c41.6-20,82.4-48.8,118.4-85.6c4-4,7.2-8,11.2-12c6.4,3.2,12.8,5.6,20,5.6c24,0,43.2-19.2,43.2-43.2c0-11.2-4.8-21.6-11.2-28.8
	c8.8-13.6,16-27.2,22.4-40.8c4,11.2,7.2,23.2,9.6,34.4C504.163,373.039,492.963,425.839,459.363,459.439z"/>
<polygon style="fill:#FFFFFF;" points="270.563,155.439 221.763,219.439 254.563,219.439 244.963,257.839 292.163,198.639 
	256.963,197.039 "/>
<g>
</g>
<g>
</g>
<g>
</g>
<g>
</g>
<g>
</g>
<g>
</g>
<g>
</g>
<g>
</g>
<g>
</g>
<g>
</g>
<g>
</g>
<g>
</g>
<g>
</g>
<g>
</g>
<g>
</g>
</svg>
