<svg xmlns="http://www.w3.org/2000/svg" viewBox="0 0 1679.57 1283.4"><g id="Layer_2" data-name="Layer 2"><g id="_Layer_" data-name="&lt;Layer&gt;"><path d="M1409.52,379.69,1371.89,327a51.52,51.52,0,0,0-39.55-21.63c-13.72-.69-28.88-1.52-41.91-2.23-33-1.81-87.81-.39-136.18.86-22.72.59-44.19,1.14-60.17,1.26h-.58c-19.57,0-37.89-7.07-50.36-19.44-9.51-9.44-14.75-21.36-14.75-33.55V72.75c0-12.87,5.69-25.38,16-35.23,12.76-12.18,30.87-18.64,49.71-17.76,8.48.4,18.09,1.12,28.26,1.87,29.71,2.21,66.69,4.95,104.52,2.12,60.2-4.51,175.29-8.41,234.8-4,38,2.82,65.63,25.11,65.63,53V252.27c0,13.93-6.73,26.41-19.46,36.08-11.73,8.91-28.11,14.91-46.14,16.9-8.08.9-16.14,1.54-24.65,2a29,29,0,0,0-27.56,29Zm-159.43-79.14c15.28,0,29.13.24,40.43.86,13,.72,28.19,1.54,41.91,2.23A53.28,53.28,0,0,1,1373.3,326l34.5,48.29v-38a30.75,30.75,0,0,1,29.2-30.78c8.47-.43,16.49-1.07,24.55-2,31.88-3.52,64-20.74,64-51.26V72.75c0-26.95-26.93-48.51-64-51.26-59.43-4.42-174.4-.52-234.55,4-38,2.84-75,.09-104.77-2.11-10.17-.76-19.76-1.47-28.22-1.87-18.36-.87-36,5.43-48.44,17.28-10,9.52-15.48,21.59-15.48,34V252.27c0,11.73,5.06,23.21,14.24,32.33,12.14,12,30,18.93,49.14,18.93h.57c16-.12,37.42-.67,60.14-1.26C1186.06,301.45,1220.71,300.55,1250.09,300.55Z" fill="#331832"/><path d="M1475.79,44c-59.28-4.4-174.15-.54-234.67,4-50.89,3.81-99.7-2.41-132.89-4-35.74-1.69-64.82,23.34-64.82,52.13V275.69c0,28.79,29,52.38,64.82,52.12,49.1-.35,147.47-4.8,196.4-2.11,15.25.83,29.14,1.58,41.9,2.23a52.65,52.65,0,0,1,40.22,22l36.06,50.49V359.69a29.94,29.94,0,0,1,28.38-29.92c8.46-.42,16.55-1.07,24.6-2,35.47-3.92,64.82-23.33,64.82-52.12V96.17C1540.61,67.38,1511.44,46.69,1475.79,44Z" fill="#2196f3"/><path d="M797.25.88c-26.92-2-79.08-.25-106.56,1.81-23.1,1.73-45.27-1.1-60.34-1.81-16.22-.77-29.43,10.6-29.43,23.67v81.51c0,13.07,13.18,23.78,29.43,23.67,22.3-.16,67-2.18,89.18-1,6.93.38,13.23.72,19,1a23.92,23.92,0,0,1,18.26,10l16.37,22.92V144.2a13.59,13.59,0,0,1,12.89-13.58c3.84-.2,7.51-.49,11.17-.89,16.1-1.78,29.43-10.6,29.43-23.67V24.55C826.68,11.48,813.43,2.08,797.25.88Z" fill="#00b050"/><path d="M1125.83,157.51a3.42,3.42,0,0,1,3-3.39,113.75,113.75,0,0,1,11.9-.64c7,0,11.36.68,15.15,2.88a11.07,11.07,0,0,1,6.06,10.07c0,4.47-2.65,8.63-8.41,10.83v.15c5.83,1.52,10.15,6,10.15,12.5a13.63,13.63,0,0,1-5.3,10.9c-3.71,3-9.92,4.62-20.07,4.62-3.81,0-7-.17-9.41-.39a3.42,3.42,0,0,1-3.09-3.4Zm11.44,13.16a3.41,3.41,0,0,0,3.41,3.41h.38c6.13,0,9.31-2.5,9.31-6.29s-2.95-5.9-8.18-5.9c-.59,0-1.13,0-1.61,0a3.41,3.41,0,0,0-3.31,3.4Zm0,22.8a3.4,3.4,0,0,0,3.4,3.4h1.07c5.22,0,9.84-2,9.84-7.42,0-5.07-4.62-7.12-10.37-7.12h-.53a3.41,3.41,0,0,0-3.41,3.41Z" fill="#fff"/><path d="M1218.3,178.85c0,16.81-10.07,26.89-25.07,26.89s-24-11.44-24-26.06c0-15.3,9.84-26.73,24.84-26.73C1209.74,153,1218.3,164.69,1218.3,178.85Zm-36.88.61c0,10.07,4.7,17.11,12.42,17.11s12.27-7.42,12.27-17.34c0-9.24-4.32-17.12-12.27-17.12S1181.42,169.53,1181.42,179.46Z" fill="#fff"/><path d="M1225.87,201.49V157.27a3.41,3.41,0,0,1,3.41-3.41h8.09a3.4,3.4,0,0,1,3,1.73l9.63,17a163.12,163.12,0,0,1,8.33,17.5h.15a211.06,211.06,0,0,1-.91-21.36V157.27a3.4,3.4,0,0,1,3.41-3.41h3.78a3.4,3.4,0,0,1,3.41,3.41v44.22a3.4,3.4,0,0,1-3.41,3.41H1258a3.41,3.41,0,0,1-3-1.75l-9.93-17.94a172.17,172.17,0,0,1-8.86-18h-.31c.38,6.81.53,14,.53,22.34v12a3.4,3.4,0,0,1-3.4,3.41h-3.79A3.41,3.41,0,0,1,1225.87,201.49Z" fill="#fff"/><path d="M1291.53,153.86h4.69a3.4,3.4,0,0,1,3.41,3.41v28.85c0,14.54-7,19.62-18.1,19.62a33.64,33.64,0,0,1-5.27-.46,3.4,3.4,0,0,1-2.79-3.82l.36-2.6a3.43,3.43,0,0,1,3.85-2.91,19.08,19.08,0,0,0,2.56.17c4.85,0,7.88-2.2,7.88-10.08V157.27A3.41,3.41,0,0,1,1291.53,153.86Z" fill="#fff"/><path d="M1356,178.85c0,16.81-10.08,26.89-25.07,26.89s-24-11.44-24-26.06c0-15.3,9.85-26.73,24.84-26.73C1347.42,153,1356,164.69,1356,178.85Zm-36.89.61c0,10.07,4.7,17.11,12.42,17.11s12.27-7.42,12.27-17.34c0-9.24-4.31-17.12-12.27-17.12S1319.09,169.53,1319.09,179.46Z" fill="#fff"/><path d="M1371.65,153.86a3.41,3.41,0,0,1,3.41,3.41v25.9c0,8.86,3.41,13.33,9.24,13.33,6.06,0,9.39-4.25,9.39-13.33v-25.9a3.4,3.4,0,0,1,3.41-3.41h4.69a3.41,3.41,0,0,1,3.41,3.41v25.21c0,15.76-8,23.26-21.28,23.26-12.88,0-20.37-7.2-20.37-23.41V157.27a3.4,3.4,0,0,1,3.4-3.41Z" fill="#fff"/><path d="M1415.19,157.51a3.4,3.4,0,0,1,3-3.38,111.25,111.25,0,0,1,12.36-.65c7.57,0,12.87,1.13,16.51,4,3.1,2.43,4.77,6.06,4.77,10.76a13.52,13.52,0,0,1-9,12.49V181c3.56,1.44,5.52,4.77,6.81,9.47.95,3.48,1.87,7.26,2.67,10.16a3.4,3.4,0,0,1-3.28,4.3h-4.79a3.38,3.38,0,0,1-3.22-2.3c-.72-2.12-1.62-5.36-2.59-9.59-1.43-6.44-3.63-8.1-8.4-8.18h0a3.41,3.41,0,0,0-3.41,3.41v13.25a3.41,3.41,0,0,1-3.41,3.41h-4.62a3.41,3.41,0,0,1-3.41-3.41Zm11.44,15.58a3.41,3.41,0,0,0,3.41,3.41h1.13c5.76,0,9.17-2.88,9.17-7.34,0-4.62-3.18-7-8.49-7q-1.08,0-1.95,0a3.4,3.4,0,0,0-3.27,3.41Z" fill="#fff"/><path d="M1207.22,963c-23.37,1.41-57.75,7-93.58,3.58-42.63-4.07-123.53-7.54-165.27-3.58-25.11,2.38-45.65,21-45.65,46.86v161.39c0,25.88,20.67,43.34,45.65,46.86a265.89,265.89,0,0,0,40.22,2.33,19.85,19.85,0,0,1,20,19.82v43.12l39.86-55.81a27.32,27.32,0,0,1,20.3-11.35h.13c34.46-2.42,103.73,1.59,138.31,1.9,25.21.23,45.65-21,45.65-46.86V1009.88C1252.87,984,1232.39,961.5,1207.22,963Z" fill="#2196f3"/><path d="M982.11,1064.62v12.16a4.65,4.65,0,0,0,4.65,4.65h11.5a4.66,4.66,0,0,0,4.66-4.65v-12.16a4.66,4.66,0,0,1,4.65-4.66h3.29a4.66,4.66,0,0,1,4.66,4.66v46.56a4.66,4.66,0,0,1-4.66,4.65h-3.29a4.65,4.65,0,0,1-4.65-4.65v-14.07a4.66,4.66,0,0,0-4.66-4.65h-11.5a4.65,4.65,0,0,0-4.65,4.65v14.07a4.66,4.66,0,0,1-4.66,4.65h-3.29a4.65,4.65,0,0,1-4.65-4.65v-46.56a4.66,4.66,0,0,1,4.65-4.66h3.29A4.66,4.66,0,0,1,982.11,1064.62Z" fill="#fff"/><path d="M1077.68,1087.32c0,18.4-11,29.43-27.44,29.43s-26.27-12.52-26.27-28.52c0-16.74,10.77-29.26,27.19-29.26C1068.32,1059,1077.68,1071.82,1077.68,1087.32Zm-40.37.66c0,11,5.14,18.74,13.6,18.74s13.43-8.13,13.43-19c0-10.11-4.73-18.73-13.43-18.73S1037.31,1077.12,1037.31,1088Z" fill="#fff"/><path d="M1090.71,1060H1094a4.66,4.66,0,0,1,4.65,4.66v36a4.66,4.66,0,0,0,4.66,4.65h12.9a4.66,4.66,0,0,1,4.66,4.66v1.3a4.66,4.66,0,0,1-4.66,4.65h-25.5a4.66,4.66,0,0,1-4.66-4.65v-46.56A4.66,4.66,0,0,1,1090.71,1060Z" fill="#fff"/><path d="M1140.89,1104.9l-2.09,7.53a4.64,4.64,0,0,1-4.48,3.4h-3.2a4.65,4.65,0,0,1-4.45-6l14.16-46.57a4.67,4.67,0,0,1,4.46-3.3h9.7a4.65,4.65,0,0,1,4.44,3.27l14.51,46.57a4.64,4.64,0,0,1-4.44,6h-3.89a4.64,4.64,0,0,1-4.46-3.31l-2.32-7.71a4.65,4.65,0,0,0-4.45-3.32h-9A4.66,4.66,0,0,0,1140.89,1104.9Zm8.91-12.86a4.65,4.65,0,0,0,4.46-6l-1.73-5.89c-1-3.32-2-7.46-2.82-10.78h-.16c-.83,3.32-1.66,7.55-2.57,10.78l-1.67,6a4.65,4.65,0,0,0,4.49,5.9Z" fill="#fff"/><path d="M304.51,661.47c-41.75-3.64-122.65-.45-165.27,3.3-35.84,3.16-70.22-2-93.59-3.3C20.48,660.07,0,680.79,0,704.63V853.27c0,23.83,20.44,43.37,45.65,43.15,34.58-.29,103.86-4,138.31-1.75h.14a28.49,28.49,0,0,1,20.69,11l39.46,50.87V921.58a23,23,0,0,1,22.95-23,281,281,0,0,0,37.31-2.16c25-3.24,45.64-19.32,45.64-43.15V704.63C350.15,680.79,329.61,663.66,304.51,661.47Z" fill="#a50202"/><path d="M150,812.12c2.42-10.74,9-26.36,16-38.46a.82.82,0,0,1,1-.36l5.28,1.88a.82.82,0,0,1,.45,1.18c-6.61,12-12.92,27.64-15.25,38.31a.84.84,0,0,1-1.11.61l-5.86-2.2A.84.84,0,0,1,150,812.12Zm5.45-39a219.29,219.29,0,0,1-4.95-23.95.82.82,0,0,1,.8-.92l3.2-.1h50.22a.83.83,0,0,0,.78-1.1,177.92,177.92,0,0,1-5-17.32.82.82,0,0,0-.77-.63h0a.84.84,0,0,1-.16-1.64l7.07-1.87a.82.82,0,0,1,1,.62c3.89,17.57,10.46,35,18.45,45.75a.82.82,0,0,1-.2,1.19,35.77,35.77,0,0,0-4.51,3.65.83.83,0,0,1-1.24-.1A101.31,101.31,0,0,1,208.88,756a.83.83,0,0,0-.77-.51H190.78a.83.83,0,0,0-.83.83v66.23a2.81,2.81,0,0,0,2.81,2.81h3.81c1.86,0,4.12,0,6.51-.07a.84.84,0,0,1,.78,1.19,33.47,33.47,0,0,0-2.15,6.15.84.84,0,0,1-.82.64c-15.68,0-18.62-1.63-18.62-9.88V756.34a.83.83,0,0,0-.83-.83H160.12a.83.83,0,0,0-.82,1c.94,5.58,1.95,11.25,2.8,15.29a.83.83,0,0,1-.66,1l-5,1A.82.82,0,0,1,155.44,773.15Zm53.66,1.55c3.52,14.18,9.23,28.36,15.93,37.12a.83.83,0,0,1-.26,1.23,39.23,39.23,0,0,0-4.65,3,.83.83,0,0,1-1.16-.15c-7-9.22-13.12-23.79-16.77-37.59a.81.81,0,0,0-.7-.6l-.41-.07a.83.83,0,0,1,0-1.61l7-1.91A.83.83,0,0,1,209.1,774.7Zm32,58.35H235a.83.83,0,0,1-.83-.83V759.83a.83.83,0,0,0-.68-.81l-.3-.08a.83.83,0,0,1,0-1.6l1.06-.29a.82.82,0,0,0,.52-1.15,259,259,0,0,1-10.42-26.08.83.83,0,0,0-.79-.56,3.56,3.56,0,0,1-.89-.11.83.83,0,0,1,0-1.59l7.54-2.28a.83.83,0,0,1,1,.55c6.54,21,16.69,42.36,27.32,55.29a.82.82,0,0,1,0,1.07c-1.23,1.38-2.83,3.36-3.9,4.84a.82.82,0,0,1-1.32,0,136.7,136.7,0,0,1-9.85-14.59.83.83,0,0,0-1.54.42v59.33A.84.84,0,0,1,241.08,833.05Z" fill="#fff"/><path d="M62,776.19V763a.8.8,0,0,0-.3-.63A150.68,150.68,0,0,1,37.22,736a.85.85,0,0,0-.4-.3c-.18-.07-.36-.14-.54-.23a.83.83,0,0,1-.09-1.46l4.86-3a.81.81,0,0,1,.68-.09l1,.31a.73.73,0,0,0,.25,0H92.74a.83.83,0,0,1,.83.83v5.66a.83.83,0,0,1-.83.83H50.47a.83.83,0,0,0-.67,1.33,115.43,115.43,0,0,0,16,17.41.82.82,0,0,0,.6.19l2.61-.15a.84.84,0,0,1,.89.83v18.05a.83.83,0,0,0,.83.83H97.51a.83.83,0,0,1,.83.83v5.89a.83.83,0,0,1-.83.83H70.69a.84.84,0,0,0-.83.84v37.76c0,2.44,1.16,2.44,5.11,2.44,3,0,7.56-.09,12.61-.2a.82.82,0,0,1,.77,1.17,43.79,43.79,0,0,0-2.19,6,.84.84,0,0,1-.8.61c-20,.19-23.41-1.27-23.41-10.12V785.41a.84.84,0,0,0-.83-.84H34.76a.83.83,0,0,1-.83-.83v-5.89a.83.83,0,0,1,.83-.83H61.12A.83.83,0,0,0,62,776.19Zm41.26-26.49H120a.83.83,0,0,0,.81-1c-1.6-7.2-3.1-14.18-4.31-20.37a.79.79,0,0,0-.66-.65c-1.13-.18-1.67-.63-1.77-1.33l8.76-1.07a.82.82,0,0,1,.91.66c1.33,7.06,2.86,14.93,4.6,23.11a.84.84,0,0,0,.82.67h11.74a.84.84,0,0,1,.84.83v5.66a.84.84,0,0,1-.84.83h-9.75a.84.84,0,0,0-.81,1c3.23,14.33,6.66,28.37,9.47,38.33a.84.84,0,0,1-.41,1L134.25,800a.83.83,0,0,1-1.19-.52l-.83-3A.83.83,0,0,0,131,796c-3.92,2.41-7.91,5.08-11.72,7.94a.83.83,0,0,0-.23,1.08c5.54,9.76,12.42,16.93,20.55,21.51a.83.83,0,0,1,.21,1.29,34,34,0,0,0-3.74,4.9.83.83,0,0,1-1.14.28,62.67,62.67,0,0,1-21.8-23,.84.84,0,0,0-1.26-.24,85.55,85.55,0,0,0-11,10.62.83.83,0,0,1-1.31,0l-3.74-5a.83.83,0,0,1,0-1,84.51,84.51,0,0,1,12.8-11.77.82.82,0,0,0,.25-1c-5.65-12.78-9.28-29.06-10.89-49.27a.82.82,0,0,0-.06-.26l-.27-.61a.84.84,0,0,1,.56-1.14l3.28-.86a.81.81,0,0,1,.41,0l1.09.27A.64.64,0,0,0,103.21,749.7Zm2.67,8.25c1.61,15.29,4.8,28.16,9.16,38.61a.83.83,0,0,0,1.23.36c4.43-2.94,8.94-5.86,13.37-8.32a.81.81,0,0,0,.4-.92c-2.35-9.2-4.91-19.64-7.25-30A.84.84,0,0,0,122,757H106.71A.83.83,0,0,0,105.88,758Z" fill="#fff"/><path d="M1217.26,600.19c127.33-76.46,300.08-161,347.23-90.5,56.82,84.9-144.36,120.45-301.48,169.65C1206.65,697,1136.11,648.91,1217.26,600.19Z" fill="#00b050" opacity="0.6"/><path d="M583.78,829.65c-82.28,99-199.42,217.68-258.18,173.53C254.78,950,409.2,863.26,523.67,778,564.73,747.4,636.22,766.53,583.78,829.65Z" fill="#acc9c5" opacity="0.6"/><path d="M1100.31,680.48s509.86-184.36,573.11-26.57-379.1,38.23-525.2,97.2Z" fill="#00b050"/><path d="M1126.77,720.22c100.15-42.55,222.76-54,308-56.11,92.39-2.28,161.91,5.61,162.6,5.69l.5-4.32c-.69-.08-70.52-8-163.2-5.71-85.6,2.11-208.79,13.63-309.57,56.45Z" fill="#c2c68e"/><path d="M624.07,672.12s-38.27,478.8-188.72,471.95S543.53,824.31,549.54,684.86Z" fill="#00b050" opacity="0.54"/><path d="M582.32,678.88c-2.4,96.38-38.13,199.46-67.68,269-32,75.34-63.89,128.52-64.21,129.05l3.3,2c.32-.53,32.32-53.93,64.45-129.53,29.68-69.8,65.57-173.38,68-270.36Z" fill="#c2c68e"/><path d="M1400.52,1032.34c-38.63-34.93-96.29,16.87-118.5-38.58-18.76-46.91-17.49-52.91-38.87-58.46a80.28,80.28,0,0,0-22.48-2.43c-9.07.27-23.79-1.24-34.6-11.82-66-64.62-29.27-244.2,86.35-210.32,8.35,2.45,15.85,9.35,23.7,17.32,42.55,43.24,31.09,74.46,116,71.62s40,108.31,66.36,138.88,56.79,52.33,40.45,102.61S1439.12,1067.29,1400.52,1032.34Z" fill="#00b050"/><g opacity="0.5"><path d="M1209.78,791.39l1.19-3.21c1.42.53,143.43,55.06,302.34,265.9l-2.73,2.06C1352.26,846.09,1211.19,791.91,1209.78,791.39Z" fill="#68a1bf"/><path d="M1388.34,865.38c5.16-46.56,21.79-66,22.5-66.84l2.58,2.25c-.17.19-16.65,19.6-21.68,65Z" fill="#68a1bf"/><path d="M1361.83,891.82c8.31-18,29-31.73,59.93-39.71a229.26,229.26,0,0,1,44.35-6.7l.11,3.42c-.82,0-82.19,3-101.28,44.43Z" fill="#68a1bf"/><path d="M1407.18,944.78c.4-5.38.92-8.52,1-8.66l3.37.59c-.12.66-11.11,66.66,31.23,122l-2.72,2.08C1405.9,1016.21,1405.68,964.86,1407.18,944.78Z" fill="#68a1bf"/><path d="M1362.79,1018.77c5.14-23.26,16.9-37.29,25.86-45,9.75-8.34,18.21-11.13,18.57-11.24l1,3.26c-.33.1-32.72,11.09-42.14,53.68Z" fill="#68a1bf"/></g><path d="M1376.63,445.66c13.26-8.88,21.07-5.74,25.85,1.39s4.7,15.54-8.55,24.42c-24.15,16.18-44.46,11.09-44.46,11.09S1352.14,462.07,1376.63,445.66Z" fill="#acc9c5"/><path d="M1520.27,761.28c19.17,4.24,23,13.85,20.74,24.16s-9.82,17.4-29,13.16c-34.91-7.71-47.65-30.1-47.65-30.1S1484.86,753.46,1520.27,761.28Z" fill="#acc9c5"/><path d="M695.89,300.57C684,302,680,298.69,679.39,294s2.5-8.9,14.42-10.37c21.71-2.67,33.24,4.5,33.24,4.5S717.92,297.86,695.89,300.57Z" fill="#acc9c5"/><path d="M610.49,443.34l-2-2.31a437.4,437.4,0,0,0-4.37-121.78c-.15-.82-.29-1.65-.45-2.48a463.53,463.53,0,0,0-11.42-48.29q-1.58-5.4-3.31-10.85l2.16-.69q1.71,5.37,3.26,10.67a461.45,461.45,0,0,1,17.32,92.85c.08.87.14,1.75.21,2.62A431.85,431.85,0,0,1,610.49,443.34Z" fill="#acc9c5"/><path d="M611.39,363.4l-1.27-1.89c68.45-46.11,77.33-134.21,77.41-135.1l2.27.21C689.71,227.52,680.75,316.67,611.39,363.4Z" fill="#acc9c5"/><path d="M594.62,316a80.53,80.53,0,0,1-32.74-26.9l1.91-1.23c.15.23,14.8,22.66,41.62,29.41l-.56,2.2A66.43,66.43,0,0,1,594.62,316Z" fill="#acc9c5"/><path d="M592.55,245.4c6.73,14.72,5.26,20.69,1,22.65s-9.75-.84-16.48-15.57c-12.26-26.83-10.44-43.34-10.44-43.34S580.11,218.18,592.55,245.4Z" fill="#acc9c5"/><path d="M570.39,284.74c10.86,12,11.26,18.15,7.76,21.3s-9.55,2.14-20.4-9.87c-19.78-21.89-23-38.18-23-38.18S550.32,262.54,570.39,284.74Z" fill="#acc9c5"/><path d="M630.33,292c-2.13,11.82-6.52,14.66-11.15,13.82s-7.76-5-5.63-16.84c3.88-21.53,14.14-30.42,14.14-30.42S634.26,270.13,630.33,292Z" fill="#acc9c5"/><path d="M697.85,220.07c-2.79,16-7.38,20-12,19.23s-7.57-6.21-4.78-22.16C686.14,188.08,697,175.5,697,175.5S703,190.59,697.85,220.07Z" fill="#acc9c5"/><path d="M583.13,425.07s-142.61-301-222.82-259.19,140.25,180.49,179,269.41Z" fill="#04ad4c"/><path d="M573.54,441.17S314.45,113.05,208.85,190.72,441.69,369.92,513.43,468Z" fill="#53f99a"/><path d="M540.05,456.45c-48.32-68.61-124-126-179-162-59.6-39.06-108.36-62.16-108.85-62.39l1.43-3c.49.23,49.46,23.43,109.26,62.62,55.22,36.19,131.25,93.83,179.87,162.87Z" fill="#fff"/><path d="M479.49,661.21c-22.18,33.69-95.31,30.86-123.83,8.06-8.14-6.51-43.14-54.07-120.67-54-55.6.05-53.56-48.56-70.4-87-.3-.71-.61-1.4-.93-2.1-6.59-14.28-16-27-32.41-35A223.65,223.65,0,0,1,82,458.6c-1.22-1.06-2.41-2.15-3.59-3.25C49.68,428.65,32.9,395.91,50,368.1c.4-.66.82-1.32,1.26-2a64.06,64.06,0,0,1,12.15-13.2c52.66-44,93.57-17.83,143.12-.9,27.4,9.36,73.91-19.42,116.4-29.5l1.82-.43c33.66-7.57,64.56-2.84,81.1,42.67,0,0,0,0,0,0,.34.92.67,1.84,1,2.74C444,467.91,639.57,338,479.49,661.21Z" fill="#00b050"/><path d="M513.62,604.45l3.29-3C515.59,600,381.25,455.37,50.53,366l-1.16,4.29C378.85,459.33,512.31,603,513.62,604.45Z" fill="#c2c68e"/><path d="M156.94,302.86c-12.95-5.92-14.26-13.24-11.13-20.09s9.52-10.65,22.47-4.73c23.59,10.79,29.32,28.41,29.32,28.41S180.87,313.8,156.94,302.86Z" fill="#acc9c5"/><path d="M592.61,1053.56v-74.1c0-21.15-15.91-38.26-36.22-39-21.38-.73-41.29-2.17-60.86-4.42-33.16-3.8-63.29-15.26-84.85-32.26-23.31-18.37-35.63-42.06-35.63-68.5V491.21c0-53,50.68-95.39,120.51-100.77,109.88-8.46,322.39-1,433.55,7.64,69.93,5.44,138.24.17,193.14-4.06,18.78-1.44,36.52-2.81,52.18-3.58,33.7-1.66,66.42,10.13,89.75,32.33,19.91,19,30.87,43.26,30.87,68.44V835.32c0,23.82-10.1,47-28.44,65.17-23.06,22.89-56.62,35.9-92.14,35.6-29.5-.22-69.13-1.29-111.09-2.41C974,931.27,872.74,928.55,811.8,932c-31.91,1.82-65.55,3.7-95.39,5.19a58,58,0,0,0-45,25.5Zm28.8-665.11c-47.73,0-91.65,1.09-125.71,3.71-68.91,5.31-118.92,47-118.92,99V835.32c0,25.89,12.09,49.11,35,67.14,21.31,16.81,51.13,28.14,84,31.91,19.52,2.23,39.38,3.68,60.72,4.4s37.89,18.6,37.89,40.69v69.46L670,961.66a59.62,59.62,0,0,1,46.31-26.17c29.83-1.48,63.47-3.37,95.38-5.19,61-3.48,162.33-.76,251.73,1.65,41.94,1.12,81.57,2.19,111,2.41h1c34.66,0,67.36-12.76,89.86-35.1,18-17.87,27.93-40.58,27.93-63.94V491.21c0-24.7-10.77-48.56-30.34-67.18-23-21.89-55.23-33.5-88.46-31.86l0-.87,0,.87c-15.64.76-33.37,2.13-52.14,3.58-55,4.23-123.35,9.5-193.41,4.05C852.34,393.85,727.51,388.45,621.41,388.45Z" fill="#331832"/><path d="M1214.18,380.64c-62.45,3-154.31,14.67-250.07,7.5-113.89-8.53-330.05-15.78-441.6-7.5-67.08,5-122,43.91-122,98.08V816.55c0,54.17,55.24,90.7,122,98.08,20,2.21,40.22,3.62,61.94,4.34a39.09,39.09,0,0,1,37.76,39.09v93.18l78.64-110.1a60.81,60.81,0,0,1,46.56-25.4c28.91-1.38,61-3.11,97.19-5.1,92.07-5,277.18,3.33,369.58,4,67.37.48,122-43.91,122-98.08V478.72C1336.16,424.55,1281.43,377.45,1214.18,380.64Z" fill="#ef8062"/><path d="M596.58,611v28a12.82,12.82,0,0,0,12.83,12.83h26.3a12.83,12.83,0,0,0,12.83-12.83V611a12.84,12.84,0,0,1,12.84-12.84h5.79A12.84,12.84,0,0,1,680,611V724.86a12.83,12.83,0,0,1-12.84,12.83h-5.79a12.83,12.83,0,0,1-12.84-12.83V692.15a12.84,12.84,0,0,0-12.83-12.84h-26.3a12.83,12.83,0,0,0-12.83,12.84v32.71a12.83,12.83,0,0,1-12.84,12.83h-5.8a12.83,12.83,0,0,1-12.83-12.83V611a12.84,12.84,0,0,1,12.83-12.84h5.8A12.84,12.84,0,0,1,596.58,611Z" fill="#fff"/><path d="M777.73,678.69H752.06a12.84,12.84,0,0,0-12.84,12.84V699a12.83,12.83,0,0,0,12.84,12.83h31.67a12.84,12.84,0,0,1,12.84,12.84v.21a12.83,12.83,0,0,1-12.84,12.83H720.59a12.83,12.83,0,0,1-12.84-12.83V611a12.84,12.84,0,0,1,12.84-12.84h60.24A12.84,12.84,0,0,1,793.67,611v.21A12.83,12.83,0,0,1,780.83,624H752.06a12.84,12.84,0,0,0-12.84,12.84v3.31A12.84,12.84,0,0,0,752.06,653h25.67a12.82,12.82,0,0,1,12.83,12.83h0A12.83,12.83,0,0,1,777.73,678.69Z" fill="#fff"/><path d="M831.14,598.15h5.8A12.83,12.83,0,0,1,849.77,611v87.37a12.83,12.83,0,0,0,12.84,12.83h29.81A12.84,12.84,0,0,1,905.26,724v.83a12.83,12.83,0,0,1-12.84,12.83H831.14a12.83,12.83,0,0,1-12.84-12.83V611A12.84,12.84,0,0,1,831.14,598.15Z" fill="#fff"/><path d="M936.93,598.15h5.8A12.83,12.83,0,0,1,955.56,611v87.37a12.83,12.83,0,0,0,12.84,12.83h29.81A12.84,12.84,0,0,1,1011.05,724v.83a12.83,12.83,0,0,1-12.84,12.83H936.93a12.83,12.83,0,0,1-12.84-12.83V611A12.84,12.84,0,0,1,936.93,598.15Z" fill="#fff"/><path d="M1149.55,666.47c0,46-27.54,73.5-68.53,73.5-41.2,0-65.63-31.26-65.63-71.22,0-41.82,26.92-73.08,67.91-73.08C1126.15,595.67,1149.55,627.76,1149.55,666.47Zm-100.83,1.66c0,27.54,12.84,46.79,34,46.79,21.32,0,33.54-20.29,33.54-47.41,0-25.26-11.8-46.79-33.54-46.79C1061.15,620.72,1048.72,641,1048.72,668.13Z" fill="#fff"/><path d="M1292.78,1113.1s2.59,16.91,9.49,25.54c4.55,5.68,17.1,16.94,8.18,20.69-7.13,3-20.85-10.34-25.31-13.66s-11.17-9.6-9.68-15c3.09-11.08,2.07-25,2.07-25Z" fill="#331832"/><path d="M1242.86,1100s-3.45,16.76,0,27.25c2.29,6.91,10.14,21.82.47,22.24-7.72.33-15.95-17-19-21.61s-7.13-12.88-3.88-17.38c6.75-9.32,10.64-22.74,10.64-22.74Z" fill="#331832"/><path d="M1247.69,1111.83c92.5-61.7,87.93-115.75,75.11-136.89-14.88-24.55-38.46-44-74.58-52.62a200.16,200.16,0,0,0-26.46-4.41,18.5,18.5,0,0,0-20.35,18.89l.83,31.48h-.07c15.43-.32,62.25,4.38,74.52,29.33,2.55,5.19-59.71,78.32-57.39,91.44C1221.93,1103.89,1238.65,1117.86,1247.69,1111.83Z" fill="#366f90"/><path d="M1283.56,1121.07a18.43,18.43,0,0,0,18.49-19.5c-1.39-23.61-5.78-63.79-19.53-94.15-7.79-17.21-20.19-32.87-36.84-46.52A206,206,0,0,0,1201,933.55c-28.41-13.07-48.87-11.24-48.87-11.24l-15.52,22.89c.2,0-4.36,23.09,28.46,43.65,18.11,11.34,54.52,18.27,69.49,47.57,10.69,20.93,14.78,48.67,16.14,68.06a17.77,17.77,0,0,0,17.65,16.51Z" fill="#366f90"/><path d="M1262.43,841.16s19.08,29.35,25.92,72.86c4.52,28.8-47.88-4.72-47.88-4.72l-2.33-60.15Z" fill="#ffb27d"/><path d="M1167.06,824.57s14.54-24.84,48-17.21,47.15,41.83,49.55,124c0,0-20.12,35.6-111.63,28.66-10.14-.77-24.67-2.11-19.71-18.55C1142.51,910.9,1151.43,849.94,1167.06,824.57Z" fill="#73a0d1"/><path d="M1130.22,831.83l34.45,6.47s60.25,17.82,77.12,18,23.84-12.19,23.84-12.19-13.6-23.09-42.11-34a81.56,81.56,0,0,0-8.43-2.72,61.79,61.79,0,0,0-15-2.51C1143.24,804.2,1130.22,831.83,1130.22,831.83Z" fill="#73a0d1"/><path d="M1130.22,831.83c-.75,2.71,6.47,7.25,16.13,10.12s18.08,3,18.83.29-6.48-7.25-16.13-10.13S1131,829.11,1130.22,831.83Z" fill="#331832"/><path d="M1136.17,908.34c14.71,23.06,43.86,37.78,74.5,36.81l-3.27-24.57c-23.75-4.33-42-19.79-45.35-32.82-4.26-16.37-2.8-32.32-.76-44.31a3.11,3.11,0,0,0-1.17-3c-3-2.33-10.91-7.06-25-7.34a2.73,2.73,0,0,0-2.68,2C1126.59,857.31,1123,887.76,1136.17,908.34Z" fill="#ffb27d"/><path d="M1151.67,915.63a4.57,4.57,0,0,1-1.67-.34,7.56,7.56,0,0,1-3.86-4.1c-1.41-3.33-.57-6.89,1.87-7.93a4,4,0,0,1,3.12,0,7.53,7.53,0,0,1,3.86,4.1c1.41,3.33.57,6.88-1.87,7.92A3.62,3.62,0,0,1,1151.67,915.63Zm-2.21-12.07a3.11,3.11,0,0,0-1.21.24c-2.15.92-2.85,4.13-1.57,7.16a7,7,0,0,0,3.54,3.78,3.38,3.38,0,0,0,2.66,0c2.15-.91,2.85-4.12,1.57-7.15a6.91,6.91,0,0,0-3.54-3.78A3.84,3.84,0,0,0,1149.46,903.56Z" fill="#e9845c"/><path d="M1207.4,920.58s22-7,29-3.69,13.42,12.82,8.65,11.69a51,51,0,0,1-10.47-4.26s11.86,7.26,9,9.3-13.15-4.38-13.15-4.38,13.42,9.76,10.06,10.8-13.5-6.45-13.5-6.45,12.12,9.58,8.19,10.7-10-8-12.87-5.95-10.29,11.4-16.93,4Z" fill="#ffb27d"/><path d="M1234.4,924.54s-3-2.46-5.13-1.85l-.16-.55c2.46-.7,5.53,1.86,5.66,2Z" fill="#e9845c"/><path d="M1230.21,929.46s-2.91-2.47-6.23-2.21l0-.57a10.08,10.08,0,0,1,6.65,2.35Z" fill="#e9845c"/><path d="M1226.76,933.81s-3.52-2.94-5.76-2.09l-.2-.53c2.55-1,6.18,2.06,6.33,2.19Z" fill="#e9845c"/><path d="M1234.43,954.81h70.62a3.43,3.43,0,0,0,3.26-2.34L1323,908.64a3.41,3.41,0,0,0-3.26-4.48h-67.92A7.18,7.18,0,0,0,1245,909l-13.82,41.28A3.41,3.41,0,0,0,1234.43,954.81Z" fill="#331832"/><path d="M1238.86,954.81h70.62a3.42,3.42,0,0,0,3.26-2.34l14.68-43.83a3.41,3.41,0,0,0-3.26-4.48h-67.92a7.18,7.18,0,0,0-6.82,4.88l-13.82,41.28A3.42,3.42,0,0,0,1238.86,954.81Z" fill="#331832"/><path d="M1288.35,928.05c0-1.67-1.92-2.35-3.6-2.35s-4.41,1.83-4.39,4.16c0,2.52,2,2.85,3.66,2.85S1288.35,930.17,1288.35,928.05Z" fill="#daebe8"/><path d="M1212.89,948.61h96.63v6.2h-98.64a2.09,2.09,0,0,1-2.09-2.09h0A4.11,4.11,0,0,1,1212.89,948.61Z" fill="#331832"/><path d="M1243.88,926.31l-.44-.11c.14-.54,3.51-13.18,5.78-17.27s5.13-5,5.25-5l.12.45s-2.76.81-5,4.77S1243.92,926.18,1243.88,926.31Z" fill="#366f90"/><path d="M1233.44,948.84v-.46c2.32,0,2.89-1,2.9-1l5.48-16.4.44.15-5.5,16.44C1236.71,947.68,1236.06,948.84,1233.44,948.84Z" fill="#366f90"/><path d="M1298.54,1069a260,260,0,0,0-8-45.13c-6-22-17.65-50.84-39-63.62l.3-.49c21.51,12.88,33.22,41.89,39.26,64a260.4,260.4,0,0,1,8,45.23Z" fill="#020202"/><path d="M1251.39,1109.13a167.27,167.27,0,0,0-11-58.28l.52-.22a167.6,167.6,0,0,1,11.1,58.5Z" fill="#020202"/><path d="M1229.15,809s-7.82-4-8.67-8.68-4-3.55-5.64-4.87,4.41-13.19,4.41-13.19l17.44-4.56-3.79,21.45Z" fill="#331832"/><path d="M1193.93,804.9a10.08,10.08,0,0,0,8.74-5.21l5.48-10,1.59-2.9,9.35-17.08L1216,788l-1.85,11-.52,3.13a5.06,5.06,0,0,0,3.65,5.71h0c1.16,2.35,2.62,7-3.18,8.29-6.82,1.48-17-4.74-20.28-11.27Z" fill="#ffb27d"/><path d="M1208.16,789.38c0,.1,0,.2,0,.3-.13,6,6,9.37,6,9.37l0,0,1.85-11c-1.88-.9-4.58-1.9-6.27-1.25A2.61,2.61,0,0,0,1208.16,789.38Z" fill="#e1986c"/><path d="M1237,774.37c1.12-11.81-5.74-22.12-15.31-23s-18.24,7.94-19.36,19.75,5.74,22.12,15.31,23S1235.86,786.18,1237,774.37Z" fill="#ffb27d"/><path d="M1227.67,787.45a37.77,37.77,0,0,1-11.66-3.06s-1,5.79,5.33,6.79C1225.05,791.76,1227.67,787.45,1227.67,787.45Z" fill="#fff"/><path d="M1221.3,773.1a.42.42,0,0,0,.29-.21.41.41,0,0,0-.17-.54,4.29,4.29,0,0,0-5.21.66.39.39,0,0,0,0,.56.45.45,0,0,0,.56,0,6.72,6.72,0,0,1,4.32-.55A.44.44,0,0,0,1221.3,773.1Z" fill="#080435"/><path d="M1217,776.85c-.12.94.33,1.77,1,1.86s1.33-.61,1.45-1.54-.33-1.77-1-1.86S1217.08,775.92,1217,776.85Z" fill="#080435"/><path d="M1228.11,778.66c-.18.93.22,1.78.89,1.91s1.37-.51,1.55-1.44a1.54,1.54,0,0,0-.9-1.92C1229,777.08,1228.29,777.73,1228.11,778.66Z" fill="#080435"/><path d="M1212.53,758.24a30.52,30.52,0,0,1,20.38,30.86c-.05.79-.12,1.61-.2,2.44,0,0-9.15,1.14-10.46,9.9-.41,2.74,7.11,8.19,7.68,8,4.36-1.46,16.21-10.59,15.65-31s-7-36-25.44-38.33S1203,750.31,1203,750.31A17.43,17.43,0,0,0,1212.53,758.24Z" fill="#331832"/><path d="M1215.12,758.52s-.33.17-.87.52c-2.11,1.33-7.37,5.23-8.84,11.64-1.86,8.08,5.53,13.92,2.77,20.05s-7.8-1.52-12.53-.88-7.93-1.84-7.36-11.13,4.78-30.7,15.74-29.66Z" fill="#331832"/><path d="M1202.33,774.35c1.79,2.06,4.51,2.51,6.09,1s1.41-4.4-.37-6.46-4.52-2.51-6.1-1S1200.54,772.29,1202.33,774.35Z" fill="#ffb27d"/><path d="M1236.38,799.82h0a.2.2,0,0,1-.17-.24c2.53-13.15-1-26.45-5.67-33.81-7.17-11.39-16-10.84-16.13-10.83a.23.23,0,0,1-.22-.2.21.21,0,0,1,.19-.22c.09,0,9.19-.59,16.52,11,4.68,7.43,8.27,20.86,5.72,34.12A.2.2,0,0,1,1236.38,799.82Z" fill="#fff"/><path d="M1196.19,782.69a.2.2,0,0,1-.2-.14c-3.33-9.13.23-24.08,4.16-28.28s9.45-1.27,9.51-1.24a.22.22,0,0,1,.08.29.21.21,0,0,1-.29.08c-.21-.12-5.23-2.87-9,1.16s-7.35,18.84-4.06,27.85a.21.21,0,0,1-.13.27Z" fill="#fff"/><path d="M1239.11,783.43h0a.21.21,0,0,1-.2-.22c0-.25.82-25.17-8.63-30.33a18.17,18.17,0,0,0-17.4-.43.21.21,0,0,1-.29-.07.2.2,0,0,1,.07-.28,18.62,18.62,0,0,1,17.82.41c9.68,5.28,8.89,29.68,8.85,30.72A.22.22,0,0,1,1239.11,783.43Z" fill="#fff"/><path d="M201.86,528.33c2.23,4,24.55,38.53,19.87,72.35l-24.29-8.79-11.1-45.58Z" fill="#ffb27d"/><path d="M104.86,514.16s14.92-26.77,51.25-19.37,56.16,59.4,46.31,162.4c0,0-57.72-22.94-132.77-4.44C69.65,652.75,82,553,104.86,514.16Z" fill="#ef8062"/><path d="M77.14,503.34l25.54,25.49s65.47,17.69,83.66,17.48,25.34-13.5,25.34-13.5-15.35-24.31-46.4-35.3a90.71,90.71,0,0,0-9.16-2.72,93,93,0,0,0-16.23-2.35C107.74,490.53,77.14,503.34,77.14,503.34Z" fill="#ef8062"/><path d="M77.14,503.34c-4.08,4.44,2.22,9.29,9.27,16.33s14.34,11.14,16.27,9.17-2.21-9.29-9.26-16.33S79,501.31,77.14,503.34Z" fill="#331832"/><path d="M99.29,528.94s.38-5.09-6-11.59a38.77,38.77,0,0,0-12-7.89,3.73,3.73,0,0,0-5,2.09l-2,5.28L83.78,523Z" fill="#ffb27d"/><path d="M144.41,623.37s-78.78-42.69-107,3.88c-20.91,34.48,10.52,66.59,127.07,63.33,0,0,11.52-5.4,8.72-33.39C172.06,646.11,144.41,623.37,144.41,623.37Z" fill="#73a0d1"/><path d="M144.41,623.37s104.94-43,125.7-16.11c23.86,30.88,1,83.32-109.63,64.57L147,657.19Z" fill="#73a0d1"/><path d="M164.59,690.76l-.26-.36c12.24-8.73,8.95-31.16,8.65-33l-79.53-29,.15-.41,79.77,29,0,.13C173.44,657.4,177.53,681.52,164.59,690.76Z" fill="#020202"/><path d="M173.85,664.89s19.33.79,28.42,5.24,4.23,15.34-14.21,15-17.05-3-17.05-3S174.52,672.59,173.85,664.89Z" fill="#331832"/><path d="M149.09,625.42c6.41,0,11.67-1.62,15.93-4.84,8.06-6.07,9.56-15.76,8.39-22.21l-7.71-4.48c-.38-2.12-15.26,5.74-15.23,5.73s-7.1,2.06-31.48-10.4c-17-8.67-25.52-21-26.15-37.63C92.37,539,98,532,99.29,528.94c.17-.41-8.21-8.81-8-9.66L85,516.09c.21-.72-6-3.18-6-3.39l-4.84,4.13a80.91,80.91,0,0,0-6.83,35.74c.69,18.18,8.19,43.27,40.08,59.57C124.89,621,138.54,625.42,149.09,625.42Z" fill="#ffb27d"/><path d="M154.26,626.44h68a3.3,3.3,0,0,0,3.14-2.25L239.53,582a3.29,3.29,0,0,0-3.14-4.32H171a6.9,6.9,0,0,0-6.56,4.7l-13.31,39.74A3.29,3.29,0,0,0,154.26,626.44Z" fill="#764678"/><path d="M158.53,626.44h68a3.29,3.29,0,0,0,3.13-2.25L243.79,582a3.29,3.29,0,0,0-3.13-4.32H175.27a6.92,6.92,0,0,0-6.57,4.7l-13.3,39.74A3.28,3.28,0,0,0,158.53,626.44Z" fill="#764678"/><path d="M206.17,600.68c0-1.6-1.84-2.26-3.46-2.26s-4.24,1.76-4.23,4c0,2.42,1.91,2.73,3.53,2.73S206.17,602.72,206.17,600.68Z" fill="#daebe8"/><path d="M133.54,620.48h93v6h-95a2,2,0,0,1-2-2h0A4,4,0,0,1,133.54,620.48Z" fill="#764678"/><path d="M163.37,599l-.43-.11c.14-.52,3.38-12.69,5.57-16.63s4.93-4.77,5.05-4.81l.12.43s-2.66.78-4.78,4.6S163.4,598.88,163.37,599Z" fill="#331832"/><path d="M153.32,620.7v-.44c2.23,0,2.78-.93,2.78-.93l5.29-15.8.42.15-5.3,15.82C156.47,619.58,155.84,620.7,153.32,620.7Z" fill="#331832"/><path d="M88,588.84a2.91,2.91,0,0,1-.76-.11,7.91,7.91,0,0,1-4.2-3.82h0c-1.72-3-1.77-6.14-.1-7.11a2.41,2.41,0,0,1,1.85-.18A7.92,7.92,0,0,1,89,581.45c1.73,3,1.77,6.13.11,7.1A2.11,2.11,0,0,1,88,588.84Zm-4.19-4.37a7.15,7.15,0,0,0,3.66,3.41,1.56,1.56,0,0,0,1.18-.09c1.19-.7,1-3.4-.43-5.9a7.14,7.14,0,0,0-3.66-3.41,1.47,1.47,0,0,0-1.18.09c-1.2.69-1,3.4.43,5.9Z" fill="#ec865c"/><path d="M139.33,492.38c4.47-.14,7.86-.59,10.43-3.62l8-9.35,2.31-2.73,13.61-16-7.14,18.73-4.3,11.23-1.35,3.56c-.93,2.42.29,3.54,1.15,6.37.35,1.14,2.69,8.19-3.42,8.23-7.61,0-17.24-8.79-19.36-16.44Z" fill="#ffb27d"/><path d="M155.5,473.4s-15-14.41-6.34-26.56S160,466.35,160,466.35l-2.41,7.32Z" fill="#331832"/><path d="M157.78,479.08c0,.11-.05.22-.07.33-1.39,6.31,4.43,11.25,4.43,11.25l.05,0,4.3-11.23c-1.83-1.37-4.51-3-6.47-2.72A2.8,2.8,0,0,0,157.78,479.08Z" fill="#331832"/><ellipse cx="172.77" cy="466.14" rx="21.28" ry="17.51" transform="matrix(0.28, -0.96, 0.96, 0.28, -322.97, 503.15)" fill="#ffb27d"/><path d="M159.2,459.38s4.77,3.47,8.77.54,6.83-5.71,15.79-1.2,18.76,2.48,20.57-2.6-2.45-9-8.08-8.71,1.19-2.83-2.72-8.17-13.85.16-18.77-2.48-22.45-4.95-25.6,10.08Z" fill="#331832"/><path d="M155.45,462.39a3.6,3.6,0,0,0,4.93,1.34,3.68,3.68,0,0,0,.77-5.1,3.6,3.6,0,0,0-4.93-1.33A3.67,3.67,0,0,0,155.45,462.39Z" fill="#ffb27d"/><path d="M194.44,454.36c-3.76,0-8.87-4.59-9.11-4.8l.45-.49c.05.06,6,5.42,9.46,4.54,1.32-.33,2.07-1,1.95-1.63s-1.05-1.25-2.38-1.12a7.49,7.49,0,0,1-4.57-.73l.36-.55a6.88,6.88,0,0,0,4.14.63c1.79-.18,2.93.72,3.1,1.65s-.42,1.88-2.44,2.39A3.82,3.82,0,0,1,194.44,454.36Z" fill="#fff"/><path d="M179,441.79a10.29,10.29,0,0,1-3.76-.66,42.64,42.64,0,0,1-4.22-2c-2.54-1.35-4.73-2.5-7.12-2l-.13-.65c2.62-.5,4.91.71,7.56,2.11a39.1,39.1,0,0,0,4.15,2c4.56,1.79,9.89-.79,10.22-1.07l.48.45A14.32,14.32,0,0,1,179,441.79Z" fill="#fff"/><path d="M153.7,446.06a.81.81,0,0,1-.27-.05c-.22-.08-.55-.34-.34-1.14l0-.1c.37-.53,2.27-3.11,3.58-2.28.16.1.52.42.17,1.12C156.46,444.48,154.71,446.06,153.7,446.06Zm0-1c-.06.25,0,.33,0,.33a4.13,4.13,0,0,0,2-1.32c.64-.66.69-1,.67-1.05C155.8,442.68,154.46,444,153.71,445.09Z" fill="#fff"/><path d="M176.13,466.69a.33.33,0,0,0,.26-.18.36.36,0,0,0-.13-.49,3.83,3.83,0,0,0-4.69.44.37.37,0,0,0,0,.51.39.39,0,0,0,.5,0,6,6,0,0,1,3.89-.37A.35.35,0,0,0,176.13,466.69Z" fill="#080435"/><path d="M172.86,470.24c-.14.84.24,1.6.85,1.7s1.21-.51,1.34-1.35-.25-1.61-.86-1.71S173,469.39,172.86,470.24Z" fill="#080435"/><path d="M188.52,471.18a.24.24,0,0,0,.24-.08.45.45,0,0,0,.08-.5,2.5,2.5,0,0,0-3.47-1.13.44.44,0,0,0-.21.46.27.27,0,0,0,.34.21,3.73,3.73,0,0,1,2.88.93A.19.19,0,0,0,188.52,471.18Z" fill="#080435"/><path d="M184.07,473.18a1.41,1.41,0,0,0,.15,1.91,1.38,1.38,0,0,0,1.75-.74,1.39,1.39,0,0,0-.15-1.9C185.3,472.12,184.51,472.45,184.07,473.18Z" fill="#080435"/><path d="M173.93,482.15a8,8,0,0,1-7.26-4,.23.23,0,0,1,.09-.33.25.25,0,0,1,.34.09c2.84,5,8.61,3.61,8.85,3.55a.24.24,0,0,1,.3.18.24.24,0,0,1-.17.3A10.35,10.35,0,0,1,173.93,482.15Z" fill="#020202"/><path d="M166.16,479h-.08a.26.26,0,0,1-.16-.32,3.34,3.34,0,0,1,1.64-1.69.28.28,0,0,1,.36.06.22.22,0,0,1,0,.32l-.08.05a2.81,2.81,0,0,0-1.4,1.42A.27.27,0,0,1,166.16,479Z" fill="#020202"/><rect x="195.21" y="531.67" width="1.09" height="12.84" transform="translate(-158.34 88.12) rotate(-18.21)" fill="#331832"/><path d="M186.07,485.24a4.66,4.66,0,0,1-3.37-1.4c-3-3-2.85-9.83.31-15.31,2-3.37,4.68-5.59,7.31-5.94a4.74,4.74,0,0,1,4.09,1.35c3,3,2.85,9.83-.31,15.31-1.95,3.37-4.69,5.59-7.31,5.95A6,6,0,0,1,186.07,485.24Zm5-22a4.26,4.26,0,0,0-.61,0c-2.4.32-4.93,2.41-6.77,5.58-3,5.21-3.2,11.67-.43,14.41a4,4,0,0,0,3.47,1.15c2.4-.32,4.93-2.41,6.77-5.58,3-5.21,3.2-11.67.43-14.41A4,4,0,0,0,191,463.28Z" fill="#fff"/><path d="M165.2,460.48c-2.57,5.45-1.86,12.08,1.58,14.81s8.3.52,10.86-4.93,1.85-12.07-1.58-14.8S167.76,455,165.2,460.48Z" fill="#fff" opacity="0.3"/><path d="M182.76,469c-2.57,5.47-2.23,12.12.77,14.84s7.52.48,10.09-5,2.23-12.12-.77-14.84S185.33,463.5,182.76,469Z" fill="#fff" opacity="0.3"/><path d="M170.63,476.75a6,6,0,0,1-3.74-1.32c-3.79-3-4.63-10.1-1.86-15.92,1.61-3.39,4.12-5.71,6.87-6.36a6,6,0,0,1,5.23,1.14c3.79,3,4.63,10.11,1.86,15.92-1.61,3.4-4.12,5.71-6.87,6.36A6.45,6.45,0,0,1,170.63,476.75Zm2.76-23a6.07,6.07,0,0,0-1.32.15c-2.5.59-4.88,2.82-6.37,6-2.63,5.52-1.89,12.26,1.65,15a5.25,5.25,0,0,0,4.6,1c2.5-.59,4.88-2.81,6.38-6,2.62-5.52,1.88-12.26-1.66-15A5.24,5.24,0,0,0,173.39,453.72Z" fill="#fff"/><path d="M183.2,471.3a.69.69,0,0,1-.55-.27h0A6.11,6.11,0,0,0,178,469.1a.69.69,0,0,1-.67-.71.67.67,0,0,1,.71-.67,7.45,7.45,0,0,1,5.67,2.47.68.68,0,0,1-.54,1.11Z" fill="#fff"/><path d="M821.79,534.84s-2.92,18.93-10.71,28.59c-5.13,6.36-19.28,19-9.22,23.16,8,3.35,23.52-11.58,28.55-15.29s12.6-10.75,10.92-16.74c-3.48-12.41-2.33-28-2.33-28Z" fill="#331832"/><path d="M860.66,520.15s3.89,18.76,0,30.5c-2.58,7.74-11.44,24.44-.53,24.9,8.71.37,18-19,21.41-24.19s8.05-14.42,4.37-19.46c-7.61-10.43-12-25.46-12-25.46Z" fill="#331832"/><path d="M855.21,533.41c-104.36-69.08-99.2-129.6-84.74-153.26,16.79-27.49,43.39-49.22,84.14-58.92a228.17,228.17,0,0,1,29.85-4.93,20.81,20.81,0,0,1,23,21.15l-.94,35.24h.08c-17.41-.36-70.24,4.91-84.08,32.84-2.87,5.81,67.37,87.68,64.75,102.38C884.27,524.53,865.41,540.16,855.21,533.41Z" fill="#764678"/><path d="M814.75,543.75a20.69,20.69,0,0,1-20.87-21.83c1.57-26.43,6.52-71.41,22-105.4,8.8-19.28,22.78-36.8,41.57-52.09,14.16-11.53,31.12-21.84,50.38-30.63,32-14.62,55.14-12.58,55.14-12.58l15.08,9c-.23.05,21.83,50.68-18.88,73.21C917.51,426.56,886.89,416.17,870,449c-12.06,23.42-16.67,54.49-18.21,76.19a20,20,0,0,1-19.91,18.49Z" fill="#764678"/><path d="M797.84,485.47l-.64-.05a289.14,289.14,0,0,1,9-50.64c6.81-24.71,20-57.2,44.3-71.62l.32.55c-24.09,14.31-37.22,46.63-44,71.23A288.75,288.75,0,0,0,797.84,485.47Z" fill="#020202"/><path d="M851,530.39h-.64c.26-36.81,12.39-65.22,12.52-65.5l.58.25C863.37,465.42,851.29,493.72,851,530.39Z" fill="#020202"/><path d="M850.72,213.65c-3.32,4.29-35.77,41.24-36.18,82l30.26-6.12,21.12-51.94Z" fill="#ffb27d"/><path d="M967.88,213.92s-13-34.27-57.19-31.89-75.33,19.83-81.76,143.32c0,0,61.07-3.47,130.88,37.63,11.76,6.92,30.11,5.52,30.86-8.1C992.17,327.75,986.59,276,967.88,213.92Z" fill="#6da49a"/><path d="M1006.76,219.33l-38.88,12.32s-80.5,9.42-102,6-27.59-20.41-27.59-20.41,22.41-26,61-33.58a107.07,107.07,0,0,1,11.3-1.61c6.57-.58,12.88-1.18,19.32-.5C993,188.13,1006.76,219.33,1006.76,219.33Z" fill="#6da49a"/><path d="M1006.76,219.33c2.08,4.64-7,9-18.2,13.13s-21.12,5-22.24,1.86,7-9,18.19-13.12S1005.4,216.32,1006.76,219.33Z" fill="#331832"/><path d="M896.07,337.68c-7.57-1.12-13.51-4-18-8.51-8.45-8.6-8.52-20.31-6-27.73l9.9-3.95c.82-2.43,17,9.47,17,9.45s8,3.68,39-6.77c21.59-7.27,33.86-20.32,37.52-39.89,2.76-14.75-2-22.33-3.07-26.17-.13-.51,2.66-7,14.19-10.76,12.44-4.11,17-.9,17-.9a96.67,96.67,0,0,1,1.79,43.44c-4,21.37-17.27,49.72-57.83,63.39C925.44,336.73,908.54,339.53,896.07,337.68Z" fill="#ffb27d"/><path d="M889.27,341.15,808,338.93a3.94,3.94,0,0,1-3.67-2.78l-15.5-50.87a3.93,3.93,0,0,1,3.88-5.06l78.12,2.13a8.27,8.27,0,0,1,7.69,5.84l14.6,47.91A3.92,3.92,0,0,1,889.27,341.15Z" fill="#8fb3e3"/><path d="M884.17,341l-81.23-2.22a3.92,3.92,0,0,1-3.67-2.78l-15.5-50.87a3.93,3.93,0,0,1,3.89-5.06l78.11,2.13a8.27,8.27,0,0,1,7.69,5.84L888.06,336A3.92,3.92,0,0,1,884.17,341Z" fill="#8fb3e3"/><path d="M828.1,308.68c0-1.91,2.28-2.63,4.21-2.58s5,2.24,4.92,4.92c-.1,2.89-2.37,3.21-4.3,3.16S828,311.12,828.1,308.68Z" fill="#daebe8"/><path d="M914.25,334.71l-111.15-3-.2,7.12,113.47,3.1a2.38,2.38,0,0,0,2.45-2.32v0A4.69,4.69,0,0,0,914.25,334.71Z" fill="#8fb3e3"/><path d="M879.29,308.09c0-.15-3.61-15.21-6.06-19.92s-5.53-5.64-5.56-5.65l.15-.5c.14,0,3.35,1.06,5.87,5.9s6,19.43,6.12,20.05Z" fill="#764678"/><path d="M890.59,334.32c-3-.08-3.73-1.43-3.75-1.49L881,313.71l.5-.15,5.81,19.08h0s.66,1.08,3.28,1.16Z" fill="#764678"/><g opacity="0.3"><path d="M975.23,305.2a2.73,2.73,0,0,1-1.73-.57c-1.8-1.44-1.19-5.12,1.37-8.37,1.68-2.13,3.84-3.58,5.64-3.79a2.82,2.82,0,0,1,2.15.54c1.8,1.43,1.2,5.11-1.37,8.37h0c-1.67,2.13-3.83,3.58-5.63,3.79Zm5.71-11.7-.31,0c-1.51.17-3.44,1.5-4.93,3.39-2.13,2.7-2.83,5.86-1.54,6.9a1.81,1.81,0,0,0,1.38.31c1.51-.17,3.44-1.5,4.92-3.39h0c2.13-2.7,2.84-5.86,1.54-6.9A1.64,1.64,0,0,0,980.94,293.5Z" fill="#ec865c"/></g><path d="M918.66,176.07,912,164.32l-1.94-3.43-11.41-20.11,3.82,21.66,2.29,13,.73,4.12c.49,2.79-1.07,3.74-2.6,6.6-.62,1.16-4.65,8.23,2,9.58,8.25,1.68,21.22-6.44,25.13-14.2C930,181.53,920.81,179.87,918.66,176.07Z" fill="#ffb27d"/><path d="M879.68,136.44a29.07,29.07,0,0,0,2.57,11.77c2.8,6.25,5.94-11.3,5.94-11.3Z" fill="#5c305d"/><ellipse cx="901.44" cy="148.61" rx="19.63" ry="23.67" transform="translate(-9.35 76.86) rotate(-4.86)" fill="#ffb27d"/><path d="M920,140.22l-9.5,1.07a6.91,6.91,0,0,1-5.67-1.94c-2.56-2.56-5.18-3.59-13.77-1.37-10.87,2.81-19.54-2.15-22-7.62s2.25-10.79,8.37-9.2,2.26-4.75,7.39-6.63c9.6-3.52,13.12,3.7,21.17,1.68,10.56-2.65,31.35,1.26,26.42,21.94Z" fill="#331832"/><path d="M900.21,147.86a.4.4,0,0,1,0-.75,4.31,4.31,0,0,1,5,1.57.4.4,0,0,1-.06.56.46.46,0,0,1-.56-.06,6.79,6.79,0,0,0-4.18-1.31A.46.46,0,0,1,900.21,147.86Z" fill="#080435"/><path d="M903,152.48c0,1-.64,1.69-1.33,1.65s-1.21-.83-1.16-1.78.64-1.69,1.33-1.65S903,151.53,903,152.48Z" fill="#080435"/><path d="M885.58,149.85a.26.26,0,0,1-.25-.15.46.46,0,0,1,0-.55,2.79,2.79,0,0,1,4.07-.42.48.48,0,0,1,.12.54.28.28,0,0,1-.41.15,4.25,4.25,0,0,0-3.38.34A.24.24,0,0,1,885.58,149.85Z" fill="#080435"/><path d="M890,153.06a1.55,1.55,0,0,1-.61,2c-.65.23-1.43-.31-1.75-1.21a1.54,1.54,0,0,1,.61-2C888.9,151.63,889.68,152.17,890,153.06Z" fill="#080435"/><path d="M932.46,138.15s-3.39,15.23-12.26,18.24c0,0,5-12.15-11.85-15.19C908.35,141.2,922.09,135.85,932.46,138.15Z" fill="#5c305d"/><path d="M921.31,148.58a3.84,3.84,0,1,1,.34-5.71A4.06,4.06,0,0,1,921.31,148.58Z" fill="#ffb27d"/><path d="M908.35,141.2s3.78,11.34,1.9,14.05-17.28,7.07-25.18,5.84h0a15.53,15.53,0,0,0,15.83,12.55,22.54,22.54,0,0,0,7.44-1.66h0c4.91-2,9.4-5.2,10.47-10.38.32-1.58-3.47-10-3.47-10s-1.84-5,.59-8.4C915.93,143.17,911.76,140.8,908.35,141.2Z" fill="#5c305d"/><path d="M889.83,164.44a40.34,40.34,0,0,0,12.73-1.75s.36,6.26-6.51,6.5C892.05,169.33,889.83,164.44,889.83,164.44Z" fill="#fff"/><path d="M878.3,120l-.1-.53a2.46,2.46,0,0,0,2.32-2.63l.53-.07A3,3,0,0,1,878.3,120Z" fill="#331832"/><path d="M887.31,135.58c-.52,0-12.73-.92-14.58-7-.53-1.76-.48-3,.16-3.88,1-1.35,3.3-1.32,5.32-1.29h.87v.27h-.88c-2,0-4.16,0-5.1,1.19-.58.78-.62,2-.11,3.64,1.79,5.9,14.22,6.81,14.34,6.82Z" fill="#fff"/><path d="M902.77,118.92a17.34,17.34,0,0,1-10-2.81l.16-.21c.07,0,7,5.25,18,1.22l.09.25A24,24,0,0,1,902.77,118.92Z" fill="#fff"/><path d="M1467.08,455.05l-1.34-2.22c25-15,65.09-47.92,53.58-99.51l2.53-.56c5.27,23.63.5,45.92-14.19,66.27C1495.42,436,1478.84,448,1467.08,455.05Z" fill="#331832"/><polygon points="1477.34 458.76 1469.16 452.27 1468.15 441.89 1452.75 461.22 1477.34 458.76" fill="#331832"/><polygon points="1531.61 357.41 1521.24 356.18 1513.16 362.78 1516.01 338.23 1531.61 357.41" fill="#331832"/><path d="M810.56,1068.26c-16.43,0-32.16-5.19-47-15.53-17.13-12-29.38-28.37-36.64-40l2.2-1.38c15.4,24.72,48.93,64.34,100.33,52l.6,2.52A83.66,83.66,0,0,1,810.56,1068.26Z" fill="#331832"/><polygon points="723.4 1023.03 729.76 1014.75 740.13 1013.58 720.56 998.48 723.4 1023.03" fill="#331832"/><polygon points="825.59 1075.71 826.65 1065.33 819.92 1057.36 844.51 1059.82 825.59 1075.71" fill="#331832"/><path d="M268.34,1044a87.38,87.38,0,0,1-27.5-4.63c-19.84-6.56-36.28-18.75-46.58-27.83l1.72-1.94c21.84,19.25,65.31,47.6,111,21.08l1.3,2.24A78.64,78.64,0,0,1,268.34,1044Z" fill="#331832"/><polygon points="193.82 1022.46 197.54 1012.7 207.14 1008.61 184.07 999.75 193.82 1022.46" fill="#331832"/><polygon points="306.82 1043.64 304.87 1033.39 296.13 1027.68 320.4 1022.99 306.82 1043.64" fill="#331832"/><path d="M659.23,47.54v27a1.76,1.76,0,0,1-1.76,1.77h-3.35a1.77,1.77,0,0,1-1.77-1.77V53.2a1.76,1.76,0,0,0-1.76-1.77h-7.33a1.77,1.77,0,0,0-1.77,1.77V74.51a1.76,1.76,0,0,1-1.76,1.77h-3.35a1.77,1.77,0,0,1-1.77-1.77v-27a1.76,1.76,0,0,1,1.77-1.76h21.09A1.76,1.76,0,0,1,659.23,47.54Z" fill="#fff"/><path d="M665,61.57c0-2.09-.05-3.94-.11-5.59a1.76,1.76,0,0,1,1.76-1.83h2.55a1.76,1.76,0,0,1,1.75,1.58l.16,1.49h.09a8.61,8.61,0,0,1,7.37-3.57c4.84,0,9.19,4.21,9.19,11.27,0,8-5.11,11.85-10,11.85a6.88,6.88,0,0,1-5.75-2.53h-.09v9.23a1.76,1.76,0,0,1-1.76,1.77h-3.35A1.76,1.76,0,0,1,665,83.47Zm6.87,5.2a7.13,7.13,0,0,0,.14,1.45,4.16,4.16,0,0,0,4,3.26c3,0,4.75-2.49,4.75-6.25,0-3.52-1.58-6.19-4.66-6.19A4.31,4.31,0,0,0,672,62.52a5.3,5.3,0,0,0-.14,1.22Z" fill="#fff"/><path d="M696.74,54.15a1.76,1.76,0,0,1,1.77,1.76v5c0,3.53-.18,6-.36,9l.18,0c1-2.54,1.63-4.26,2.53-6.34l3.83-8.47a1.77,1.77,0,0,1,1.61-1h5.51a1.76,1.76,0,0,1,1.77,1.76v18.6a1.77,1.77,0,0,1-1.77,1.77h-3a1.77,1.77,0,0,1-1.77-1.77v-5c0-3.44.18-4.88.41-9.55h-.18c-.86,2.4-1.41,3.85-2.31,5.93-1.26,2.77-2.75,6.16-4.15,9.32a1.76,1.76,0,0,1-1.61,1h-5.46A1.77,1.77,0,0,1,692,74.51V55.91a1.76,1.76,0,0,1,1.77-1.76Z" fill="#fff"/><path d="M719,56a1.74,1.74,0,0,1,1.59-1.75c1.94-.19,4.73-.37,7.32-.37,3.76,0,11,.41,11,5.66,0,2.85-2.3,4.34-4.52,4.75v.14c3.3.54,5.47,2.35,5.47,5.38,0,6.29-8.55,6.83-13.08,6.83-2.18,0-4.46-.11-6.1-.24A1.77,1.77,0,0,1,719,74.59Zm6.74,14.71a1.76,1.76,0,0,0,1.75,1.77h.56c2.35,0,4.7-.68,4.7-2.85,0-2-1.81-2.81-5.06-2.81h-.19a1.76,1.76,0,0,0-1.76,1.77Zm0-9.63a1.76,1.76,0,0,0,1.77,1.76h0c2.76,0,4.52-.72,4.52-2.4,0-1.45-1.22-2.31-4-2.31l-.64,0a1.76,1.76,0,0,0-1.67,1.76Z" fill="#fff"/><path d="M752.42,67.41a1.77,1.77,0,0,0-.85,3.32,8.58,8.58,0,0,0,4,.89,19.63,19.63,0,0,0,4.38-.46,1.76,1.76,0,0,1,2.1,1.39l.25,1.28a1.76,1.76,0,0,1-1.2,2,22.73,22.73,0,0,1-6.53.87c-7.51,0-11.81-4.35-11.81-11.27,0-5.61,3.49-11.81,11.18-11.81,7.15,0,9.87,5.57,9.87,11,0,.38,0,.74,0,1.08A1.76,1.76,0,0,1,762,67.41Zm2.85-4.71a1.75,1.75,0,0,0,1.63-2.46,3.49,3.49,0,0,0-3.37-2A3.82,3.82,0,0,0,750.27,60a1.76,1.76,0,0,0,1.47,2.75Z" fill="#fff"/><path d="M785,55.91v1.77a1.76,1.76,0,0,1-1.77,1.76h-2.89a1.77,1.77,0,0,0-1.77,1.77v13.3a1.76,1.76,0,0,1-1.76,1.77h-3.35a1.76,1.76,0,0,1-1.76-1.77V61.21A1.77,1.77,0,0,0,770,59.44h-2.9a1.76,1.76,0,0,1-1.76-1.76V55.91a1.76,1.76,0,0,1,1.76-1.76h16.2A1.76,1.76,0,0,1,785,55.91Z" fill="#fff"/><path d="M706.6,1242.65c-25.85,0-56.24-1.4-74.9-2.94-17-1.39-33.53,0-46.86,1-4.57.37-8.89.73-12.71.93h0a29.38,29.38,0,0,1-21.69-7.92A26.12,26.12,0,0,1,542.1,1215v-88.88a25.15,25.15,0,0,1,7.69-17.88,31.39,31.39,0,0,1,22-8.79h.26c7.18.06,16.82.33,27,.63,21.72.62,46.34,1.32,61.13.42a17.3,17.3,0,0,0,12.41-5.94l27-32.58v26.14a9.22,9.22,0,0,0,2.84,6.53,12.73,12.73,0,0,0,9,3.52h.1a195.39,195.39,0,0,1,25.76,1.29c17.87,2.18,29.88,12.89,29.88,26.66V1215c0,14-12.58,25.25-29.91,26.67C729,1242.37,718.23,1242.65,706.6,1242.65Zm-90.21-5.26c5.06,0,10.24.17,15.46.6,27,2.23,78.6,4.15,105.27,2,16.41-1.34,28.32-11.83,28.32-24.94v-88.88c0-14.85-14.24-23.23-28.36-24.94a195.39,195.39,0,0,0-25.54-1.28h-.11a14.45,14.45,0,0,1-10.19-4,10.94,10.94,0,0,1-3.35-7.76V1066.8L674,1095.68a19,19,0,0,1-13.56,6.56c-15,.91-39.61.2-61.37-.42-10.2-.29-19.83-.56-27-.62h-.25a29.61,29.61,0,0,0-20.82,8.29,23.43,23.43,0,0,0-7.18,16.65V1215a24.35,24.35,0,0,0,7.8,17.49A27.63,27.63,0,0,0,572,1240l0,.86,0-.86c3.79-.2,8.1-.55,12.66-.92C594,1238.28,604.88,1237.39,616.39,1237.39Z" fill="#6da49a"/><path d="M573.27,1157.86a1.59,1.59,0,0,1,.84-1.92,18.84,18.84,0,0,1,8.18-1.77c6.6,0,10.51,3.32,10.51,7.77,0,3.82-2.56,6.28-6.06,7.14v.09c3.77.54,7,3.14,7,7.18,0,6.78-6.78,9.12-12.44,9.12a20.39,20.39,0,0,1-7.87-1.51,1.58,1.58,0,0,1-.86-1.85l.62-2.29a1.57,1.57,0,0,1,2.06-1.07,17.53,17.53,0,0,0,5.74,1.15c3.45,0,5.56-1.48,5.56-4,0-3.32-3.5-4-6.37-4h-1.29a1.58,1.58,0,0,1-1.58-1.58v-1.92a1.58,1.58,0,0,1,1.58-1.58h1.29c3.1,0,5.43-1.39,5.43-3.81,0-2-1.66-3.33-4.58-3.33a14.7,14.7,0,0,0-5.09,1.11,1.58,1.58,0,0,1-2.09-1Z" fill="#6da49a"/><path d="M622.39,1156.29v21.81a1.58,1.58,0,0,0,1.48,1.57h0a1.59,1.59,0,0,1,1.49,1.62l-.24,9.77a1.58,1.58,0,0,1-1.58,1.54h-2.11a1.57,1.57,0,0,1-1.58-1.5l-.22-4.62a1.58,1.58,0,0,0-1.58-1.51H603.33a1.58,1.58,0,0,0-1.58,1.51l-.21,4.62a1.58,1.58,0,0,1-1.58,1.5h-2.15a1.57,1.57,0,0,1-1.58-1.54l-.21-9.79a1.58,1.58,0,0,1,1.47-1.61l.2,0a1.58,1.58,0,0,0,1.28-.81,29.24,29.24,0,0,0,2.45-6,39.07,39.07,0,0,0,1.17-10.06v-6.5a1.58,1.58,0,0,1,1.58-1.58h16.64A1.58,1.58,0,0,1,622.39,1156.29Zm-13.47,8a35.64,35.64,0,0,1-1.35,10,28.39,28.39,0,0,1-1,2.94,1.57,1.57,0,0,0,1.46,2.17h6a1.57,1.57,0,0,0,1.58-1.58v-16a1.57,1.57,0,0,0-1.58-1.58H610.5a1.58,1.58,0,0,0-1.58,1.58Z" fill="#6da49a"/><path d="M629.26,1156.48a1.58,1.58,0,0,1,1.36-1.57,63.53,63.53,0,0,1,7.89-.42c4.22,0,7.23.8,9.25,2.42a8.73,8.73,0,0,1,3.23,7,9.44,9.44,0,0,1-2.78,7.19c-2.34,2.15-5.8,3.19-9.84,3.19h-.69a1.58,1.58,0,0,0-1.64,1.57v7.54a1.58,1.58,0,0,1-1.58,1.58h-3.62a1.58,1.58,0,0,1-1.58-1.58Zm6.78,11a1.57,1.57,0,0,0,1.53,1.58h.76c3.64,0,5.88-1.84,5.88-4.89,0-2.79-1.93-4.45-5.39-4.45-.48,0-.92,0-1.29,0a1.57,1.57,0,0,0-1.49,1.58Z" fill="#6da49a"/><path d="M659.34,1178.36l-1.52,5.45a1.57,1.57,0,0,1-1.52,1.16h-3.71a1.58,1.58,0,0,1-1.52-2l8.25-27.1a1.58,1.58,0,0,1,1.51-1.12h6.64a1.57,1.57,0,0,1,1.51,1.11l8.45,27.1a1.59,1.59,0,0,1-1.51,2h-4.09a1.59,1.59,0,0,1-1.51-1.12l-1.66-5.52a1.58,1.58,0,0,0-1.51-1.13h-6.29A1.58,1.58,0,0,0,659.34,1178.36Zm5.88-6.27a1.58,1.58,0,0,0,1.52-2l-1.29-4.39c-.54-1.8-1.08-4.05-1.53-5.84h-.09c-.45,1.79-.89,4.08-1.39,5.84l-1.23,4.41a1.58,1.58,0,0,0,1.52,2Z" fill="#6da49a"/><path d="M682.06,1156.48a1.57,1.57,0,0,1,1.38-1.56,65.42,65.42,0,0,1,7.47-.43c4.17,0,6.73.4,9,1.7a6.57,6.57,0,0,1,3.59,6c0,2.65-1.57,5.12-5,6.42v.09a7.53,7.53,0,0,1,6,7.41,8.08,8.08,0,0,1-3.14,6.47c-2.2,1.75-5.88,2.74-11.9,2.74-2.48,0-4.5-.13-6-.28a1.57,1.57,0,0,1-1.41-1.57Zm6.78,8.64a1.58,1.58,0,0,0,1.58,1.58h.67c3.63,0,5.52-1.48,5.52-3.73s-1.75-3.5-4.85-3.5c-.55,0-1,0-1.4,0a1.58,1.58,0,0,0-1.52,1.58Zm0,13.51a1.58,1.58,0,0,0,1.55,1.58h1.1c3.1,0,5.84-1.21,5.84-4.4,0-3-2.74-4.22-6.15-4.22h-.76a1.58,1.58,0,0,0-1.58,1.58Z" fill="#6da49a"/><path d="M736.71,1169.53c0,10-6,15.94-14.87,15.94s-14.23-6.78-14.23-15.45c0-9.07,5.84-15.85,14.73-15.85C731.63,1154.17,736.71,1161.13,736.71,1169.53Zm-21.87.36c0,6,2.78,10.14,7.36,10.14s7.28-4.4,7.28-10.28c0-5.48-2.56-10.15-7.28-10.15S714.84,1164,714.84,1169.89Z" fill="#6da49a"/></g></g></svg>