<svg xmlns="http://www.w3.org/2000/svg" viewBox="0 0 1141.19 962.7"><g id="Layer_2" data-name="Layer 2"><g id="Layer_1-2" data-name="Layer 1"><path d="M449.26,413.27l13.37,1.44,113,7.3A48.37,48.37,0,0,1,598,429.12a7.8,7.8,0,0,0,6.65-7.16l2.7-25.09c.47-4.35-2.34-8.26-6.23-8.67l-4.65-.5L493.34,383a27.7,27.7,0,0,1-18.15-8.3l-21.54-2.31c-3.89-.42-7.45,2.8-7.92,7.16L443,404.59C442.57,408.94,445.36,412.85,449.26,413.27Z" fill="#f3f3f3"/><path d="M977,601.57a92.77,92.77,0,0,0-95.7-89.75h0a92.89,92.89,0,0,0-22.42,3.49L823.1,577.58c-8.08,14-19.47,25.86-31.38,32.81a92.75,92.75,0,0,0,95.54,86.89h0A92.76,92.76,0,0,0,977,601.57Zm-91.22,49.64h0a46.68,46.68,0,1,1-3-93.31h0a46.68,46.68,0,0,1,3,93.31Z" fill="#f3f3f3"/><path d="M876.31,579.76a25.6,25.6,0,1,0,32.29,16.38A25.59,25.59,0,0,0,876.31,579.76Z" fill="#f3f3f3"/><path d="M381.67,575.84A25.61,25.61,0,1,0,414,592.23,25.6,25.6,0,0,0,381.67,575.84Z" fill="#f3f3f3"/><path d="M801.37,221.36h0c-2.56,9.78-4.53,29.09,5.72,58.15C819.87,257.91,817.53,238.59,801.37,221.36Z" fill="#f3f3f3"/><path d="M724.24,262.77c.2.35.41.69.59,1.05a28.64,28.64,0,0,1,2.73,10c.14,1.36.22,2.59.25,3.7a19,19,0,0,1-.32,4.36c-.43,2-1.29,3.07-2.59,3.25a1.1,1.1,0,0,1-.26,0c-2.49.09-5.7-3.62-7.78-7.28a17.34,17.34,0,0,1-2.05-5c-.37-2-2.24-4-4.53-5a8.17,8.17,0,0,0-2-.61,6.79,6.79,0,0,0-4.25.67,6.89,6.89,0,0,0-.62.38,8.9,8.9,0,0,0-2.81,3.23c-.28.51-.56,1-.83,1.41a6.94,6.94,0,0,0,6.93,5.27l2.76-.09,20.8,39.06c1.92,3.6,8.86,4.68,12.55,2.62l19.24-10.76,6.7-3.75,24.8-15.63c3.3-2.57,6.16-3.65,8.95-3.25a5.69,5.69,0,0,0,2.7-2.64c-11.75-31-10-51.63-7.25-62.45l-40.09-.13L754,223.59l-46.64,28.48A25.93,25.93,0,0,1,719.29,257,19.59,19.59,0,0,1,724.24,262.77Z" fill="#f3f3f3"/><path d="M807.64,290.87c-2.93-2.62-5.49-3.48-8.39-2.59a15.16,15.16,0,0,0-4.65,2.6l-.12.09-17.05,10.75c2.92,2.9,5.8,5.81,8.56,8.68a179.58,179.58,0,0,1,26.33,214l-8.08,14c-11.77,20.49-33.9,40.7-56.67,39.65l-204.7-9.35L562.12,586c10.19,9.14,22.15,18.94,35.19,19.7l169.2,10a39.91,39.91,0,0,0,18.08-3.4,56.28,56.28,0,0,0,7-3.61c11.43-6.86,22.34-18.28,30.13-31.84L856.68,516l15.16-26.38c19.37-33.71,17.4-98.31-4-130.42-15.77-23.7-36-46.68-60.22-68.31Z" fill="#f3f3f3"/><polygon points="540.7 567.82 540.7 567.82 540.7 567.82 540.7 567.82" fill="#f3f3f3"/><path d="M477.82,375a25.69,25.69,0,0,0,15.6,6.44L570.91,385l61.57,2.82.06.79.06.79L640.53,492a8.14,8.14,0,0,0-7.58,7.64l-1.06,18a8.14,8.14,0,0,0,7.62,8.61l74.7,4.7a8.14,8.14,0,0,0,7.58-12.21c-7.16-11.87-26.35-14.15-44.08-22.62L690.5,341.46a27.14,27.14,0,0,0-.79-9.09l1.19.77-1.64-2.3a31.27,31.27,0,0,0-10.4-14.67l-5.36-7.57q-16.72-11.22-31.06-21l37.65-14.17a18.27,18.27,0,0,1,7.4,1.59c4.56,1.71,7.86,2.94,11.75-4.19.15-.27.32-.5.48-.75a10.51,10.51,0,0,1,2.81-3c.26-.17.52-.35.79-.5a8.24,8.24,0,0,1,5.25-.84,9.86,9.86,0,0,1,2.47.78c2.71,1.23,4.87,3.6,5.31,6.11a16.85,16.85,0,0,0,2.3,5.23c1.87,3,4.4,5.82,5.91,5.78h.12c.64-.09,1.21-1,1.45-3.13a20.81,20.81,0,0,0,.1-2.88c0-1-.09-2.23-.23-3.59a27.22,27.22,0,0,0-2.61-9.6c-.1-.19-.21-.36-.31-.54a18.06,18.06,0,0,0-4.76-5.68c-3.26-2.55-7.61-4.15-13.11-4.82a73.33,73.33,0,0,0-19,.64c-1.5.09-3,.24-4.5.46l-72,10.41q-6.06-4.27-11.57-8.23L572.11,219.9l4-2.58-4.34-6.13.06-.47c.2-1.33.35-2.81.47-4.4,1.61-21.91-4.53-66.77-20.13-75.11a30.63,30.63,0,0,1,5.56-4.29C555.21,125,548,118,547.43,100.84l-1.56-.33-.6-3c-.18-.8-.32-1.42-.47-2l-1.25-4.59c-.19-.64-.4-1.28-.61-1.91l1-.75-1.11.38L542,86.34l-.59-1.58c-.23-.58-.48-1.17-.73-1.74l-.46-1c-.26-.59-.54-1.17-.83-1.75s-.58-1.14-.85-1.67a55.54,55.54,0,0,0-3.85-6.16,40.06,40.06,0,0,0-13.24-12c-.42,18.31,8.33,34.54,11,35.14-1.42,11.88-3.6,21.95-8.68,27.61a15.31,15.31,0,0,0-1.64,2.23c-26.3,2.68-35.35,27.83-39.65,54.39-3.37,20.78-6.48,65.08-9.23,97.48-.37,4.33-.73,8.45-1.08,12.28-.89,9.57-1.74,17.28-2.54,21.78a7.55,7.55,0,0,0-.1,1.15c-1.28,8.69-2.56,17.54-3.84,26.36h0l-.18,1.19a40.65,40.65,0,0,0,8.41,31A32.61,32.61,0,0,0,477.82,375ZM541,236.36l40.38,56.94a18,18,0,0,0,7.87,6.35A19.71,19.71,0,0,0,606,301.3l22.6-8.51,23.85,15.45c-8.42.58-14.44,3.88-18.3,9.14l-.54.75-.48.76-63.92-4.64a9.09,9.09,0,0,0,.63-.74,8.6,8.6,0,0,0,.56-.75c3.61-5.43,4.11-15.26,3.53-27.33l-34.23-48.28Z" fill="#f3f3f3"/><path d="M610.65,68.6q-1.32-.28-2.64-.48c-17.44-2.55-35,5.4-39.2,7.46l-.95.49c-10.27,9.25-14,23-14.41,24.67.18,1.84,1.91,17.42,10.67,23.37l.18.12c4.7-1.15,10.12-.87,16.33,1.64,6.71,2.72,12.28-2.17,10.57-9.28-.53-2.24,6.29.14,3.73-5.39-1-2.21,4.53-.48,3.8-3.92-1.4-6.56,1-4.08,3.58-4,6.08.16,2.51-10.49,2.76-16.84C605.28,81,608.29,73.9,610.65,68.6Z" fill="#f3f3f3"/><path d="M535,68.94a55.06,55.06,0,0,1,5.49,8.35c.38.73.67,1.28,1,1.85s.61,1.26.9,1.88l.41.94c.31.71.56,1.32.81,1.93l.48,1.31,1.12,3c.22.65.43,1.32.63,2l1.28,4.7c.15.63.3,1.27.44,1.91l.35,1.69,2.89.6-1,1.26c.43,16.94,7.78,23.44,9.61,24.8l1.61-.53c-8.6-7.66-9.87-23.23-9.92-23.93v-.18l0-.17a56.86,56.86,0,0,1,12.36-23.21q1.42-1.56,3-3c1.25-.71,23.51-12.63,45.08-7.78h0a42,42,0,0,1,7.64,2.48c.72,0,3.56.07,5.37-1.6a5.91,5.91,0,0,0,1.64-4.63v-.19A55,55,0,0,0,521.62,32.6a54.46,54.46,0,0,0-4.76,23.2,35,35,0,0,1,4.69,2A40.81,40.81,0,0,1,535,68.94Z" fill="#f3f3f3"/><path d="M310.86,487.41l-.84,0-145.88,8.77,143.47-.6h1.63a124,124,0,0,0-3.57,19.87l2.94.45c4.1-26.91,33.21-70.07,78.18-82.54,52.71-14.61,115.28-7.71,156.69-3.14l10,1.08c12,1.28,20.6,6.18,25.43,14.57,10.75,18.65-.35,46.92-4,55.14-16.58,37.27-33.16,44.36-52.94,48.88l6.05,5.43,213.58,9.7c20.9.94,41.21-17.73,52.09-36.65l3.89-6.79c40.05-69.69,28.53-157.61-28-213.8l-.69-.69-27.67,17.45c-3.85,2.43-5.32,7.94-3.26,12.28l34,72a119.27,119.27,0,0,1,8.1,78.7L775.6,506c-4.4,18.2-26.12,31.51-41.17,30.39l-89.32-6.6a25.67,25.67,0,0,1-18.54-10c-7.43-9.37-10.24-23.94-7.71-40h0a48.77,48.77,0,0,0-45-56.27l-74.37-4.81-78.31-5.06-5-.32-.37,0a102.19,102.19,0,0,0-34.21,3.54l-.61-.67-.57-.63L353.16,385.3l36.63-1.17,24.85,27.49,1.22.06,4.06.26L399,383.83l34.82-1.12a3.84,3.84,0,0,0,3.71-3.95l-.44-11a3.83,3.83,0,0,0-4-3.71l-158.39,2.49a3.86,3.86,0,0,0-3.71,3.95l.44,13.58a3.85,3.85,0,0,0,4,3.71l66.17-2.13,34.24,31.24.66.6.68.62a98.48,98.48,0,0,0-24.67,12.19l-1.35.07-1.61.08-57.94,2.81L347,432.4l1.47,0,1.22,0A95.78,95.78,0,0,0,335,445.78l-1,0-1.2.06-81.7,4,79.45-1.25,1.12,0,.95,0a97,97,0,0,0-8.69,12.38c-.57.95-1.11,1.91-1.65,2.87l-.93.05-.92,0L209,469.51,318.2,468H320a137.7,137.7,0,0,0-8.26,19.38Z" fill="#f3f3f3"/><path d="M497.78,546.7h.1c6-.76,11.53-1.69,16.55-2.76,19.43-4.17,35.6-10.09,52-44.4,6.81-14.28,15.06-34.88,8.16-48.83-3.58-7.26-10.93-12-21.84-14.21-39.85-7.92-119.77-14-164.58,3.4-48.25,18.74-72.71,53.28-75,77.43a7.22,7.22,0,0,0,.45,3.13l.16.44,23.4,3.28a92.77,92.77,0,0,0,55.49,169.2h0a92.76,92.76,0,0,0,68.53-151.8l36.53,5.12ZM391.14,647.29h0a46.68,46.68,0,0,1-3-93.31h0a46.68,46.68,0,0,1,3,93.31ZM460.4,540.67,338.09,523.51l-23.79-3.33a6.37,6.37,0,0,1-.41-2.78c2.25-23.52,25.78-57.84,74.52-76.78,46.48-18.06,128.16-10.52,164.16-3.36,35,7,24.12,38.87,13.12,61.92-16,33.64-32,39.82-51.42,44-5.11,1.09-10.64,2-16.49,2.75Z" fill="#f3f3f3"/><path d="M529.2,485.17c6.6-11.58,13.22-27.57-7.18-30.77-21-3.28-68.58-6.4-95.85,3-28.6,9.82-42.6,27.11-44.09,38.86a2.64,2.64,0,0,0,.21,1.38L489.2,509c3.41-.41,6.65-.91,9.64-1.49C510.2,505.27,519.58,502.06,529.2,485.17ZM498,502.86c-2.67.53-5.63,1-8.8,1.39l-101.6-10.82c3.28-9.2,15.41-23.11,40.12-31.59,25.42-8.73,70.92-6.34,93.64-2.78,5,.78,8.05,2.37,9.17,4.73,1.66,3.51-.13,9.91-5.32,19C516.4,498.19,508.36,500.82,498,502.86Z" fill="#f3f3f3"/><path d="M287.79,363.6l129.62-2.33a4,4,0,0,0,3.91-4.06L420,280.53a37,37,0,0,0-37.58-36.25l-63.76,1.15A37,37,0,0,0,282.35,283l1.38,76.68A4,4,0,0,0,287.79,363.6Zm72.64-46.94-.39-21.4,6.38,14.9.12,6.39Zm37.89-.37a50.69,50.69,0,0,1-6.18-.24c-1.13-.1-2-.22-2.57-.33l-.1-5.59c1.31.1,2.81.2,4.49.3,1.07,0,1.82,0,2.26,0a15.57,15.57,0,0,0,2.36-.15l.1,6Zm-1-27a39.33,39.33,0,0,1,5.65.32c.62.09,1.32.22,2.1.38l.1,5.52c-.73-.09-2-.21-3.86-.36q-1.53,0-2.46,0c-.8,0-1.55.05-2.26.12l-.1-5.94Zm-7,2a7.4,7.4,0,0,1,4.74-1.89l.14,7.7c0,.33,0,.61.05.84a1.62,1.62,0,0,0,.14.54.63.63,0,0,0,.34.32,2.55,2.55,0,0,0,.7.12l4.59.57a11.38,11.38,0,0,1,2.34.53,3.9,3.9,0,0,1,1.55,1q1.52,1.78,1.61,6.37c.05,3.24-.53,5.53-1.74,6.85a4.83,4.83,0,0,1-2,1.32,11.37,11.37,0,0,1-2.76.57l-.15-8a5,5,0,0,0-.12-1.17.77.77,0,0,0-.34-.49,2.33,2.33,0,0,0-.8-.2l-4.09-.5q-3.63-.39-4.93-2.63a6.35,6.35,0,0,1-.81-2.32,25,25,0,0,1-.26-3.37C388.53,294.67,389.13,292.61,390.37,291.34ZM378.72,290l6.3-.11.48,26.34-6.31.12-.2-11.07h-.13l-2.12,6.24-3-7Zm-12.65.23,10,23.26-1,2.93-4.32.08-10.71-25,0-1.14Zm-15.61.28,7.74,26.21-6.77.12-1.25-4.65-5.54.1,1.29-5.92,2.65-.05-4.2-15.7Zm-8.14.14h.57l2.81,10.45L342.17,317l-6.64.12Zm-14.67.27,7.74,26.21-6.77.12-1.25-4.65-5.54.1,1.29-5.92,2.65-.05L321.57,291Zm-8.14.14h.57l2.81,10.45-3.53,15.92-6.64.12Zm-7.64,20.33.12,6.16-7.11.13-.11-6.17Zm-8.86-20,.48,26.34-6.65.12-.47-26.34Z" fill="#f3f3f3"/><path d="M514.11,542.39c19-4.08,34.83-9.88,50.88-43.55,6.67-14,14.78-34.11,8.19-47.44-3.36-6.8-10.35-11.3-20.76-13.37-39.68-7.89-119.22-14-163.73,3.33-47.63,18.5-71.76,52.42-74,76.12a5.33,5.33,0,0,0,.21,2l24.17,3.38,120.59,16.92,38.15,5.35C503.67,544.37,509.16,543.45,514.11,542.39Zm-24.88-28.65-.52,0L379.06,502,378,499.43a7.35,7.35,0,0,1-.54-3.79c1.76-13.82,17-32.38,47.22-42.74,30.38-10.44,81.09-5.82,98.05-3.16,8.2,1.28,13.63,4.64,16.16,10,4.11,8.67-.86,19.42-5.64,27.82-10.68,18.74-21.94,22.33-33.51,24.6-3,.59-6.39,1.11-10,1.55Z" fill="#f3f3f3"/><rect x="144.43" y="907.77" width="69.55" height="52.33" fill="#f3f3f3"/><polygon points="312.45 736.5 350.8 870.4 324.8 870.4 311.15 920.45 365.42 920.45 376.8 960.1 443.1 960.1 371.92 736.5 312.45 736.5" fill="#f3f3f3"/><polygon points="297.82 736.5 292.3 736.5 221.12 960.1 286.12 960.1 323.5 825.55 297.82 736.5" fill="#f3f3f3"/><polygon points="535.72 736.5 574.07 870.4 548.07 870.4 534.42 920.45 588.7 920.45 600.07 960.1 666.37 960.1 595.2 736.5 535.72 736.5" fill="#f3f3f3"/><polygon points="521.1 736.5 515.57 736.5 444.4 960.1 509.4 960.1 546.77 825.55 521.1 736.5" fill="#f3f3f3"/><polygon points="820.75 859.02 848.7 918.82 870.47 866.17 871.77 866.17 871.77 960.1 933.52 960.1 933.52 736.5 871.77 736.5 820.75 859.02" fill="#f3f3f3"/><polygon points="688.15 736.5 688.15 746.25 788.57 960.1 830.82 960.1 841.54 935.4 747.95 736.5 688.15 736.5" fill="#f3f3f3"/><polygon points="688.15 960.1 747.95 960.1 747.95 905.82 688.15 778.42 688.15 960.1" fill="#f3f3f3"/><path d="M1092.12,784.27q27,2.28,37.7,3.58v-46.8q-11.38-2.28-20.48-3.58a446.21,446.21,0,0,0-55.25-3.57H1046v50.37q10.4-.64,22.1-.65Q1077.16,783.62,1092.12,784.27Z" fill="#f3f3f3"/><path d="M1017.37,912.32q-24.71-1.62-43.88-3.25v47.45q8.44,1.63,25,3.25A582.43,582.43,0,0,0,1059,962.7h3.57V912q-5.52,1-23.07,1Q1033,913,1017.37,912.32Z" fill="#f3f3f3"/><path d="M1126.57,835a37.71,37.71,0,0,0-15-9.1,131.49,131.49,0,0,0-22.75-4.87L1044,815.47a26.74,26.74,0,0,1-6.83-1.14,5.51,5.51,0,0,1-3.25-2.76,11.42,11.42,0,0,1-1.3-4.55,68.15,68.15,0,0,1-.32-7.15V734.55q-31.86,2.28-46.8,15.27Q967,765.75,967,801.82a177.58,177.58,0,0,0,2,28.6,49.14,49.14,0,0,0,7.48,19.83q12.35,19.17,47.77,23.07l40,4.88A26.1,26.1,0,0,1,1072,880a6.71,6.71,0,0,1,3.25,4.23q1,3.09,1,9.91v68.25a123.25,123.25,0,0,0,27.14-4.39A49.06,49.06,0,0,0,1123,947.1q18.19-16.58,18.2-57.85Q1141.19,850.25,1126.57,835Z" fill="#f3f3f3"/><polygon points="75.48 736.34 70.2 736.5 65.78 736.5 65.78 736.63 9.48 738.34 65.78 740.04 65.78 957.86 0 960.34 66.48 960.34 66.48 960.34 130.78 960.1 130.78 736.5 75.48 736.5 75.48 736.34" fill="#f3f3f3"/></g></g></svg>