<svg xmlns="http://www.w3.org/2000/svg" viewBox="0 0 1686.5 1429.84"><g id="Layer_2" data-name="Layer 2"><g id="Layer_1-2" data-name="Layer 1"><path d="M915,246H121.12a65.1,65.1,0,0,0-64.93,60.57c-15.4,221.38-31,517.66-46.5,754.59a2.75,2.75,0,0,0,5.16,1.51q48.21-86.94,116.72-167.06,68.35-79.94,156-151.94C380.46,667.43,489.27,598.29,611,538.19,782.49,453.52,928.83,411.41,978,398.5a2.75,2.75,0,0,0,2.07-2.68V311.08A65.09,65.09,0,0,0,915,246ZM287,322.47A18.44,18.44,0,1,1,305.46,304,18.43,18.43,0,0,1,287,322.47Zm489.91.11a18.44,18.44,0,1,1,18.43-18.44A18.43,18.43,0,0,1,776.93,322.58Z" fill="#fff"/><path d="M286.54,272.92a14.41,14.41,0,0,0,1.6.08,15.78,15.78,0,0,0,15.68-14.2C317.1,127,409.55,33.61,528.63,31.59c1.21,0,2.41,0,3.62,0,117.17,0,214.79,96.84,223,222.07a15.78,15.78,0,1,0,31.49-2.06C782.11,180.91,752,116.11,702,69.09,653.43,23.48,591.73-1,528.1,0,465.31,1.1,405.27,25.93,359.06,70,309.91,116.78,280,181,272.42,255.64A15.78,15.78,0,0,0,286.54,272.92Z" fill="#fff"/><path d="M967.57,429.88a3,3,0,0,0-2-5.7C768.79,485.55,254.35,680.32,35.86,1074.3A283.4,283.4,0,0,0,1.29,1183.53c-.05.51-.11,1-.16,1.52-.37,4-.61,7.82-.8,11.65-.12,1.53-.25,4.46-.2,4.4-9.23,286.65,486.88,233.72,662.76,206,6.43-1,5.8-10.47-.71-10.62C489.07,1392.52,2,1333.63,247,969.41,458.27,655.19,771.6,514.15,913.15,451.74Z" fill="#fff"/><rect x="315.1" y="954.12" width="82.89" height="285.14" fill="#fff"/><rect x="415.39" y="1172.54" width="88.69" height="66.73" fill="#fff"/><polygon points="611.01 954.12 603.96 954.12 513.2 1239.26 596.09 1239.26 643.75 1067.68 611.01 954.12" fill="#fff"/><polygon points="629.66 954.12 678.56 1124.88 645.41 1124.88 628 1188.7 697.21 1188.7 711.72 1239.26 796.27 1239.26 705.5 954.12 629.66 954.12" fill="#fff"/><polygon points="895.73 954.12 888.69 954.12 797.92 1239.26 880.81 1239.26 928.47 1067.68 895.73 954.12" fill="#fff"/><polygon points="914.38 954.12 963.29 1124.88 930.13 1124.88 912.73 1188.7 981.94 1188.7 996.45 1239.26 1080.99 1239.26 990.23 954.12 914.38 954.12" fill="#fff"/><polygon points="1277.85 1110.37 1313.5 1186.63 1341.27 1119.49 1342.92 1119.49 1342.92 1239.26 1421.67 1239.26 1421.67 954.12 1342.92 954.12 1277.85 1110.37" fill="#fff"/><polygon points="1108.76 1239.26 1185.02 1239.26 1185.02 1170.05 1108.76 1007.59 1108.76 1239.26" fill="#fff"/><polygon points="1108.76 954.12 1108.76 966.55 1236.82 1239.26 1290.7 1239.26 1304.38 1207.77 1185.02 954.12 1108.76 954.12" fill="#fff"/><path d="M1648.78,1068.1q-11.19-3.74-29-6.22l-57.19-7.05a34.19,34.19,0,0,1-8.7-1.45,7,7,0,0,1-4.15-3.52,14.57,14.57,0,0,1-1.66-5.8,86.42,86.42,0,0,1-.41-9.12V951.63Q1507,954.54,1488,971.11q-23.62,20.32-23.63,66.32,0,21.55,2.49,36.47t9.53,25.28q15.75,24.46,60.93,29.43l51,6.21q7,.84,9.94,2.28a8.53,8.53,0,0,1,4.15,5.39q1.25,3.94,1.24,12.64v87q19.89-1.25,34.61-5.6a62.63,62.63,0,0,0,25.07-13.88q23.2-21.15,23.21-73.78,0-49.73-18.65-69.21A47.9,47.9,0,0,0,1648.78,1068.1Z" fill="#fff"/><path d="M1672,1019.61V959.92q-14.51-2.88-26.11-4.55a568,568,0,0,0-70.45-4.56h-10.36v64.24q13.26-.82,28.18-.83,11.6,0,30.67.83Q1658.31,1017.95,1672,1019.61Z" fill="#fff"/><path d="M1528.59,1178.34q-31.5-2.07-55.95-4.15v60.52q10.78,2.07,31.92,4.14a741.84,741.84,0,0,0,77.08,3.73h4.56v-64.66q-7,1.24-29.42,1.25Q1548.49,1179.17,1528.59,1178.34Z" fill="#fff"/></g></g></svg>