<svg id="Layer_1" data-name="Layer 1" xmlns="http://www.w3.org/2000/svg" viewBox="0 0 1854 1597.12"><path d="M999,339.84H202.52a65.31,65.31,0,0,0-65.15,60.76C121.92,622.71,106.22,920,90.72,1157.66a2.76,2.76,0,0,0,5.18,1.51q48.36-87.23,117.1-167.6,68.56-80.21,156.52-152.44C462.7,762.66,571.87,693.3,694,633c172-84.94,318.86-127.19,368.21-140.14a2.75,2.75,0,0,0,2.07-2.69v-85A65.3,65.3,0,0,0,999,339.84ZM369,416.58a18.5,18.5,0,1,1,18.5-18.49A18.49,18.49,0,0,1,369,416.58Zm491.5.11a18.5,18.5,0,1,1,18.5-18.5A18.5,18.5,0,0,1,860.46,416.69Z" fill="#00b050"/><path d="M368.47,366.87c.54.05,1.08.08,1.61.08a15.83,15.83,0,0,0,15.73-14.24c13.33-132.19,106.07-225.93,225.55-228,1.21,0,2.41,0,3.62,0,117.56,0,215.5,97.15,223.74,222.8a15.83,15.83,0,0,0,31.59-2.07c-4.65-70.89-34.85-135.9-85-183.07C736.56,116.62,674.66,92,610.82,93.09c-63,1.07-123.22,26-169.59,70.15-49.31,47-79.37,111.4-86.92,186.29A15.83,15.83,0,0,0,368.47,366.87Z" fill="#00b050"/><path d="M1051.73,524.34a3,3,0,0,0-2-5.71C852.29,580.19,336.18,775.6,117,1170.86A284.12,284.12,0,0,0,82.3,1280.45c0,.51-.12,1-.17,1.52-.37,4-.61,7.85-.8,11.7-.12,1.53-.25,4.47-.2,4.4-9.26,287.59,488.47,234.49,664.92,206.69,6.45-1,5.82-10.51-.71-10.66-173.67-4-662.3-63.06-416.57-428.47,212-315.24,526.35-456.74,668.36-519.36Z" fill="#00b050"/><rect x="397.12" y="1050.29" width="83.16" height="286.07" fill="#00b050"/><rect x="497.75" y="1269.42" width="88.98" height="66.94" fill="#00b050"/><polygon points="694 1050.29 686.93 1050.29 595.87 1336.36 679.03 1336.36 726.85 1164.22 694 1050.29" fill="#00b050"/><polygon points="712.71 1050.29 761.78 1221.6 728.51 1221.6 711.05 1285.64 780.49 1285.64 795.04 1336.36 879.86 1336.36 788.8 1050.29 712.71 1050.29" fill="#00b050"/><polygon points="979.65 1050.29 972.59 1050.29 881.52 1336.36 964.69 1336.36 1012.5 1164.22 979.65 1050.29" fill="#00b050"/><polygon points="998.37 1050.29 1047.43 1221.6 1014.16 1221.6 996.7 1285.64 1066.14 1285.64 1080.69 1336.36 1165.52 1336.36 1074.46 1050.29 998.37 1050.29" fill="#00b050"/><polygon points="1363.02 1207.05 1398.78 1283.56 1426.64 1216.2 1428.3 1216.2 1428.3 1336.36 1507.3 1336.36 1507.3 1050.29 1428.3 1050.29 1363.02 1207.05" fill="#00b050"/><polygon points="1193.37 1336.36 1269.88 1336.36 1269.88 1266.92 1193.37 1103.93 1193.37 1336.36" fill="#00b050"/><polygon points="1193.37 1050.29 1193.37 1062.77 1321.86 1336.36 1375.91 1336.36 1389.63 1304.76 1269.88 1050.29 1193.37 1050.29" fill="#00b050"/><path d="M1735.16,1164.64q-11.22-3.75-29.1-6.24l-57.39-7.07a34.93,34.93,0,0,1-8.73-1.45,7.07,7.07,0,0,1-4.15-3.54,14.4,14.4,0,0,1-1.67-5.82,84.14,84.14,0,0,1-.41-9.15V1047.8q-40.76,2.91-59.88,19.54-23.7,20.39-23.7,66.53,0,21.63,2.5,36.59t9.56,25.36q15.8,24.54,61.12,29.53l51.15,6.23q7.05.84,10,2.29a8.5,8.5,0,0,1,4.16,5.4c.83,2.64,1.25,6.86,1.25,12.69v87.31q20-1.24,34.72-5.61a63,63,0,0,0,25.16-13.93q23.28-21.21,23.28-74,0-49.9-18.71-69.44A48.13,48.13,0,0,0,1735.16,1164.64Z" fill="#00b050"/><path d="M1758.45,1116v-59.88q-14.57-2.89-26.2-4.57a569.93,569.93,0,0,0-70.69-4.57h-10.39v64.44q13.3-.83,28.27-.83,11.64,0,30.77.83Q1744.73,1114.33,1758.45,1116Z" fill="#00b050"/><path d="M1614.58,1275.24q-31.61-2.07-56.13-4.16v60.71q10.8,2.09,32,4.16a746.75,746.75,0,0,0,77.34,3.74h4.58v-64.87q-7.08,1.26-29.53,1.25Q1634.54,1276.07,1614.58,1275.24Z" fill="#00b050"/></svg>