<svg xmlns="http://www.w3.org/2000/svg" viewBox="0 0 448.61 445.07"><g id="Layer_2" data-name="Layer 2"><g id="Speech_Bubble" data-name="Speech Bubble"><path d="M167.27,423.12v13.16H73.38V405.75h65.78c1.55,9.84,9.68,17.35,19.49,17.36Z" fill="#f5f5f5"/><path d="M167.48,397.21h3.08v2l-3-1.92H138.88v5.06a20.56,20.56,0,0,0,.28,3.44H69.44v-8.54h98Z" fill="#e0e0e0"/><path d="M167.48,397.21h3.08v2l-3-1.92H138.88v5.06a20.56,20.56,0,0,0,.28,3.44c1.55,9.84,9.68,17.35,19.49,17.36h8.62v13.16H120l-1.92-30.53,0-.79v-7.75h49.45Z" fill="#e0e0e0"/><rect x="86.51" y="410.67" width="19.04" height="4.6" fill="#e0e0e0"/><rect x="84.06" y="421.01" width="24.45" height="9.7" fill="#fff"/><path d="M167.48,397.21l-1-.66a.9.9,0,0,1,0-1.51l6.42-4.09a.9.9,0,0,1,1.38.76v5.54H87.83V366.72h51.06v30.49Z" fill="#f5f5f5"/><rect x="83.89" y="358.18" width="55" height="8.54" fill="#e0e0e0"/><path d="M167.48,397.21l-1-.66a.9.9,0,0,1,0-1.51l6.42-4.09a.9.9,0,0,1,1.38.76v5.54H134.45v0l-1.93-30.49-.05-.79v-7.75h6.42v39Z" fill="#e0e0e0"/><rect x="100.96" y="371.64" width="19.04" height="4.6" fill="#e0e0e0"/><rect x="98.5" y="381.99" width="24.45" height="9.7" fill="#fff"/><path d="M134.7,74.92a33.47,33.47,0,0,0,3.23-8.21l1.14-.28a21.06,21.06,0,0,1,6.6-13.23l0-2-8-1.67c-.26-.92-.56-1.83-.91-2.72a32,32,0,0,0-2.61-5.37l4.24-7-9.74-9.4-6.84,4.48a32.93,32.93,0,0,0-8.21-3.23l-2-7.95-13.53.24-1.66,8a33.16,33.16,0,0,0-8.1,3.52l-7-4.24-9.4,9.73,4.48,6.84a33.47,33.47,0,0,0-3.23,8.21l-7.94,2,.23,13.53,8,1.67A33.1,33.1,0,0,0,77,75.93l-4.24,7,9.74,9.41,6.84-4.49a32.93,32.93,0,0,0,8.21,3.23l2,8L113,98.78l1.66-8a33.52,33.52,0,0,0,8.1-3.51l7,4.24.57-.59,8.59-8.9.24-.25-.24-.37Zm-18.27-6.58a14.52,14.52,0,1,1-.36-20.53A14.52,14.52,0,0,1,116.43,68.34Z" fill="#ebebeb"/><path d="M365.12,57.56l9.46-2.32-.28-16.11-9.54-2a39.53,39.53,0,0,0-4.19-9.64l5.05-8.33L354,8l-8.15,5.34a39.47,39.47,0,0,0-9.78-3.84L333.77,0,317.66.29l-2,9.54A39.15,39.15,0,0,0,306,14L297.7,9,286.51,20.56l5.34,8.15A38.35,38.35,0,0,0,288.69,36q-.39,1.23-.69,2.46l-9.47,2.32.13,7.29h9.5c10.93,0,19.78,9.31,19.78,20.79V83.12a39.5,39.5,0,0,0,8.59,3.34l.49.13,2.32,9.46,16.12-.28,2-9.54A39.36,39.36,0,0,0,347.08,82l8.33,5,11.2-11.6-5.34-8.15A39.89,39.89,0,0,0,365.12,57.56Zm-25.61,1.95a17.3,17.3,0,0,1-23.35,1.41c-.38-.31-.75-.63-1.11-1a17.29,17.29,0,1,1,24.46-.43Z" fill="#ebebeb"/><path d="M354.62,178.9l7.4-1.81-.23-12.59L354.34,163a30.59,30.59,0,0,0-3.27-7.53l3.94-6.51L346,140.17l-6.37,4.17a30.61,30.61,0,0,0-7.64-3l-1.81-7.39-12.59.22-1,5-.52,2.5a31.54,31.54,0,0,0-7.53,3.27l-.54-.33,0,55,1.5-1a30.79,30.79,0,0,0,7.1,2.86l.54.14,1.82,7.39,12.59-.22,1.55-7.45a30.76,30.76,0,0,0,7.53-3.27L347,202l8.75-9.06-4.17-6.36A31,31,0,0,0,354.62,178.9Zm-20,1.52a13.52,13.52,0,0,1-18.11,1.21q-.51-.4-1-.87a13.51,13.51,0,0,1-.34-19.1,11.71,11.71,0,0,1,1.34-1.21,13.51,13.51,0,0,1,18.1,20Z" fill="#e0e0e0"/><path d="M375.67,106.15a17,17,0,0,1,4.18-1.82l.86-4.14,7-.12,1,4.1a17.24,17.24,0,0,1,4.24,1.67l3.54-2.32,5,4.86L399.34,112a17,17,0,0,1,1.81,4.18l4.14.86.13,7-4.11,1a17.16,17.16,0,0,1-1.67,4.25l2.32,3.53-4.86,5-3.62-2.2a17,17,0,0,1-4.18,1.82l-.86,4.14-7,.12-1-4.1a17.16,17.16,0,0,1-4.25-1.67l-3.53,2.31-5-4.85,2.19-3.62a17,17,0,0,1-1.82-4.18l-4.14-.86-.12-7,4.1-1a17.56,17.56,0,0,1,1.67-4.25L367.2,109l4.86-5,3.61,2.2Zm3.73,9.31a7.51,7.51,0,1,0,10.61-.18A7.49,7.49,0,0,0,379.4,115.46Z" fill="#f5f5f5"/><path d="M175.83,14A17,17,0,0,1,180,12.22l.86-4.14,7-.13,1,4.11a17.24,17.24,0,0,1,4.24,1.67l3.54-2.32,5,4.86-2.19,3.61a17.2,17.2,0,0,1,1.81,4.19l4.14.86.13,7-4.11,1a17.09,17.09,0,0,1-1.67,4.24l2.32,3.54-4.86,5-3.62-2.19a17,17,0,0,1-4.18,1.82l-.86,4.14-7,.12-1-4.11a17.13,17.13,0,0,1-4.25-1.66l-3.53,2.31-5-4.86L170,37.7a17,17,0,0,1-1.82-4.18L164,32.65l-.12-7,4.1-1a17.65,17.65,0,0,1,1.67-4.24l-2.31-3.54,4.86-5L175.83,14Zm3.73,9.32a7.51,7.51,0,1,0,10.61-.19A7.49,7.49,0,0,0,179.56,23.35Z" fill="#f5f5f5"/><path d="M112.84,127a17.06,17.06,0,0,1,4.19-1.82l.86-4.14,7-.13,1,4.11a17.24,17.24,0,0,1,4.24,1.67l3.54-2.32,5,4.86-2.19,3.62a17.38,17.38,0,0,1,1.82,4.18l4.14.86.12,7-4.11,1a16.78,16.78,0,0,1-1.67,4.25l2.32,3.53-4.86,5-3.61-2.2a17.06,17.06,0,0,1-4.19,1.82l-.86,4.14-7,.12-1-4.1a17.24,17.24,0,0,1-4.24-1.67l-3.54,2.31-5-4.85,2.19-3.62a17.38,17.38,0,0,1-1.82-4.18l-4.14-.86-.12-7,4.11-1a17.16,17.16,0,0,1,1.67-4.25l-2.32-3.53,4.86-5,3.61,2.2Zm3.73,9.31a7.51,7.51,0,1,0,10.61-.18A7.5,7.5,0,0,0,116.57,136.3Z" fill="#f5f5f5"/><path d="M316.16,60.92a30.11,30.11,0,0,0-6.35-14.43A27.61,27.61,0,0,0,288.69,36h-.39l-129.68-.08a27.69,27.69,0,0,0-21.9,10.9,30.53,30.53,0,0,0-6.37,18.78V90.91l0,267.27V407.3c0,14.19,9.46,26.05,22.13,29a26.11,26.11,0,0,0,6.1.71l129.68.08c15.61,0,28.27-13.28,28.27-29.68l0-206V65.72A30.39,30.39,0,0,0,316.16,60.92Zm-8.22,22.2v61.43l0,55,0,202.85c0,11.49-8.86,20.79-19.79,20.79l-120.81-.07h-8.62c-9.81,0-17.94-7.52-19.49-17.36a20.56,20.56,0,0,1-.28-3.44V358.18L138.94,82V68.81a20.71,20.71,0,0,1,.13-2.38,21.06,21.06,0,0,1,6.6-13.23A19.2,19.2,0,0,1,158.74,48h30.85c3.37,0,6.1,3,6.1,6.71v4.79c0,3.7,2.73,6.71,6.11,6.71l49,0c3.37,0,6.1-3,6.1-6.7V54.8c0-3.71,2.74-6.71,6.11-6.71h25.14c10.93,0,19.78,9.31,19.78,20.79Z" fill="#263238"/><path d="M247.19,211.88a9,9,0,1,1-9-9A9,9,0,0,1,247.19,211.88Z" fill="#ff725e"/><path d="M221,211.88a9.6,9.6,0,1,1-9.6-9.63A9.61,9.61,0,0,1,221,211.88Z" fill="#ff725e"/><path d="M201,194.85a10.19,10.19,0,1,1-10.19-10.21A10.21,10.21,0,0,1,201,194.85Z" fill="#ff725e"/><path d="M197.31,168.68A10.65,10.65,0,1,1,186.67,158,10.66,10.66,0,0,1,197.31,168.68Z" fill="#ff725e"/><path d="M210.7,145.76a11,11,0,1,1-11-11A11,11,0,0,1,210.7,145.76Z" fill="#ff725e"/><path d="M236.74,136.71a12,12,0,1,1-12-12A12,12,0,0,1,236.74,136.71Z" fill="#ff725e"/><path d="M266.77,194.64a8.71,8.71,0,1,1-8.71-8.72A8.72,8.72,0,0,1,266.77,194.64Z" fill="#ff725e"/><path d="M270.8,168.38a8.08,8.08,0,1,1-8.08-8.09A8.09,8.09,0,0,1,270.8,168.38Z" fill="#ff725e"/><ellipse cx="249.28" cy="145.46" rx="7.38" ry="7.4" fill="#ff725e"/><g opacity="0.5"><path d="M247.19,211.88a9,9,0,1,1-9-9A9,9,0,0,1,247.19,211.88Z" fill="#fff"/></g><g opacity="0.4"><path d="M221,211.88a9.6,9.6,0,1,1-9.6-9.63A9.61,9.61,0,0,1,221,211.88Z" fill="#fff"/></g><g opacity="0.3"><path d="M201,194.85a10.19,10.19,0,1,1-10.19-10.21A10.21,10.21,0,0,1,201,194.85Z" fill="#fff"/></g><g opacity="0.2"><path d="M197.31,168.68A10.65,10.65,0,1,1,186.67,158,10.66,10.66,0,0,1,197.31,168.68Z" fill="#fff"/></g><g opacity="0.1"><path d="M210.7,145.76a11,11,0,1,1-11-11A11,11,0,0,1,210.7,145.76Z" fill="#fff"/></g><g opacity="0.2"><path d="M236.74,136.71a12,12,0,1,1-12-12A12,12,0,0,1,236.74,136.71Z" fill="#fff"/></g><g opacity="0.6"><path d="M266.77,194.64a8.71,8.71,0,1,1-8.71-8.72A8.72,8.72,0,0,1,266.77,194.64Z" fill="#fff"/></g><g opacity="0.7"><path d="M270.8,168.38a8.08,8.08,0,1,1-8.08-8.09A8.09,8.09,0,0,1,270.8,168.38Z" fill="#fff"/></g><g opacity="0.8"><ellipse cx="249.28" cy="145.46" rx="7.38" ry="7.4" fill="#fff"/></g><path d="M199.35,301a2.63,2.63,0,1,1,0-5.26,2.5,2.5,0,0,1,1.87.76l.43-.43a3.07,3.07,0,0,0-2.32-.92,3.23,3.23,0,1,0,0,6.45,3.09,3.09,0,0,0,2.33-.93l-.43-.43A2.47,2.47,0,0,1,199.35,301Z" fill="#263238"/><path d="M207.71,295.18V298h-4v-2.83h-.67v6.35h.67V298.6h4v2.93h.66v-6.35Z" fill="#263238"/><path d="M211.1,301v-2.36h3.28V298H211.1v-2.26h3.67v-.58h-4.34v6.35h4.48V301Z" fill="#263238"/><path d="M219.23,301a2.63,2.63,0,1,1,0-5.26,2.5,2.5,0,0,1,1.87.76l.43-.43a3.07,3.07,0,0,0-2.32-.92,3.23,3.23,0,1,0,0,6.45,3.09,3.09,0,0,0,2.33-.93l-.43-.43A2.47,2.47,0,0,1,219.23,301Z" fill="#263238"/><path d="M225.37,298.05l2.74-2.87h-.77L223.62,299v-3.84H223v6.35h.67v-1.67l1.3-1.32,2.59,3h.79Z" fill="#263238"/><path d="M229.39,295.18v6.35h.67v-6.35Z" fill="#263238"/><path d="M236.75,295.18v5.15l-4.08-5.15h-.55v6.35h.67v-5.15l4.07,5.15h.55v-6.35Z" fill="#263238"/><path d="M243.94,300.49a2.7,2.7,0,0,1-1.66.49,2.63,2.63,0,1,1,1.92-4.51l.42-.43a3.12,3.12,0,0,0-2.36-.91,3.23,3.23,0,1,0,0,6.45,3.52,3.52,0,0,0,2.32-.8v-2.43h-.64Z" fill="#263238"/><path d="M246.49,300.59a.48.48,0,0,0-.48.49.48.48,0,0,0,.48.49.49.49,0,0,0,.49-.49A.48.48,0,0,0,246.49,300.59Z" fill="#263238"/><path d="M248.41,300.59a.47.47,0,0,0-.48.49.48.48,0,0,0,.48.49.49.49,0,0,0,.49-.49A.48.48,0,0,0,248.41,300.59Z" fill="#263238"/><path d="M250.33,300.59a.47.47,0,0,0-.48.49.48.48,0,0,0,.48.49.48.48,0,0,0,.48-.49A.48.48,0,0,0,250.33,300.59Z" fill="#263238"/><path d="M284.5,269.66v1.85a11.22,11.22,0,0,1-2.14,6.6c-.16.22-.33.42-.5.62a11.36,11.36,0,0,1-4.37,3.18l-.11,0-.55.2-.67.21a4.9,4.9,0,0,1-.55.13l-.11,0-.5.09h-.1l-.48.06-.44,0H173.65a11.22,11.22,0,0,1-11.22-11.23v-1.85a11.22,11.22,0,0,1,11.22-11.22h99.62A11.22,11.22,0,0,1,284.5,269.66Z" fill="#f5f5f5"/><rect x="162.42" y="258.44" width="67.86" height="24.3" rx="11.22" fill="#ff725e"/><path d="M256.35,270.16h-1.07l.29-2.66h3.52V267h-4l-.4,3.64h1.52c2,0,2.7.66,2.7,1.73s-.71,1.7-2.1,1.7a3.15,3.15,0,0,1-2.35-.92l-.28.42a3.62,3.62,0,0,0,2.64,1c1.76,0,2.63-1,2.63-2.23S258.64,270.16,256.35,270.16Z" fill="#ff725e"/><path d="M262.29,270.16h-1.07l.28-2.66H265V267h-4l-.39,3.64h1.52c2,0,2.69.66,2.69,1.73s-.7,1.7-2.09,1.7a3.15,3.15,0,0,1-2.35-.92l-.28.42a3.62,3.62,0,0,0,2.64,1c1.76,0,2.63-1,2.63-2.23S264.57,270.16,262.29,270.16Z" fill="#ff725e"/><path d="M267.88,267c-1,0-1.65.81-1.65,2s.68,2,1.65,2,1.67-.81,1.67-2S268.86,267,267.88,267Zm0,3.7c-.74,0-1.24-.63-1.24-1.66s.5-1.67,1.24-1.67,1.26.62,1.26,1.67S268.63,270.66,267.88,270.66Zm4.58-3.65-5.12,7.53h.46l5.13-7.53Zm-.08,3.5c-1,0-1.66.81-1.66,2s.68,2,1.66,2,1.65-.81,1.65-2S273.36,270.51,272.38,270.51Zm0,3.7c-.75,0-1.26-.62-1.26-1.66s.51-1.67,1.26-1.67,1.24.63,1.24,1.67S273.12,274.21,272.38,274.21Z" fill="#ff725e"/><g opacity="0.2"><polygon points="191.94 258.44 182.81 282.45 189.52 282.45 198.02 258.44 191.94 258.44" fill="#fff"/></g><g opacity="0.2"><polygon points="208.39 258.44 199.27 282.45 205.97 282.45 214.48 258.44 208.39 258.44" fill="#fff"/></g><g opacity="0.2"><path d="M224.51,260.24,216,282.59h4a15.31,15.31,0,0,0,3.07-1L228.94,265A13,13,0,0,0,224.51,260.24Z" fill="#fff"/></g><g opacity="0.2"><path d="M176,258.44l-8.39,22.08a12,12,0,0,0,6,1.93l8.5-24Z" fill="#fff"/></g><path d="M282.36,278.11c-.16.22-.33.42-.5.62a11.41,11.41,0,0,1-5.7,3.63l-.34.08-.21.05-.11,0-.5.09h-.1l-.27,0-.21,0-.44,0h-.92a17.3,17.3,0,0,0,2.73-.4,11.35,11.35,0,0,0,6.4-4.36,11.13,11.13,0,0,0,2.07-5.24,20.55,20.55,0,0,0,.08-3.26,11,11,0,0,0-.68-3.43,11.31,11.31,0,0,0-8.8-7.28,30.07,30.07,0,0,0-4.49-.14l-49.05,0H173.87a12.56,12.56,0,0,0-3.39.53,11.92,11.92,0,0,0-3,1.52,11.25,11.25,0,0,0-4.05,5.31c-1.35,4.21-.91,9.28,2.05,12.55a11,11,0,0,0,2.13,1.91l.07.05c.19.12.38.25.58.35a10.35,10.35,0,0,0,2.58,1.12c2.05.62,4.23.4,6.37.44H189.7l26.35,0h5.16l11.87,0,29.25.08,8,.05,2.06,0,.71,0s-.24,0-.71,0l-2.06,0-8,0-29.25.09L189.7,283H173.93a12.24,12.24,0,0,1-3.28-.45A11.7,11.7,0,0,1,165,279a11.57,11.57,0,0,1-2.77-6.19,22.12,22.12,0,0,1-.08-3.45,11.32,11.32,0,0,1,.69-3.44,11.71,11.71,0,0,1,4.25-5.55,12.24,12.24,0,0,1,3.19-1.6,13,13,0,0,1,3.55-.55l96.5.08a32.48,32.48,0,0,1,4.54.17,11.58,11.58,0,0,1,9,7.53C285.4,270.7,284.54,275.35,282.36,278.11Z" fill="#263238"/><path d="M174.24,391.71v8.17a.9.9,0,0,1-1.38.76l-2.3-1.47-3-1.92-.06,0-1-.66a.9.9,0,0,1,0-1.51l6.42-4.09A.9.9,0,0,1,174.24,391.71Z" fill="#e0e0e0"/><ellipse cx="221.36" cy="395.72" rx="5.63" ry="5.64" fill="#e0e0e0"/><rect x="267.39" y="390.81" width="10.39" height="10.41" rx="1.87" fill="#e0e0e0"/><path d="M395.5,257.29a72.19,72.19,0,0,0,.68-12.37,25,25,0,0,0-3.4-11.8c-.33-.53-2.93-4-3.53-3.84-.43.13,1.42,3.51,1.28,3.93a21.18,21.18,0,0,0,.12,12.63,55.69,55.69,0,0,0,4.85,11.45" fill="#263238"/><path d="M377.32,284.36c-.61-2.86-1.1-5.11-1.13-5.11s-10,1-12.63-8.6c-1.26-4.64-3.09-14.4-4.63-23.26a18.53,18.53,0,0,1,13.61-21.13l.93-.24c10.17-2,17.57,5.5,19.29,15.73L400,277.32l-15.79,16.75Z" fill="#ffbe9d"/><path d="M376.19,279.25a24.08,24.08,0,0,0,11.59-7s-1.17,7.93-11,9.56Z" fill="#eb996e"/><path d="M363.91,255a1.42,1.42,0,0,0,1.68,1.05,1.37,1.37,0,0,0,1.1-1.61,1.43,1.43,0,0,0-1.69-1A1.35,1.35,0,0,0,363.91,255Z" fill="#263238"/><path d="M362,250.86c.22.13,1.06-.91,2.54-1.29s2.76.08,2.87-.14-.2-.38-.76-.6a3.86,3.86,0,0,0-2.36-.11,3.69,3.69,0,0,0-2,1.25C362,250.43,361.91,250.8,362,250.86Z" fill="#263238"/><path d="M377.34,252.33a1.43,1.43,0,0,0,1.69,1,1.37,1.37,0,0,0,1.09-1.61,1.41,1.41,0,0,0-1.68-1A1.35,1.35,0,0,0,377.34,252.33Z" fill="#263238"/><path d="M376.67,247.7c.22.14,1.07-.91,2.55-1.29s2.75.08,2.87-.14-.2-.38-.77-.6a3.91,3.91,0,0,0-2.35-.11,3.84,3.84,0,0,0-2,1.25C376.64,247.28,376.57,247.64,376.67,247.7Z" fill="#263238"/><path d="M374.31,260.45a9.7,9.7,0,0,0-2.52.19c-.38.06-.76.07-.89-.17a2,2,0,0,1,0-1.18c.12-1,.24-2.06.37-3.17.49-4.5.74-8.16.56-8.18s-.72,3.62-1.21,8.12c-.12,1.1-.22,2.16-.33,3.17a2.26,2.26,0,0,0,.19,1.53,1,1,0,0,0,.77.39,2.57,2.57,0,0,0,.66-.07A9.75,9.75,0,0,0,374.31,260.45Z" fill="#263238"/><path d="M378.93,260.34c-.24.05.17,1.66-.91,3.16s-2.83,1.76-2.79,2,.46.21,1.19,0a4.09,4.09,0,0,0,2.35-1.57,3.55,3.55,0,0,0,.66-2.61C379.32,260.66,379,260.31,378.93,260.34Z" fill="#263238"/><path d="M375.2,241.67c.25.37,1.68-.21,3.47-.45s3.32-.13,3.45-.55c.06-.2-.28-.51-.95-.76a5.77,5.77,0,0,0-2.72-.22,5.62,5.62,0,0,0-2.55,1C375.33,241.1,375.09,241.5,375.2,241.67Z" fill="#263238"/><path d="M361.36,245.78c.34.27,1.27-.35,2.5-.68s2.32-.36,2.47-.77c.06-.2-.19-.5-.73-.7a3.62,3.62,0,0,0-2.18,0,3.51,3.51,0,0,0-1.82,1.19C361.25,245.26,361.2,245.64,361.36,245.78Z" fill="#263238"/><path d="M393.82,249.08c.15-.11,6.12-3.67,7.61,3s-5.48,6.77-5.53,6.59S393.82,249.08,393.82,249.08Z" fill="#ffbe9d"/><path d="M397.36,255.66s.13.06.35.1a1.19,1.19,0,0,0,.87-.17,3,3,0,0,0,.74-2.87,3.92,3.92,0,0,0-.69-1.58,1.38,1.38,0,0,0-1.07-.69.58.58,0,0,0-.61.47c-.05.2,0,.33,0,.34s-.17-.07-.18-.36a.78.78,0,0,1,.17-.48.92.92,0,0,1,.6-.31,1.66,1.66,0,0,1,1.44.76,4,4,0,0,1,.82,1.76,3.08,3.08,0,0,1-1,3.25,1.3,1.3,0,0,1-1.1.06C397.41,255.82,397.34,255.68,397.36,255.66Z" fill="#eb996e"/><path d="M360.85,235.44c-1.21-.36,1.27-4.54,3.66-6.32,3.61-2.67,9.47-5.11,13.38-4.86,4.72.3,8.88,1.71,12,5.27a26.73,26.73,0,0,1,5.82,12.73,8,8,0,0,1-.06,4.26c-.61,1.67-2.19,3-1.67,5a2.81,2.81,0,0,1-.26,2.18c-.93,1.56-2.68.66-3.63-.41-2-2.29-2.86-5.37-3.64-8.32a19.9,19.9,0,0,1-.94-6.42c.08-1.18.38-2.34.4-3.52a4.07,4.07,0,0,0-1.19-3.22,3.13,3.13,0,0,0-.66-.43,7.09,7.09,0,0,0-7.16.17c-3.46,2.14-9.43,5.5-11.38,4.59a10.44,10.44,0,0,1-3.63-2.38Z" fill="#263238"/><path d="M376.46,220.55c.45-.05,11.71-.34,16.38,6.92s4.51,9.89,4.51,9.89a5.3,5.3,0,0,1,1.35.68c.58.41.56,3.07-.9,3.14-11.57-2-24,.68-37.61,4.58l-10.53,2.53c-2.86,1.08-4.09.56-3-.49.8-.81,8.3-6.27,8.3-6.27l1.34-1.61,2.81-7.11s-.74-.7.14-1.67S367.46,221.54,376.46,220.55Z" fill="#ff725e"/><path d="M356.27,239.92l.41-.1,1.17-.32c1-.3,2.48-.66,4.31-1.08a83,83,0,0,1,14.53-1.83,128.44,128.44,0,0,1,14.66.32c1.87.13,3.39.27,4.43.35l1.21.1.42,0-.42,0-1.2-.14c-1.05-.11-2.56-.26-4.43-.41a120.71,120.71,0,0,0-14.68-.37,79.84,79.84,0,0,0-14.55,1.88A59.9,59.9,0,0,0,356.27,239.92Z" fill="#263238"/><g opacity="0.3"><path d="M387.37,222.77s-11.95,1-16.46,4.82l.52-.45-4.32,3.36a3.17,3.17,0,0,1-2.5,1,23.58,23.58,0,0,1,6.4-5.83C375.4,222.79,382.84,220.16,387.37,222.77Z"/></g><path d="M387.55,222.79a7.77,7.77,0,0,0-1.2-.42,14.44,14.44,0,0,0-3.42-.53,17.39,17.39,0,0,0-5.09.54,14.64,14.64,0,0,0-5.66,2.67,25.58,25.58,0,0,0-2.4,2.2c-.73.76-1.47,1.45-2.11,2.18a16.93,16.93,0,0,1-1.87,2,5.07,5.07,0,0,1-2.11,1c-2.81.75-4.69.61-4.61.4a.53.53,0,0,0,.29.16,3.79,3.79,0,0,0,.94.08,16.57,16.57,0,0,0,3.42-.51,5.33,5.33,0,0,0,2.16-1,15,15,0,0,0,1.9-2c.64-.72,1.38-1.41,2.11-2.16a28,28,0,0,1,2.39-2.19,14.75,14.75,0,0,1,5.59-2.65,18,18,0,0,1,5.05-.58,16.06,16.06,0,0,1,3.4.48c.4.1.7.19.9.26Z" fill="#263238"/><g opacity="0.3"><path d="M394.68,230.53a26.36,26.36,0,0,1-5.91.44c-2.3.08-4.55.25-6.85.21-1.74,0-3.77.07-5.14-.84a2.45,2.45,0,0,0,1.29,2A12,12,0,0,0,382,233a62.48,62.48,0,0,0,13.66-.78,15.8,15.8,0,0,0-.93-1.73"/></g><path d="M392.29,226.69c1.45.23,2.34.41,2.66,1.51.27.92.37,2.1-.5,2.49a2.29,2.29,0,0,1-.86.15l-14.92.74a2.2,2.2,0,0,1-1.46-.28,1.47,1.47,0,0,1,0-2.07,4,4,0,0,1,2.05-1,48.79,48.79,0,0,1,13-1.5" fill="#ff725e"/><path d="M377.48,231.46a1.57,1.57,0,0,1-.54-.53,1.84,1.84,0,0,1,.13-1.94,4.57,4.57,0,0,1,2.7-1.35c1.15-.23,2.42-.47,3.77-.68a39.4,39.4,0,0,1,6.92-.5c.89,0,1.61.08,2.11.13l.57,0c.13,0,.2,0,.2,0l-.2,0-.57-.09c-.49-.07-1.21-.15-2.1-.19a36.49,36.49,0,0,0-7,.45c-1.35.21-2.62.45-3.78.69a4.58,4.58,0,0,0-2.76,1.45,1.89,1.89,0,0,0-.09,2.05,1.3,1.3,0,0,0,.41.41Z" fill="#263238"/><polygon points="358.2 235.04 367.09 232.59 366.97 235.3 357.2 237.56 358.2 235.04" fill="#fff"/><path d="M373.73,239.54s-4.14.39-9.22,1-9.21,1.11-9.2,1.16,4.13-.39,9.22-1S373.73,239.59,373.73,239.54Z" fill="#263238"/><path d="M348.07,294.07l9,21.84,4-16.78a20,20,0,0,1,4.71-8.67,21.05,21.05,0,0,1,2.59-2.31h0l7.08,32.38s-6,18.43-20.25,18.86c-4.15.12-10.45-2.5-12.43-7.12-1-2.28-13.67-32.36-13.67-32.36Z" fill="#e0e0e0"/><polygon points="351.91 311.53 352.43 308.31 341.82 299.3 339.93 301.42 333.88 308.35 356.74 326.89 362.26 320.27 351.91 311.53" fill="#263238"/><path d="M437.63,352c.3-4.51-5.16-56-5.16-56l-11.7-17.3-22.34-3.94c-.34,2.72-2.09,9.83-11.29,12.45-4.74,1.35-9.9-3.38-9.9-3.38l-8.87,4.31,3.38,24.11,4.35,27.53,61.76,17.56S437.33,356.5,437.63,352Z" fill="#e0e0e0"/><polygon points="378.86 342.63 376.1 309.44 408.4 302.89 437.42 345.86 438.27 360.54 393.63 359.14 378.86 342.63" fill="#ff725e"/><path d="M370.53,299.5a10.48,10.48,0,0,1,.37,1.55c.21,1,.47,2.48.76,4.3.6,3.64,1.26,8.68,1.91,14.26s1.26,10.63,1.76,14.27c.24,1.75.44,3.21.6,4.32a10.66,10.66,0,0,1,.17,1.59,8.57,8.57,0,0,1-.37-1.56c-.21-1-.47-2.48-.77-4.3-.59-3.63-1.25-8.68-1.91-14.26s-1.25-10.62-1.75-14.27c-.25-1.75-.45-3.2-.6-4.31A9.27,9.27,0,0,1,370.53,299.5Z" fill="#263238"/><path d="M351.92,311.48s4.34.55,5.86,1.33,5.94,3.73,5.94,3.73l8.93,1.69L370.52,333l-6-3-13.16,1.3s-2.86-.65-2.86-2.7a5.42,5.42,0,0,1-2.56-3.86,59.4,59.4,0,0,1-3.84-5.52c-.31-.89,1.48-3,1.48-3s3.75,3.18,6,3.68,4.35-.4,4.54-1.87C354.58,315.07,351.92,311.48,351.92,311.48Z" fill="#ffbe9d"/><g opacity="0.3"><path d="M375.61,336.9s30,10.75,40,10.11c8.52-.54,12.71-4.53,13.39-10.11s1.61-29.26,1.61-29.26l-16.08,27.88-39.09-1.23Z"/></g><path d="M424.25,335.4c2.15-6.16,4.52-18,4.52-18l3.74-19.73a21.55,21.55,0,0,0-4.86-14.15c-2.45-2.94-5.89-5.45-10.46-5.43-9.7,0-9.35,17.92-9.35,17.92L405.2,321.6l-37.95-6.19-2.4,18.24,44.62,9.63a13.24,13.24,0,0,0,10.94-2.11A11.63,11.63,0,0,0,424.25,335.4Z" fill="#e0e0e0"/><path d="M418.26,279.67c0,.09-.77.12-2,.44a10.55,10.55,0,0,0-7,6c-.49,1.12-.64,1.89-.72,1.87a4.48,4.48,0,0,1,.38-2,9.66,9.66,0,0,1,7.22-6.23A4.72,4.72,0,0,1,418.26,279.67Z" fill="#263238"/><path d="M432.51,297.67a4.14,4.14,0,0,1-.07.47c-.05.34-.13.8-.23,1.39-.22,1.24-.55,3-1,5.32s-.94,5.13-1.54,8.4-1.32,7-2.26,11.1c-.47,2-1,4.18-1.59,6.4-.29,1.1-.62,2.23-1,3.37a23.45,23.45,0,0,1-1.3,3.42,10.82,10.82,0,0,1-2.22,3.11,11.62,11.62,0,0,1-3.31,2.14,13.76,13.76,0,0,1-8.08.84l-35.28-7.58-9.91-2.14-.23-.05,0-.24c.84-6.3,1.64-12.4,2.42-18.24l0-.25.25,0,37.93,6.25-.2.16c.85-7.93,1.54-14.32,2-18.75.25-2.19.44-3.89.57-5.07.07-.55.13-1,.16-1.31a4,4,0,0,1,.08-.44s0,.15,0,.45-.07.75-.12,1.31c-.11,1.19-.27,2.89-.47,5.08-.44,4.43-1.07,10.83-1.86,18.77v.18l-.19,0-38-6.11.29-.22c-.77,5.85-1.57,11.95-2.4,18.25l-.2-.29,9.92,2.14,35.25,7.62a13.35,13.35,0,0,0,7.81-.79,11.36,11.36,0,0,0,3.19-2,10.42,10.42,0,0,0,2.13-3,22.15,22.15,0,0,0,1.29-3.36c.36-1.13.69-2.25,1-3.35.6-2.2,1.13-4.33,1.61-6.37,1-4.08,1.71-7.8,2.33-11.07s1.18-6.08,1.63-8.39.81-4.07,1.06-5.3c.12-.59.21-1.05.28-1.38S432.51,297.67,432.51,297.67Z" fill="#263238"/><path d="M409.61,328.08a17,17,0,0,1-2.54-3.35c-.64-1-1.18-1.88-1.58-2.48a1.84,1.84,0,0,0-.89-.7s.12-.1.36-.06a1.5,1.5,0,0,1,.81.52c.53.61,1.08,1.47,1.74,2.43A17.05,17.05,0,0,1,409.61,328.08Z" fill="#263238"/><path d="M403.12,304.65s-6.76-17.11.28-25.48a8,8,0,0,1,6.73-2.77,18.44,18.44,0,0,1,7.06,1.69s-6-1.07-8.5,1.58c-1.84,1.95-6.26,8.31-1.59,23.48Z" fill="#ff725e"/><path d="M376.22,310.24l-6.89-22.56a3.9,3.9,0,0,1,4.14-1.95l6.65,24.51Z" fill="#ff725e"/><path d="M353.78,318.21a100.8,100.8,0,0,1-8.33-6.27c-4.52-3.58-8.1-6.57-8-6.68a102.81,102.81,0,0,1,8.33,6.27C350.29,315.11,353.87,318.1,353.78,318.21Z" fill="#455a64"/><polygon points="335.84 306.1 333.79 304.21 334.78 303.01 337.15 304.61 335.84 306.1" fill="#455a64"/><path d="M316.57,276.61a3.55,3.55,0,0,1,2.44-4.3c3.71-1.09,9.45-2.46,11-1,2.37,2.16,8,7.41,8,7.41l7.82,16.24-12.67,3.72-3.59-12.34s-5.77.31-5.25-2.78c0,0-2.88-1.13-2.47-2.88s2.78-2.17,2.78-2.17l-.52-3.08-7.56,1.32Z" fill="#ffbe9d"/><path d="M322.79,280.89h-6.37v-7.52h6.37a3.76,3.76,0,0,1,3.76,3.76h0A3.76,3.76,0,0,1,322.79,280.89Z" fill="#455a64"/><path d="M327.65,277l-9.57-2.47s-2.58-.72-1.24,2.06,5.36,2.16,6.9,3.81,2.42,4.42,8.8,5.45" fill="#ffbe9d"/><path d="M332.54,285.85a5.16,5.16,0,0,1-1.26-.14,13.94,13.94,0,0,1-3.32-1,9.26,9.26,0,0,1-2-1.36,13.75,13.75,0,0,1-1.83-2.08c-1-1.72-3.36-1.63-5.43-2.58a4.88,4.88,0,0,1-1.43-1,4.6,4.6,0,0,1-.86-1.45,3.31,3.31,0,0,1-.19-.84,1.09,1.09,0,0,1,.34-.89,1.87,1.87,0,0,1,1.64-.16l4.94,1.33,3.32.95a5.49,5.49,0,0,1,1.2.41,5.92,5.92,0,0,1-1.25-.22L323,276l-5-1.23a1.56,1.56,0,0,0-1.2.08c-.25.2-.17.72,0,1.17a3.91,3.91,0,0,0,.76,1.27,4.43,4.43,0,0,0,1.27.88,26.43,26.43,0,0,0,3,1,5.36,5.36,0,0,1,1.46.67,4.71,4.71,0,0,1,1.08,1.11,14.5,14.5,0,0,0,1.74,2.05,8.72,8.72,0,0,0,1.89,1.35A25.65,25.65,0,0,0,332.54,285.85Z" fill="#eb996e"/><path d="M332,332.52a6.68,6.68,0,0,1-5.56-3.31,9.93,9.93,0,0,1-.4-8.77c.08-.19.17-.37.26-.55a1.6,1.6,0,0,1-.1-.23,16.67,16.67,0,0,1-.89-5.25c-.37-5.86-.7-11.3-1-16.75s-.67-10.91-1-16.78l.5,0c.36,5.87.69,11.32,1,16.78s.66,10.89,1,16.75a16.77,16.77,0,0,0,.8,5,5,5,0,0,1,2.89-2.36,3.12,3.12,0,0,1,2.51.52,2.92,2.92,0,0,1,1.26,2.09A3.21,3.21,0,0,1,329.9,323a4.57,4.57,0,0,1-3.35-2.52l-.08.17a9.42,9.42,0,0,0,.37,8.32,5.83,5.83,0,0,0,6.69,2.8c2.34-.83,4.15-3.65,4.42-6.85a17,17,0,0,0-2-8.7c-.64-1.35-1.37-2.66-2.08-3.92s-1.49-2.65-2.14-4a7.71,7.71,0,0,1-.91-3.23,3,3,0,0,1,1.63-2.87,1.84,1.84,0,0,1,2.38,1.85l-.5-.05a1.25,1.25,0,0,0-.52-1.11,1.24,1.24,0,0,0-1.18-.22,2.55,2.55,0,0,0-1.31,2.4,7.29,7.29,0,0,0,.86,3c.65,1.37,1.4,2.71,2.12,4s1.46,2.6,2.1,4a17.47,17.47,0,0,1,2,9c-.24,2.86-1.8,6.22-4.75,7.27A5.12,5.12,0,0,1,332,332.52Zm-5.14-12.61a4.25,4.25,0,0,0,3.12,2.57,2.69,2.69,0,0,0,2.79-2.83,2.4,2.4,0,0,0-1.05-1.74,2.63,2.63,0,0,0-2.1-.44A4.63,4.63,0,0,0,326.83,319.91Z" fill="#455a64"/><path d="M390.18,424.49l23.13-7.91s15.8,20.85,20.21,19.8L419.8,391l-36.53,10.85Z" fill="#455a64"/><path d="M407.1,403.15a1.93,1.93,0,0,1,1.72-1.93,1.87,1.87,0,0,1,1.92,1.7,2,2,0,0,1-1.84,2c-.95,0-2-1.05-1.8-2" fill="#e0e0e0"/><path d="M420.75,390.68l-3.54,1.05,13.47,43.56s1.49,1.75,2.84,1.09Z" fill="#e0e0e0"/><path d="M413.3,417.39c.22-.08,0-1.21.36-2.52s1.14-2.17,1-2.35-1.33.54-1.76,2.13S413.11,417.5,413.3,417.39Z" fill="#263238"/><path d="M416.71,421.55c.23,0,.31-1.08,1-2.12s1.64-1.55,1.56-1.77-1.37,0-2.23,1.32S416.49,421.61,416.71,421.55Z" fill="#263238"/><path d="M423.22,422.53c0-.21-1.21-.19-2.26.75s-1.21,2.12-1,2.16.66-.8,1.53-1.56S423.26,422.76,423.22,422.53Z" fill="#263238"/><path d="M407.83,418.61c.17-.16-.44-1.08-.74-2.36s-.19-2.37-.41-2.43-.74,1.12-.37,2.62S407.69,418.77,407.83,418.61Z" fill="#263238"/><path d="M387.37,362.84c-.89-.25-40.05,41.76-40.94,48.7s.54,13,5.17,16.91,57.31-8.9,57.31-8.9l-5-22.07,19-6.41-17-31.15Z" fill="#ff725e"/><g opacity="0.3"><path d="M378.11,372.15l-1.25,1.35S399.3,397,406.19,396.72l11-3.73-37.29-22.88Z"/></g><path d="M404.06,398.05c0,.14-8.13,2.66-18.25,5.64s-18.35,5.27-18.39,5.13,8.13-2.66,18.24-5.63S404,397.92,404.06,398.05Z" fill="#263238"/><path d="M355.15,400.48l7.61,24.15s-22,15.84-21,20.44L389.1,432l-10.32-38.11Z" fill="#455a64"/><path d="M376.84,418.53a2,2,0,0,1,1.94,1.84,1.92,1.92,0,0,1-1.8,1.94,2.11,2.11,0,0,1-2.05-1.95,2,2,0,0,1,2.1-1.82" fill="#e0e0e0"/><path d="M389.4,433l-1-3.69L343,442.15s-1.85,1.5-1.2,2.92Z" fill="#e0e0e0"/><path d="M361.93,424.6c.07.23,1.26,0,2.6.44s2.22,1.24,2.4,1.08-.52-1.39-2.16-1.88S361.82,424.4,361.93,424.6Z" fill="#263238"/><path d="M357.53,428c0,.24,1.12.36,2.17,1.12s1.57,1.73,1.8,1.66,0-1.42-1.32-2.34S357.47,427.8,357.53,428Z" fill="#263238"/><path d="M356.35,434.75c.23,0,.23-1.26-.72-2.36s-2.16-1.31-2.2-1.09.81.71,1.57,1.63S356.12,434.79,356.35,434.75Z" fill="#263238"/><path d="M360.81,418.9c.15.19,1.12-.43,2.45-.7s2.47-.14,2.53-.37-1.14-.79-2.7-.44S360.64,418.75,360.81,418.9Z" fill="#263238"/><g opacity="0.3"><polygon points="389.44 423.94 386.52 412.5 388.69 411.48 375.45 375.43 372.92 377.63 383.33 410.66 387.05 424.44 389.44 423.94"/></g><path d="M358.18,334.69a18.6,18.6,0,0,0-14.91,3.19,13.69,13.69,0,0,0-5.56,13.68c2.14,14.95,21.25,66,21.25,66l26.43-7.94c.15-.05.3-.48.22-.35-.22.35-13.41-42.17-13.08-41.67s26.68,21.77,37.62,25.68A24.24,24.24,0,0,0,437.86,385c2.56-3.59,2.75-19.32,0-27.64,0,0-76.3-21.63-77.72-22.17A16.55,16.55,0,0,0,358.18,334.69Z" fill="#ff725e"/><path d="M357.1,350.25a35.85,35.85,0,0,1,15.5,25.18" fill="#ff725e"/><path d="M438.9,384.47s-.1.17-.32.5a13.91,13.91,0,0,1-1.07,1.4,23.86,23.86,0,0,1-5.21,4.36,26.61,26.61,0,0,1-10.11,3.86,24,24,0,0,1-6.85.09,22.51,22.51,0,0,1-7.39-2.22c-1.25-.54-2.45-1.26-3.72-1.9s-2.5-1.43-3.76-2.23c-2.53-1.57-5.14-3.27-7.78-5.12-5.31-3.68-10.88-7.84-16.64-12.42L373.88,369l-1.08-.91-.28-.26-.14-.14c.09,0-.26-.11.19.06.34-.36.1-.18.17-.22l0,.08.19.67,1.7,5.49,3.6,11.38c2.47,7.75,5.06,15.85,7.73,24.23l.07.24-.24.07L359,417.79l-.23.07-.09-.22c-1.7-4.58-3.48-9.46-5.25-14.4C349.63,392.5,346,382,342.76,371.7c-1.61-5.13-3.11-10.2-4.31-15.24-.14-.63-.31-1.26-.43-1.89s-.24-1.27-.35-1.9a17.73,17.73,0,0,1-.37-3.84,13.37,13.37,0,0,1,2.12-7.23,17.48,17.48,0,0,1,12.16-7.35,19.27,19.27,0,0,1,6.95.3l1.68.42,1.61.48,3.18.95,23.42,7,33.89,10.16,9.21,2.79,2.39.74.81.27-.82-.22-2.41-.69-9.23-2.69-34-10-23.45-6.93-3.19-.95-1.61-.47-1.62-.41a18.62,18.62,0,0,0-6.79-.27,17,17,0,0,0-11.82,7.15,13,13,0,0,0-2,7,17.57,17.57,0,0,0,.37,3.74c.12.63.23,1.26.35,1.89s.29,1.25.44,1.88c1.19,5,2.7,10.08,4.31,15.2,3.22,10.26,6.87,20.78,10.7,31.51,1.77,4.94,3.55,9.82,5.25,14.39l-.32-.15,26.78-8.05-.16.32c-2.66-8.38-5.24-16.48-7.7-24.24Q376,379.51,374.22,374c-.57-1.86-1.14-3.69-1.69-5.5l-.2-.69,0-.1c.08-.06-.19.08.17-.3.47.2.15.07.26.12l.12.1.23.22,1.07.9,2.16,1.75c5.74,4.59,11.29,8.76,16.58,12.44,2.64,1.86,5.24,3.56,7.75,5.14,1.26.8,2.53,1.51,3.75,2.24s2.45,1.37,3.69,1.9a22.24,22.24,0,0,0,7.29,2.23,23.51,23.51,0,0,0,6.77-.06,26.46,26.46,0,0,0,10.06-3.75,25.06,25.06,0,0,0,5.24-4.28c.49-.59.88-1,1.09-1.36S438.9,384.47,438.9,384.47Z" fill="#263238"/><path d="M360.45,355.88a9,9,0,0,1,2.2,1.19,32.59,32.59,0,0,1,4.74,3.73,28.78,28.78,0,0,1,3.92,4.6,9,9,0,0,1,1.22,2.18,19.77,19.77,0,0,1-1.52-2,40.33,40.33,0,0,0-4-4.43,46.8,46.8,0,0,0-4.59-3.81A17.14,17.14,0,0,1,360.45,355.88Z" fill="#263238"/><path d="M369.47,352.93a7.64,7.64,0,0,1,1,2A33.21,33.21,0,0,1,372,360a33.56,33.56,0,0,1,.76,5.27,7.63,7.63,0,0,1,0,2.21c-.16,0-.33-3.34-1.23-7.36S369.32,353,369.47,352.93Z" fill="#263238"/><path d="M427.94,351.89l9.67-2.79,6.3,1.15,3,10.53c2.95,9.33,2.32,14.67-3.85,18.76-1.82,1.2-3.53,1.85-4.79,1.33C433.9,379,427.94,351.89,427.94,351.89Z" fill="#455a64"/><polygon points="437.61 349.1 375.96 338.96 376.1 339.79 437.61 358.19 437.61 349.1" fill="#455a64"/><path d="M52.83,397.07l-6.06,21.28s19.31,13.39,18.57,17.44L24.19,425.36l8.1-33.55Z" fill="#455a64"/><path d="M34.49,413.32A1.74,1.74,0,0,0,32.85,415a1.67,1.67,0,0,0,1.6,1.66,1.82,1.82,0,0,0,1.72-1.75c-.07-.86-1-1.76-1.85-1.55" fill="#e0e0e0"/><g opacity="0.6"><path d="M24.19,425.36l.95-3.35,39.09,11.25s1.63,1.27,1.11,2.53Z" fill="#fff"/></g><path d="M47.48,418.31c0,.2-1.08,0-2.23.44s-1.89,1.13-2,1,.42-1.23,1.82-1.69S47.57,418.13,47.48,418.31Z" fill="#263238"/><path d="M51.35,421.21c0,.21-1,.34-1.85,1s-1.32,1.55-1.51,1.49-.05-1.24,1.08-2.08S51.4,421,51.35,421.21Z" fill="#263238"/><path d="M52.51,427.06c-.19,0-.22-1.09.57-2.07s1.84-1.19,1.89-1-.69.64-1.33,1.46S52.72,427.1,52.51,427.06Z" fill="#263238"/><path d="M48.34,413.3c-.13.17-1-.35-2.14-.56s-2.13-.07-2.19-.27,1-.71,2.32-.44S48.47,413.17,48.34,413.3Z" fill="#263238"/><path d="M38.4,402.08l-.95,22.13s21.88,8.41,22.09,12.52l-42.41-.33.09-34.54Z" fill="#455a64"/><path d="M24.35,422.24a1.76,1.76,0,0,0-1.21,2,1.66,1.66,0,0,0,1.94,1.23,1.84,1.84,0,0,0,1.27-2.11,1.72,1.72,0,0,0-2.16-1.06" fill="#e0e0e0"/><g opacity="0.6"><path d="M17.13,436.4l.15-3.48,40.61,1.62s1.88.85,1.65,2.19Z" fill="#fff"/></g><path d="M38.14,424c0,.21-1,.29-2.07,1s-1.57,1.54-1.76,1.46.12-1.29,1.38-2.08S38.19,423.8,38.14,424Z" fill="#263238"/><path d="M42.57,425.9c0,.2-.85.55-1.56,1.43s-.92,1.82-1.13,1.81-.33-1.2.58-2.28S42.57,425.7,42.57,425.9Z" fill="#263238"/><path d="M45.06,431.31c-.19,0-.47-1,.07-2.15s1.51-1.6,1.6-1.42-.52.78-.95,1.73S45.26,431.29,45.06,431.31Z" fill="#263238"/><path d="M37.8,418.93c-.08.19-1-.11-2.2,0s-2.09.44-2.2.26.78-.92,2.16-1S37.91,418.76,37.8,418.93Z" fill="#263238"/><path d="M12.17,240.16v17.49l4.64,68.17s-2.89,33.07-4.66,51.73c-1.54,16.21,1,44.44,1,44.44h27l9.66-94.15,6-58.71L66.2,242.4Z" fill="#263238"/><path d="M78.48,240.16l2.61,71c-.18,13.34-3.86,38.23-8.63,50.65L50.78,409.51l-1.26,4.29-16.13-3.95,12-168.5Z" fill="#263238"/><path d="M59.8,259a2.24,2.24,0,0,1,0,.42c0,.31,0,.72,0,1.25,0,1.12,0,2.73,0,4.8,0,4.16,0,10.19-.13,17.64s-.35,16.32-.89,26.16-1.24,20.69-3.54,31.85c-2.13,11.18-4.4,21.77-6.41,31.41s-3.78,18.34-5.11,25.66S41.54,411.45,41,415.58c-.31,2.06-.47,3.67-.63,4.76-.07.52-.13.93-.17,1.23a2.78,2.78,0,0,1-.07.42,2.66,2.66,0,0,1,0-.42l.12-1.24c.12-1.09.25-2.71.53-4.77.49-4.14,1.37-10.11,2.66-17.45s3-16.05,5-25.69,4.24-20.25,6.37-31.41c2.3-11.13,3-22,3.58-31.78s.81-18.7,1-26.14.25-13.48.3-17.64c0-2.07.05-3.68.06-4.8,0-.53,0-.94,0-1.25A2.24,2.24,0,0,1,59.8,259Z" fill="#455a64"/><path d="M93.79,222a12.2,12.2,0,0,1,.39,4.09c-.19,2.09-.29,7.24-5.88,9s-10.84-2.42-12.55-4.32-1.5-8.07-1.5-8.07l9.17-4.09Z" fill="#ff725e"/><path d="M30.4,143.26l-4.65,7.46-18.81,8,4.71,77.21,3.38,14,62.63-2.08L79.21,237V184.94C77.8,171.58,71.34,163.28,65.36,160l-3.92-2.68L60,152.41l-5.52-5.16-17.68-4.6Z" fill="#ff725e"/><g opacity="0.3"><path d="M9.57,230.07a19.22,19.22,0,0,0,18.93,8.42c6.29-1.06,11.59-5.21,17.62-7.29,10.5-3.61,22.46-.74,32.81-4.76.2-1.78.08-4,.2-5.19-5.18-.26-10.69-.55-15.26-3l-4.15-1.53Z"/></g><path d="M6.94,158.73S-2,166.38.6,186.29C3,204.8,7.26,230.57,13,233.56s17.94,1.5,26.91-3.59,35-18.84,35-18.84L64.08,192,29.39,205.45s-4.48-30.69-7.17-36" fill="#ff725e"/><path d="M22.22,169.47s.1.2.27.59l.31.73c.09.31.21.66.34,1.05.51,1.59,1.11,4,1.78,7.08,1.33,6.2,2.95,15.25,4.66,26.51l-.25-.15L64,191.77l.2-.07.1.18L75.07,211l.13.23-.23.12-22.25,12-10.91,5.88c-1.79.95-3.57,2-5.43,2.76a44.71,44.71,0,0,1-5.67,2,36.88,36.88,0,0,1-11.56,1.34,16.75,16.75,0,0,1-5.57-1.17l-.65-.29a5.83,5.83,0,0,1-.62-.39,5.73,5.73,0,0,1-1-1,12.9,12.9,0,0,1-1.47-2.36,53,53,0,0,1-3.48-10c-.87-3.33-1.56-6.59-2.18-9.76C2.94,203.92,2,198,1.26,192.54S-.17,182.17,0,177.79a36.54,36.54,0,0,1,2-11,24.14,24.14,0,0,1,3.28-6.24,13.75,13.75,0,0,1,1.19-1.41,5.26,5.26,0,0,1,.46-.42l-.42.46a15.62,15.62,0,0,0-1.14,1.43,24.42,24.42,0,0,0-3.18,6.25A36.8,36.8,0,0,0,.33,177.8c-.18,4.35.51,9.27,1.3,14.69s1.71,11.36,3,17.68c.63,3.16,1.33,6.41,2.2,9.73a53.88,53.88,0,0,0,3.47,9.94,13.24,13.24,0,0,0,1.41,2.27,6.36,6.36,0,0,0,.93.94c.19.11.35.24.55.34l.62.27a16.37,16.37,0,0,0,5.41,1.12,36.56,36.56,0,0,0,11.4-1.33,45.81,45.81,0,0,0,5.6-1.94c1.83-.8,3.58-1.78,5.38-2.75l10.91-5.87,22.26-12-.11.35L63.87,192.11l.3.11L29.46,205.63l-.22.08,0-.23C27.55,194.22,26,185.17,24.71,179c-.63-3.1-1.2-5.49-1.68-7.09-.11-.39-.22-.75-.31-1.05l-.28-.74C22.28,169.68,22.22,169.47,22.22,169.47Z" fill="#263238"/><polygon points="25.21 180.82 47.73 179.34 52.72 188.71 27.46 193.25 25.21 180.82" fill="#ff725e"/><path d="M25.21,180.82s.08.32.2.9.29,1.45.5,2.49c.43,2.19,1,5.26,1.75,9l-.23-.16,22.73-4.15,2.51-.45-.18.38-5-9.38.23.13-16.14.94-4.68.24-1.27.06a2.65,2.65,0,0,1-.45,0,1.64,1.64,0,0,1,.39-.06l1.21-.1,4.61-.37,16.3-1.2h.15l.08.14,5,9.36.17.32-.36.06-2.51.45-22.75,4-.2,0,0-.2-1.56-9.16c-.16-1-.29-1.85-.39-2.47A5,5,0,0,1,25.21,180.82Z" fill="#263238"/><path d="M29.39,205.45c.14.11-1.87,2.48-3.56,5.87s-2.4,6.42-2.57,6.37a7,7,0,0,1,.37-2,25.1,25.1,0,0,1,1.74-4.6A23.32,23.32,0,0,1,28,206.94,6.78,6.78,0,0,1,29.39,205.45Z" fill="#263238"/><path d="M52,162.53a8.08,8.08,0,0,1-1.25-.9L47.5,159l.29,0a30.37,30.37,0,0,1-4.47,5.61l-.16.16-.18-.14-3.45-2.87c-3.71-3-7.16-5.64-9.68-7.51l-3-2.2a6.82,6.82,0,0,1-1.07-.85,6.47,6.47,0,0,1,1.18.68c.74.48,1.8,1.18,3.09,2.08,2.58,1.79,6.08,4.36,9.8,7.39,1.21,1,2.37,2,3.44,2.89H43a31.82,31.82,0,0,0,4.49-5.45l.13-.19.16.14,3.16,2.73A7.26,7.26,0,0,1,52,162.53Z" fill="#263238"/><path d="M61.29,157.79a4,4,0,0,1,.18,1.26,19.08,19.08,0,0,1-.11,3.33l-.07.6-.35-.5A37.49,37.49,0,0,0,58.27,159c-.41-.46-.81-.91-1.21-1.33-.19-.2-.41-.44-.58-.59s-.18-.13-.35.06l-1.66,2.32a13.36,13.36,0,0,1-1.64,2.06,12.85,12.85,0,0,1,1.34-2.27l1.57-2.39a.76.76,0,0,1,.47-.34.71.71,0,0,1,.58.17c.26.22.42.41.64.63.41.42.82.87,1.23,1.34a30.91,30.91,0,0,1,2.66,3.56l-.41.09C61.31,159.64,61.17,157.79,61.29,157.79Z" fill="#263238"/><path d="M21.19,166.44a10.25,10.25,0,0,1-1.4-1.66,18.16,18.16,0,0,0-3.7-3.57,12.25,12.25,0,0,0-4.74-1.86A16.51,16.51,0,0,1,9.22,159a6.11,6.11,0,0,1,2.18,0,10.91,10.91,0,0,1,5,1.79,15.2,15.2,0,0,1,3.69,3.78A8,8,0,0,1,21.19,166.44Z" fill="#263238"/><path d="M70.14,180.27a25.27,25.27,0,0,1-1.79-4.8,25.6,25.6,0,0,1-1.28-5,25.68,25.68,0,0,1,1.78,4.8A26.11,26.11,0,0,1,70.14,180.27Z" fill="#263238"/><path d="M79,224.38a10.14,10.14,0,0,1,.2,2c.08,1.22.21,2.91.29,4.78a31.32,31.32,0,0,1-.1,4.8,5.67,5.67,0,0,1-.42,1.95,11.09,11.09,0,0,1,.06-2c0-1.21,0-2.89-.06-4.75s-.15-3.56-.14-4.79A6.39,6.39,0,0,1,79,224.38Z" fill="#263238"/><path d="M38.12,187.39a1.21,1.21,0,1,0,.3-.23" fill="#e0e0e0"/><g opacity="0.3"><polygon points="23.7 174.07 30.02 192.79 50.85 189.04 30.77 196.91 29.09 203.4 23.7 174.07"/></g><g opacity="0.3"><path d="M26.33,151.55,45,168.44l2.89-7.88,3,1-3.23-2.67s-3.54,5.44-4.49,5.53Z"/></g><path d="M61.82,191.92a4.92,4.92,0,0,1-.38-1.14c-.24-.84-.53-1.89-.88-3.12-.74-2.64-1.81-6.28-3.12-10.25s-2.63-7.53-3.61-10.09l-1.16-3a5.42,5.42,0,0,1-.37-1.13,5.17,5.17,0,0,1,.56,1.06c.33.69.78,1.71,1.31,3,1.07,2.54,2.44,6.08,3.76,10.07s2.33,7.64,3,10.31c.33,1.34.58,2.42.73,3.18A5.55,5.55,0,0,1,61.82,191.92Z" fill="#263238"/><path d="M61.54,171.12C65.07,174.64,74,183.79,74,183.79l2.39-1.44L63.8,168.93a1.56,1.56,0,0,0-2-.23h0A1.57,1.57,0,0,0,61.54,171.12Z" fill="#263238"/><path d="M64.08,192l3-8.45a4.75,4.75,0,0,1,4.32-3.24l.46,0c1.79.2,11,.8,11,.8l3.55,4a1.84,1.84,0,0,1,0,2.4h0l1,7.18-2,1.36.2,5s-1.79,1.19-2.59.79l-.8-.39L81,200.27l-3.39,4.78L73,207.76Z" fill="#ffbe9d"/><path d="M86.42,187.89a14,14,0,0,0-1.28-1.39,5.9,5.9,0,0,0-1.71-1,13.43,13.43,0,0,0-2.48-.33,42.25,42.25,0,0,1-6.55-.88,42.77,42.77,0,0,1,6.59.36,11.4,11.4,0,0,1,2.59.4,5.56,5.56,0,0,1,1.81,1.22A3,3,0,0,1,86.42,187.89Z" fill="#eb996e"/><path d="M86.22,194.49a13.38,13.38,0,0,0-.73-1.83,7.2,7.2,0,0,0-3.55-3,13.5,13.5,0,0,0-4.69-.79,10.55,10.55,0,0,1-2-.07,6.66,6.66,0,0,1,2-.3,11.73,11.73,0,0,1,4.89.67,6.92,6.92,0,0,1,3.68,3.29A3.11,3.11,0,0,1,86.22,194.49Z" fill="#eb996e"/><path d="M85.32,200.65a4,4,0,0,1-.48-2,6.55,6.55,0,0,0-.45-2,2.52,2.52,0,0,0-1.88-1.43,35.46,35.46,0,0,0-4.77-.69,5.66,5.66,0,0,1-2-.46,14.34,14.34,0,0,1,2,.09,24,24,0,0,1,4.88.55,3.73,3.73,0,0,1,1.34.62,2.72,2.72,0,0,1,.84,1.12,6.1,6.1,0,0,1,.38,2.23C85.21,199.9,85.38,200.62,85.32,200.65Z" fill="#eb996e"/><polygon points="90.32 184.8 50.78 225.64 52.3 227.18 80.63 223.99 118.75 187.68 118.71 185.93 90.32 184.8" fill="#455a64"/><g opacity="0.3"><path d="M92.88,210.47a7.4,7.4,0,0,0-5.71-1.91,10.46,10.46,0,0,0-5.63,2.37,7.62,7.62,0,0,0-2.81,4c-.66,2.82,1.22,5.79,3.78,7.16l.36-.41,9.74-7.82a2.72,2.72,0,0,0,1.12-1.44A2.24,2.24,0,0,0,92.88,210.47Z"/></g><path d="M88.7,206.65s3.84.07,5.09.7,4.68,4.28,4.68,4.28,0,2.49-1,2.59a9.49,9.49,0,0,1,.2,1.7c.1,1.39.3,2.19-1.59,3.39,0,0,.2,2.29-.5,2.89a14.73,14.73,0,0,1-1.49,1.1s-2.2,2.69-3.49,2.49-3.17,1.39-3.17,1.39-7-2.92-6.3-3.74l2.43-2.71s-4.83-3.52-4.73-4.61.5-1.2.5-1.2-.2-2.09,1.5-2.29c0,0,1.29-2.59,2.59-2.69S93.49,213,93.49,213l-3.29-2.79s-3.29-.5-3.19-1.6S88.7,206.65,88.7,206.65Z" fill="#ffbe9d"/><path d="M88.12,219.78a47.29,47.29,0,0,1-4.45-2.16c-2.45-1.19-4.51-2-4.46-2.14a15.88,15.88,0,0,1,4.69,1.67A16,16,0,0,1,88.12,219.78Z" fill="#eb996e"/><path d="M92.69,216.73A35.32,35.32,0,0,1,87,214.87a35.3,35.3,0,0,1-5.53-2.34,35.75,35.75,0,0,1,5.72,1.86A33.54,33.54,0,0,1,92.69,216.73Z" fill="#eb996e"/><path d="M118.59,187.6a2.34,2.34,0,0,1-.52,0h-1.51l-5.67-.06-19.7-.38.18-.08-9.91,10.28L60.92,218.53l-6.27,6.37-1.72,1.71a4.28,4.28,0,0,1-.63.57,6.57,6.57,0,0,1,.55-.64l1.65-1.78,6.15-6.48L81.08,197,91,186.77l.07-.07h.11l19.7.57,5.67.2,1.5.08A2.9,2.9,0,0,1,118.59,187.6Z" fill="#263238"/><path d="M70.15,106.27a7.5,7.5,0,0,0-4.86-2.5,4.8,4.8,0,0,0-3.16.24,3.75,3.75,0,0,0-1.61,3.64,15.23,15.23,0,0,0,1.2,4,7.22,7.22,0,0,1,.58,4.1l3.58,8.55a4.52,4.52,0,0,0,2.32-6.52,4.37,4.37,0,0,0,1.3-6.63C71.14,110.27,71.26,107.77,70.15,106.27Z" fill="#263238"/><path d="M37,128.6q-.22-8.64-.43-17.29l-10.93-.5a3.66,3.66,0,0,0-1.32,6.46A4.49,4.49,0,0,0,25,125.7,4.53,4.53,0,0,0,27.91,133c.05,2,1.13,4.24,3.09,4.8s4.27-.93,5.19-2.88A13.92,13.92,0,0,0,37,128.6Z" fill="#263238"/><path d="M25.37,108.91s1.08,14.29,2.47,18.65a44.52,44.52,0,0,0,4.49,9.06l33.36-10.36c1.13-7.72,2.29-15.48,1.82-21.56l-10.64-3.78Z" fill="#263238"/><path d="M32.43,127.56a70,70,0,0,1-3.25-11.76A24.78,24.78,0,0,1,30,103.73c.21-.58,2-4.49,2.6-4.44.44,0-.63,3.68-.41,4.06a20.93,20.93,0,0,1,2.54,12.18,55.42,55.42,0,0,1-2.27,12" fill="#263238"/><path d="M55.59,154.33s0-9.67,0-9.67,9.85-1.14,10.36-10.93c.24-4.73,0-14.51-.41-23.36A18.27,18.27,0,0,0,48,92.88l-.94,0c-10.22.2-15.76,9-15.28,19.19l0,33.16L52,159.75Z" fill="#ffbe9d"/><path d="M55.61,144.66A23.7,23.7,0,0,1,43,140.39s2.83,7.24,12.64,6.74Z" fill="#eb996e"/><path d="M62.36,118.75A1.4,1.4,0,0,1,61,120.11a1.34,1.34,0,0,1-1.39-1.32,1.4,1.4,0,0,1,1.4-1.36A1.34,1.34,0,0,1,62.36,118.75Z" fill="#263238"/><path d="M63.3,114.35c-.18.18-1.21-.65-2.71-.7s-2.64.65-2.8.46.12-.4.61-.74a3.87,3.87,0,0,1,2.25-.59,3.7,3.7,0,0,1,2.15.79C63.25,113.94,63.39,114.28,63.3,114.35Z" fill="#263238"/><path d="M48.87,119a1.4,1.4,0,0,1-1.41,1.35A1.33,1.33,0,0,1,46.07,119a1.4,1.4,0,0,1,1.4-1.36A1.34,1.34,0,0,1,48.87,119Z" fill="#263238"/><path d="M48.54,114.39c-.19.17-1.22-.65-2.72-.71s-2.64.66-2.79.47.11-.41.6-.74a3.86,3.86,0,0,1,2.25-.6,3.67,3.67,0,0,1,2.15.79C48.48,114,48.62,114.31,48.54,114.39Z" fill="#263238"/><path d="M53.48,126.16a10.3,10.3,0,0,1,2.46-.34c.39,0,.76-.09.83-.35a2,2,0,0,0-.21-1.15q-.5-1.41-1-3c-1.42-4.23-2.43-7.7-2.26-7.75s1.46,3.32,2.88,7.55l1,3a2.2,2.2,0,0,1,.14,1.51.92.92,0,0,1-.65.54,2.75,2.75,0,0,1-.66.07A9.48,9.48,0,0,1,53.48,126.16Z" fill="#263238"/><path d="M49,127c.25,0,.19,1.63,1.54,2.84s3.1,1.11,3.1,1.34-.4.3-1.13.29a4.07,4.07,0,0,1-2.6-1,3.56,3.56,0,0,1-1.18-2.38C48.7,127.41,48.9,127,49,127Z" fill="#263238"/><path d="M49.23,109.21c-.17.41-1.66.15-3.44.3s-3.22.57-3.44.19c-.1-.18.17-.55.76-.93a5.83,5.83,0,0,1,2.58-.79,5.9,5.9,0,0,1,2.66.42C49,108.69,49.3,109,49.23,109.21Z" fill="#263238"/><path d="M62.88,109.33c-.28.33-1.3-.07-2.55-.13s-2.31.14-2.54-.23c-.1-.18.08-.51.55-.82a3.58,3.58,0,0,1,2.1-.48,3.5,3.5,0,0,1,2,.77C62.87,108.81,63,109.16,62.88,109.33Z" fill="#263238"/><path d="M32.32,119.31c-.17-.08-6.66-2.25-6.7,4.45s6.69,5.37,6.7,5.18S32.32,119.31,32.32,119.31Z" fill="#ffbe9d"/><path d="M30.29,126.39s-.11.08-.31.17a1.24,1.24,0,0,1-.88,0,2.9,2.9,0,0,1-1.31-2.6,3.83,3.83,0,0,1,.33-1.67,1.35,1.35,0,0,1,.89-.89.59.59,0,0,1,.69.32c.09.19,0,.32.08.33s.14-.11.09-.39a.75.75,0,0,0-.26-.42.88.88,0,0,0-.65-.17,1.63,1.63,0,0,0-1.22,1,3.89,3.89,0,0,0-.42,1.86A3,3,0,0,0,29,126.88a1.23,1.23,0,0,0,1.07-.17C30.28,126.55,30.32,126.4,30.29,126.39Z" fill="#eb996e"/><path d="M61.2,99.27c1.08-.6-2.18-4.11-4.85-5.31-4-1.83-10.19-2.94-13.9-1.88C38,93.35,34.26,95.59,32,99.66a26.45,26.45,0,0,0-2.93,13.47,8,8,0,0,0,.95,4.1c.94,1.48,2.74,2.41,2.66,4.45a2.83,2.83,0,0,0,.7,2c1.23,1.3,2.73.07,3.42-1.16,1.46-2.63,1.62-5.76,1.75-8.77a19.5,19.5,0,0,0-.44-6.38c-.33-1.11-.85-2.17-1.12-3.3a4,4,0,0,1,.47-3.35,3.85,3.85,0,0,1,.54-.55A7,7,0,0,1,45,98.89c3.77,1.33,10.23,3.31,11.91,2a10.25,10.25,0,0,0,3-3Z" fill="#263238"/><path d="M42.24,85.15c-.48,0-12,2.24-15.08,10.62s-2.38,11-2.38,11a5.59,5.59,0,0,0-1.23,1c-.49.54.11,3.24,1.61,3,11.29-4.55,24.47-4.61,39.11-3.66l11.24.24c3.13.47,4.26-.33,3-1.16-1-.64-9.8-4.52-9.8-4.52L67,100.32l-4.42-6.59s.6-.87-.51-1.65S51.57,84.17,42.24,85.15Z" fill="#ff725e"/><path d="M67,100.32h-.44l-1.25-.07c-1.08-.09-2.66-.12-4.61-.15a86.64,86.64,0,0,0-15.12,1.36A134.9,134.9,0,0,0,30.76,105c-1.87.55-3.38,1-4.42,1.34l-1.2.37-.42.11.41-.15,1.19-.4c1-.34,2.53-.83,4.4-1.39a123.88,123.88,0,0,1,14.79-3.62A83.34,83.34,0,0,1,60.67,100C64.57,100,67,100.32,67,100.32Z" fill="#263238"/><g opacity="0.3"><path d="M31.67,89.8S44,88.23,49.41,91.05l-.62-.34,5.11,2.46a3.27,3.27,0,0,0,2.74.41,24.44,24.44,0,0,0-7.76-4.49C43.8,87.18,35.68,86.16,31.67,89.8Z"/></g><path d="M31.49,89.86a8.38,8.38,0,0,1,1.12-.69A15.76,15.76,0,0,1,36,87.88a17.85,17.85,0,0,1,5.28-.58,15.32,15.32,0,0,1,6.32,1.46,25.7,25.7,0,0,1,2.92,1.7c.91.61,1.81,1.14,2.62,1.74a15.82,15.82,0,0,0,2.33,1.59,5.29,5.29,0,0,0,2.35.56c3,.14,4.89-.42,4.76-.62a.45.45,0,0,1-.25.23,3.46,3.46,0,0,1-.93.28,15.93,15.93,0,0,1-3.58.24,5.48,5.48,0,0,1-2.42-.55A16.56,16.56,0,0,1,53,92.34c-.81-.58-1.71-1.12-2.62-1.72a26.24,26.24,0,0,0-2.9-1.69,15.26,15.26,0,0,0-6.25-1.46A18.44,18.44,0,0,0,36,88a15.73,15.73,0,0,0-3.34,1.23c-.38.19-.67.34-.86.46Z" fill="#263238"/><g opacity="0.3"><path d="M26,99.28a27.77,27.77,0,0,0,6.09-.86c2.35-.43,4.66-.76,7-1.3,1.77-.41,3.84-.76,5-2a2.56,2.56,0,0,1-.86,2.35A12.2,12.2,0,0,1,39.42,99a64.45,64.45,0,0,1-14,2.22,14.81,14.81,0,0,1,.55-2"/></g><path d="M27.55,94.86c-1.42.56-2.29.93-2.37,2.12-.06,1,.1,2.2,1.06,2.41a2.48,2.48,0,0,0,.9,0L42.43,96.8a2.23,2.23,0,0,0,1.42-.59,1.54,1.54,0,0,0-.46-2.11,4.24,4.24,0,0,0-2.31-.59,50.18,50.18,0,0,0-13.53,1.35" fill="#ff725e"/><path d="M43.61,96.42a1.58,1.58,0,0,0,.43-.65,1.89,1.89,0,0,0-.56-1.93,4.67,4.67,0,0,0-3-.78c-1.22,0-2.57.06-4,.15a39.72,39.72,0,0,0-7.13,1c-.9.22-1.61.44-2.1.59l-.57.19c-.13,0-.2.06-.2,0s.06,0,.19-.09l.55-.21c.49-.18,1.2-.42,2.1-.66A37.4,37.4,0,0,1,36.47,93c1.41-.09,2.75-.13,4-.14a4.81,4.81,0,0,1,3.12.86,2,2,0,0,1,.54,2.06,1.34,1.34,0,0,1-.33.5C43.67,96.39,43.61,96.43,43.61,96.42Z" fill="#263238"/><polygon points="63.93 95.8 54.38 95.28 55.1 98 65.49 98.13 63.93 95.8" fill="#fff"/><path d="M49.19,103.79c0-.06,4.28-.52,9.56-1s9.57-.9,9.58-.85-4.28.52-9.56,1S49.2,103.84,49.19,103.79Z" fill="#263238"/><rect x="7.62" y="238.73" width="73.47" height="12.27" fill="#455a64"/><path d="M9.86,244.66h34a0,0,0,0,1,0,0v34.48A6.92,6.92,0,0,1,37,286.06H16.78a6.92,6.92,0,0,1-6.92-6.92V244.66A0,0,0,0,1,9.86,244.66Z" fill="#455a64"/><path d="M43.88,255.86a15.9,15.9,0,0,1-.13-2.13A24.86,24.86,0,0,0,43,248a3.64,3.64,0,0,0-.88-1.58,8.81,8.81,0,0,0-1.6-1.26,10.33,10.33,0,0,0-4.26-1.35c-3.19-.23-6.78-.13-10.52-.09s-7.35-.31-10.48.38a6.94,6.94,0,0,0-3.91,2,6.76,6.76,0,0,0-1.23,3.63c-.23,2.42-.18,4.42-.23,5.79,0,.64,0,1.16-.05,1.58a1.84,1.84,0,0,1-.05.55,1.84,1.84,0,0,1,0-.55c0-.42,0-.94-.05-1.58,0-1.37-.12-3.36.06-5.83A7.09,7.09,0,0,1,11,245.83a7.28,7.28,0,0,1,4.14-2.17,23,23,0,0,1,5.11-.44c1.77,0,3.59,0,5.46,0,3.75,0,7.31-.13,10.58.14a10.54,10.54,0,0,1,4.44,1.45,9.63,9.63,0,0,1,1.66,1.34,4.09,4.09,0,0,1,.94,1.76,22.52,22.52,0,0,1,.61,5.81c0,.64,0,1.16,0,1.58A2.15,2.15,0,0,1,43.88,255.86Z" fill="#263238"/><path d="M43.64,259.5c0,.14-7.49.26-16.71.26s-16.71-.12-16.71-.26,7.48-.26,16.71-.26S43.64,259.35,43.64,259.5Z" fill="#263238"/><path d="M19.6,286.44c-.14,0-.26-6.05-.26-13.51s.12-13.51.26-13.51.26,6.05.26,13.51S19.75,286.44,19.6,286.44Z" fill="#263238"/><path d="M34.94,286.32c-.15,0-.26-6-.26-13.39s.11-13.39.26-13.39.26,6,.26,13.39S35.08,286.32,34.94,286.32Z" fill="#263238"/><path d="M81.09,238.73l4.23,5.93s3.79,35.33,2.11,37-7.37,1.63-7.37,1.63l-1.55-42.32Z" fill="#455a64"/><path d="M67.78,250.5a38,38,0,0,1-.16-11.92,57.52,57.52,0,0,1,.13,6A56.72,56.72,0,0,1,67.78,250.5Z" fill="#263238"/><path d="M81.16,238.92a7.14,7.14,0,0,1,.46,2,47.36,47.36,0,0,1,.5,4.88,10,10,0,0,1-.11,2.75,3.54,3.54,0,0,1-1.15,2,2.38,2.38,0,0,1-1.43.58c-.37,0-.56-.09-.55-.12a2.85,2.85,0,0,0,1.74-.74,3.29,3.29,0,0,0,.92-1.81,10.72,10.72,0,0,0,.06-2.62C81.4,242,81,238.94,81.16,238.92Z" fill="#263238"/><path d="M418.45,244.51l4.68-4.42a20.57,20.57,0,1,0-7-2.41h0Z" fill="#fff"/><path d="M418.45,244.51l-.14-.46-.43-1.32c-.38-1.16-.93-2.86-1.66-5.07l-.07.08h0a.07.07,0,0,0,.08,0,.09.09,0,0,0,0-.08,20.31,20.31,0,0,1-8.74-9.81,22.88,22.88,0,0,1-1-3.22,20.21,20.21,0,0,1-.41-7.33,20.37,20.37,0,0,1,26.5-16.83,20.28,20.28,0,0,1,8.34,5.18,20.83,20.83,0,0,1,4.82,8,20.14,20.14,0,0,1,.77,8.8,20.38,20.38,0,0,1-7.56,13.34l-.69.54a5.61,5.61,0,0,1-.71.49l-1.43.88a28.29,28.29,0,0,1-2.9,1.31,20.49,20.49,0,0,1-10,1,0,0,0,0,0-.05,0l-3.44,3.3-.89.86-.31.31.3-.27.9-.83,3.53-3.28-.06,0a20.45,20.45,0,0,0,10.09-1,29.86,29.86,0,0,0,2.94-1.31l1.45-.88a7,7,0,0,0,.71-.5L439,236a20.56,20.56,0,0,0,5-5.66,20.8,20.8,0,0,0,2.73-7.82,20.37,20.37,0,0,0-.77-8.92,21,21,0,0,0-4.87-8.17,20.6,20.6,0,0,0-8.46-5.26,10.21,10.21,0,0,0-1.2-.34l-1.21-.3-1.23-.18a9.89,9.89,0,0,0-1.22-.13l-1.23-.06c-.41,0-.81,0-1.22,0s-.81,0-1.21.08l-1.2.18a20.25,20.25,0,0,0-8.62,3.55,20.65,20.65,0,0,0-8.49,14.25,20.4,20.4,0,0,0,.43,7.41,22.5,22.5,0,0,0,1.07,3.25,19.36,19.36,0,0,0,1.48,2.83,20.59,20.59,0,0,0,7.39,7l.05-.12h0a.06.06,0,0,0-.08,0v0l1.75,5.09q.3.84.45,1.29Z" fill="#263238"/><polygon points="415.55 219.45 418.63 216.68 424.01 222.01 433.78 212.9 436.34 215.98 423.29 227.63 415.55 219.45" fill="#263238"/></g></g></svg>