<svg id="flat" height="512" viewBox="0 0 512 512" width="512" xmlns="http://www.w3.org/2000/svg"><path d="m384 224-56-56-32 32 64 64h24z" fill="#4976f2"/><path d="m344 184v40l-21.18994 21.18994a64.20986 64.20986 0 0 1 -83.93006 5.97l-1.70007-1.28-21.17993 14.12006h-56l-35.56006-14.22.81006-4.03a63.8716 63.8716 0 0 1 11-25.09009l43.77-60.18991a39.99843 39.99843 0 0 1 32.35-16.47h75.05993a39.99389 39.99389 0 0 1 28.29 11.72z" fill="#548aff"/><path d="m368 24h32v432h-32z" fill="#ea964b"/><path d="m312 488 24-32h80l24 32z" fill="#db8638"/><path d="m216 264 73.5 73.5a63.96431 63.96431 0 0 1 17.87 34.73l12.63 75.77-40 16-16-80-80-64-26.49 52.98a64.08944 64.08944 0 0 1 -14.72 19.21l-62.79 55.81-48 16 72-112 20.43994-102.22z" fill="#718799"/><rect fill="#4976f2" height="56.471" rx="8" transform="matrix(.6 -.8 .8 .6 -100.518 264.844)" width="16.001" x="206.588" y="204.706"/><path d="m280 232a7.98143 7.98143 0 0 1 -4.91162-1.68555l-65.68512-51.08845a7.99979 7.99979 0 0 1 -1.40307-11.22628 7.99978 7.99978 0 0 1 11.22582-1.403l60.70416 47.21385 28.82542-23.06019a7.99979 7.99979 0 0 1 11.24424 1.24944l.0004.0005a7.99979 7.99979 0 0 1 -1.2494 11.24415l-33.75328 27.00262a7.987 7.987 0 0 1 -4.99755 1.75291z" fill="#4976f2"/><path d="m344 224 23.15542-11.57771a16 16 0 0 0 8.84458-14.31083v-30.11146h-40l-16 24z" fill="#ffceb6"/><path d="m32 464v24h80v-16l-32-24z" fill="#d1e4ff"/><path d="m268.68608 183.99989-12.68608-12.68641-18.34326 18.34375-11.31348-11.31446 24-24a8.00182 8.00182 0 0 1 11.31348 0l18.34326 18.34331a8.00011 8.00011 0 0 1 .00025 11.31363 8.00012 8.00012 0 0 1 -11.31417.00018z" fill="#4976f2"/><path d="m248 160h16v48h-16z" fill="#4976f2"/><path d="m388 272h-20a24 24 0 0 1 -24-24v-16h16v-9.52787a6.47213 6.47213 0 0 1 6.47213-6.47213 6.4722 6.4722 0 0 1 2.89442.68328l14.63345 7.31672h24v28a20 20 0 0 1 -20 20z" fill="#ffceb6"/><path d="m280 464v24h80v-16l-40-24z" fill="#d1e4ff"/><path d="m400 24 80 48-80 48z" fill="#ef5e3b"/><path d="m256 160a24 24 0 0 1 -24-24v-8l16-16h32v24a24 24 0 0 1 -24 24z" fill="#ffceb6"/><path d="m280 112 3.02944-3.02944a16.97054 16.97054 0 0 0 4.97056-12 16.97054 16.97054 0 0 0 -16.97055-16.97056h-15.02945a24 24 0 0 0 -24 24v24l16-16z" fill="#c47220"/></svg>