<svg id="Capa_1" enable-background="new 0 0 497 497" height="512" viewBox="0 0 497 497" width="512" xmlns="http://www.w3.org/2000/svg"><g><path d="m74.802 38.893h347.396v396.684h-347.396z" fill="#0067c5"/><path d="m382.712 38.893h39.483v396.684h-39.483z" fill="#0055a3"/><path d="m125.885 441.053 16.92-79.682c2.06-9.699 8.809-17.739 18.005-21.447l30.059-12.12c3.542-1.428 7.325-2.162 11.143-2.162h109.034v-13.568c0-7.833-6.077-14.322-13.893-14.836l-105.798-6.95c-2.126-.148-4.213-.645-6.177-1.472l-8.22-3.46c-7.189-3.026-11.863-10.066-11.863-17.865v-68.212c0-2.344.698-4.635 2.005-6.581l28.653-42.664c3.524-5.247 7.961-9.82 13.1-13.5l39.648-28.394v-32.15l-55.329 27.62c-3.876 1.935-7.499 4.339-10.788 7.158l-37.012 31.724c-2.139 1.834-4.864 2.842-7.682 2.842-6.519 0-11.804-5.285-11.804-11.804v-79.239l-19.117-9.77-18.364 9.77-13.6 179.864 13.599 203.069z" fill="#5da0e2"/><g fill="#528fd8"><path d="m111.806 145.333c2.818 0 5.543-1.008 7.682-2.842l6.825-5.85c-.271-.993-.428-2.033-.428-3.112v-79.238l-12.728-6.505-13.156 6.505v79.237c0 6.52 5.285 11.805 11.805 11.805z"/><path d="m164.984 327.804-30.059 12.12c-9.196 3.708-15.945 11.747-18.005 21.447l-16.37 77.094 25.334 2.589 16.92-79.682c2.06-9.699 8.809-17.739 18.005-21.447l30.059-12.12c3.542-1.428 7.325-2.162 11.143-2.162h-25.883c-3.819-.001-7.602.733-11.144 2.161z"/><path d="m297.153 297.238-105.797-6.95c-2.126-.147-4.213-.645-6.177-1.472l-8.219-3.46c-7.189-3.026-11.864-10.066-11.864-17.866v-68.212c0-2.344.698-4.635 2.005-6.581l28.653-42.664c3.524-5.247 7.961-9.82 13.1-13.5l39.648-28.394v-32.15l-25.885 12.921v5.278c0 8.757-4.223 16.976-11.343 22.074l-28.305 20.271c-5.139 3.68-9.576 8.253-13.1 13.5l-28.653 42.664c-1.307 1.946-2.005 4.237-2.005 6.581v68.213c0 7.799 4.675 14.839 11.863 17.865l8.22 3.46c1.964.827 4.051 1.324 6.177 1.472l105.798 6.95c7.816.513 13.893 7.003 13.893 14.835v13.568h25.883v-13.568c0-7.832-6.077-14.321-13.892-14.835z"/></g><path d="m382.71 219.485h63.36v29.34h-63.36z" fill="#91deb6"/><path d="m273.359 248.825h172.711v-29.34h-172.711c-4.349 0-7.874-3.525-7.874-7.874v-172.718h-29.345v172.718c0 4.349-3.525 7.874-7.874 7.874h-172.716v29.34h172.716c4.349 0 7.874 3.525 7.874 7.874v159.007c0 4.118-3.338 7.456-7.456 7.456h-153.882v35.782h347.396v-35.782h-149.257c-4.118 0-7.456-3.338-7.456-7.456v-159.007c-.001-4.349 3.525-7.874 7.874-7.874z" fill="#b0e7c9"/><path d="m382.712 423.162h39.483v35.782h-39.483z" fill="#91deb6"/><path d="m26.405 54.291-26.368 303.894c-.025.285-.037.572-.037.859v116.28c0 5.492 4.452 9.944 9.944 9.944h68.516c5.492 0 9.944-4.452 9.944-9.944v-421.033l-32.854-15.398z" fill="#aca6d6"/><g><path d="m44.202 391.029c4.142 0 7.5-3.357 7.5-7.5v-57.255l12.995-271.624c.198-4.138-2.996-7.652-7.133-7.85-4.133-.225-7.652 2.995-7.85 7.133l-13.004 271.804c-.005.119-.008.239-.008.358v57.434c0 4.143 3.358 7.5 7.5 7.5z" fill="#978ecb"/></g><path d="m62.521 54.291v421.032c0 5.492-4.452 9.944-9.944 9.944h25.883c5.492 0 9.944-4.452 9.944-9.944v-421.032l-16.006-7.502z" fill="#978ecb"/><path d="m470.595 54.291 26.368 303.893c.025.286.037.573.037.86v116.28c0 5.492-4.452 9.944-9.944 9.944h-68.516c-5.492 0-9.944-4.452-9.944-9.944v-421.033l31.539-15.399z" fill="#aca6d6"/><path d="m496.963 358.185-26.368-303.894-15.071-7.619-10.813 7.619 26.368 303.893c.025.286.037.573.037.86v116.28c0 5.492-4.452 9.944-9.944 9.944h25.883c5.492 0 9.944-4.452 9.944-9.944v-116.28c.001-.287-.011-.574-.036-.859z" fill="#978ecb"/><path d="m373.845 140.703c-23.186 8.324-48.729-3.724-57.053-26.91-1.535-4.277-2.374-8.633-2.577-12.947-.186-3.946-5.071-5.64-7.786-2.77-8.292 8.765-13.068 20.888-12.06 34.122 1.689 22.173 19.866 39.886 42.072 41.049 19.255 1.009 36.011-10.204 43.223-26.571 1.607-3.648-1.974-7.363-5.723-6.007-.032.011-.064.023-.096.034z" fill="#fef6ad"/><g fill="#fef056"><path d="m298.603 127.271c11.206 13.454 29.737 19.467 47.257 14.134-13.04-3.95-24.11-13.81-29.07-27.61-1.53-4.28-2.37-8.63-2.58-12.95-.18-3.94-5.07-5.64-7.78-2.77-6.08 6.43-10.27 14.66-11.67 23.81-.348 2.229-.51 4.517-.508 6.842.163-2.175 2.911-3.184 4.351-1.456z"/><path d="m373.94 140.665c-.03.02-.06.03-.1.04-6.65 2.39-13.49 3.1-20.06 2.34.49 1.07.56 2.35 0 3.63-4.312 9.794-18.064 19.058-29.763 24.092.625.222 1.255.434 1.893.628 3.37 1.03 6.9 1.66 10.53 1.85 19.26 1.01 36.01-10.2 43.22-26.57 1.61-3.65-1.97-7.36-5.72-6.01z"/></g><path d="m362.382 314.734-56.566-4.542c-4.128-.339-7.746 2.744-8.079 6.873-.333 4.128 2.744 7.745 6.873 8.078l27.292 2.182 11.044 22.014c1.316 2.623 3.962 4.139 6.709 4.139 1.13 0 2.278-.257 3.357-.798 3.702-1.857 5.198-6.365 3.34-10.067l-6.962-13.877 11.784.95c.205.017.409.024.611.024 3.869 0 7.151-2.974 7.467-6.897.336-4.129-2.741-7.746-6.87-8.079z" fill="#528fd8"/><g><path d="m452.798 391.029c-4.142 0-7.5-3.357-7.5-7.5v-57.255l-12.995-271.624c-.198-4.138 2.996-7.652 7.133-7.85 4.133-.225 7.652 2.995 7.85 7.133l13.004 271.804c.005.119.008.239.008.358v57.434c0 4.143-3.358 7.5-7.5 7.5z" fill="#978ecb"/></g><g fill="#fef6ad"><circle cx="369.676" cy="91.106" r="8.497"/><circle cx="302.735" cy="388.775" r="8.497"/><circle cx="361.176" cy="282.453" r="8.497"/><circle cx="155.28" cy="82.607" r="8.497"/></g><path d="m460.34 11.732h-423.68c-5.663 0-10.254 4.591-10.254 10.254v32.305h444.189v-32.305c0-5.663-4.591-10.254-10.255-10.254z" fill="#91deb6"/><path d="m460.34 11.732h-25.883c5.663 0 10.254 4.591 10.254 10.254v32.305h25.883v-32.305c.001-5.663-4.59-10.254-10.254-10.254z" fill="#6ed5a1"/></g></svg>