<svg xmlns="http://www.w3.org/2000/svg" viewBox="0 0 420.81 390.09"><g id="Layer_2" data-name="Layer 2"><g id="Rocket"><path d="M198.81,390.09H5.71A5.71,5.71,0,0,1,0,384.39V5.71A5.71,5.71,0,0,1,5.71,0h193.1a5.71,5.71,0,0,1,5.7,5.71V384.39A5.71,5.71,0,0,1,198.81,390.09ZM5.71.25A5.47,5.47,0,0,0,.25,5.71V384.39a5.46,5.46,0,0,0,5.46,5.45h193.1a5.45,5.45,0,0,0,5.45-5.45V5.71A5.46,5.46,0,0,0,198.81.25Z" fill="#ebebeb"/><path d="M415.1,390.09H222a5.71,5.71,0,0,1-5.7-5.7V5.71A5.71,5.71,0,0,1,222,0H415.1a5.71,5.71,0,0,1,5.71,5.71V384.39A5.71,5.71,0,0,1,415.1,390.09ZM222,.25a5.46,5.46,0,0,0-5.45,5.46V384.39a5.46,5.46,0,0,0,5.45,5.45H415.1a5.46,5.46,0,0,0,5.46-5.45V5.71A5.47,5.47,0,0,0,415.1.25Z" fill="#ebebeb"/><polygon points="73.46 113.3 75.08 116.57 78.69 117.1 76.08 119.65 76.69 123.25 73.46 121.55 70.23 123.25 70.84 119.65 68.23 117.1 71.84 116.57 73.46 113.3" fill="#ebebeb"/><polygon points="397.11 267.53 398.73 270.81 402.34 271.33 399.73 273.88 400.34 277.48 397.11 275.78 393.88 277.48 394.49 273.88 391.88 271.33 395.49 270.81 397.11 267.53" fill="#f5f5f5"/><polygon points="333 362.61 334.62 365.89 338.24 366.42 335.62 368.96 336.24 372.57 333 370.87 329.77 372.57 330.39 368.96 327.77 366.42 331.39 365.89 333 362.61" fill="#f5f5f5"/><path d="M186.35,55.2l.6,1.22,1.34.19a.41.41,0,0,1,.23.7l-1,.95.23,1.33a.41.41,0,0,1-.6.43l-1.2-.63-1.2.63a.4.4,0,0,1-.59-.43l.23-1.33-1-.95a.41.41,0,0,1,.23-.7l1.34-.19.6-1.22A.41.41,0,0,1,186.35,55.2Z" fill="#ebebeb"/><path d="M21.18,347.05l.6,1.22,1.34.2a.4.4,0,0,1,.23.69l-1,.95.23,1.34a.41.41,0,0,1-.59.43l-1.2-.63-1.2.63a.42.42,0,0,1-.6-.43l.23-1.34-1-.95a.4.4,0,0,1,.23-.69l1.34-.2.6-1.22A.41.41,0,0,1,21.18,347.05Z" fill="#f5f5f5"/><path d="M48.16,42.35l.6,1.21,1.34.2a.41.41,0,0,1,.23.7l-1,.94.23,1.34a.41.41,0,0,1-.6.43l-1.2-.63-1.2.63a.41.41,0,0,1-.59-.43l.23-1.34-1-.94a.41.41,0,0,1,.23-.7l1.34-.2.6-1.21A.4.4,0,0,1,48.16,42.35Z" fill="#ebebeb"/><path d="M46.54,283.37A1.33,1.33,0,1,1,45.21,282,1.33,1.33,0,0,1,46.54,283.37Z" fill="#ebebeb"/><path d="M236.08,116.94a1.33,1.33,0,1,1-1.33-1.33A1.34,1.34,0,0,1,236.08,116.94Z" fill="#ebebeb"/><path d="M167.11,43.45a1.33,1.33,0,1,1-1.32-1.33A1.33,1.33,0,0,1,167.11,43.45Z" fill="#f5f5f5"/><circle cx="167.55" cy="360.42" r="7.35" transform="translate(-78.33 48.14) rotate(-13.28)" fill="#f0f0f0"/><path d="M165,356.14a7.09,7.09,0,0,0-4.19,1.36,7.34,7.34,0,0,0,10.5,9.23s0,0,0,0A7.17,7.17,0,0,0,165,356.14Z" fill="#e6e6e6"/><path d="M108.09,232.69H47.23V205.22l60.86-72.34H137.2v73.9h15.09v25.91H137.2v22.47H108.09Zm0-25.91V168.94L75.93,206.78Z" fill="#2196f3"/><path d="M162.71,194.56q0-34.29,12.34-48t37.6-13.7q12.15,0,19.93,3a36.91,36.91,0,0,1,12.72,7.8,41.55,41.55,0,0,1,7.75,10.08,52.91,52.91,0,0,1,4.55,12.35A115.24,115.24,0,0,1,261,194.15q0,32.72-11.07,47.89t-38.14,15.17q-15.17,0-24.52-4.83a39.78,39.78,0,0,1-15.34-14.19q-4.35-6.65-6.76-18.17A123.63,123.63,0,0,1,162.71,194.56Zm33.13.08q0,23,4.06,31.37t11.77,8.4a12.33,12.33,0,0,0,8.82-3.56q3.72-3.57,5.49-11.28t1.76-24q0-24-4.05-32.19t-12.18-8.24q-8.3,0-12,8.4T195.84,194.64Z" fill="#2196f3"/><path d="M332.15,232.69H271.29V205.22l60.86-72.34h29.11v73.9h15.1v25.91h-15.1v22.47H332.15Zm0-25.91V168.94L300,206.78Z" fill="#2196f3"/><g opacity="0.3"><path d="M161.36,90.67a1.87,1.87,0,1,1-1.87-1.87A1.87,1.87,0,0,1,161.36,90.67Z" fill="#407bff"/><circle cx="33.37" cy="161.18" r="1.32" fill="#407bff"/><circle cx="251.46" cy="353.38" r="1.89" fill="#407bff"/><circle cx="296.9" cy="277.05" r="1.32" fill="#407bff"/><path d="M384.58,40.67a1.33,1.33,0,0,1-2.65,0,1.33,1.33,0,1,1,2.65,0Z" fill="#407bff"/><path d="M133.16,14a1.33,1.33,0,1,1-1.32-1.32A1.32,1.32,0,0,1,133.16,14Z" fill="#407bff"/><circle cx="238.1" cy="81.99" r="1.32" fill="#407bff"/></g><circle cx="101.64" cy="61.41" r="21.91" fill="#407bff"/><circle cx="101.64" cy="61.41" r="21.91" fill="#fff" opacity="0.7"/><path d="M94.09,44.88a21.81,21.81,0,0,0-8.64,1.77,21.92,21.92,0,0,0,24.87,34.88h0A21.92,21.92,0,0,0,94.09,44.88Z" fill="#2196f3" opacity="0.2"/><path d="M91.91,50.67a2,2,0,1,1-2-2A2,2,0,0,1,91.91,50.67Z" fill="#407bff" opacity="0.2"/><path d="M115.47,48.67a2,2,0,1,1-2-2A2,2,0,0,1,115.47,48.67Z" fill="#407bff" opacity="0.2"/><path d="M111.46,63a3.28,3.28,0,1,1-3.27-3.28A3.27,3.27,0,0,1,111.46,63Z" fill="#407bff" opacity="0.2"/><path d="M101.05,72.29a4.38,4.38,0,1,1-4.38-4.38A4.38,4.38,0,0,1,101.05,72.29Z" fill="#407bff" opacity="0.2"/><ellipse cx="342.6" cy="317.89" rx="19.23" ry="15.82" fill="#407bff"/><ellipse cx="342.6" cy="317.89" rx="19.23" ry="15.82" fill="#fff" opacity="0.3"/><path d="M354.74,305.62a22.72,22.72,0,0,0-5.54-.67C338.58,305,330,312,330,320.77c0,5,2.76,9.37,7.09,12.27a22.72,22.72,0,0,0,5.54.67c10.62,0,19.23-7.09,19.23-15.82C361.83,312.94,359.07,308.52,354.74,305.62Z" fill="#407bff" opacity="0.4"/><path d="M324.24,322.58C303.7,330.53,319,336.65,348,328.1c26.78-7.92,37-17.91,13.05-14.81C362.23,317.49,328.69,328.24,324.24,322.58Z" fill="#2196f3"/><path d="M354.5,132.88c-26.89,18.17-61.7,42.13-71.31,99.81h-2.05c9.35-57,42.89-81.57,69.79-99.81Z" opacity="0.2"/><path d="M215.42,313.31c-17,0-33.8-7.66-42-20.18-5.05-7.74-10.92-23.95,6.55-45.58l1.56,1.26c-12.36,15.3-14.65,30.65-6.44,43.22,10,15.31,33.6,23,53.73,17.53C249.47,304,262,286,263.2,260.33c4.14-87.8,50.79-114.85,84.85-134.6,21.16-12.27,36.45-21.14,33.09-39.84A7.75,7.75,0,0,0,378,80.41c-4.35-2.87-12.85-.89-22.7,1.41-19.3,4.49-45.74,10.66-61.49-16.14l1.72-1c15,25.52,39.58,19.8,59.32,15.2,10.29-2.4,19.18-4.47,24.25-1.13,2.14,1.41,3.46,3.63,4,6.8,3.61,20.08-13,29.72-34.06,41.92-33.66,19.52-79.76,46.25-83.85,133C264,287,250.89,305.64,229.37,311.49A53,53,0,0,1,215.42,313.31Z" fill="#407bff"/><path d="M215.42,313.31c-17,0-33.8-7.66-42-20.18-5.05-7.74-10.92-23.95,6.55-45.58l1.56,1.26c-12.36,15.3-14.65,30.65-6.44,43.22,10,15.31,33.6,23,53.73,17.53C249.47,304,262,286,263.2,260.33c4.14-87.8,50.79-114.85,84.85-134.6,21.16-12.27,36.45-21.14,33.09-39.84A7.75,7.75,0,0,0,378,80.41c-4.35-2.87-12.85-.89-22.7,1.41-19.3,4.49-45.74,10.66-61.49-16.14l1.72-1c15,25.52,39.58,19.8,59.32,15.2,10.29-2.4,19.18-4.47,24.25-1.13,2.14,1.41,3.46,3.63,4,6.8,3.61,20.08-13,29.72-34.06,41.92-33.66,19.52-79.76,46.25-83.85,133C264,287,250.89,305.64,229.37,311.49A53,53,0,0,1,215.42,313.31Z" fill="#fff" opacity="0.2"/><path d="M273.16,42a46.08,46.08,0,0,1,13.59,2.13s11,18.77,12.3,23.07c-.46,4.24-7.62,11.19-7.62,11.19Z" fill="#407bff"/><path d="M273.16,42a46.08,46.08,0,0,1,13.59,2.13s11,18.77,12.3,23.07c-.46,4.24-7.62,11.19-7.62,11.19Z" fill="#fff" opacity="0.3"/><path d="M305.75,133.18a140.67,140.67,0,0,1-11.56-16.39c-.84-1.44-1.64-2.92-2.39-4.41-.43-.85-.85-1.71-1.25-2.57a10.5,10.5,0,0,1-1.2-2.68c-1.2-12.67,3.14-22-1-32.17l-16.47,6.43s1.4,18.13,4.6,29c2,6.72,6.47,12.55,10.8,17.93,1.36,1.69,2.66,3.41,4,5.1s2.71,3.07,4,4.66c1.94,2.41,2.59,4.71,1.11,7.56-.08.15-.16.3-.25.45-.42.74,1.55,1.58,2.79,0,2-2.58,1.72-2.42,3.46-4.62,1.05-1.34,2.27-2.78,3.32-4A3.39,3.39,0,0,0,305.75,133.18Z" fill="#407bff"/><path d="M305.75,133.18a140.67,140.67,0,0,1-11.56-16.39c-.84-1.44-1.64-2.92-2.39-4.41-.43-.85-.85-1.71-1.25-2.57a10.5,10.5,0,0,1-1.2-2.68c-1.2-12.67,3.14-22-1-32.17l-16.47,6.43s1.4,18.13,4.6,29c2,6.72,6.47,12.55,10.8,17.93,1.36,1.69,2.66,3.41,4,5.1s2.71,3.07,4,4.66c1.94,2.41,2.59,4.71,1.11,7.56-.08.15-.16.3-.25.45-.42.74,1.55,1.58,2.79,0,2-2.58,1.72-2.42,3.46-4.62,1.05-1.34,2.27-2.78,3.32-4A3.39,3.39,0,0,0,305.75,133.18Z" fill="#fff" opacity="0.7"/><path d="M301.72,128a54.72,54.72,0,0,1-8.67,7.52l1.29,1.46a44.24,44.24,0,0,0,8.5-7.51C302.46,129,302.09,128.46,301.72,128Z" fill="#407bff" opacity="0.3"/><path d="M305.74,133.18a1.34,1.34,0,0,1-.11-.14,5,5,0,0,0-1.27,3.17,4.72,4.72,0,0,0,.38,2.35l.95-1.13A3.37,3.37,0,0,0,305.74,133.18Z" fill="#407bff" opacity="0.3"/><path d="M269.25,54a36.3,36.3,0,0,1-6.38,7.19,23.19,23.19,0,0,1-4.41,3,19.13,19.13,0,0,1-2.59,1.09l-.67.21-.22.07-.48.13a5.81,5.81,0,0,1-.87.14,7.49,7.49,0,0,1-2.51-.24,11.87,11.87,0,0,1-2.94-1.26A25.25,25.25,0,0,1,246,62.9a40.15,40.15,0,0,1-3.57-3,53.16,53.16,0,0,1-6-6.74,2.51,2.51,0,0,1,3.35-3.62l.07,0C242.24,51,244.63,52.61,247,54c1.17.69,2.32,1.39,3.45,1.93a15,15,0,0,0,1.58.71,3.06,3.06,0,0,0,1.08.27c.05,0,0-.07-.38-.06a2.8,2.8,0,0,0-.34,0l-.22,0c-.07,0,0,0,0,0l.34-.17a14.23,14.23,0,0,0,1.28-.79,19.22,19.22,0,0,0,2.51-2.12,66.74,66.74,0,0,0,4.9-5.79l0,0A5,5,0,0,1,269.25,54Z" fill="#407bff"/><path d="M269.25,54a36.3,36.3,0,0,1-6.38,7.19,23.19,23.19,0,0,1-4.41,3,19.13,19.13,0,0,1-2.59,1.09l-.67.21-.22.07-.48.13a5.81,5.81,0,0,1-.87.14,7.49,7.49,0,0,1-2.51-.24,11.87,11.87,0,0,1-2.94-1.26A25.25,25.25,0,0,1,246,62.9a40.15,40.15,0,0,1-3.57-3,53.16,53.16,0,0,1-6-6.74,2.51,2.51,0,0,1,3.35-3.62l.07,0C242.24,51,244.63,52.61,247,54c1.17.69,2.32,1.39,3.45,1.93a15,15,0,0,0,1.58.71,3.06,3.06,0,0,0,1.08.27c.05,0,0-.07-.38-.06a2.8,2.8,0,0,0-.34,0l-.22,0c-.07,0,0,0,0,0l.34-.17a14.23,14.23,0,0,0,1.28-.79,19.22,19.22,0,0,0,2.51-2.12,66.74,66.74,0,0,0,4.9-5.79l0,0A5,5,0,0,1,269.25,54Z" fill="#fff" opacity="0.7"/><path d="M232.69,47.46l1.17,2s.9,2.62,2.69,3.1L241.4,51l-.24-.41h0c-.63-.95-.56-2.77-.34-4.29s-.57-1.58-1.15-1.2a3.76,3.76,0,0,0-.85,1.66,7.68,7.68,0,0,0-.78-.93l-1.48-1.48a1.71,1.71,0,0,0-2.34-.07L233,45.31A1.71,1.71,0,0,0,232.69,47.46Z" fill="#407bff"/><path d="M232.69,47.46l1.17,2s.9,2.62,2.69,3.1L241.4,51l-.24-.41h0c-.63-.95-.56-2.77-.34-4.29s-.57-1.58-1.15-1.2a3.76,3.76,0,0,0-.85,1.66,7.68,7.68,0,0,0-.78-.93l-1.48-1.48a1.71,1.71,0,0,0-2.34-.07L233,45.31A1.71,1.71,0,0,0,232.69,47.46Z" fill="#fff" opacity="0.7"/><path d="M278.08,40.27a59.21,59.21,0,0,0-15.35,6.47,4.3,4.3,0,0,0-1.93,4.52c1.92,9.44,6.31,22.09,11.05,30.13L294,72.25c.16-3.9-5.21-16.52-10.68-28.72C282.3,41.34,280.42,39.7,278.08,40.27Z" fill="#407bff"/><path d="M278.08,40.27a59.21,59.21,0,0,0-15.35,6.47,4.3,4.3,0,0,0-1.93,4.52c1.92,9.44,6.31,22.09,11.05,30.13L294,72.25c.16-3.9-5.21-16.52-10.68-28.72C282.3,41.34,280.42,39.7,278.08,40.27Z" fill="#fff" opacity="0.8"/><path d="M286.7,51.26l-4.39-1.47c1,2.57,4.54,5.82,7,7.73C288.52,55.52,287.63,53.42,286.7,51.26Z" fill="#407bff" opacity="0.3"/><path d="M276.62,30.37c-1.82-3.48-5.77-5.24-10.51-4.84-4,.33-7.55,4.42-7.13,6.62s3.79,3.14,4.4,3.91l-2.77,2a3,3,0,0,0-.6,4.29c1.17,1.48,2.7,3,3.6,4.12,7.66-.2,13.33-3.12,15.37-5.94C278.25,37,278.44,33.83,276.62,30.37Z" fill="#407bff"/><path d="M276.62,30.37c-1.82-3.48-5.77-5.24-10.51-4.84-4,.33-7.55,4.42-7.13,6.62s3.79,3.14,4.4,3.91l-2.77,2a3,3,0,0,0-.6,4.29c1.17,1.48,2.7,3,3.6,4.12,7.66-.2,13.33-3.12,15.37-5.94C278.25,37,278.44,33.83,276.62,30.37Z" fill="#fff" opacity="0.8"/><path d="M272.87,32.52a7.58,7.58,0,1,1-9.81-4.29A7.57,7.57,0,0,1,272.87,32.52Z" fill="#263238"/><path d="M337.79,122.64c-.11-3.28-.25-3-.34-5.76-.06-1.7-.07-3.59-.08-5.22a3.37,3.37,0,0,0-2.7-3.28c-1.33-.27-2.66-.52-4-.81-1.72-.36-3.43-.76-5.13-1.25-1.31-.38-2.61-.81-3.9-1.27s-2.74-1-4.09-1.62c-1.57-.68-3.13-1.4-4.68-2.14q-2.58-1.25-5.14-2.55C301.17,87.85,301,80.67,294,72.25L278.8,79.1s11.14,19.77,18.73,28.15c4.37,4.82,11.22,7,17.33,8.57,4.4,1.14,8.87,2,13.35,2.83,1.74.32,3.63.45,5.13,1.49a5.65,5.65,0,0,1,2.13,3.45,8.45,8.45,0,0,1,.19.84C335.82,125.26,337.86,124.63,337.79,122.64Z" fill="#407bff"/><path d="M337.79,122.64c-.11-3.28-.25-3-.34-5.76-.06-1.7-.07-3.59-.08-5.22a3.37,3.37,0,0,0-2.7-3.28c-1.33-.27-2.66-.52-4-.81-1.72-.36-3.43-.76-5.13-1.25-1.31-.38-2.61-.81-3.9-1.27s-2.74-1-4.09-1.62c-1.57-.68-3.13-1.4-4.68-2.14q-2.58-1.25-5.14-2.55C301.17,87.85,301,80.67,294,72.25L278.8,79.1s11.14,19.77,18.73,28.15c4.37,4.82,11.22,7,17.33,8.57,4.4,1.14,8.87,2,13.35,2.83,1.74.32,3.63.45,5.13,1.49a5.65,5.65,0,0,1,2.13,3.45,8.45,8.45,0,0,1,.19.84C335.82,125.26,337.86,124.63,337.79,122.64Z" fill="#fff" opacity="0.8"/><path d="M330.11,107.45,328.3,107c.05,3.45-1.57,9.42-2.17,11.22l1.9.37A37.89,37.89,0,0,0,330.11,107.45Z" fill="#407bff" opacity="0.3"/><path d="M337.37,111.66a3.37,3.37,0,0,0-2.7-3.28c-.31-.07-.64-.14-.95-.19a4.54,4.54,0,0,0,1.63,2.9,5,5,0,0,0,2,1.14C337.37,112,337.37,111.84,337.37,111.66Z" fill="#407bff" opacity="0.3"/><path d="M271.45,32.59c.41,1.51-1.29,3.11-2.65,1.8a30.36,30.36,0,0,0-4.12-3.7c-1.39-.87.47-2.38,2.65-1.8A5.91,5.91,0,0,1,271.45,32.59Z" fill="#fff"/><path d="M271.57,80.91c-.71.26.58,1.45.58,1.45s14-4.78,22.49-9.71a1.85,1.85,0,0,0-.67-1.58A219.7,219.7,0,0,1,271.57,80.91Z" fill="#407bff"/><path d="M271.57,80.91c-.71.26.58,1.45.58,1.45s14-4.78,22.49-9.71a1.85,1.85,0,0,0-.67-1.58A219.7,219.7,0,0,1,271.57,80.91Z" fill="#fff" opacity="0.5"/><path d="M281.87,39.61c2.75,1.39,5.35,2.87,7.94,4.5,1.29.81,2.58,1.65,3.85,2.55s2.53,1.81,3.79,2.86l.48.39.59.53a12.74,12.74,0,0,1,1,1.05c.32.35.59.69.85,1s.53.68.76,1a44,44,0,0,1,2.59,4,58.54,58.54,0,0,1,4,8.35,2.52,2.52,0,0,1-4.19,2.61l-.05-.05c-2-2.13-3.94-4.37-5.88-6.46a28.71,28.71,0,0,0-5.53-5.14c-2.27-1.41-4.8-2.82-7.31-4.21l-7.57-4.19h0a5,5,0,0,1,4.68-8.84Z" fill="#407bff"/><path d="M281.87,39.61c2.75,1.39,5.35,2.87,7.94,4.5,1.29.81,2.58,1.65,3.85,2.55s2.53,1.81,3.79,2.86l.48.39.59.53a12.74,12.74,0,0,1,1,1.05c.32.35.59.69.85,1s.53.68.76,1a44,44,0,0,1,2.59,4,58.54,58.54,0,0,1,4,8.35,2.52,2.52,0,0,1-4.19,2.61l-.05-.05c-2-2.13-3.94-4.37-5.88-6.46a28.71,28.71,0,0,0-5.53-5.14c-2.27-1.41-4.8-2.82-7.31-4.21l-7.57-4.19h0a5,5,0,0,1,4.68-8.84Z" fill="#fff" opacity="0.8"/><path d="M310.14,70.79l-.85-2.13s-.47-2.72-2.17-3.48l-5,.79.18.44h0c.47,1,.12,2.82-.34,4.29s.32,1.64.95,1.36c.37-.16.71-.81,1.1-1.5a7.38,7.38,0,0,0,.63,1l1.23,1.69a1.7,1.7,0,0,0,2.3.43l1.35-.86A1.71,1.71,0,0,0,310.14,70.79Z" fill="#407bff"/><path d="M310.14,70.79l-.85-2.13s-.47-2.72-2.17-3.48l-5,.79.18.44h0c.47,1,.12,2.82-.34,4.29s.32,1.64.95,1.36c.37-.16.71-.81,1.1-1.5a7.38,7.38,0,0,0,.63,1l1.23,1.69a1.7,1.7,0,0,0,2.3.43l1.35-.86A1.71,1.71,0,0,0,310.14,70.79Z" fill="#fff" opacity="0.8"/><path d="M277.64,51.1l-1.22.1-7.48,18.09a4,4,0,0,0,1.22-.1s9.76-3.64,12.71-5C280.88,60.1,277.64,51.1,277.64,51.1Z" fill="#407bff" opacity="0.3"/><path d="M264,55.85a43.44,43.44,0,0,0,5,13.44c3.65-1.26,9.76-3.64,12.71-5a137,137,0,0,1-5.23-13.12C273.27,51.41,266.41,54,264,55.85Z" fill="#fff"/><path d="M271.41,59.76a2.58,2.58,0,1,1-1.74-3.21A2.58,2.58,0,0,1,271.41,59.76Z" fill="#407bff" opacity="0.3"/><path d="M273.32,56.32a.85.85,0,1,1-.57-1.06A.86.86,0,0,1,273.32,56.32Z" fill="#407bff" opacity="0.6"/><path d="M275.55,55.45a.85.85,0,0,1-1.62-.49.85.85,0,1,1,1.62.49Z" fill="#407bff" opacity="0.6"/><polygon points="278.7 63.23 269.45 66.89 268.89 65.07 278.14 61.41 278.7 63.23" fill="#407bff" opacity="0.5"/><path d="M227.66,202.22A94,94,0,0,1,226,219.57q-1.77,7.71-5.5,11.28a12.3,12.3,0,0,1-8.81,3.57q-7.71,0-11.77-8.41a23.79,23.79,0,0,1-1.21-3.11,144.31,144.31,0,0,0-15.92,16l-5.31,6.26a38.62,38.62,0,0,0,9.77,7.19q9.35,4.83,24.52,4.84c1.78,0,3.5-.05,5.17-.15a143.39,143.39,0,0,0,15.1-29l14.85-38.72Z" opacity="0.2"/><path d="M93.79,255l17.51,17.5,49-46.17C143.44,219.93,110.56,238.24,93.79,255Z" fill="#bc0202"/><path d="M154.83,316l-17.5-17.5,46.16-49C189.9,266.39,171.6,299.27,154.83,316Z" fill="#bc0202"/><path d="M221.8,205.75l19.1-36.81L204.09,188a144.06,144.06,0,0,0-32.45,23L108.9,270.11l30.83,30.83,59.07-62.75A144.18,144.18,0,0,0,221.8,205.75Z" fill="#407bff"/><path d="M221.8,205.75l19.1-36.81L204.09,188a144.06,144.06,0,0,0-32.45,23L108.9,270.11l30.83,30.83,59.07-62.75A144.18,144.18,0,0,0,221.8,205.75Z" fill="#fff" opacity="0.6"/><circle cx="182.6" cy="227.23" r="12.9" fill="#fff"/><circle cx="182.6" cy="227.23" r="8.29" fill="#407bff"/><polygon points="150.15 289.86 119.97 259.68 144.68 236.42 173.41 265.15 150.15 289.86" fill="#407bff" opacity="0.3"/><path d="M100.63,282.66C78,284.5,70.53,299,68,318.2c-1.3,9.81-1.88,19.74-10.12,25.48a2.77,2.77,0,0,0,1.64,5.06c30.34-.95,44.49-15.81,46.26-22a42.46,42.46,0,0,1-2.49,9.48,2.76,2.76,0,0,0,4,3.39c8.52-5.34,19.2-15.16,19.91-31.08C120.91,299.65,100.63,282.66,100.63,282.66Z" fill="#2196f3"/><polygon points="130.68 315.35 94.49 279.15 113.77 274.98 134.85 296.06 130.68 315.35" fill="#057cce"/></g></g></svg>