<svg id="Capa_1" enable-background="new 0 0 512 512" height="512" viewBox="0 0 512 512" width="512" xmlns="http://www.w3.org/2000/svg" xmlns:xlink="http://www.w3.org/1999/xlink"><linearGradient id="SVGID_1_" gradientUnits="userSpaceOnUse" x1="256" x2="256" y1="512" y2="0"><stop offset="0" stop-color="#ffe59a"/><stop offset="1" stop-color="#ffffd5"/></linearGradient><linearGradient id="SVGID_2_" gradientUnits="userSpaceOnUse" x1="256" x2="256" y1="512" y2="0"><stop offset="0" stop-color="#fd5900"/><stop offset="1" stop-color="#ffde00"/></linearGradient><g><g><g><path d="m421 0h-375l30 120v362c0 16.979 13.94 30 30 30 16.5 0 60-13.5 60-30h300v-437c0-24.853-20.147-45-45-45z" fill="url(#SVGID_1_)"/></g></g><g><g><path d="m181 150c8.284 0 15-6.716 15-15s-6.716-15-15-15-15 6.716-15 15 6.716 15 15 15zm60 0h120c8.291 0 15-6.709 15-15s-6.709-15-15-15h-120c-8.291 0-15 6.709-15 15s6.709 15 15 15zm0-60h120c8.291 0 15-6.709 15-15s-6.709-15-15-15h-120c-8.291 0-15 6.709-15 15s6.709 15 15 15zm-60 0c8.284 0 15-6.716 15-15s-6.716-15-15-15-15 6.716-15 15 6.716 15 15 15zm0 271h180c8.291 0 15-6.709 15-15v-151c0-8.291-6.709-15-15-15h-45v75c0 8.291-6.709 15-15 15h-60c-8.291 0-15-6.709-15-15v-75h-45c-8.291 0-15 6.709-15 15v151c0 8.291 6.709 15 15 15zm300 91h-330c-8.401 0-15 6.599-15 15v15c0 16.5-13.5 30-30 30h345c24.9 0 45-20.101 45-45 0-8.401-6.599-15-15-15zm-435-452c-16.5 0-30 13.5-30 30v75c0 8.399 6.599 15 15 15h45v-90c0-16.5-13.5-30-30-30z" fill="url(#SVGID_2_)"/></g></g></g></svg>