<svg id="Capa_1" enable-background="new 0 0 512 512" height="512" viewBox="0 0 512 512" width="512" xmlns="http://www.w3.org/2000/svg"><g><path d="m365.71 73.14v186.29l-90.13 252.57h-275.58v-438.86z" fill="#f3fdff"/><path d="m365.71 73.14v186.29l-90.13 252.57h-92.72v-438.86z" fill="#d7f3f7"/><g fill="#39689e"><path d="m152.71 190.57h152.72v30h-152.72z"/><path d="m286.86 289.43h-134.15v-30h122.87z"/><path d="m152.71 328.29h134.15v30h-134.15z"/><path d="m152.71 397.14h134.15v30h-134.15z"/></g><path d="m275.58 259.43 11.28 30h-104v-30z" fill="#224370"/><path d="m182.86 328.29h104v30h-104z" fill="#224370"/><path d="m182.86 397.14h104v30h-104z" fill="#224370"/><path d="m182.86 190.57h122.57v30h-122.57z" fill="#224370"/><path d="m256 36.57v73.14h-146.29v-73.14h36.58c0-10.1 4.09-19.24 10.71-25.86s15.76-10.71 25.86-10.71c20.19 0 36.57 16.37 36.57 36.57z" fill="#4abbef"/><path d="m256 36.57v73.14h-73.14v-109.71c20.19 0 36.57 16.37 36.57 36.57z" fill="#009be5"/><path d="m89.092 225.254-31.974-31.975 21.213-21.213 10.761 10.761 22.292-22.291 21.213 21.214z" fill="#83e470"/><path d="m89.092 292.581-31.974-31.976 21.213-21.212 10.761 10.761 22.292-22.291 21.213 21.213z" fill="#83e470"/><path d="m89.092 362.968-31.974-31.974 21.213-21.213 10.761 10.761 22.292-22.292 21.213 21.213z" fill="#83e470"/><path d="m89.092 433.356-31.974-31.975 21.213-21.213 10.761 10.762 22.292-22.292 21.213 21.214z" fill="#83e470"/><path d="m512 259.43v252.57h-236.42v-252.57h81.64l36.57 14 36.57-14z" fill="#ffda2d"/><path d="m512 259.43v252.57h-118.21v-238.57l36.57-14z" fill="#fcbe00"/><path d="m430.36 259.43v94.26l-36.57-21.12-36.57 21.12v-94.26z" fill="#ffa001"/><path d="m430.36 259.43v94.26l-36.57-21.12v-73.14z" fill="#f87f02"/></g></svg>