<svg id="Capa_1" enable-background="new 0 0 509.918 509.918" height="512" viewBox="0 0 509.918 509.918" width="512" xmlns="http://www.w3.org/2000/svg"><g><g><path d="m292.524 91.119h65.636v78.638h-65.636z" fill="#dbeaff"/><path d="m292.529 91.119h25v78.64h-25z" fill="#c3ddff"/><path d="m446.004 154.183h-382.085c-7.921 0-14.477 6.159-14.971 14.064l-15.763 252.23h443.553l-15.763-252.23c-.494-7.905-7.05-14.064-14.971-14.064z" fill="#8bb3ea"/><g fill="#dbeaff"><path d="m355.232 230.667h-25.735c-2.761 0-5-2.239-5-5v-25.735c0-2.761 2.239-5 5-5h25.735c2.761 0 5 2.239 5 5v25.735c0 2.762-2.239 5-5 5z"/><path d="m417.767 230.667h-25.735c-2.761 0-5-2.239-5-5v-25.735c0-2.761 2.239-5 5-5h25.735c2.761 0 5 2.239 5 5v25.735c0 2.762-2.238 5-5 5z"/><path d="m292.696 230.667h-25.735c-2.761 0-5-2.239-5-5v-25.735c0-2.761 2.239-5 5-5h25.735c2.761 0 5 2.239 5 5v25.735c0 2.762-2.238 5-5 5z"/><path d="m355.232 295.37h-25.735c-2.761 0-5-2.239-5-5v-25.735c0-2.761 2.239-5 5-5h25.735c2.761 0 5 2.239 5 5v25.735c0 2.761-2.239 5-5 5z"/><path d="m292.696 295.37h-25.735c-2.761 0-5-2.239-5-5v-25.735c0-2.761 2.239-5 5-5h25.735c2.761 0 5 2.239 5 5v25.735c0 2.761-2.238 5-5 5z"/><path d="m355.232 352.697h-25.735c-2.761 0-5-2.239-5-5v-25.735c0-2.761 2.239-5 5-5h25.735c2.761 0 5 2.239 5 5v25.735c0 2.761-2.239 5-5 5z"/></g><path d="m417.767 352.697h-25.735c-2.761 0-5-2.239-5-5v-83.062c0-2.761 2.239-5 5-5h25.735c2.761 0 5 2.239 5 5v83.062c0 2.761-2.238 5-5 5z" fill="#fe646f"/><path d="m292.696 352.697h-25.735c-2.761 0-5-2.239-5-5v-25.735c0-2.761 2.239-5 5-5h25.735c2.761 0 5 2.239 5 5v25.735c0 2.761-2.238 5-5 5z" fill="#dbeaff"/><path d="m434.658 101.29h-218.632c-8.284 0-15-6.716-15-15v-63.789c0-8.284 6.716-15 15-15h218.633c8.284 0 15 6.716 15 15v63.789c-.001 8.284-6.716 15-15.001 15z" fill="#8bb3ea"/><path d="m231.025 67.29v-25.789c0-2.209 1.791-4 4-4h180.633c2.209 0 4 1.791 4 4v25.789c0 2.209-1.791 4-4 4h-180.633c-2.209 0-4-1.791-4-4z" fill="#b3e59f"/><path d="m206.409 231.529v90.06c0 4.42-3.58 8-8 8h-113.7c-4.42 0-8-3.58-8-8v-90.06c0-4.42 3.58-8 8-8h113.7c4.42 0 8 3.58 8 8z" fill="#ffe07d"/><path d="m179.684 308.971h-76.255v-189.488c0-4.418 3.582-8 8-8h60.255c4.418 0 8 3.582 8 8z" fill="#ecbd83"/><path d="m136.429 111.479c-4.42 0-8 3.59-8 8v189.49h-25v-189.49c0-4.41 3.58-8 8-8z" fill="#e2a975"/><path d="m206.409 295.889v25.7c0 4.42-3.58 8-8 8h-113.7c-4.42 0-8-3.58-8-8v-25.7z" fill="#dbeaff"/><path d="m241.029 101.289h-25c-8.29 0-15-6.72-15-15v-63.79c0-8.28 6.71-15 15-15h25c-8.29 0-15 6.72-15 15v63.79c0 8.28 6.71 15 15 15z" fill="#739ad6"/><path d="m260.029 71.289h-25c-2.21 0-4-1.79-4-4v-25.79c0-2.21 1.79-4 4-4h25c-2.21 0-4 1.79-4 4v25.79c0 2.21 1.79 4 4 4z" fill="#95d6a4"/><path d="m88.919 154.179c-7.92 0-14.48 6.16-14.97 14.07l-15.76 252.23h-25l15.76-252.23c.49-7.91 7.05-14.07 14.97-14.07z" fill="#739ad6"/><path d="m109.709 329.589h-25c-4.42 0-8-3.58-8-8v-25.7h25v25.7c0 4.42 3.58 8 8 8z" fill="#c3ddff"/><path d="m501.989 424.679v62.74c0 8.28-6.71 15-15 15h-464.06c-8.28 0-15-6.72-15-15v-62.74c0-8.28 6.72-15 15-15h464.06c8.29 0 15 6.72 15 15z" fill="#dbeaff"/><path d="m398.259 482.799v19.62h-296.51v-19.62c0-8.28 6.71-15 15-15h266.51c8.28 0 15 6.72 15 15z" fill="#8bb3ea"/><path d="m47.929 502.419h-25c-8.28 0-15-6.72-15-15v-62.74c0-8.28 6.72-15 15-15h25c-8.28 0-15 6.72-15 15v62.74c0 8.28 6.72 15 15 15z" fill="#c3ddff"/><path d="m141.749 467.799c-8.29 0-15 6.72-15 15v19.62h-25v-19.62c0-8.28 6.71-15 15-15z" fill="#739ad6"/></g><g><path d="m486.989 402.178h-3.884l-14.65-234.394c-.733-11.835-10.597-21.106-22.456-21.106h-31.96c-4.142 0-7.5 3.358-7.5 7.5s3.358 7.5 7.5 7.5h31.96c3.953 0 7.24 3.089 7.484 7.038l14.592 233.462h-347.146c-4.142 0-7.5 3.358-7.5 7.5s3.358 7.5 7.5 7.5h355.112.01.015 10.922c4.136 0 7.5 3.364 7.5 7.5v62.74c0 4.136-3.364 7.5-7.5 7.5h-81.23v-12.122c0-12.407-10.093-22.5-22.5-22.5h-266.51c-12.407 0-22.5 10.093-22.5 22.5v12.122h-71.32c-4.136 0-7.5-3.364-7.5-7.5v-62.74c0-4.136 3.364-7.5 7.5-7.5h10.922.015.01 52.053c4.142 0 7.5-3.358 7.5-7.5s-3.358-7.5-7.5-7.5h-44.086l14.593-233.467c.244-3.944 3.531-7.033 7.484-7.033h32.01v54.35h-11.23c-8.547 0-15.5 6.953-15.5 15.5v90.06c0 8.547 6.953 15.5 15.5 15.5h113.71c8.547 0 15.5-6.953 15.5-15.5v-90.06c0-8.547-6.953-15.5-15.5-15.5h-11.23v-54.35h191.86c4.142 0 7.5-3.358 7.5-7.5s-3.358-7.5-7.5-7.5h-13.38v-37.89h68.997c12.407 0 22.5-10.093 22.5-22.5v-63.788c0-12.407-10.093-22.5-22.5-22.5h-218.633c-12.407 0-22.5 10.093-22.5 22.5v63.788c0 12.407 10.093 22.5 22.5 22.5h68.996v37.89h-97.84v-27.2c0-8.547-6.953-15.5-15.5-15.5h-60.25c-8.547 0-15.5 6.953-15.5 15.5v27.2h-32.01c-11.859 0-21.723 9.271-22.455 21.102l-14.651 234.398h-3.884c-12.407 0-22.5 10.093-22.5 22.5v62.74c0 12.407 10.093 22.5 22.5 22.5h464.06c12.407 0 22.5-10.093 22.5-22.5v-62.74c0-12.407-10.093-22.5-22.5-22.5zm-278.466-315.89v-63.788c0-4.136 3.365-7.5 7.5-7.5h218.633c4.135 0 7.5 3.364 7.5 7.5v63.788c0 4.136-3.365 7.5-7.5 7.5h-218.633c-4.135 0-7.5-3.364-7.5-7.5zm91.496 22.5h50.64v37.89h-50.64zm-215.32 122.24h11.23v57.356h-11.73v-56.856c0-.271.229-.5.5-.5zm113.71 91.06h-113.71c-.271 0-.5-.229-.5-.5v-18.204h114.71v18.204c0 .276-.224.5-.5.5zm0-91.06c.276 0 .5.224.5.5v56.856h-11.73v-57.356zm-86.98-112.05h60.25c.271 0 .5.229.5.5v168.906h-61.25v-168.906c0-.271.229-.5.5-.5zm-2.18 363.818c0-4.135 3.364-7.5 7.5-7.5h266.51c4.136 0 7.5 3.365 7.5 7.5v12.122h-281.51z"/><path d="m367.729 199.932c0-6.893-5.607-12.5-12.5-12.5h-25.734c-6.893 0-12.5 5.607-12.5 12.5v25.734c0 6.893 5.607 12.5 12.5 12.5h25.734c6.893 0 12.5-5.607 12.5-12.5zm-15 23.234h-20.734v-20.734h20.734z"/><path d="m430.264 199.932c0-6.893-5.607-12.5-12.5-12.5h-25.734c-6.893 0-12.5 5.607-12.5 12.5v25.734c0 6.893 5.607 12.5 12.5 12.5h25.734c6.893 0 12.5-5.607 12.5-12.5zm-15 23.234h-20.734v-20.734h20.734z"/><path d="m305.193 199.932c0-6.893-5.607-12.5-12.5-12.5h-25.734c-6.893 0-12.5 5.607-12.5 12.5v25.734c0 6.893 5.607 12.5 12.5 12.5h25.734c6.893 0 12.5-5.607 12.5-12.5zm-15 23.234h-20.734v-20.734h20.734z"/><path d="m367.729 264.634c0-6.893-5.607-12.5-12.5-12.5h-25.734c-6.893 0-12.5 5.607-12.5 12.5v25.734c0 6.893 5.607 12.5 12.5 12.5h25.734c6.893 0 12.5-5.607 12.5-12.5zm-15 23.234h-20.734v-20.734h20.734z"/><path d="m305.193 264.634c0-6.893-5.607-12.5-12.5-12.5h-25.734c-6.893 0-12.5 5.607-12.5 12.5v25.734c0 6.893 5.607 12.5 12.5 12.5h25.734c6.893 0 12.5-5.607 12.5-12.5zm-15 23.234h-20.734v-20.734h20.734z"/><path d="m355.229 309.461h-25.734c-6.893 0-12.5 5.607-12.5 12.5v25.735c0 6.893 5.607 12.5 12.5 12.5h25.734c6.893 0 12.5-5.607 12.5-12.5v-25.735c0-6.893-5.607-12.5-12.5-12.5zm-2.5 35.735h-20.734v-20.735h20.734z"/><path d="m417.764 252.134h-25.734c-6.893 0-12.5 5.607-12.5 12.5v83.062c0 6.893 5.607 12.5 12.5 12.5h25.734c6.893 0 12.5-5.607 12.5-12.5v-83.062c0-6.893-5.607-12.5-12.5-12.5zm-2.5 93.062h-20.734v-78.062h20.734z"/><path d="m292.693 309.461h-25.734c-6.893 0-12.5 5.607-12.5 12.5v25.735c0 6.893 5.607 12.5 12.5 12.5h25.734c6.893 0 12.5-5.607 12.5-12.5v-25.735c0-6.893-5.607-12.5-12.5-12.5zm-2.5 35.735h-20.734v-20.735h20.734z"/><path d="m415.656 30h-180.633c-6.341 0-11.5 5.159-11.5 11.5v25.788c0 6.341 5.159 11.5 11.5 11.5h180.633c6.341 0 11.5-5.159 11.5-11.5v-25.788c0-6.341-5.159-11.5-11.5-11.5zm-3.5 33.788h-173.633v-18.788h173.633z"/></g></g></svg>