<?xml version="1.0"?>
<svg xmlns="http://www.w3.org/2000/svg" id="Capa_1" enable-background="new 0 0 512 512" height="512px" viewBox="0 0 512 512" width="512px" class=""><g><g id="Account_1_"><g><g><g><g><path d="m455.501 60.599-195-60c-1.502-.599-3.001-.599-4.501-.599s-2.999 0-4.501.599l-195 60c-6.299 2.1-10.499 7.8-10.499 14.401v152c0 218.699 203.401 283.799 205.499 284.399 1.502.301 3.001.601 4.501.601s2.999-.3 4.501-.601c2.098-.6 205.499-65.7 205.499-284.399v-152c0-6.601-4.2-12.301-10.499-14.401z" fill="#4086f4" data-original="#4086F4" class="active-path" style="fill:#EAEAEA" data-old_color="#4086f4"/></g></g></g></g></g><g><g><g><path d="m466 75v152c0 218.699-203.401 283.799-205.499 284.399-1.502.301-3.001.601-4.501.601v-512c1.5 0 2.999 0 4.501.599l195 60c6.299 2.1 10.499 7.8 10.499 14.401z" fill="#4175df" data-original="#4175DF" class="" style="fill:#C8C8C8" data-old_color="#4175df"/></g></g></g><g><g><g><g><path d="m339.818 355.862c-5.361-2.432-8.818-7.778-8.818-13.667v-17.988c0-12.51-40.313-22.207-75-22.207s-75 9.697-75 22.207v17.988c0 5.889-3.457 11.235-8.818 13.667s-11.66 1.479-16.099-2.402c-31.831-28.037-50.083-68.657-50.083-111.46 0-82.705 67.295-150 150-150s150 67.295 150 150c0 42.803-18.252 83.423-50.083 111.46-4.398 3.846-10.668 4.856-16.099 2.402z" fill="#4175df" data-original="#4175DF" class="" style="fill:#C8C8C8" data-old_color="#4175df"/></g></g></g></g><path d="m331 324.207v17.988c0 5.889 3.457 11.235 8.818 13.667 5.431 2.454 11.7 1.443 16.099-2.402 31.831-28.037 50.083-68.657 50.083-111.46 0-82.705-67.295-150-150-150v210c34.688 0 75 9.697 75 22.207z" fill="#4254b6" data-original="#4254B6" class="" style="fill:#FFFFFF" data-old_color="#4254b6"/><g><path d="m256 272c-33.091 0-60-26.909-60-60s26.909-60 60-60 60 26.909 60 60-26.909 60-60 60z" fill="#fff5f5" data-original="#FFF5F5" class="" data-old_color="#fff5f5" style="fill:#000000"/></g><g><path d="m256 392c-37.368 0-72.92-13.638-100.107-38.408-3.12-2.842-4.893-6.87-4.893-11.089v-18.296c0-50.742 94.248-52.207 105-52.207s105 1.465 105 52.207v18.296c0 4.219-1.772 8.247-4.893 11.089-27.187 24.77-62.739 38.408-100.107 38.408zm90-49.497h.293z" fill="#fff5f5" data-original="#FFF5F5" class="" data-old_color="#fff5f5" style="fill:#000000"/></g><g fill="#e3e7ea"><path d="m356.107 353.592c3.12-2.842 4.893-6.87 4.893-11.089v-18.296c0-50.742-94.248-52.207-105-52.207v120c37.368 0 72.92-13.638 100.107-38.408z" data-original="#E3E7EA" class="" data-old_color="#E3E7EA" style="fill:#222222"/><path d="m316 212c0-33.091-26.909-60-60-60v120c33.091 0 60-26.909 60-60z" data-original="#E3E7EA" class="" data-old_color="#E3E7EA" style="fill:#222222"/></g></g> </svg>
