<svg xmlns="http://www.w3.org/2000/svg" xmlns:xlink="http://www.w3.org/1999/xlink" viewBox="0 0 583.69 424.54"><defs><clipPath id="clip-path"><path d="M291.46,103.07s-13.31-.18-16.23,4.17-15,31.42-15,31.42l18.86,9.83,4.07-11.61,6.62,24.25c-7.58,6-18.32,60.63-16.19,83.64l70.88.23s.49-63.84-18.68-84.83l4.5-25.35,4.32,12.37,20-8.29-15.06-27.08a14.57,14.57,0,0,0-12.66-7.48l-4.91,0s-2.07,18.12-15.24,17.77S291.46,103.07,291.46,103.07Z" fill="none"/></clipPath><clipPath id="clip-path-2"><path d="M148.57,150.49l16.85-12.25,21.89,25.93a11.09,11.09,0,0,1,2.26,10l-7.38,28a9.39,9.39,0,0,1-9.73,7h0a9.38,9.38,0,0,1-8.65-10.56l3.25-25.27Z" fill="none"/></clipPath><clipPath id="clip-path-3"><path d="M157.27,141.52l16.85-12.24L196,155.21a11.07,11.07,0,0,1,2.26,10l-7.38,28a9.38,9.38,0,0,1-9.73,7h0a9.37,9.37,0,0,1-8.65-10.55l3.25-25.27Z" fill="none"/></clipPath></defs><g id="Layer_2" data-name="Layer 2"><g id="Speech_Bubble" data-name="Speech Bubble"><g opacity="0.4"><path d="M541.74,82.22l-17.58,98.59a7.54,7.54,0,0,1-8.75,6.11L402.1,166.72l-8.8-1.57.21-50.74.05-11.36-3.14-.56.27-1.56,2.88.51.05-12.1.05-13.22,0-7.41.08-20.53,8.8,1.57L535.64,73.47A7.54,7.54,0,0,1,541.74,82.22Z" fill="#00b050"/></g><path d="M512.66,96.6a12.23,12.23,0,1,1-9.9-14.19A12.23,12.23,0,0,1,512.66,96.6Z" fill="#fff"/><path d="M517.36,84.51a12.73,12.73,0,0,0-4.47,25.06,12.34,12.34,0,0,0,2.26.21,12.73,12.73,0,0,0,2.21-25.27Zm9.31,14.59a11.72,11.72,0,1,1-11.55-13.79,12,12,0,0,1,2.06.18A11.76,11.76,0,0,1,526.85,97,12.24,12.24,0,0,1,526.67,99.1Z" fill="#fff"/><path d="M403.06,131.18l.4-2.24-1-.18-.24,1.33-.16.92-4.21-.75,4.39-3.88,1.68-1.49-1.1-.2-.58.5-5.7,5-.13.72,5.46,1-.45,2.54.78.14.22,0,.45-2.55,1.94.35.15-.89Z" fill="#fff"/><path d="M413.9,127.57l.16-.88-5.3-1-1.36,4.77,2.06.37c2.46.44,3.1,1.35,2.88,2.59s-1.23,1.83-2.87,1.53a4.23,4.23,0,0,1-2.78-1.65l-.62.71a5.08,5.08,0,0,0,3.25,1.86c2.36.42,3.74-.66,4-2.31s-.6-3.06-3.52-3.58l-1.24-.22.88-3Z" fill="#fff"/><path d="M420.19,131.79a3.15,3.15,0,0,0-3.26,1.13c0-.29.06-.57.1-.79.47-2.63,2.05-3.73,4.14-3.36a3.47,3.47,0,0,1,1.8.79l.54-.73a4.57,4.57,0,0,0-2.2-.94c-2.63-.46-4.73.93-5.32,4.22-.54,3.06.54,5.1,3.11,5.55a3.07,3.07,0,0,0,3.84-2.38C423.25,133.51,422.11,132.13,420.19,131.79Zm1.76,3.34a2.15,2.15,0,0,1-2.74,1.68c-1.68-.3-2.38-1.46-2.19-2.53a2.27,2.27,0,0,1,2.87-1.67C421.38,132.87,422.18,133.86,422,135.13Z" fill="#fff"/><path d="M437,130.78l-6.22-1.11-.16.89,4.95.88-3.28,2.88-.13.74.69.12c1.8.32,2.48,1.23,2.27,2.39s-1.23,1.79-2.84,1.51a4.37,4.37,0,0,1-2.8-1.66l-.62.7a5.08,5.08,0,0,0,3.26,1.87c2.34.42,3.74-.62,4-2.24s-.57-2.83-2.63-3.31l3.36-2.95Z" fill="#fff"/><path d="M443.15,135.88a3.17,3.17,0,0,0-3.26,1.14c0-.3.06-.58.1-.8.47-2.63,2.05-3.73,4.14-3.36a3.47,3.47,0,0,1,1.8.79l.55-.73a4.54,4.54,0,0,0-2.21-.93c-2.63-.47-4.73.92-5.32,4.22-.54,3,.54,5.09,3.11,5.55a3.08,3.08,0,0,0,3.84-2.39C446.21,137.6,445.07,136.23,443.15,135.88Zm1.76,3.34a2.16,2.16,0,0,1-2.74,1.69c-1.67-.3-2.38-1.47-2.19-2.54a2.28,2.28,0,0,1,2.87-1.67C444.34,137,445.14,138,444.91,139.22Z" fill="#fff"/><path d="M448.91,132.9l-.49,2.7,1,.17.32-1.81,5,.89-5.55,8.09,1.08.19,5.65-8.26.13-.7Z" fill="#fff"/><path d="M462.75,135.37l-.48,2.69,1,.18.33-1.81,5,.89L463,145.4l1.08.2,5.66-8.26.12-.71Z" fill="#fff"/><path d="M478.61,140.75c.28-1.58-.92-2.81-3-3.17s-3.56.38-3.84,2a2.22,2.22,0,0,0,1.14,2.4,2.45,2.45,0,0,0-2.29,2c-.31,1.72.91,3,3.24,3.45s3.95-.39,4.26-2.11a2.49,2.49,0,0,0-1.47-2.72A2.23,2.23,0,0,0,478.61,140.75Zm-1.48,4.37c-.22,1.21-1.37,1.77-3.09,1.47s-2.59-1.24-2.38-2.44,1.36-1.76,3.07-1.45S477.34,143.93,477.13,145.12Zm.46-4.51c-.19,1-1.21,1.57-2.72,1.3s-2.27-1.1-2.08-2.17,1.24-1.58,2.7-1.32S477.78,139.52,477.59,140.61Z" fill="#fff"/><path d="M484.84,139.22A3.05,3.05,0,0,0,481,141.6c-.32,1.78.82,3.15,2.74,3.49A3.14,3.14,0,0,0,487,144a7.57,7.57,0,0,1-.1.8c-.47,2.62-2.05,3.73-4.14,3.35a3.39,3.39,0,0,1-1.8-.79l-.54.73a4.47,4.47,0,0,0,2.2.94c2.63.47,4.73-.93,5.32-4.22C488.5,141.71,487.42,139.68,484.84,139.22Zm2.08,3.38a2.27,2.27,0,0,1-2.86,1.68c-1.5-.27-2.29-1.25-2.07-2.53a2.16,2.16,0,0,1,2.74-1.68C486.41,140.37,487.11,141.54,486.92,142.6Z" fill="#fff"/><path d="M495.34,141.18l-.16.88,2.29.41-1.57,8.8,1,.18,1.73-9.69Z" fill="#fff"/><path d="M507.69,146c.28-1.62-.78-2.84-2.75-3.19a4.45,4.45,0,0,0-3.68.77l.6.74a3.36,3.36,0,0,1,2.84-.61c1.48.27,2.14,1.1,1.94,2.22-.12.66-.44,1.28-1.73,2.16l-4.72,3.22-.13.71,6.79,1.21.16-.88-5.33-1,3.87-2.65C507.08,147.7,507.52,146.92,507.69,146Z" fill="#fff"/><path d="M516.89,145l-6.22-1.11-.16.88,5,.89-3.28,2.88-.13.73.69.13c1.8.32,2.48,1.22,2.27,2.39s-1.23,1.79-2.84,1.5a4.29,4.29,0,0,1-2.8-1.65l-.62.7a5.12,5.12,0,0,0,3.26,1.87c2.34.41,3.74-.62,4-2.24s-.57-2.83-2.63-3.31l3.36-3Z" fill="#fff"/><rect x="476.17" y="118.29" width="4.27" height="78.8" transform="translate(239.14 600.91) rotate(-79.89)" fill="#fff"/><rect x="493.56" y="149.25" width="4.27" height="40.41" transform="translate(241.9 627.74) rotate(-79.89)" fill="#fff"/><g opacity="0.5"><path d="M390.42,102.49l3.14.56-.05,11.36.85.15a5,5,0,0,0,5.76-4l1.09-6.13.28-1.56.9-5.06.32-1.79a5,5,0,0,0-4-5.76l-5.07-.9-.05,12.1-2.88-.51Z" fill="#ebebeb"/></g><path d="M390.42,102.49a6.2,6.2,0,0,0,.2-.77,5.39,5.39,0,0,0,.07-.79Z" fill="#e0e0e0"/><polygon points="401.49 102.85 401.21 104.41 393.56 103.05 390.42 102.49 389.7 102.36 389.98 100.8 390.69 100.93 393.57 101.44 401.49 102.85" fill="#e0e0e0"/><polygon points="462.15 80.92 460.87 88.1 402.48 77.69 393.67 76.12 393.71 68.71 402.51 70.28 462.15 80.92" fill="#fff"/><path d="M202,66.93l-.27.1-.81.22-3.12.82L186.21,71l-39,9.57-.27.06-.1-.25-2.47-6.24c-7.2-18.29-13.62-34.62-17.8-45.25l.23.12-10.4,2.44c-1.18.26-2.1.46-2.77.62l-.72.14a.79.79,0,0,1-.25,0,.74.74,0,0,1,.23-.08l.71-.2,2.75-.73,10.36-2.61.17,0,.06.16,18,45.16c.84,2.14,1.68,4.25,2.47,6.24l-.37-.19,39-9.37,11.63-2.73,3.15-.7.82-.17A.92.92,0,0,1,202,66.93Z" fill="#fff"/><path d="M142.84,69.28a1.1,1.1,0,0,1,.27-.09l.8-.23,3.12-.81,11.71-2.93,40.43-9.94-.24.31c-.45-7.1-.94-14.77-1.45-22.72-.26-4.09-.51-8.1-.76-11.93l.39.28L149.41,32.7,135.27,36l-3.82.87-1,.21a1.45,1.45,0,0,1-.34.06,1.4,1.4,0,0,1,.33-.11l1-.27,3.79-1,14.09-3.52L197,20.61l.37-.09,0,.38c.25,3.83.5,7.84.76,11.93.5,8,1,15.63,1.43,22.73l0,.25-.25.06-40.48,9.72-11.75,2.76-3.15.72-.81.17A1.55,1.55,0,0,1,142.84,69.28Z" fill="#fff"/><path d="M164.5,91.8c-.06,0-.17-.48-.6-1.24a5.67,5.67,0,0,0-2.71-2.39,5.39,5.39,0,0,0-7.34,6.22,5.39,5.39,0,0,0,9.37,2.15,5.58,5.58,0,0,0,1.31-3.36c0-.88-.09-1.37,0-1.38s.07.11.13.34a4.38,4.38,0,0,1,.15,1,5.57,5.57,0,0,1-1.21,3.64,5.85,5.85,0,0,1-5.2,2.2,5.91,5.91,0,0,1-2.63-10.83,5.83,5.83,0,0,1,5.63-.43,5.6,5.6,0,0,1,2.74,2.68,4.1,4.1,0,0,1,.35,1C164.51,91.67,164.52,91.79,164.5,91.8Z" fill="#fff"/><path d="M199.78,83.23c-.06,0-.17-.48-.61-1.24a5.59,5.59,0,0,0-2.7-2.39,5.45,5.45,0,0,0-5.13.51,5.36,5.36,0,0,0,2.37,9.76A5.46,5.46,0,0,0,198.5,88a5.67,5.67,0,0,0,1.31-3.37c0-.87-.09-1.36,0-1.37s.06.11.13.34a4.38,4.38,0,0,1,.15,1,5.63,5.63,0,0,1-1.21,3.64,5.85,5.85,0,0,1-5.2,2.2A5.91,5.91,0,0,1,191,79.62a5.83,5.83,0,0,1,5.63-.43,5.6,5.6,0,0,1,2.74,2.68,4.42,4.42,0,0,1,.35,1C199.79,83.1,199.8,83.22,199.78,83.23Z" fill="#fff"/><path d="M208.33,12.3A16.1,16.1,0,1,1,188.89.46,16.09,16.09,0,0,1,208.33,12.3Z" fill="#fff"/><path d="M199.52,10.08a16.82,16.82,0,0,1-1.45,3c-1,1.81-2.34,4.29-3.89,7-.59,1-1.15,2-1.67,2.89l-.15.25-.26-.13c-2-1.08-3.81-2-5-2.74a9.66,9.66,0,0,1-1.92-1.2,9.7,9.7,0,0,1,2.09.87c1.29.6,3.08,1.48,5.15,2.53l-.4.12,1.64-2.91c1.56-2.71,3-5.16,4.06-6.91A18.48,18.48,0,0,1,199.52,10.08Z" fill="#e0e0e0"/><path d="M373.85,5.09,241,4.48A28.94,28.94,0,0,0,211.91,33.3L210.5,366.38a29,29,0,0,0,28.81,29.07l132.86.61a28.94,28.94,0,0,0,29.08-28.82l.85-200.52.13-32.15,0-4.48,0-3.71v-1.19l.12-27.4,0-4.55.07-15.55,0-7.41.08-20.53.07-15.6A28.94,28.94,0,0,0,373.85,5.09Zm19.86,63.62,0,7.41-.05,13.22-.05,12.1v1.61l-.05,11.36-.21,50.74-.84,196.91a20.26,20.26,0,0,1-20.36,20.18l-132.6-.61a20.26,20.26,0,0,1-20.17-20.35L220.7,36.16A20.28,20.28,0,0,1,241.06,16l22.55.11,9.06,0a6.41,6.41,0,0,1,6.23,6.57l0,4.67a6.4,6.4,0,0,0,6.22,6.57l50.22.23a6.4,6.4,0,0,0,6.28-6.51l0-4.67a6.39,6.39,0,0,1,6.28-6.51l25.76.12a20.27,20.27,0,0,1,20.18,20.35l0,11.24Z" fill="#455a64"/><path d="M376.56,48.58a21.89,21.89,0,0,1-3.32.18c-2.07,0-4.95.08-8.19.08h-.23l0-.22c-.06-.43-.12-.89-.19-1.36-.55-4-1-7.54-1.28-9.84l.17.14a19.08,19.08,0,0,1-3-.16,18.15,18.15,0,0,1,3-.17h.14l0,.14c.38,2.29.91,5.84,1.47,9.82.06.47.13.92.19,1.36l-.26-.23c3.24,0,6.12,0,8.19.09A23,23,0,0,1,376.56,48.58Z" fill="#00b050"/><path d="M364.72,46.2a3.48,3.48,0,0,1,.88-.09l2.47-.07c2.1,0,5.06-.08,8.49-.09l-.24.2.8-4.57c.14-.83.29-1.64.42-2.41l.26.3c-4,0-7.5,0-10-.08l-3-.08a5.18,5.18,0,0,1-1.08-.09,4.07,4.07,0,0,1,1.08-.1l3-.07c2.52,0,6-.08,10-.09h.3l-.05.3c-.13.77-.28,1.58-.42,2.41-.29,1.59-.56,3.14-.82,4.57l0,.21h-.21c-3.43,0-6.39-.05-8.49-.09l-2.47-.08A3.27,3.27,0,0,1,364.72,46.2Z" fill="#00b050"/><path d="M367.93,51.71c-.08,0-.09-.45-.57-.77a1,1,0,0,0-.89-.09,1,1,0,0,0-.59.86.93.93,0,0,0,.59.85,1,1,0,0,0,.89-.08c.48-.32.49-.79.57-.77s.08.1.06.3a1.18,1.18,0,0,1-.41.76,1.31,1.31,0,0,1-1.28.25,1.41,1.41,0,0,1-.94-1.31,1.39,1.39,0,0,1,.94-1.31,1.29,1.29,0,0,1,1.28.25,1.18,1.18,0,0,1,.41.75C368,51.6,368,51.71,367.93,51.71Z" fill="#00b050"/><path d="M375.34,51.71c-.08,0-.09-.45-.57-.77a1,1,0,0,0-.89-.09.93.93,0,0,0-.58.86.91.91,0,0,0,.58.85,1,1,0,0,0,.89-.08c.48-.32.49-.79.57-.77s.08.1.06.3a1.2,1.2,0,0,1-.4.76,1.34,1.34,0,0,1-1.29.25,1.41,1.41,0,0,1-.94-1.31,1.39,1.39,0,0,1,.94-1.31,1.32,1.32,0,0,1,1.29.25,1.21,1.21,0,0,1,.4.75C375.42,51.6,375.37,51.71,375.34,51.71Z" fill="#00b050"/><path d="M258.42,49.8a95.75,95.75,0,0,1-9.91.26,95.91,95.91,0,0,1-9.91-.26,95.91,95.91,0,0,1,9.91-.26A95.75,95.75,0,0,1,258.42,49.8Z" fill="#00b050"/><path d="M258.42,46.06a95.75,95.75,0,0,1-9.91.26,95.91,95.91,0,0,1-9.91-.26,92.65,92.65,0,0,1,9.91-.26A92.49,92.49,0,0,1,258.42,46.06Z" fill="#00b050"/><path d="M258.42,42.31a92.49,92.49,0,0,1-9.91.26,92.65,92.65,0,0,1-9.91-.26,95.91,95.91,0,0,1,9.91-.26A95.75,95.75,0,0,1,258.42,42.31Z" fill="#00b050"/><g clip-path="url(#clip-path)"><path d="M291.46,103.07s-13.31-.18-16.23,4.17-15,31.42-15,31.42l18.86,9.83,4.07-11.61,6.62,24.25c-7.58,6-18.32,60.63-16.19,83.64l70.88.23s.49-63.84-18.68-84.83l4.5-25.35,4.32,12.37,20-8.29-15.06-27.08a14.57,14.57,0,0,0-12.66-7.48l-4.91,0s-2.07,18.12-15.24,17.77S291.46,103.07,291.46,103.07Z" fill="#00b050"/><path d="M359.63,189.15s0-.11,0-.32,0-.55-.07-.94a10.06,10.06,0,0,0-.18-1.52,15.16,15.16,0,0,0-.42-2,19.24,19.24,0,0,0-2.21-5.23,19.86,19.86,0,0,0-5-5.57,19.57,19.57,0,0,0-18.56-2.78,18.37,18.37,0,0,0-5,2.67,23.12,23.12,0,0,0-2.22,1.89,22.13,22.13,0,0,0-1.92,2.27,19.71,19.71,0,0,0-3.8,11.57,21,21,0,0,0,1,6.18,19,19,0,0,0,2.79,5.39A22.13,22.13,0,0,0,326,203a21.77,21.77,0,0,0,2.22,1.89,18.1,18.1,0,0,0,5,2.67,19.68,19.68,0,0,0,23.58-8.35,19.11,19.11,0,0,0,2.21-5.23,14.86,14.86,0,0,0,.42-2,9.92,9.92,0,0,0,.18-1.52c0-.39.05-.7.07-.94s0-.32,0-.32a1.14,1.14,0,0,1,0,.32l0,.95a8.28,8.28,0,0,1-.13,1.53,13.75,13.75,0,0,1-.38,2.07,18.85,18.85,0,0,1-2.15,5.33,19.92,19.92,0,0,1-5,5.71,19.7,19.7,0,0,1-8.41,3.78A19.93,19.93,0,0,1,333,208a18.65,18.65,0,0,1-5.08-2.72,23.16,23.16,0,0,1-2.29-1.93,24.72,24.72,0,0,1-2-2.33,19.53,19.53,0,0,1-2.88-5.53,21.69,21.69,0,0,1-1-6.34,20.17,20.17,0,0,1,3.91-11.87,23.4,23.4,0,0,1,2-2.33,22,22,0,0,1,2.28-1.93A18.65,18.65,0,0,1,333,170.3a20,20,0,0,1,10.54-.84,19.7,19.7,0,0,1,8.41,3.78,19.92,19.92,0,0,1,5,5.71,18.85,18.85,0,0,1,2.15,5.33,13.75,13.75,0,0,1,.38,2.07,8.34,8.34,0,0,1,.13,1.53l0,1A1.14,1.14,0,0,1,359.63,189.15Z" fill="#fafafa"/><path d="M297.18,144.61a24.88,24.88,0,0,0-.56-3.55,14.55,14.55,0,0,0-5.34-7.95,14.25,14.25,0,0,0-6.09-2.68,14.42,14.42,0,0,0-7.58.64,13.57,13.57,0,0,0-3.64,2,13.18,13.18,0,0,0-3,3.06,14.33,14.33,0,0,0,0,17,14.32,14.32,0,0,0,6.68,5,14.53,14.53,0,0,0,7.58.65,14.38,14.38,0,0,0,6.09-2.69,14.55,14.55,0,0,0,5.34-8,24.88,24.88,0,0,0,.56-3.55.64.64,0,0,1,0,.24c0,.19,0,.42,0,.7a7.16,7.16,0,0,1-.09,1.13,10.24,10.24,0,0,1-.28,1.53,13.85,13.85,0,0,1-1.58,4,14.83,14.83,0,0,1-10,7.05,14.9,14.9,0,0,1-7.82-.62,14.91,14.91,0,0,1-6.94-5.18,14.81,14.81,0,0,1,0-17.62,14.82,14.82,0,0,1,6.93-5.18,14.9,14.9,0,0,1,7.82-.62,14.7,14.7,0,0,1,6.23,2.81,14.51,14.51,0,0,1,3.73,4.24,13.62,13.62,0,0,1,1.59,4,10.24,10.24,0,0,1,.28,1.53,7.25,7.25,0,0,1,.09,1.13c0,.29,0,.51,0,.7A.64.64,0,0,1,297.18,144.61Z" fill="#fafafa"/><path d="M297.17,230.93c-.05,0,0-.4-.24-1.07a4.54,4.54,0,0,0-1.64-2.36,4.35,4.35,0,0,0-4.06-.57,4.27,4.27,0,1,0,4.06,7.42,4.48,4.48,0,0,0,1.64-2.35c.2-.67.19-1.07.24-1.07s0,.1,0,.29a3.58,3.58,0,0,1-.08.83,4.47,4.47,0,0,1-1.62,2.59,4.65,4.65,0,0,1-4.44.73,4.72,4.72,0,0,1,0-8.89,4.65,4.65,0,0,1,4.44.73,4.49,4.49,0,0,1,1.62,2.6,3.54,3.54,0,0,1,.08.83C297.2,230.83,297.19,230.93,297.17,230.93Z" fill="#fafafa"/><path d="M289.38,115.79c-.05,0-.05-.4-.24-1.08a4.45,4.45,0,0,0-1.65-2.35,4.27,4.27,0,1,0,0,6.85,4.45,4.45,0,0,0,1.65-2.35c.19-.67.19-1.08.24-1.07s0,.09,0,.29a3.58,3.58,0,0,1-.08.83,4.47,4.47,0,0,1-1.62,2.59,4.65,4.65,0,0,1-4.44.73,4.72,4.72,0,0,1,0-8.89,4.65,4.65,0,0,1,4.44.73,4.47,4.47,0,0,1,1.62,2.59,3.66,3.66,0,0,1,.08.84C289.41,115.69,289.4,115.79,289.38,115.79Z" fill="#fafafa"/><path d="M304,209.4a2.31,2.31,0,0,1-.1-.43c-.05-.31-.12-.7-.21-1.2-.19-1.08-.45-2.59-.77-4.5-.64-3.88-1.54-9.36-2.62-15.9l.26.18-22.06,3.51.21-.29h0V191l0,.19.06.38.12.75.24,1.5c.15,1,.31,2,.46,2.95.3,1.94.6,3.85.89,5.7.57,3.71,1.11,7.2,1.61,10.42l-.26-.19,15.95-2.39,4.52-.66,1.2-.16a3.33,3.33,0,0,1,.44,0l-.38.08-1.16.21-4.45.76L282,213.09l-.22,0,0-.22c-.52-3.21-1.08-6.71-1.67-10.41-.29-1.85-.59-3.76-.9-5.7-.16-1-.31-2-.47-3-.08-.5-.16-1-.23-1.5l-.12-.75-.06-.38,0-.19,0-.09v-.09h0c-.19.26.26-.37.22-.3l22.07-3.44.22,0,0,.23c1,6.62,1.82,12.15,2.41,16.08.27,1.89.49,3.39.64,4.47.07.48.12.86.16,1.16A2.89,2.89,0,0,1,304,209.4Z" fill="#fafafa"/><path d="M331,151.68a3.66,3.66,0,0,1,.26-.44L332,150c.68-1.08,1.65-2.6,2.88-4.53l10.27-16,.07.31-22.06-14.33.35-.07h0l0,0,0,0-.06.1-.12.19-.25.38-.49.75-1,1.49-1.92,3-3.72,5.69-6.8,10.39-.06-.31,15.86,10.46,4.47,3,1.18.81a2.24,2.24,0,0,1,.41.3l-.4-.23-1.17-.74-4.49-2.85L308.82,137.5l-.19-.12.13-.19,6.75-10.41,3.7-5.7,1.92-3,1-1.5.49-.75.24-.38.13-.19.06-.09,0,0v0h0l.37-.08,22,14.39.19.13-.12.18-10.55,16L332,150.16l-.78,1.15A3.26,3.26,0,0,1,331,151.68Z" fill="#fafafa"/><path d="M316.09,219l-.08.17-.26.46-1,1.75-3.64,6.47c-3.07,5.46-7.54,13.24-12.75,22.31l-.22-.37H334l-.21.37c-5.21-9.07-9.68-16.85-12.76-22.31-1.54-2.74-2.76-4.93-3.63-6.47l-1-1.75-.25-.46a.93.93,0,0,1-.09-.17s.12.18.34.55l1,1.67,3.78,6.38c3.27,5.53,7.77,13.27,13,22.32l.22.36H334l-17.92,0-17.92,0h-.42l.21-.36c5.25-9,9.74-16.79,13-22.32l3.78-6.38,1-1.67Z" fill="#fafafa"/><path d="M301.88,161.8a2.37,2.37,0,0,1,.13.39l.32,1.1c.29,1,.68,2.33,1.16,4,1,3.34,2.29,8.21,3.84,13.88l-.41-.11c2.19-2.21,4.59-4.62,7.1-7.13l7.12-7.1.11.41c-5.67-1.54-10.53-2.86-13.88-3.83l-4-1.16-1.09-.32-.4-.13a1.42,1.42,0,0,1,.34.07l1,.25,4,1c3.54.88,8.39,2.16,14.07,3.66l.41.1-.3.31-7.11,7.12-7.12,7.1-.3.3-.11-.41c-1.5-5.67-2.78-10.53-3.65-14.06-.42-1.68-.75-3-1-4-.1-.42-.18-.77-.25-1.05A3.33,3.33,0,0,1,301.88,161.8Z" fill="#fafafa"/></g><path d="M326.16,160.28c0,.14-8,.45-18,.7s-18,.32-18,.17,8-.45,18-.7S326.15,160.13,326.16,160.28Z" fill="#263238"/><path d="M277.22,120.45a82.58,82.58,0,0,1,3.35,8.83,83.92,83.92,0,0,1,2.86,9,88.4,88.4,0,0,1-3.35-8.82A85.61,85.61,0,0,1,277.22,120.45Z" fill="#263238"/><path d="M332.17,121.69a15.21,15.21,0,0,1-.19,2.87c-.19,1.77-.5,4.21-.93,6.89s-.89,5.09-1.27,6.83a14.9,14.9,0,0,1-.72,2.79,16.94,16.94,0,0,1,.36-2.86l1.11-6.85c.41-2.58.78-4.93,1.09-6.85A16.6,16.6,0,0,1,332.17,121.69Z" fill="#263238"/><path d="M294,173a5,5,0,0,1-.38-1.9,14.59,14.59,0,0,1,.38-4.67,14.8,14.8,0,0,1,1.84-4.3,5.21,5.21,0,0,1,1.22-1.5,26.27,26.27,0,0,0-2.55,5.93A26.24,26.24,0,0,0,294,173Z" fill="#263238"/><path d="M299.43,167.41a6.45,6.45,0,0,1-.56-3.25,6.33,6.33,0,0,1,.66-3.23c.14,0-.12,1.47-.14,3.24A29.78,29.78,0,0,1,299.43,167.41Z" fill="#263238"/><path d="M330.49,228.28a4.69,4.69,0,0,1-.6-.26,18.48,18.48,0,0,1-1.66-.86,29.74,29.74,0,0,1-5.55-4.06,38.76,38.76,0,0,1-6.54-7.83A50.09,50.09,0,0,1,310.85,204a91.11,91.11,0,0,1-3.72-22.33c-.18-2.89-.26-5.23-.31-6.85,0-.77,0-1.39,0-1.87a2.48,2.48,0,0,1,0-.65,3.33,3.33,0,0,1,.08.65c0,.48.08,1.09.14,1.86.11,1.68.27,4,.46,6.84.47,5.75,1.16,13.78,3.85,22.19A50.9,50.9,0,0,0,316.55,215a39.23,39.23,0,0,0,6.38,7.82,32.84,32.84,0,0,0,5.4,4.16C329.71,227.83,330.51,228.23,330.49,228.28Z" fill="#263238"/><g opacity="0.2"><path d="M307.53,179.13a40.62,40.62,0,0,0,15,26.26c3,2.34,6.48,4.51,7.73,8.09,1,2.88.3,6.11-.95,8.91-.5,1.12-1.21,2.32-2.4,2.63s-2.44-.4-3.45-1.16c-6.57-4.94-10.8-12.49-13.16-20.37s-3-16.14-3.62-24.34"/></g><path d="M346.81,283.83c0,.14-16.89.26-37.73.26s-37.73-.12-37.73-.26,16.89-.26,37.73-.26S346.81,283.68,346.81,283.83Z" fill="#00b050"/><path d="M346.81,75.78c0,.15-16.89.26-37.73.26s-37.73-.11-37.73-.26,16.89-.26,37.73-.26S346.81,75.64,346.81,75.78Z" fill="#00b050"/><path d="M346.81,290.05c0,.15-16.89.26-37.73.26s-37.73-.11-37.73-.26,16.89-.26,37.73-.26S346.81,289.91,346.81,290.05Z" fill="#00b050"/><path d="M330.69,275.86c0,.15-9.35.26-20.89.26s-20.89-.11-20.89-.26,9.36-.26,20.89-.26S330.69,275.72,330.69,275.86Z" fill="#00b050"/><circle cx="364.99" cy="312.88" r="15.08" transform="translate(-91.95 163.49) rotate(-22.5)" fill="#00b050"/><path d="M361.18,321.34a4.19,4.19,0,0,1,.83-.75c.55-.45,1.36-1.09,2.38-1.88,2-1.57,4.83-3.71,8-6v.41h0l0,0-.08,0-.14-.11-.29-.22-.58-.43-1.12-.85-2.12-1.6L364.39,307c-1-.78-1.83-1.43-2.38-1.88a4.19,4.19,0,0,1-.83-.75,5,5,0,0,1,.95.59l2.48,1.74,3.63,2.65,2.14,1.58,1.12.83.58.43.29.22.15.11.07.05,0,0h0v.42c-3.13,2.34-6,4.43-8.05,5.93l-2.48,1.74A4.41,4.41,0,0,1,361.18,321.34Z" fill="#fafafa"/><circle cx="250.83" cy="312.88" r="15.08" transform="translate(-98.19 510.35) rotate(-80.78)" fill="#00b050"/><path d="M254.64,304.41a4.62,4.62,0,0,1-.83.75c-.56.45-1.37,1.1-2.38,1.88-2,1.57-4.84,3.71-8,6,0-.83,0-.23,0-.41h0l0,0,.07.06.14.1.29.22.58.43,1.12.85,2.12,1.6,3.57,2.73,2.38,1.88a4.62,4.62,0,0,1,.83.75,4.3,4.3,0,0,1-1-.59L251.21,319l-3.64-2.65-2.13-1.58-1.13-.83-.58-.43-.29-.22-.14-.11-.08-.05,0,0h0c0-.19,0,.41,0-.42,3.13-2.34,6-4.43,8.06-5.93l2.47-1.74A4.86,4.86,0,0,1,254.64,304.41Z" fill="#fafafa"/><g opacity="0.29"><rect x="240.27" y="338.57" width="30.13" height="30.13" fill="#00b050"/></g><g opacity="0.29"><rect x="278.5" y="338.57" width="30.13" height="30.13" fill="#00b050"/></g><g opacity="0.29"><rect x="316.72" y="338.57" width="30.13" height="30.13" fill="#00b050"/></g><g opacity="0.29"><rect x="354.94" y="338.57" width="30.13" height="30.13" fill="#00b050"/></g><rect x="280.33" y="65.32" width="56.22" height="3.2" fill="#00b050"/><path d="M107.94,338.11a.21.21,0,0,1-.19-.23,43.61,43.61,0,0,1,.34-5.24c.49-4,1.44-6.82,2.8-8.46a3.92,3.92,0,0,1,3.27-1.58,5.4,5.4,0,0,1,4.33,2.28c2.2,3.06,2.17,8.71,1.82,13.88a.21.21,0,0,1-.21.22h0a.2.2,0,0,1-.17-.24c.34-5.08.37-10.61-1.73-13.54a5,5,0,0,0-4.06-2.13,3.6,3.6,0,0,0-3,1.44c-2.84,3.42-3,11.86-3,13.36a.23.23,0,0,1-.19.24Z" fill="#2b2b2b"/><path d="M125.56,374.13a30.25,30.25,0,0,0,4.46,1.21l1.35,3-4.88.85Z" fill="#fa3174"/><polygon points="130.13 335.89 131.52 333.85 131.37 378.37 128.76 376.69 126.49 379.22 130.13 335.89" fill="#ce2463"/><polygon points="100.13 331.14 131.52 333.85 126.49 379.22 96.22 376.82 100.13 331.14" fill="#714664"/><path d="M108.05,338.57c-.25.05-.49-.23-.52-.61s.14-.74.39-.78.48.23.52.62S108.3,338.53,108.05,338.57Z" fill="#f0f0f0"/><path d="M120.09,339.69c-.26,0-.45-.32-.45-.7s.22-.71.48-.71.45.31.44.7S120.34,339.69,120.09,339.69Z" fill="#f0f0f0"/><path d="M107.94,338.11a.21.21,0,0,1-.19-.23,43.61,43.61,0,0,1,.34-5.24c.49-4,1.44-6.82,2.8-8.46a3.92,3.92,0,0,1,3.27-1.58,5.4,5.4,0,0,1,4.33,2.28c2.2,3.06,2.17,8.71,1.82,13.88a.21.21,0,0,1-.21.22h0a.2.2,0,0,1-.17-.24c.34-5.08.37-10.61-1.73-13.54a5,5,0,0,0-4.06-2.13,3.6,3.6,0,0,0-3,1.44c-2.84,3.42-3,11.86-3,13.36a.23.23,0,0,1-.19.24Z" fill="#2b2b2b"/><path d="M110.13,337.86a.2.2,0,0,1-.25-.16,32.7,32.7,0,0,1-.57-4.54c-.18-3.5.31-6.12,1.45-7.78a4.52,4.52,0,0,1,3.19-2,6.4,6.4,0,0,1,5,1.13c2.87,2.2,3.84,7,4.4,11.54a.21.21,0,0,1-.18.23h0a.2.2,0,0,1-.23-.17c-.55-4.42-1.49-9.16-4.24-11.28a6,6,0,0,0-4.68-1.05,4.14,4.14,0,0,0-2.9,1.8c-2.39,3.47-1.07,10.73-.81,12a.21.21,0,0,1-.16.24Z" fill="#f7b978"/><path d="M135.19,365.38a39.57,39.57,0,0,0,4.93.19l2,2.34-5,1.66Z" fill="#f7b978"/><polygon points="133.2 331.77 134.31 329.75 142.08 367.91 139.03 366.97 137.08 369.57 133.2 331.77" fill="#714664"/><polygon points="100.63 333.38 134.31 329.75 137.08 369.57 104.64 373.24 100.63 333.38" fill="#f7b978"/><path d="M110.33,338.24a.55.55,0,0,1-.66-.43.5.5,0,1,1,.93-.31A.56.56,0,0,1,110.33,338.24Z" fill="#f7b978"/><path d="M123.26,336.92a.57.57,0,0,1-.6-.52.51.51,0,1,1,.6.52Z" fill="#f7b978"/><path d="M110.13,337.86a.2.2,0,0,1-.25-.16,32.7,32.7,0,0,1-.57-4.54c-.18-3.5.31-6.12,1.45-7.78a4.52,4.52,0,0,1,3.19-2,6.4,6.4,0,0,1,5,1.13c2.87,2.2,3.84,7,4.4,11.54a.21.21,0,0,1-.18.23h0a.2.2,0,0,1-.23-.17c-.55-4.42-1.49-9.16-4.24-11.28a6,6,0,0,0-4.68-1.05,4.14,4.14,0,0,0-2.9,1.8c-2.39,3.47-1.07,10.73-.81,12a.21.21,0,0,1-.16.24Z" fill="#f7b978"/><path d="M220.51,409.41l7.57,3.78,2.2-2.84-5.36-4.09S219.25,407.83,220.51,409.41Z" fill="#fdc0c6"/><path d="M229.34,410.41s-12.61,5.93-9.15,14.13l10.09-14.13" fill="#714664"/><path d="M185.52,337.53c.34.59,8,6,7.25,35.31,0,0,18.28,10.09,23.33,21.12s8.82,12.3,8.82,12.3l-4.73,6.93s-48.23-24-53.91-70.62S185.52,337.53,185.52,337.53Z" fill="#498fb3"/><path d="M129.28,415.72l1.3,8.36,3.59.15.24-6.74S129.84,413.78,129.28,415.72Z" fill="#fdc0c6"/><path d="M133.58,423.49s-12.14-6.84-16.82.74l17.37,0" fill="#714664"/><path d="M167.61,345.56s-2.65,12.52-27.18,29.17c0,0,5,17.94-1.11,28.44s-4.91,14.32-4.91,14.32l-8.39.16s-9.3-55.41,25.45-87.06S167.61,345.56,167.61,345.56Z" fill="#498fb3"/><path d="M132.11,281.56c-8.75,7.19-17,18.88-19.7,37.85h6.37a59.59,59.59,0,0,1,20.27-27.91A15,15,0,0,0,132.11,281.56Z" fill="#fdc0c6"/><path d="M203.33,272.22a41.33,41.33,0,0,0-6.7-2.63,25.14,25.14,0,0,0-5,14.36c21-1.38,25.93,30,25.93,30l6.37-1.73S219.54,280.33,203.33,272.22Z" fill="#fdc0c6"/><path d="M168,268.75l-9.44,1.5-.11-.06a51.88,51.88,0,0,0-26.34,11.37,15,15,0,0,1,6.94,9.94,55.72,55.72,0,0,1,6-3.91c-5,19.48,1.25,47.46,1.25,47.46,3.18-1.16,13.61,1.45,22.87,3.18s17.66-6.37,17.66-6.37c-10.71-4.63-6.37-44.58-6.37-44.58A29.09,29.09,0,0,1,191.58,284a25.14,25.14,0,0,1,5-14.36C182.28,265.29,168,268.75,168,268.75Z" fill="#00b050"/><path d="M153.24,243.56l-1.45,5.21s-5.79,8.4-.87,9c0,0,2,6.37,5.5,7.24s.58,8.11.58,8.11,6.66,4.63,9.84-1.74c0,0-1.15-10.71.58-12.74s-1.73-12.74-1.73-12.74S156.71,239.79,153.24,243.56Z" fill="#fdc0c6"/><path d="M213.91,329.42a.2.2,0,0,1-.19-.23,43.48,43.48,0,0,1,.34-5.23c.49-4,1.43-6.83,2.79-8.46a3.9,3.9,0,0,1,3.28-1.58,5.39,5.39,0,0,1,4.33,2.27c2.2,3.06,2.16,8.71,1.82,13.89a.21.21,0,0,1-.21.22h0a.22.22,0,0,1-.17-.25c.34-5.08.37-10.61-1.73-13.54a5,5,0,0,0-4.06-2.12,3.56,3.56,0,0,0-3,1.44c-2.84,3.42-3,11.85-3,13.35a.23.23,0,0,1-.19.24Z" fill="#2b2b2b"/><path d="M231.53,365.44a30.25,30.25,0,0,0,4.46,1.21l1.35,3-4.88.86Z" fill="#231f3b"/><polygon points="236.1 327.21 237.49 325.16 237.34 369.68 234.73 368.01 232.46 370.54 236.1 327.21" fill="#3b3663"/><polygon points="206.1 322.46 237.49 325.16 232.46 370.54 202.19 368.13 206.1 322.46" fill="#231f3b"/><path d="M214,329.89c-.25,0-.49-.23-.52-.62s.14-.73.39-.78.48.23.52.62S214.27,329.84,214,329.89Z" fill="#f0f0f0"/><path d="M226.06,331c-.26,0-.46-.31-.45-.7s.22-.71.48-.71.45.32.44.71S226.31,331,226.06,331Z" fill="#f0f0f0"/><path d="M213.91,329.42a.2.2,0,0,1-.19-.23,43.48,43.48,0,0,1,.34-5.23c.49-4,1.43-6.83,2.79-8.46a3.9,3.9,0,0,1,3.28-1.58,5.39,5.39,0,0,1,4.33,2.27c2.2,3.06,2.16,8.71,1.82,13.89a.21.21,0,0,1-.21.22h0a.22.22,0,0,1-.17-.25c.34-5.08.37-10.61-1.73-13.54a5,5,0,0,0-4.06-2.12,3.56,3.56,0,0,0-3,1.44c-2.84,3.42-3,11.85-3,13.35a.23.23,0,0,1-.19.24Z" fill="#2b2b2b"/><path d="M216.1,329.18a.22.22,0,0,1-.25-.16,32.91,32.91,0,0,1-.57-4.55c-.18-3.5.31-6.12,1.45-7.78a4.5,4.5,0,0,1,3.19-2,6.41,6.41,0,0,1,5,1.13c2.87,2.21,3.84,7,4.4,11.55a.22.22,0,0,1-.18.23h0a.21.21,0,0,1-.23-.18c-.55-4.41-1.49-9.16-4.24-11.27a6,6,0,0,0-4.68-1.05,4.08,4.08,0,0,0-2.9,1.8c-2.39,3.46-1.07,10.72-.81,12a.21.21,0,0,1-.16.24Z" fill="#2b2b2b"/><path d="M241.16,356.69a37.89,37.89,0,0,0,4.93.2l2,2.34-5,1.65Z" fill="#4db2ba"/><polygon points="239.17 323.08 240.28 321.07 248.05 359.23 245 358.29 243.05 360.88 239.17 323.08" fill="#ce375e"/><polygon points="206.6 324.69 240.28 321.07 243.05 360.88 210.6 364.56 206.6 324.69" fill="#4db2ba"/><path d="M216.3,329.56a.57.57,0,0,1-.66-.43.5.5,0,1,1,.93-.31A.56.56,0,0,1,216.3,329.56Z" fill="#f0f0f0"/><path d="M229.23,328.23A.63.63,0,0,1,229,327a.57.57,0,0,1,.6.52A.56.56,0,0,1,229.23,328.23Z" fill="#f0f0f0"/><path d="M216.1,329.18a.22.22,0,0,1-.25-.16,32.91,32.91,0,0,1-.57-4.55c-.18-3.5.31-6.12,1.45-7.78a4.5,4.5,0,0,1,3.19-2,6.41,6.41,0,0,1,5,1.13c2.87,2.21,3.84,7,4.4,11.55a.22.22,0,0,1-.18.23h0a.21.21,0,0,1-.23-.18c-.55-4.41-1.49-9.16-4.24-11.27a6,6,0,0,0-4.68-1.05,4.08,4.08,0,0,0-2.9,1.8c-2.39,3.46-1.07,10.72-.81,12a.21.21,0,0,1-.16.24Z" fill="#2b2b2b"/><path d="M159.32,256.3a13,13,0,0,1-8.4,1.44s-8.11,5.51-2.61,10.43,12.16.58,13-6.66.87-9.27,2.9-10.14,4,6.08-.29,6.95a3.1,3.1,0,0,0,2.61,2.9,5,5,0,0,0,2.6-5.5c-.87-3.77,10.42-12.16,0-12.45,0,0,0-7.82-5.21-5.21s-9.84-6.95-13.9-2-2.6,10.13,1.74,12.74l1.16-2.9s5.5-1.73,7.81,2.32S159.32,256.3,159.32,256.3Z" fill="#4c3789"/><path d="M217.8,312.18c-.58.87-3.83,4.73-1.19,5.55s7.33,1.2,8.31,0-1-5.55-1-5.55Z" fill="#fdc0c6"/><path d="M112.55,318.49c-.14.92-3.68,6.72-1.62,7.44s9.15.64,8.65-.77a34.77,34.77,0,0,1-.8-5.75Z" fill="#fdc0c6"/><g opacity="0.38"><path d="M101.89,66.13a1.07,1.07,0,0,0-1.15-.17,1,1,0,0,0-.4.43,1.21,1.21,0,0,0-.08.25,2.35,2.35,0,0,0,0,.26l.31-.4a1.35,1.35,0,0,1,.35-.29A1.64,1.64,0,0,1,101.89,66.13Z" fill="#755337"/><path d="M103.85,51.35H103c0-4.5-2.28-8.16-5.09-8.16s-5.09,3.66-5.09,8.16H92c0-5,2.61-8.9,5.94-8.9S103.85,46.36,103.85,51.35Z" fill="#606060"/><polygon points="111.06 84.67 80.76 85.04 86.46 50.61 105.12 49.13 111.06 84.67" fill="#4db2ba"/><path d="M102.15,51h-.85c0-4.5-2.28-8.16-5.09-8.16S91.12,46.48,91.12,51h-.84c0-5,2.6-8.9,5.93-8.9S102.15,46,102.15,51Z" fill="#606060"/><polygon points="91.55 60.98 99.18 60.24 99.18 72.82 91.55 73.56 91.55 60.98" fill="#f4f5ff"/><polygon points="46.31 143.2 47.15 111.5 82.29 106.96 80.52 143.2 46.31 143.2" fill="#f7b978"/><polygon points="50.32 112.22 51.75 80.51 112.06 75.97 109.02 112.22 50.32 112.22" fill="#03893c"/><polygon points="73.01 141.53 73.85 94.09 108.99 87.3 111.4 139.87 73.01 141.53" fill="#00b050"/><polygon points="43.81 156.56 113.06 156.56 118.07 129.85 43.47 135.92 43.81 156.56" fill="#033a1a"/><path d="M59.44,94.16h-.6c0-2.42-1.62-4.39-3.62-4.39s-3.61,2-3.61,4.39H51c0-2.69,1.86-4.79,4.22-4.79S59.44,91.47,59.44,94.16Z" fill="#606060"/><polygon points="64.56 112.05 43.03 112.25 47.09 93.76 60.34 92.96 64.56 112.05" fill="#88c2f9"/><path d="M58.24,94h-.61c0-2.42-1.62-4.39-3.61-4.39s-3.62,2-3.62,4.39h-.6c0-2.69,1.85-4.79,4.22-4.79S58.24,91.27,58.24,94Z" fill="#606060"/><path d="M52.41,185a4.84,4.84,0,1,1-4.84-4.84A4.84,4.84,0,0,1,52.41,185Z" fill="#4c3789"/><path d="M108.87,185a4.84,4.84,0,1,1-4.84-4.84A4.84,4.84,0,0,1,108.87,185Z" fill="#4c3789"/><path d="M119.14,159.79H37.63l-7.88-55.12L131.5,94.61Zm-80.58-1.08h79.69l11.93-62.89L31,105.63Z" fill="#498fb3"/><path d="M119.19,178.83H39v-1.08h80.22c2.3,0,7.07-2.35,7.07-9.61,0-7.06-6.87-8.3-7.16-8.35l.17-1.06c.08,0,8.07,1.43,8.07,9.41S121.84,178.83,119.19,178.83Z" fill="#498fb3"/><rect x="44.61" y="103.71" width="1.08" height="55.6" transform="translate(-11.28 4.43) rotate(-4.99)" fill="#498fb3"/><rect x="59.4" y="101.66" width="1.08" height="57.55" transform="matrix(1, -0.02, 0.02, 1, -2.43, 1.14)" fill="#498fb3"/><rect x="47.82" y="129.36" width="58.65" height="1.08" transform="matrix(0.04, -1, 1, 0.04, -55.52, 202.17)" fill="#498fb3"/><rect x="63.5" y="128.28" width="61.16" height="1.08" transform="translate(-44.65 207.56) rotate(-83.44)" fill="#498fb3"/><rect x="80.22" y="127.47" width="63.21" height="1.08" transform="translate(-32.6 217.64) rotate(-80.68)" fill="#498fb3"/><rect x="31.83" y="111.88" width="96.55" height="1.08" transform="translate(-8.54 6.61) rotate(-4.48)" fill="#498fb3"/><rect x="34.09" y="128.82" width="90.95" height="1.08" transform="translate(-5.25 3.38) rotate(-2.36)" fill="#498fb3"/><rect x="36.28" y="146.03" width="84.96" height="1.08" transform="translate(-0.86 0.46) rotate(-0.34)" fill="#498fb3"/><polyline points="130.06 95.89 132.43 83.36 133.78 83.36 131.5 95.89 130.06 96.74" fill="#498fb3"/><polygon points="128.27 94.93 128.36 80.31 130.06 80.99 129.16 94.93 128.27 94.93" fill="#498fb3"/><path d="M127.35,79.64l1.35-3.73,7.79,5.42s3,3.73,0,3.73S127.35,79.64,127.35,79.64Z" fill="#498fb3"/></g><path d="M522.76,338.9a2.7,2.7,0,0,1,0-.59c0-.45,0-1-.05-1.7,0-1.55,0-3.67-.08-6.26q0-2,0-4.32c0-.78,0-1.58,0-2.41a20.67,20.67,0,0,1,.08-2.58,8.57,8.57,0,0,1,16.74-1.16,9.29,9.29,0,0,1,.32,2.59c0,.82,0,1.62,0,2.4,0,1.55,0,3,0,4.32,0,2.59-.07,4.71-.09,6.26,0,.69,0,1.26,0,1.7a2.08,2.08,0,0,1,0,.59,2.7,2.7,0,0,1-.05-.59c0-.44,0-1,0-1.7,0-1.55-.05-3.67-.08-6.26,0-1.32,0-2.77,0-4.32a19.18,19.18,0,0,0-.34-4.86,8.12,8.12,0,0,0-8.35-5.84,8.15,8.15,0,0,0-5.09,2.28,8.07,8.07,0,0,0-2.36,4.66,19.16,19.16,0,0,0-.1,2.51c0,.83,0,1.63,0,2.41q0,2.33,0,4.32c0,2.59-.07,4.71-.09,6.26l0,1.7A2.27,2.27,0,0,1,522.76,338.9Z" fill="#263238"/><path d="M533.08,338.9a2.7,2.7,0,0,1-.05-.59c0-.45,0-1,0-1.7,0-1.55-.05-3.67-.08-6.26q0-2,0-4.32c0-.78,0-1.58,0-2.41a18.92,18.92,0,0,1,.08-2.58,8.57,8.57,0,0,1,16.74-1.16,9.29,9.29,0,0,1,.32,2.59c0,.82,0,1.62,0,2.4,0,1.55,0,3,0,4.32,0,2.59-.07,4.71-.09,6.26,0,.69,0,1.26-.05,1.7a2.08,2.08,0,0,1,0,.59,2.7,2.7,0,0,1,0-.59c0-.44,0-1-.05-1.7,0-1.55,0-3.67-.08-6.26,0-1.32,0-2.77,0-4.32a19.18,19.18,0,0,0-.34-4.86,8.12,8.12,0,0,0-8.35-5.84,8.15,8.15,0,0,0-5.09,2.28,8.07,8.07,0,0,0-2.36,4.66,19.16,19.16,0,0,0-.1,2.51c0,.83,0,1.63,0,2.41q0,2.33,0,4.32c0,2.59-.07,4.71-.09,6.26l0,1.7A2.08,2.08,0,0,1,533.08,338.9Z" fill="#263238"/><polygon points="510.25 334.5 503.3 395.89 551.02 395.89 557.05 334.5 510.25 334.5" fill="#00b050"/><polygon points="557.05 334.5 567.01 334.5 575.43 395.89 551.02 395.89 557.05 334.5" fill="#00b050"/><g opacity="0.4"><polygon points="557.05 334.5 567.01 334.5 575.43 395.89 551.02 395.89 557.05 334.5"/></g><polygon points="508.3 351.77 554.16 363.98 551.82 387.77 505.55 376.01 508.3 351.77" fill="#fafafa"/><path d="M435.93,240.27a31,31,0,0,0-.33,18.8c1.13,3.74,3,7.49,2.43,11.36-.46,3.16-2.52,5.93-2.92,9.09-.83,6.44,5.29,12.54,3.65,18.82a10,10,0,0,1-5.87,6.36,18.22,18.22,0,0,1-8.79,1.1c-4.4-.38-9.15-2.05-11.18-6-1.61-3.12-1.11-6.86-.55-10.33,2.48-15.32,5.34-30.75,11.56-45" fill="#263238"/><path d="M437.88,287.63a2.86,2.86,0,0,1-.51.16,5,5,0,0,1-1.55.13,5.82,5.82,0,0,1-2.35-.68,5.26,5.26,0,0,1-2.26-2.31,5.86,5.86,0,0,1-.45-3.9,5.47,5.47,0,0,1,.93-2,8.66,8.66,0,0,1,1.67-1.64,44.13,44.13,0,0,0,4-2.95,7.9,7.9,0,0,0,2.22-4.63,13.19,13.19,0,0,0-.38-5.22,30.07,30.07,0,0,0-1.74-4.62,37.92,37.92,0,0,1-3-7.85,11.84,11.84,0,0,1,0-5.65,6.43,6.43,0,0,1,.82-1.92,11.79,11.79,0,0,0-.7,2,12.13,12.13,0,0,0,.07,5.57,39.12,39.12,0,0,0,3.08,7.78,30.47,30.47,0,0,1,1.77,4.66,13.59,13.59,0,0,1,.39,5.34,8.21,8.21,0,0,1-2.31,4.8,44.74,44.74,0,0,1-4,3,6.18,6.18,0,0,0-2.53,3.48,5.65,5.65,0,0,0,.39,3.74,5.19,5.19,0,0,0,2.15,2.26,5.92,5.92,0,0,0,2.28.71A6.83,6.83,0,0,0,437.88,287.63Z" fill="#263238"/><path d="M377.41,386.27l-2.5,9.57-25.75-.24s1.9-4.5,16-4.29l1-5Z" fill="#b78876"/><path d="M471.16,242.63c-.25.49-6.78,34.09-6.78,34.09l15.41.72,6-28.89Z" fill="#455a64"/><polygon points="464.38 276.72 462.61 275.97 469.28 242.86 471.37 242.72 464.38 276.72" fill="#263238"/><path d="M477.36,250a.8.8,0,1,0,.89-.7A.8.8,0,0,0,477.36,250Z" fill="#263238"/><path d="M480.54,273.56l.22-4.4-6.58-2.71,2.57-6.1a5.31,5.31,0,0,1,7.39-2.53l2.64,1.43a7.58,7.58,0,0,1,3.75,4.88,96.26,96.26,0,0,1,1.53,10.74" fill="#b78876"/><path d="M498.16,385.56s27.08,7.49,28.16,7.88c1.64.57,1.36,6.55-1.18,6.45-1.2,0-20.8.73-23.27.58s-9.95-3.1-9.95-3.1Z" fill="#00b050"/><path d="M509.44,395.89a25.22,25.22,0,0,1,1.19-2.91,24.73,24.73,0,0,1,1.92-2.49,4.83,4.83,0,0,0-2.31,2.27A4.78,4.78,0,0,0,509.44,395.89Z" fill="#263238"/><path d="M506.61,394.61c.14,0,.41-1.26,1.13-2.67s1.57-2.41,1.48-2.5a5,5,0,0,0-1.88,2.29A5.21,5.21,0,0,0,506.61,394.61Z" fill="#263238"/><path d="M504,393.9a17.4,17.4,0,0,1,.63-2.86,19.94,19.94,0,0,1,1.47-2.53,5.08,5.08,0,0,0-2.1,5.39Z" fill="#263238"/><path d="M504.45,390.4a4.66,4.66,0,0,0,.29-2,9.46,9.46,0,0,0-.28-2.21,9.61,9.61,0,0,0-.4-1.26,1.59,1.59,0,0,0-.43-.66.72.72,0,0,0-.93,0,1.19,1.19,0,0,0-.36.77,4.41,4.41,0,0,0,0,.72,6.19,6.19,0,0,0,.17,1.32,8,8,0,0,0,.83,2.07,5.36,5.36,0,0,0,1.22,1.63c.06,0-.39-.67-.94-1.78a9.37,9.37,0,0,1-.71-2,6.2,6.2,0,0,1-.13-1.24c0-.41,0-.93.25-1.13a.26.26,0,0,1,.36,0,1.12,1.12,0,0,1,.3.47,10.52,10.52,0,0,1,.41,1.19,11.89,11.89,0,0,1,.36,2.12C504.5,389.63,504.37,390.39,504.45,390.4Z" fill="#263238"/><path d="M504.41,390.13a3.63,3.63,0,0,0-1.74-.28,7.46,7.46,0,0,0-1.93.23,4.52,4.52,0,0,0-1.1.41,1.14,1.14,0,0,0-.61,1.24,1.33,1.33,0,0,0,1,1,2.51,2.51,0,0,0,1.22,0,4.67,4.67,0,0,0,1.76-.87,4.94,4.94,0,0,0,1.26-1.24,12.48,12.48,0,0,0-1.45,1,4.69,4.69,0,0,1-1.66.72,2.25,2.25,0,0,1-1,0,.91.91,0,0,1-.66-.65.68.68,0,0,1,.4-.75,4.18,4.18,0,0,1,1-.39,9.21,9.21,0,0,1,1.83-.31C503.74,390.09,504.4,390.2,504.41,390.13Z" fill="#263238"/><path d="M513.6,396.18a14.24,14.24,0,0,1,.53-2.44,13.89,13.89,0,0,1,1.33-2.12,3.87,3.87,0,0,0-1.86,4.56Z" fill="#263238"/><path d="M494.7,397.43a5.71,5.71,0,0,0,1.05.49,23.13,23.13,0,0,0,3,.94,43.32,43.32,0,0,0,10.34,1c4.06,0,7.72-.23,10.37-.34l3.14-.16a5.47,5.47,0,0,0,1.15-.13,5.55,5.55,0,0,0-1.16,0l-3.14,0-10.36.2a47.66,47.66,0,0,1-10.27-.84C496.25,398,494.73,397.35,494.7,397.43Z" fill="#263238"/><path d="M493.9,398.05c0,.06.78-.37,2-.92a9.4,9.4,0,0,1,5.13-.85,8.14,8.14,0,0,1,4.43,2.63,14.88,14.88,0,0,0,1.56,1.6,8.56,8.56,0,0,0-1.33-1.82,10.59,10.59,0,0,0-1.8-1.67,6.25,6.25,0,0,0-2.79-1.19,8.92,8.92,0,0,0-5.33,1A6.75,6.75,0,0,0,493.9,398.05Z" fill="#263238"/><path d="M469.41,378.08s-25.63,16.78-26.54,17.47c-1.38,1.05.2,6,2.59,5.15,1.13-.4,22.63-6.39,25-7.29s8.53-6,8.53-6Z" fill="#00b050"/><path d="M461.8,391.35a4.85,4.85,0,0,0-1.71-2.74,4.91,4.91,0,0,0-2.89-1.46,27.07,27.07,0,0,1,2.58,1.79A24.48,24.48,0,0,1,461.8,391.35Z" fill="#263238"/><path d="M464.1,389.27a5.13,5.13,0,0,0-1.56-2.52,5,5,0,0,0-2.49-1.61c-.06.12,1.06.79,2.17,1.93S464,389.34,464.1,389.27Z" fill="#263238"/><path d="M466.41,387.79a5.08,5.08,0,0,0-3.65-4.49,18.24,18.24,0,0,1,2.18,2A18.43,18.43,0,0,1,466.41,387.79Z" fill="#263238"/><path d="M464.89,384.61c.07,0-.28-.73-.58-1.92a10.39,10.39,0,0,1-.3-2.12,9.08,9.08,0,0,1,0-1.27,1.08,1.08,0,0,1,.14-.54.27.27,0,0,1,.35-.08c.29.12.44.62.58,1a6,6,0,0,1,.25,1.22,9.17,9.17,0,0,1-.06,2.13c-.18,1.22-.42,2-.35,2a5.76,5.76,0,0,0,.66-1.92,8.05,8.05,0,0,0,.17-2.23,5.7,5.7,0,0,0-.25-1.31,4.17,4.17,0,0,0-.25-.67,1.14,1.14,0,0,0-.57-.62.72.72,0,0,0-.9.23,1.51,1.51,0,0,0-.22.77,9.6,9.6,0,0,0,.41,3.51A4.92,4.92,0,0,0,464.89,384.61Z" fill="#263238"/><path d="M464.84,384.33c0,.07.63-.23,1.66-.49a9.3,9.3,0,0,1,1.84-.25,4.56,4.56,0,0,1,1.05.07c.34.08.6.29.61.6a.89.89,0,0,1-.43.81,2.11,2.11,0,0,1-.95.32,4.88,4.88,0,0,1-1.8-.18,12.52,12.52,0,0,0-1.67-.49,5,5,0,0,0,1.57.8,4.72,4.72,0,0,0,1.94.29,2.47,2.47,0,0,0,1.16-.37,1.37,1.37,0,0,0,.64-1.22,1.16,1.16,0,0,0-1-1,4,4,0,0,0-1.18-.05,7.47,7.47,0,0,0-1.9.36A3.85,3.85,0,0,0,464.84,384.33Z" fill="#263238"/><path d="M448.72,399.77s.44-.26.63-1a3.76,3.76,0,0,0-.48-2.78,10.17,10.17,0,0,0-.86-1.28,4.62,4.62,0,0,0-.87-.93,1.43,1.43,0,0,0-.82-.34c-.21,0-.32,0-.32.07a2.39,2.39,0,0,1,.94.51,5.7,5.7,0,0,1,.74.94,14.23,14.23,0,0,1,.79,1.25,4,4,0,0,1,.57,2.5C448.94,399.37,448.66,399.72,448.72,399.77Z" fill="#263238"/><path d="M457.92,392.89a3.08,3.08,0,0,0-.9-2.45,3.12,3.12,0,0,0-2.25-1.33c0,.13,1,.55,1.9,1.62A13.47,13.47,0,0,1,457.92,392.89Z" fill="#263238"/><path d="M476.31,388.34a11,11,0,0,0-1.13.78,32.22,32.22,0,0,1-3.16,1.93,42.28,42.28,0,0,1-5,2.24c-1.94.72-4.11,1.4-6.42,2.07-4.61,1.33-8.78,2.54-11.79,3.45l-3.56,1.09a8.09,8.09,0,0,0-1.29.46,7.46,7.46,0,0,0,1.34-.29l3.6-.95c3-.83,7.22-2,11.83-3.32,2.31-.67,4.49-1.37,6.44-2.12a38.15,38.15,0,0,0,5-2.35,26.65,26.65,0,0,0,3.11-2.07A6.47,6.47,0,0,0,476.31,388.34Z" fill="#263238"/><path d="M477.26,388.69a7.31,7.31,0,0,0-2.17-.58,9,9,0,0,0-5.39.66,6.42,6.42,0,0,0-2.3,2,10.88,10.88,0,0,0-1.21,2.14,8.38,8.38,0,0,0-.71,2.13,14.18,14.18,0,0,0,1-2,8.21,8.21,0,0,1,3.42-3.86,9.53,9.53,0,0,1,5.15-.74C476.4,388.57,477.24,388.76,477.26,388.69Z" fill="#263238"/><path d="M408,278.11l21,2,8.54,2.41a23.14,23.14,0,0,1,9.72,5.58l27.51,26.4,5-41,13.75,1.2-2.3,52.8a15.7,15.7,0,0,1-15,10.94,16.24,16.24,0,0,1-11.06-4.55l-19.59-18.41L445,341.76l13.6,11L406.17,382s-2.84-11.15-1.55-36c.24-4.56-8.12-18.39-8.76-22.47-2.45-15.64-2.07-38.54-2.07-38.54Z" fill="#00b050"/><path d="M395,284.5s-10.63,3.94-13.2,12.27c-2.28,7.38-9.89,48.91-9.89,48.91l-7.54,43.95,15.8.6,18.2-74.91Z" fill="#00b050"/><path d="M394.33,333a3.35,3.35,0,0,0,.33-.9c.17-.58.41-1.43.7-2.48.57-2.1,1.3-5,2-8.26s1.31-6.2,1.7-8.34c.2-1.08.34-1.94.43-2.55a3.68,3.68,0,0,0,.09-.94,3.9,3.9,0,0,0-.26.91c-.16.69-.35,1.53-.57,2.51-.5,2.24-1.13,5.12-1.84,8.31s-1.38,6.05-1.89,8.28q-.33,1.49-.57,2.52A4.24,4.24,0,0,0,394.33,333Z" fill="#263238"/><path d="M491.08,278.61a5.24,5.24,0,0,0,.4-2.07,4.89,4.89,0,0,0-.05-2.11,5.18,5.18,0,0,0-.4,2.07A4.91,4.91,0,0,0,491.08,278.61Z" fill="#263238"/><path d="M487.06,278.74a6,6,0,0,0,.34-2.21,5.54,5.54,0,0,0-.12-2.23,6,6,0,0,0-.34,2.21A5.54,5.54,0,0,0,487.06,278.74Z" fill="#263238"/><path d="M483.06,278.48a6.94,6.94,0,0,0,.36-2.46,6.7,6.7,0,0,0-.09-2.48A7.22,7.22,0,0,0,483,276,6.7,6.7,0,0,0,483.06,278.48Z" fill="#263238"/><path d="M475.33,320.79a29.92,29.92,0,0,0-.74-7.22,14.49,14.49,0,0,0,.14,3.63A15.05,15.05,0,0,0,475.33,320.79Z" fill="#263238"/><path d="M377.61,385.65a6,6,0,0,0-.61,2.2,5.79,5.79,0,0,0-.16,2.28,11.42,11.42,0,0,0,.77-4.48Z" fill="#263238"/><path d="M372.41,385.65a5,5,0,0,0-.56,2,4.88,4.88,0,0,0-.11,2.08,5.08,5.08,0,0,0,.56-2A4.65,4.65,0,0,0,372.41,385.65Z" fill="#263238"/><path d="M367.48,385.15a7.82,7.82,0,0,0-.51,2.25,7.33,7.33,0,0,0-.25,2.31,5.32,5.32,0,0,0,.69-2.23A4.92,4.92,0,0,0,367.48,385.15Z" fill="#263238"/><path d="M386.51,289.62c0,.08,1.11,0,2.82.37a13.12,13.12,0,0,1,9.79,8.55c.59,1.65.67,2.75.76,2.74a2.68,2.68,0,0,0,0-.77,10.9,10.9,0,0,0-.43-2.07,12.63,12.63,0,0,0-10-8.76,10.33,10.33,0,0,0-2.11-.15A2,2,0,0,0,386.51,289.62Z" fill="#263238"/><path d="M443.28,326.7c-.09,0,.41-1.3.91-3.41a30.54,30.54,0,0,0,.75-8.41,30.21,30.21,0,0,0-1.64-8.29c-.72-2-1.35-3.25-1.26-3.29a3.37,3.37,0,0,1,.51.81,19.06,19.06,0,0,1,1.1,2.36,27,27,0,0,1,.9,16.91,19.34,19.34,0,0,1-.84,2.46A3.34,3.34,0,0,1,443.28,326.7Z" fill="#263238"/><path d="M444.63,341.21a2.78,2.78,0,0,1-.91.06c-.59,0-1.43,0-2.48-.11a41.67,41.67,0,0,1-8-1.47,42.34,42.34,0,0,1-7.61-3c-.93-.48-1.66-.9-2.16-1.22a3.41,3.41,0,0,1-.74-.53c.05-.07,1.18.55,3.06,1.42a51.34,51.34,0,0,0,15.53,4.45C443.34,341.05,444.63,341.13,444.63,341.21Z" fill="#263238"/><g opacity="0.2"><path d="M421.42,333.9c1.65,1.47,4.2,1.68,6.41,1.64s4.4-.48,6.6-.44a8.14,8.14,0,0,1,6,2.28,2.94,2.94,0,0,1,.86,1.8,1.6,1.6,0,0,1-1,1.61,2.46,2.46,0,0,1-1.26-.05c-6.18-1.27-12.84-2.72-17.63-6.84"/></g><g opacity="0.2"><path d="M401.17,335.86c1.64-.48,1.9-2.38,2.06-4.08a37,37,0,0,0-3.93-20.29c-.78,4.59-2.05,9.38-3,14.06Z"/></g><path d="M398.32,316.71a4,4,0,0,0-1.33-.6,4.59,4.59,0,0,0-3.7,1.06c-1.34,1-2.08,3.05-2.49,5.26s-.65,4.88-2.35,7.11a5.52,5.52,0,0,1-3.38,2,27.61,27.61,0,0,1-3.62.27,7.74,7.74,0,0,0-5.35,2.2,8.12,8.12,0,0,0-2.11,3.38c-.29.91-.32,1.45-.37,1.44s0-.13,0-.39a5.62,5.62,0,0,1,.18-1.11,8.07,8.07,0,0,1,4.41-5.25,8.41,8.41,0,0,1,3.22-.75,28.78,28.78,0,0,0,3.55-.29,5,5,0,0,0,3.07-1.85,9.53,9.53,0,0,0,1.57-3.39c.31-1.18.48-2.37.72-3.5.44-2.23,1.24-4.35,2.73-5.45a4.69,4.69,0,0,1,4-1,2.73,2.73,0,0,1,1,.51C398.24,316.6,398.34,316.7,398.32,316.71Z" fill="#fafafa"/><path d="M457.73,297.36a6.67,6.67,0,0,1-1.32,2,9.91,9.91,0,0,1-5.76,3.09,9.43,9.43,0,0,1-4.57-.36,14.8,14.8,0,0,1-4.46-2.78A26,26,0,0,0,437,296a7.35,7.35,0,0,0-2.82-.77,8.59,8.59,0,0,0-3,.37,20,20,0,0,0-5.39,2.8,35.14,35.14,0,0,1-4.95,3,12.93,12.93,0,0,1-5.15,1.09,14.12,14.12,0,0,1-4.52-.75,13.61,13.61,0,0,1-5.53-3.54,9.38,9.38,0,0,1-1.1-1.42,2.64,2.64,0,0,1-.32-.54c.05,0,.49.72,1.56,1.82a14,14,0,0,0,5.51,3.33,13.05,13.05,0,0,0,9.35-.43,33.47,33.47,0,0,0,4.87-3,20.41,20.41,0,0,1,5.53-2.87,9.26,9.26,0,0,1,3.18-.39,7.94,7.94,0,0,1,3,.83,25.81,25.81,0,0,1,4.67,3.42,14.69,14.69,0,0,0,4.3,2.74,9,9,0,0,0,4.37.41,10,10,0,0,0,5.67-2.86A19.1,19.1,0,0,0,457.73,297.36Z" fill="#fafafa"/><path d="M483.61,337a14,14,0,0,1-.4-1.85,23.61,23.61,0,0,0-1.44-4.9,11.16,11.16,0,0,0-1.88-2.93,7.4,7.4,0,0,0-3.27-2.16,14,14,0,0,0-4.4-.44,17.87,17.87,0,0,1-4.89-.35,10.55,10.55,0,0,1-4.26-2.45,43.76,43.76,0,0,1-3.18-3.24c-1.92-2.11-4-3.8-6-4.31a5.37,5.37,0,0,0-6.14,2.06,2.15,2.15,0,0,1,.22-.45,4.09,4.09,0,0,1,1-1,6.19,6.19,0,0,1,5-.92c2.22.48,4.36,2.23,6.31,4.33,1,1,2,2.17,3.16,3.19a10.32,10.32,0,0,0,4.07,2.33c3.14.79,6.43-.14,9.29.83a7.84,7.84,0,0,1,3.45,2.33,11.29,11.29,0,0,1,1.9,3.07,21.5,21.5,0,0,1,1.3,5c.09.61.14,1.08.18,1.4A1.68,1.68,0,0,1,483.61,337Z" fill="#fafafa"/><path d="M444.6,321.83a1.68,1.68,0,0,1-.51.08,6.06,6.06,0,0,1-1.49-.05,18.33,18.33,0,0,1-5.12-1.85,21.58,21.58,0,0,0-3.45-1.34,9.15,9.15,0,0,0-4.15-.14,17.6,17.6,0,0,0-8.29,4.82c-2.5,2.4-4.68,5-7.12,6.83a15.83,15.83,0,0,1-7.35,3.3,15.45,15.45,0,0,1-5.45-.07,14.61,14.61,0,0,1-1.43-.37,1.58,1.58,0,0,1-.48-.2s.69.17,1.95.37a16.37,16.37,0,0,0,5.34-.09,15.87,15.87,0,0,0,7.13-3.32c2.36-1.85,4.52-4.4,7.06-6.83s5.47-4.34,8.55-4.91a9.43,9.43,0,0,1,4.35.2,20.39,20.39,0,0,1,3.5,1.42,19.68,19.68,0,0,0,5,2A16.12,16.12,0,0,0,444.6,321.83Z" fill="#fafafa"/><path d="M435.41,339.45c0,.15-1.05.08-2,.83s-1.16,1.73-1.31,1.7-.11-.28,0-.71a2.76,2.76,0,0,1,1-1.4,2.81,2.81,0,0,1,1.61-.6C435.17,339.27,435.43,339.39,435.41,339.45Z" fill="#fafafa"/><path d="M444,335.38a6.34,6.34,0,0,1-1.28,3,6.49,6.49,0,0,1-2.3,2.35,31,31,0,0,1,1.86-2.64A31.9,31.9,0,0,1,444,335.38Z" fill="#fafafa"/><path d="M409,349.5a22.65,22.65,0,0,1-2.47-.16c-1.35,0-2.43.27-2.48.13a3.6,3.6,0,0,1,2.48-.65A3.67,3.67,0,0,1,409,349.5Z" fill="#fafafa"/><path d="M380.34,301s.23.12.66.24a3,3,0,0,0,1.81-.16,5,5,0,0,0,2.11-1.74,24.29,24.29,0,0,1,2.22-2.78,11.88,11.88,0,0,1,5.67-3.11,10.12,10.12,0,0,1,1.95-.24c.47,0,.72,0,.73.06s-1,.1-2.59.54a12.58,12.58,0,0,0-5.39,3.12,28.11,28.11,0,0,0-2.22,2.71,5.14,5.14,0,0,1-2.35,1.79,3,3,0,0,1-2,0C380.49,301.2,380.32,301,380.34,301Z" fill="#fafafa"/><path d="M433.85,281.24a3.82,3.82,0,0,1-1.14,1.32,9.3,9.3,0,0,1-3.72,1.92,9.47,9.47,0,0,1-4.19.15,3.84,3.84,0,0,1-1.63-.59,11.2,11.2,0,0,1,1.69.22,11.06,11.06,0,0,0,4-.28,11.17,11.17,0,0,0,3.63-1.71A12.72,12.72,0,0,1,433.85,281.24Z" fill="#fafafa"/><path d="M389,355.79s-.43,0-1.15.2a7.45,7.45,0,0,0-2.81,1.36,11.74,11.74,0,0,0-3,3.55c-.89,1.52-1.64,3.34-2.58,5.19a14,14,0,0,1-3.57,4.68,6.57,6.57,0,0,1-4.53,1.55,5,5,0,0,1-3-1.12,3,3,0,0,1-.6-.66c-.11-.16-.17-.26-.15-.27s.28.33.87.77a5.1,5.1,0,0,0,2.93.91,6.37,6.37,0,0,0,4.22-1.55,14,14,0,0,0,3.4-4.55c.94-1.82,1.7-3.65,2.64-5.2a11.34,11.34,0,0,1,3.19-3.59,6.8,6.8,0,0,1,3-1.26,3.64,3.64,0,0,1,.88-.05C388.86,355.76,389,355.77,389,355.79Z" fill="#fafafa"/><g opacity="0.3"><path d="M474.29,314a9,9,0,0,0-1.8,7.84c.11.44.32.93.75,1.06a1,1,0,0,0,1-.37,2.45,2.45,0,0,0,.42-1,16,16,0,0,0-.13-7.72"/></g><path d="M493,290.84a15.29,15.29,0,0,0-2.52,3,23.81,23.81,0,0,0-1.81,3.89c-.58,1.52-1.14,3.23-1.93,5a12.69,12.69,0,0,1-3.12,4.39,7.94,7.94,0,0,1-4,1.81,5.43,5.43,0,0,1-2.94-.38,3.3,3.3,0,0,1-.7-.41c-.15-.11-.22-.17-.21-.19s.35.18,1,.42a5.64,5.64,0,0,0,2.81.19,7.74,7.74,0,0,0,3.75-1.81,12.53,12.53,0,0,0,2.95-4.24c.78-1.69,1.35-3.39,2-4.91a21.22,21.22,0,0,1,1.95-3.91,10.26,10.26,0,0,1,1.93-2.23A3.32,3.32,0,0,1,493,290.84Z" fill="#fafafa"/><path d="M493.86,279.73a6.14,6.14,0,0,1-1.75,1.54,14.54,14.54,0,0,1-10.84,2.14,6.25,6.25,0,0,1-2.2-.75c0-.09.87.19,2.26.39a16.85,16.85,0,0,0,5.47-.15,16.55,16.55,0,0,0,5.11-1.94C493.13,280.24,493.8,279.67,493.86,279.73Z" fill="#fafafa"/><path d="M501.24,385.24S438.39,344,435.82,343.16s-8.8-4.93-15-3.21-11.8,7.29-14.59,15.44-3,26.37-3,26.37,4.93,14.37,14.58,17.37a24.42,24.42,0,0,0,2.52.63,29.67,29.67,0,0,0,30.35-13.11l1.4-2.14s41.11,15.11,41.75,14.89Z" fill="#263238"/><path d="M522.67,337.16a12.28,12.28,0,0,1,7.72,11.37C530.45,365,497,383.24,497,383.24l-44.48-29.47v-3.1S509.8,330.08,522.67,337.16Z" fill="#263238"/><path d="M423.49,373.9a3.3,3.3,0,0,0,.34.15l1,.41,4,1.53,14.81,5.58c6.29,2.35,13.82,5.14,22.28,8.21s17.82,6.45,27.82,9.84l.18.06.09-.17,4.91-9.38,2.51-4.78.09-.19-.17-.11-47.94-30.43L439,345.54l-3.91-2.44-1-.62a4,4,0,0,0-.36-.2l.33.23,1,.66,3.87,2.51,14.32,9.21,47.86,30.54-.08-.29-2.5,4.78-4.91,9.38.28-.11c-10-3.38-19.38-6.74-27.84-9.78l-22.31-8.12-14.85-5.45-4-1.46-1.05-.37Z" fill="#455a64"/><path d="M475.07,368.65a6.79,6.79,0,0,0,1.16-.78c.73-.53,1.77-1.32,3-2.3,2.54-2,6-4.76,9.73-8s7-6.2,9.35-8.42c1.16-1.11,2.09-2,2.73-2.66a8.79,8.79,0,0,0,1-1,8.46,8.46,0,0,0-1.08.9L498.14,349c-2.39,2.16-5.7,5.12-9.42,8.32s-7.15,6-9.64,8.05l-2.95,2.41A10.13,10.13,0,0,0,475.07,368.65Z" fill="#455a64"/><path d="M510.11,343.33a11,11,0,0,0-8.1,2.39c.08.12,1.7-.91,3.94-1.56S510.11,343.47,510.11,343.33Z" fill="#455a64"/><path d="M506.28,340.73a6.72,6.72,0,0,0-4,5c.13,0,.61-1.34,1.73-2.71S506.35,340.85,506.28,340.73Z" fill="#455a64"/><path d="M525.11,393c0-.05-.53-.16-1.14.35a4.14,4.14,0,0,0-1.29,2.58,5.06,5.06,0,0,0,.41,2.85c.31.67.66,1,.7,1a8.6,8.6,0,0,0-.41-1.08,5.91,5.91,0,0,1-.25-2.66,4.47,4.47,0,0,1,1-2.41A3.13,3.13,0,0,1,525.11,393Z" fill="#263238"/><path d="M396.33,245.86a6.31,6.31,0,0,0-9.2.39,10.84,10.84,0,0,0-2.12,5.58,27.22,27.22,0,0,1-1.16,5.92,6.12,6.12,0,0,1-4.21,4c-1.5.28-3.27-.19-4.42.82a2.85,2.85,0,0,0-.27,3.57,6.59,6.59,0,0,0,3.08,2.31c.47.21,1,.51,1,1s-.85.92-1.47,1.18c-1.87.78-2.4,3.44-1.37,5.18a6.06,6.06,0,0,0,5.19,2.59,17.26,17.26,0,0,0,5.88-1.36,2.29,2.29,0,0,0-.06,2.9,3.14,3.14,0,0,0,2.84,1.06,5,5,0,0,0,2.76-1.43,10,10,0,0,0,2.72-5.45,34.21,34.21,0,0,0,.36-6.16,162.09,162.09,0,0,1,1.57-22" fill="#263238"/><path d="M417.57,231.66a15.21,15.21,0,0,1,14.51,15.17c0,6.29-.09,13.13-.49,17.19-.93,9.44-8,11.05-8,11.05s.23,5.87.54,11.43c.3,5.3-4.05,10-9.71,10.42h0c-5.61.46-10.42-3.39-10.81-8.63l-1.9-40.74a15.2,15.2,0,0,1,15.89-15.89Z" fill="#b78876"/><path d="M429.92,251a1.2,1.2,0,0,1-1.08,1.28,1.15,1.15,0,0,1-1.3-1,1.2,1.2,0,0,1,1.08-1.28A1.15,1.15,0,0,1,429.92,251Z" fill="#263238"/><path d="M429.9,249.1c-.14.16-1.09-.46-2.38-.38s-2.2.79-2.35.64.06-.36.46-.69a3.25,3.25,0,0,1,1.86-.69,3.13,3.13,0,0,1,1.91.49C429.81,248.75,430,249,429.9,249.1Z" fill="#263238"/><path d="M416.48,251.66a1.2,1.2,0,0,1-1.08,1.28,1.15,1.15,0,0,1-1.3-1,1.2,1.2,0,0,1,1.08-1.28A1.15,1.15,0,0,1,416.48,251.66Z" fill="#263238"/><path d="M416.46,250.37c-.14.16-1.09-.46-2.38-.38s-2.2.78-2.35.63.06-.35.46-.68a3.36,3.36,0,0,1,1.87-.7,3.19,3.19,0,0,1,1.9.5C416.37,250,416.53,250.29,416.46,250.37Z" fill="#263238"/><path d="M421.71,259.66a8.56,8.56,0,0,1,2.07-.5c.33-.06.64-.14.68-.37a1.72,1.72,0,0,0-.28-1c-.35-.78-.73-1.6-1.12-2.46a42.91,42.91,0,0,1-2.58-6.43,43,43,0,0,1,3.09,6.21l1.08,2.47a1.89,1.89,0,0,1,.25,1.28.8.8,0,0,1-.51.52,2.12,2.12,0,0,1-.56.11A8.48,8.48,0,0,1,421.71,259.66Z" fill="#263238"/><path d="M423.6,275.09a25.59,25.59,0,0,1-12.82-2.81s3.49,6.72,12.89,5.5Z" fill="#995037"/><path d="M412.2,246.78c.15.22,1.09-.17,2.27-.42s2.18-.32,2.22-.6-1.06-.66-2.44-.35S412,246.57,412.2,246.78Z" fill="#263238"/><path d="M425,244.45c.06.27,1.12.23,2.39.25s2.33.08,2.4-.19-1-.76-2.39-.78S424.91,244.2,425,244.45Z" fill="#263238"/><path d="M404.08,283.39c-.09-1.94,2.08-10.36,2.95-15.53s-2.52-6-3-9.05a10.49,10.49,0,0,1,1-6c4.94,1.77,6.89-1.74,9.59-3.83,2.87-2.21,3.49-4.93,4.67-8.36s2.53-5.57,6.14-5.9a10.67,10.67,0,0,1,4.81,5.51c1.1,3.21,2,15.73,2,15.73.5-6,5.37-8.53,4-17.36-.57-3.82-3.74-9-8.62-9.79-1.41-.22-4.09-.39-4.09-.39-2.92-2.63-4.34-2.55-7.13-3.79-6-2.67-13.25,2.1-17.25,7.33-3.08,4-4.57,9.47-5.4,14.59a42.42,42.42,0,0,0-.24,10.74c.2,2.13-.06,4.84-2.15,6.47-3,2.33-3.78,6.77-1.71,12.7s-5.56,16-5.56,16a46.43,46.43,0,0,1,6.79-4.61C394,286.3,404.08,283.39,404.08,283.39Z" fill="#263238"/><path d="M420.16,262.74a1.93,1.93,0,0,0-1.79-.58,1.72,1.72,0,0,0-1.16.74,1.09,1.09,0,0,0,0,1.28,1.31,1.31,0,0,0,1.43.25,3.91,3.91,0,0,0,1.3-.92,1.34,1.34,0,0,0,.29-.34.36.36,0,0,0,0-.4" fill="#995037"/><path d="M417.32,261.11c.18,0,.26,1.13,1.32,1.88s2.28.53,2.3.7-.26.24-.78.29a2.84,2.84,0,0,1-1.91-.51,2.47,2.47,0,0,1-1-1.59C417.13,261.4,417.24,261.11,417.32,261.11Z" fill="#263238"/><path d="M376.53,258.46a12.1,12.1,0,0,0,.1,1.3,4.72,4.72,0,0,0,.5,1.43,3.18,3.18,0,0,0,1.4,1.36,2.75,2.75,0,0,0,2.29.12,2.93,2.93,0,0,0,1.54-2.13,11.5,11.5,0,0,0,.17-3.08c0-1.09-.11-2.22-.11-3.38a13.44,13.44,0,0,1,1.26-6.4,6.35,6.35,0,0,1,4-3.44,5.1,5.1,0,0,1,3.56.27,3,3,0,0,1,1,.81,7,7,0,0,0-1.1-.7,5.07,5.07,0,0,0-3.45-.17,6.18,6.18,0,0,0-3.79,3.36,13.43,13.43,0,0,0-1.21,6.27c0,1.15.07,2.27.1,3.37a11.4,11.4,0,0,1-.19,3.16,3.14,3.14,0,0,1-1.72,2.29,2.94,2.94,0,0,1-2.49-.15,3.4,3.4,0,0,1-1.46-1.48,4.64,4.64,0,0,1-.46-1.49A4,4,0,0,1,376.53,258.46Z" fill="#263238"/><path d="M390.33,278.74a2.3,2.3,0,0,1-.5-.49,4,4,0,0,1-.73-1.85,5.45,5.45,0,0,1,.55-3.1,12.19,12.19,0,0,1,2.59-3.27,22.38,22.38,0,0,0,3.4-3.67,8.68,8.68,0,0,0,1.16-5.49,57.79,57.79,0,0,1-.49-6.39,8.76,8.76,0,0,1,.78-3.34,6.05,6.05,0,0,1,2.45-2.54c2.09-1.19,4.44-1.51,6.36-2.58a10.38,10.38,0,0,0,4.12-4.65c.92-1.81,1.58-3.64,2.43-5.26a11.25,11.25,0,0,1,3.16-4,6.08,6.08,0,0,1,3.92-1.35,5,5,0,0,1,2.91,1.17,3.68,3.68,0,0,1,1.13,1.64,3.73,3.73,0,0,1,.12.5c0,.12,0,.18,0,.18s0-.24-.19-.66a3.75,3.75,0,0,0-1.15-1.57,4.84,4.84,0,0,0-2.84-1.08,5.9,5.9,0,0,0-3.78,1.34,11.27,11.27,0,0,0-3.06,3.9c-.83,1.6-1.48,3.44-2.4,5.27a10.65,10.65,0,0,1-4.23,4.79c-2,1.1-4.34,1.43-6.36,2.58a5.79,5.79,0,0,0-2.32,2.41,8.19,8.19,0,0,0-.75,3.21,56.77,56.77,0,0,0,.47,6.37,9,9,0,0,1-1.23,5.64,21.72,21.72,0,0,1-3.47,3.69,12.08,12.08,0,0,0-2.59,3.19,5.41,5.41,0,0,0-.58,3A3.84,3.84,0,0,0,390.33,278.74Z" fill="#455a64"/><path d="M392.8,250.37a4.8,4.8,0,0,1,1.19-5.68,20.59,20.59,0,0,0-1,2.74A22,22,0,0,0,392.8,250.37Z" fill="#fafafa"/><path d="M396.08,279.21A22.29,22.29,0,0,0,399,293.67a11.59,11.59,0,0,0,3.57,3.95,5.94,5.94,0,0,0,5.13.72,4,4,0,0,0,2.66-4.18c-.41-2.51-3.49-4.08-3.51-6.62,1.12.68,2.64,1.33,3.62.47a2.21,2.21,0,0,0,.37-2.47,9.4,9.4,0,0,0-1.51-2.17A13.55,13.55,0,0,1,406.59,273c.15-1,.42-4.13.44-5.16s-.27,0-1-.67a3.12,3.12,0,0,0-2.85-.52,6.05,6.05,0,0,0-2.54,1.58,11.66,11.66,0,0,0-3.47,8.88" fill="#263238"/><path d="M100.63,263.44a1,1,0,0,0-.09-.21c-.09-.16-.2-.35-.32-.59-.29-.51-.75-1.25-1.39-2.17A23.51,23.51,0,0,0,92,254a17,17,0,0,0-6.16-2.26,15.16,15.16,0,0,0-7.49.79,12.12,12.12,0,0,0-6.41,5.24c-1.48,2.57-2,5.59-2.81,8.48a15.49,15.49,0,0,1-1.79,4,12.2,12.2,0,0,1-3,3c-1.15.84-2.35,1.61-3.43,2.49a14.71,14.71,0,0,0-2.79,3,18.62,18.62,0,0,0-2.86,7,24.86,24.86,0,0,0-.38,6.56,49.46,49.46,0,0,0,1.68,9.32c.28,1.08.52,1.92.69,2.48a4.48,4.48,0,0,0,.28.85s0-.3-.18-.88-.35-1.45-.6-2.5a54.32,54.32,0,0,1-1.5-9.3,24.92,24.92,0,0,1,.43-6.44,18.46,18.46,0,0,1,2.83-6.79,14.31,14.31,0,0,1,2.71-2.91c1.06-.86,2.25-1.61,3.42-2.47a12.86,12.86,0,0,0,3.17-3.12,16,16,0,0,0,1.86-4.18c.87-2.94,1.34-5.91,2.75-8.37a11.74,11.74,0,0,1,6.14-5.06,14.94,14.94,0,0,1,7.26-.8,16.54,16.54,0,0,1,6,2.15,23.9,23.9,0,0,1,6.89,6.3c.67.89,1.15,1.61,1.47,2.1A5,5,0,0,0,100.63,263.44Z" fill="#bdf9d7"/><path d="M62.9,274c.8-.74,1.18-.23,2.25,0A6.54,6.54,0,0,1,68,275.43,12.14,12.14,0,0,1,72,288.18a9.48,9.48,0,0,1-8.71-14.24" fill="#bdf9d7"/><path d="M95.54,259.16c.4-1,1-.71,2-1a6.67,6.67,0,0,1,3.23.06,12.13,12.13,0,0,1,9,9.81,9.48,9.48,0,0,1-14-9.11" fill="#bdf9d7"/><path d="M55.71,294.12a11,11,0,0,1,17.21.84A13.56,13.56,0,0,1,64,298.48a13.82,13.82,0,0,1-9-3.63" fill="#bdf9d7"/><path d="M58.39,279.11a11.09,11.09,0,0,1-11.2-13.23A10,10,0,0,1,58.76,279" fill="#bdf9d7"/><path d="M69.88,261.46a11.09,11.09,0,0,1-15-8.76,10,10,0,0,1,15.27,8.53" fill="#bdf9d7"/><path d="M73.73,255.7a11.09,11.09,0,0,1,15,8.76,10,10,0,0,1-15.27-8.54" fill="#bdf9d7"/><path d="M78.32,252.59a11.08,11.08,0,0,1-5.9-16.3,10,10,0,0,1,6.28,16.33" fill="#bdf9d7"/><path d="M90.08,253.16a11.09,11.09,0,0,1,9.06-14.79,10,10,0,0,1-8.84,15.1" fill="#bdf9d7"/><polyline points="42.66 332.67 36.4 293.33 84.42 293.92 79.69 332.16" fill="#263238"/><path d="M63.39,286.15a8.17,8.17,0,0,0,8,.67,8.63,8.63,0,0,0,4.36-6.89,9.8,9.8,0,0,0-8-.4,9.65,9.65,0,0,0-5.29,5.92" fill="#00b050"/><path d="M85.34,294.62a8.17,8.17,0,0,0,8,.67,8.61,8.61,0,0,0,4.36-6.89,9.78,9.78,0,0,0-8-.4,9.67,9.67,0,0,0-5.3,5.92" fill="#00b050"/><path d="M73,275.7a8.19,8.19,0,0,0,6.28,4.95,8.62,8.62,0,0,0,7.43-3.36,9.22,9.22,0,0,0-14.09-2.68" fill="#00b050"/><path d="M81,285.5a8.22,8.22,0,0,0-7.17,3.55,8.61,8.61,0,0,0-.16,8.15,9.21,9.21,0,0,0,8.48-11.57" fill="#00b050"/><path d="M88.77,301a8.17,8.17,0,0,0,.19,8,8.6,8.6,0,0,0,7.32,3.59,9.76,9.76,0,0,0-.46-7.95c-1.26-2.3-3.53-3.43-6.38-4.08" fill="#00b050"/><path d="M101.53,302.81a5.53,5.53,0,0,0-1.9-1.21,8.36,8.36,0,0,0-2.6-.46,31.69,31.69,0,0,0-3.55.21,10.4,10.4,0,0,1-4.36-.37,6.7,6.7,0,0,1-3.6-3.49A19.56,19.56,0,0,1,84,292.18a15.52,15.52,0,0,0-1.85-5.45,19.68,19.68,0,0,0-4.07-4.13,19.8,19.8,0,0,1-3.88-3.94,13.05,13.05,0,0,1-1.94-9,12.63,12.63,0,0,1,2.36-5.81,10,10,0,0,1,1.15-1.27,2.84,2.84,0,0,1,.46-.39,2.54,2.54,0,0,1-.38.46,12.13,12.13,0,0,0-1.06,1.32,13.17,13.17,0,0,0-.2,14.46,19.73,19.73,0,0,0,3.82,3.82,19.31,19.31,0,0,1,4.17,4.24,15.51,15.51,0,0,1,1.92,5.63,19.42,19.42,0,0,0,1.48,5.2,6.27,6.27,0,0,0,3.32,3.29,10.18,10.18,0,0,0,4.19.41,30.32,30.32,0,0,1,3.58-.13,8,8,0,0,1,2.67.56,4.56,4.56,0,0,1,1.44.93,2.4,2.4,0,0,1,.3.34C101.51,302.76,101.54,302.8,101.53,302.81Z" fill="#e8505b"/><path d="M101.53,302.81a5.53,5.53,0,0,0-1.9-1.21,8.36,8.36,0,0,0-2.6-.46,31.69,31.69,0,0,0-3.55.21,10.4,10.4,0,0,1-4.36-.37,6.7,6.7,0,0,1-3.6-3.49A19.56,19.56,0,0,1,84,292.18a15.52,15.52,0,0,0-1.85-5.45,19.68,19.68,0,0,0-4.07-4.13,19.8,19.8,0,0,1-3.88-3.94,13.05,13.05,0,0,1-1.94-9,12.63,12.63,0,0,1,2.36-5.81,10,10,0,0,1,1.15-1.27,2.84,2.84,0,0,1,.46-.39,2.54,2.54,0,0,1-.38.46,12.13,12.13,0,0,0-1.06,1.32,13.17,13.17,0,0,0-.2,14.46,19.73,19.73,0,0,0,3.82,3.82,19.31,19.31,0,0,1,4.17,4.24,15.51,15.51,0,0,1,1.92,5.63,19.42,19.42,0,0,0,1.48,5.2,6.27,6.27,0,0,0,3.32,3.29,10.18,10.18,0,0,0,4.19.41,30.32,30.32,0,0,1,3.58-.13,8,8,0,0,1,2.67.56,4.56,4.56,0,0,1,1.44.93,2.4,2.4,0,0,1,.3.34C101.51,302.76,101.54,302.8,101.53,302.81Z" fill="#00b050"/><path d="M112.21,286a10.28,10.28,0,0,0,.72-3.52,8.74,8.74,0,0,0-.94-4.07,8.49,8.49,0,0,0-3.91-3.78,8.72,8.72,0,0,0-3.09-.83,10.11,10.11,0,0,0-3.45.4c-2.35.62-4.68,2-7.47,2.51a8.8,8.8,0,0,1-4.32-.1,6.55,6.55,0,0,1-3.53-2.82c-1.68-2.6-2.15-5.87-4.18-8.26a8.14,8.14,0,0,0-3.79-2.48,10.63,10.63,0,0,0-4.43-.45,11.31,11.31,0,0,0-7.37,3.83,17.18,17.18,0,0,0-3.66,6.77,20.38,20.38,0,0,0-.82,6.71,72.21,72.21,0,0,0,1.25,9.81l.45,2.66c0,.28.08.51.11.69a2.18,2.18,0,0,1,0,.24s0-.07-.07-.23l-.16-.68c-.13-.65-.32-1.53-.55-2.64a65.94,65.94,0,0,1-1.42-9.84,20.55,20.55,0,0,1,.77-6.84,17.62,17.62,0,0,1,3.72-7,13.35,13.35,0,0,1,3.37-2.7,11.65,11.65,0,0,1,9-.86,8.72,8.72,0,0,1,4,2.64c2.14,2.57,2.6,5.85,4.21,8.32a6,6,0,0,0,3.25,2.62,8.3,8.3,0,0,0,4.08.11c2.68-.51,5-1.83,7.45-2.45a10.32,10.32,0,0,1,3.59-.39,8.89,8.89,0,0,1,3.22.9,8.68,8.68,0,0,1,4.89,8.18,8.47,8.47,0,0,1-.52,2.66A4.24,4.24,0,0,1,112.21,286Z" fill="#00b050"/><path d="M84.12,268.59a9.35,9.35,0,0,0,8.57.56,8.65,8.65,0,0,0,4.36-6.89,9.84,9.84,0,0,0-8-.41,9.7,9.7,0,0,0-5.29,5.92" fill="#00b050"/><path d="M93.23,276.85a9.3,9.3,0,0,0,4,7.6,8.63,8.63,0,0,0,8.16.14,9.82,9.82,0,0,0-3.8-7,9.68,9.68,0,0,0-7.81-1.43" fill="#00b050"/><path d="M109,275a9.36,9.36,0,0,0,8.58-.36,8.63,8.63,0,0,0,3.6-7.31,9.21,9.21,0,0,0-12.59,6.89" fill="#00b050"/><path d="M70.86,263.12c-2.3-2-3.85-5.47-3.41-8.08a8.64,8.64,0,0,1,5.3-6.21,9.83,9.83,0,0,1,2.74,7.48,9.72,9.72,0,0,1-4.09,6.81" fill="#00b050"/><path d="M9.19,251.81s0-.07.09-.21L9.6,251c.29-.51.74-1.25,1.39-2.17a23.18,23.18,0,0,1,6.87-6.49A16.9,16.9,0,0,1,24,240.08a15.17,15.17,0,0,1,7.49.79,12.2,12.2,0,0,1,6.41,5.24c1.47,2.57,1.94,5.59,2.8,8.48a15.49,15.49,0,0,0,1.79,4,12.24,12.24,0,0,0,3,3c1.14.84,2.34,1.61,3.43,2.49a15,15,0,0,1,2.79,3,18.6,18.6,0,0,1,2.85,7,24.45,24.45,0,0,1,.38,6.56A49.59,49.59,0,0,1,53.35,290c-.29,1.08-.53,1.92-.69,2.48a5.64,5.64,0,0,1-.28.85,5,5,0,0,1,.18-.88c.14-.61.34-1.45.59-2.5a54.16,54.16,0,0,0,1.51-9.3,24.51,24.51,0,0,0-.44-6.44,18.13,18.13,0,0,0-2.83-6.79,14.26,14.26,0,0,0-2.7-2.91c-1.06-.86-2.26-1.61-3.42-2.47a12.72,12.72,0,0,1-3.18-3.12,15.67,15.67,0,0,1-1.85-4.18c-.87-2.94-1.35-5.91-2.76-8.37a11.66,11.66,0,0,0-6.13-5.05,14.85,14.85,0,0,0-7.26-.81,16.41,16.41,0,0,0-6,2.15,24,24,0,0,0-6.9,6.3c-.67.89-1.14,1.61-1.46,2.11A8.72,8.72,0,0,1,9.19,251.81Z" fill="#00b050"/><path d="M46.91,262.39c-.79-.74-1.18-.22-2.25,0a6.59,6.59,0,0,0-2.88,1.44,12.16,12.16,0,0,0-3.94,12.75,9.48,9.48,0,0,0,8.71-14.24" fill="#00b050"/><path d="M14.28,247.53c-.4-1-1-.71-2-1A6.63,6.63,0,0,0,9,246.6a12.16,12.16,0,0,0-9,9.81A9.67,9.67,0,0,0,9.71,256,9.69,9.69,0,0,0,14,247.3" fill="#00b050"/><path d="M54.1,282.5a10.94,10.94,0,0,0-17.2.83,13.52,13.52,0,0,0,8.92,3.52,13.84,13.84,0,0,0,9-3.63" fill="#00b050"/><path d="M51.42,267.48a11.08,11.08,0,0,0,11.2-13.23,10,10,0,0,0-11.57,13.12" fill="#00b050"/><path d="M39.94,249.83a11.1,11.1,0,0,0,15-8.76,9.95,9.95,0,0,0-15.27,8.53" fill="#00b050"/><path d="M36.08,244.07a11.1,11.1,0,0,0-15,8.76,10,10,0,0,0,15.28-8.54" fill="#00b050"/><path d="M31.49,241a11.09,11.09,0,0,0,5.91-16.3A10,10,0,0,0,31.11,241" fill="#00b050"/><path d="M19.73,241.53a11.09,11.09,0,0,0-9-14.79,9.95,9.95,0,0,0,8.83,15.1" fill="#00b050"/><polygon points="35.78 328.11 39.46 332.67 84.66 332.67 87.74 328.11 35.78 328.11" fill="#263238"/><path d="M86.74,328.07c0,.14-11.1.26-24.8.26s-24.81-.12-24.81-.26,11.11-.26,24.81-.26S86.74,327.93,86.74,328.07Z" fill="#455a64"/><path d="M81.66,310.91s-.08.14-.28.37a11.65,11.65,0,0,1-.92,1,16.83,16.83,0,0,1-4,2.8,17.74,17.74,0,0,1-7,1.81,17.44,17.44,0,0,1-4.32-.36,25.78,25.78,0,0,1-4.4-1.46c-2.91-1.24-5.56-2.65-8.14-3.47a14,14,0,0,0-7-.68,9.11,9.11,0,0,0-4.32,2c-.85.75-1.18,1.31-1.23,1.28a2.19,2.19,0,0,1,.23-.41,6.78,6.78,0,0,1,.87-1,8.93,8.93,0,0,1,4.37-2.21,14.08,14.08,0,0,1,7.26.58c2.64.81,5.31,2.23,8.19,3.45A25.66,25.66,0,0,0,65.16,316a16.9,16.9,0,0,0,4.19.38,17.82,17.82,0,0,0,6.91-1.66A21.43,21.43,0,0,0,81.66,310.91Z" fill="#455a64"/><path d="M82.11,307.38a1.68,1.68,0,0,1-.31.35,9,9,0,0,1-1,.9,18.79,18.79,0,0,1-4.18,2.6,19.76,19.76,0,0,1-7.1,1.7,19.5,19.5,0,0,1-4.33-.3,27.71,27.71,0,0,1-4.47-1.26c-3-1.08-5.72-2.33-8.34-3.06a16.62,16.62,0,0,0-7.09-.64,10.64,10.64,0,0,0-4.48,1.71c-.93.66-1.34,1.16-1.38,1.12s.08-.14.28-.37a7.34,7.34,0,0,1,1-.91,10.08,10.08,0,0,1,4.53-1.91,16.38,16.38,0,0,1,7.28.54c2.67.72,5.43,2,8.38,3a29.08,29.08,0,0,0,4.39,1.25,19.21,19.21,0,0,0,4.22.32,19.79,19.79,0,0,0,7-1.56A24,24,0,0,0,82.11,307.38Z" fill="#455a64"/><rect x="2.72" y="331.65" width="96.13" height="64.34" fill="#00b050"/><g opacity="0.4"><rect x="2.72" y="331.65" width="96.13" height="64.34"/></g><rect x="79.35" y="331.74" width="7.63" height="13.05" fill="#e8505b"/><rect x="78.52" y="382.95" width="7.63" height="13.05" fill="#e8505b"/><path d="M30.23,395.86c-.14,0-.26-14.42-.26-32.21s.12-32.21.26-32.21.27,14.42.27,32.21S30.38,395.86,30.23,395.86Z" fill="#263238"/><path d="M64.32,366.7c0,.14-13.86.26-30.95.26s-30.95-.12-30.95-.26,13.85-.26,30.95-.26S64.32,366.55,64.32,366.7Z" fill="#263238"/><path d="M31.76,331.5A18.59,18.59,0,0,1,34,329.84a24.71,24.71,0,0,1,7.2-3.16,24.31,24.31,0,0,1,5.58-.81,4.69,4.69,0,0,1,1.61.12,1.48,1.48,0,0,1,1.06,1.34,2.12,2.12,0,0,1-.68,1.65,4.71,4.71,0,0,1-1.56.91,30.42,30.42,0,0,1-15.83,1.53l-.19,0,0-.2a37.93,37.93,0,0,1,2.31-10,37,37,0,0,1,2.31-5,6.56,6.56,0,0,1,1.9-2.17,3.5,3.5,0,0,1,2.92-.54,3,3,0,0,1,2,2.26,4.89,4.89,0,0,1-.3,3,26.36,26.36,0,0,1-3.16,5.16,33.48,33.48,0,0,1-9.23,8.31l-.1.06-.09,0-1.1-.29-1.12-.37a19.55,19.55,0,0,1-8.07-5.69,18.23,18.23,0,0,1-2.62-4.09,4.56,4.56,0,0,1-.62-2.39,1.31,1.31,0,0,1,.8-1.12,1.91,1.91,0,0,1,1.32.06,19.46,19.46,0,0,1,11.1,13.3l-.44.14a52.28,52.28,0,0,1-3.84-19.77,6,6,0,0,1,.4-2.26,2.55,2.55,0,0,1,.69-.94,1.76,1.76,0,0,1,1.11-.38,2.22,2.22,0,0,1,1.81,1.19,6.08,6.08,0,0,1,.77,1.9,54.08,54.08,0,0,1,.95,7.18,55.65,55.65,0,0,1-.25,10.19c-.14,1.17-.28,2.07-.39,2.67-.05.28-.09.51-.13.68s-.05.23-.05.23a.87.87,0,0,1,0-.24c0-.17.05-.4.09-.68.08-.61.2-1.51.31-2.68a57.64,57.64,0,0,0,.12-10.15,54.91,54.91,0,0,0-1-7.12,5.7,5.7,0,0,0-.74-1.79,1.84,1.84,0,0,0-1.51-1,1.58,1.58,0,0,0-1.45,1.1,5.64,5.64,0,0,0-.36,2.11,52.21,52.21,0,0,0,3.88,19.59l-.44.15a19,19,0,0,0-10.82-12.93,1.41,1.41,0,0,0-1-.07.79.79,0,0,0-.48.71,4,4,0,0,0,.58,2.11,18.15,18.15,0,0,0,2.54,4,19.15,19.15,0,0,0,7.86,5.53l1.08.36,1.07.28-.19,0a33.07,33.07,0,0,0,9.09-8.18,26.24,26.24,0,0,0,3.1-5,4.43,4.43,0,0,0,.28-2.72A2.53,2.53,0,0,0,40.5,314a3,3,0,0,0-2.5.48,6,6,0,0,0-1.76,2,36.77,36.77,0,0,0-2.3,4.89,38.13,38.13,0,0,0-2.31,9.9l-.18-.24a30.17,30.17,0,0,0,15.63-1.43,4.4,4.4,0,0,0,1.45-.83,1.77,1.77,0,0,0,.58-1.38,1.15,1.15,0,0,0-.83-1.06,4.4,4.4,0,0,0-1.5-.12,24.72,24.72,0,0,0-5.53.75,25.55,25.55,0,0,0-7.19,3c-.77.47-1.34.87-1.72,1.15S31.76,331.5,31.76,331.5Z" fill="#263238"/><g clip-path="url(#clip-path-2)"><path d="M148.57,150.49l16.85-12.25,21.89,25.93a11.09,11.09,0,0,1,2.26,10l-7.38,28a9.39,9.39,0,0,1-9.73,7h0a9.38,9.38,0,0,1-8.65-10.56l3.25-25.27Z" fill="#00b050"/><path d="M164.73,171.85a5.88,5.88,0,0,1-.44-1,27.16,27.16,0,0,1-.95-2.74,33.71,33.71,0,0,1,0-18.89,28.06,28.06,0,0,1,1-2.73,7.91,7.91,0,0,1,.44-1,7.52,7.52,0,0,1-.32,1c-.24.64-.54,1.58-.86,2.75a35.72,35.72,0,0,0,0,18.77c.32,1.17.62,2.11.85,2.75A8,8,0,0,1,164.73,171.85Z" fill="#fafafa"/><path d="M165.1,159.66a14.23,14.23,0,0,0-1.69,4,14.54,14.54,0,0,0-.14,4.29,3.71,3.71,0,0,1-.31-1.25,9.17,9.17,0,0,1,.14-3.11,9,9,0,0,1,1.19-2.88A3.38,3.38,0,0,1,165.1,159.66Z" fill="#fafafa"/><path d="M159.48,154.07a3.15,3.15,0,0,1,.78.86,9.82,9.82,0,0,1,1.31,2.49,9.93,9.93,0,0,1,.54,2.75,3.16,3.16,0,0,1-.07,1.16,19.55,19.55,0,0,0-.77-3.81A19.17,19.17,0,0,0,159.48,154.07Z" fill="#fafafa"/><path d="M165.49,151a14.38,14.38,0,0,0-2.06,2.61,13.88,13.88,0,0,0-1.1,3.14,5.62,5.62,0,0,1,.82-3.29A5.78,5.78,0,0,1,165.49,151Z" fill="#fafafa"/><path d="M162.87,145.89a6.28,6.28,0,0,1-.09,5.25c-.09,0,.29-1.17.31-2.62S162.78,145.92,162.87,145.89Z" fill="#fafafa"/><path d="M183.08,207.49a7.91,7.91,0,0,1-.44-1,26.82,26.82,0,0,1-.95-2.73,33.6,33.6,0,0,1,0-18.89,26.29,26.29,0,0,1,.95-2.74,7.21,7.21,0,0,1,.44-1,6.76,6.76,0,0,1-.32,1c-.24.63-.54,1.57-.86,2.75a35.58,35.58,0,0,0,0,18.77c.31,1.17.61,2.11.85,2.75A7.52,7.52,0,0,1,183.08,207.49Z" fill="#fafafa"/><path d="M183.46,195.29a11.5,11.5,0,0,0-1.83,8.25,3.39,3.39,0,0,1-.32-1.25,9.19,9.19,0,0,1,1.33-6A3.48,3.48,0,0,1,183.46,195.29Z" fill="#fafafa"/><path d="M177.83,189.71s.36.28.79.86a9.9,9.9,0,0,1,1.3,2.48,9.64,9.64,0,0,1,.54,2.75,3.12,3.12,0,0,1-.07,1.16,19.53,19.53,0,0,0-.77-3.8A19.17,19.17,0,0,0,177.83,189.71Z" fill="#fafafa"/><path d="M183.85,186.59a13.32,13.32,0,0,0-2.07,2.61,14.31,14.31,0,0,0-1.1,3.14,5.59,5.59,0,0,1,.83-3.29A5.66,5.66,0,0,1,183.85,186.59Z" fill="#fafafa"/><path d="M181.22,181.53a4.85,4.85,0,0,1,.53,2.63,4.93,4.93,0,0,1-.62,2.61c-.09,0,.29-1.16.31-2.62S181.13,181.55,181.22,181.53Z" fill="#fafafa"/><path d="M174.5,193.22a5.79,5.79,0,0,1-.44-1,26,26,0,0,1-.95-2.73,33.71,33.71,0,0,1,0-18.89,25.59,25.59,0,0,1,1-2.73,6.36,6.36,0,0,1,.44-1,6.93,6.93,0,0,1-.33,1c-.23.64-.53,1.58-.85,2.75a35.72,35.72,0,0,0,0,18.77c.32,1.17.62,2.11.85,2.75A6.93,6.93,0,0,1,174.5,193.22Z" fill="#fafafa"/><path d="M174.87,181a14.23,14.23,0,0,0-1.69,3.95,14.54,14.54,0,0,0-.14,4.29,3.81,3.81,0,0,1-.31-1.25,9.17,9.17,0,0,1,.14-3.11,9,9,0,0,1,1.19-2.88A3.38,3.38,0,0,1,174.87,181Z" fill="#fafafa"/><path d="M169.25,175.44a3.15,3.15,0,0,1,.78.86,9.52,9.52,0,0,1,1.3,2.49,9.64,9.64,0,0,1,.55,2.75,3.16,3.16,0,0,1-.07,1.16,19.55,19.55,0,0,0-.77-3.81A19.17,19.17,0,0,0,169.25,175.44Z" fill="#fafafa"/><path d="M175.26,172.32a14.38,14.38,0,0,0-2.06,2.61,13.31,13.31,0,0,0-1.1,3.14,5.62,5.62,0,0,1,.82-3.29A5.78,5.78,0,0,1,175.26,172.32Z" fill="#fafafa"/><path d="M156.27,160.74a7.91,7.91,0,0,1-.44-1,26.29,26.29,0,0,1-1-2.74,33.56,33.56,0,0,1,0-18.88,26.29,26.29,0,0,1,1-2.74,7.21,7.21,0,0,1,.44-1,6.76,6.76,0,0,1-.32,1c-.24.63-.54,1.57-.86,2.75a35.58,35.58,0,0,0,0,18.77c.31,1.17.61,2.11.85,2.75A7.52,7.52,0,0,1,156.27,160.74Z" fill="#fafafa"/><path d="M156.65,148.54a11.5,11.5,0,0,0-1.83,8.25,3.39,3.39,0,0,1-.32-1.25,9.19,9.19,0,0,1,1.33-6A3.48,3.48,0,0,1,156.65,148.54Z" fill="#fafafa"/><path d="M151,143s.36.28.79.86a9.9,9.9,0,0,1,1.3,2.48,9.64,9.64,0,0,1,.54,2.75,3.12,3.12,0,0,1-.07,1.16,19.53,19.53,0,0,0-.77-3.8A19.17,19.17,0,0,0,151,143Z" fill="#fafafa"/><path d="M157,139.84a13.32,13.32,0,0,0-2.07,2.61,14.31,14.31,0,0,0-1.1,3.14,6.69,6.69,0,0,1,3.17-5.75Z" fill="#fafafa"/><path d="M171.45,143.86a6.82,6.82,0,0,1,.63.85,26.1,26.1,0,0,1,1.52,2.47,33.57,33.57,0,0,1,4,18.45,26.39,26.39,0,0,1-.34,2.88,6.23,6.23,0,0,1-.23,1,7.28,7.28,0,0,1,.11-1.06c.09-.67.18-1.65.24-2.87a36.38,36.38,0,0,0-.78-9.44,35.69,35.69,0,0,0-3.23-8.89c-.56-1.08-1.05-1.94-1.42-2.51A6.45,6.45,0,0,1,171.45,143.86Z" fill="#fafafa"/><path d="M173.7,155.85a11.53,11.53,0,0,0,0-8.44,3.43,3.43,0,0,1,.57,1.15,9.07,9.07,0,0,1,.53,3.07,9,9,0,0,1-.54,3.07A3.54,3.54,0,0,1,173.7,155.85Z" fill="#fafafa"/><path d="M180.39,160.1a3.45,3.45,0,0,1-.95-.67,9.62,9.62,0,0,1-1.8-2.15,10,10,0,0,1-1.13-2.57,3.53,3.53,0,0,1-.18-1.15,20.58,20.58,0,0,0,1.57,3.56A20.2,20.2,0,0,0,180.39,160.1Z" fill="#fafafa"/><path d="M175.19,164.44a13.78,13.78,0,0,0,1.46-3,14.47,14.47,0,0,0,.4-3.31,6.66,6.66,0,0,1-1.86,6.3Z" fill="#fafafa"/><path d="M178.84,168.82a5,5,0,0,1-1.08-2.46,5.06,5.06,0,0,1,0-2.69c.1,0,0,1.21.26,2.63S178.92,168.78,178.84,168.82Z" fill="#fafafa"/><path d="M182.49,164.18a7.39,7.39,0,0,1,.64.85,26.39,26.39,0,0,1,1.51,2.47,33.57,33.57,0,0,1,4,18.45,26.39,26.39,0,0,1-.34,2.88,9.36,9.36,0,0,1-.22,1,5.17,5.17,0,0,1,.1-1.06c.09-.67.18-1.66.24-2.87a35.61,35.61,0,0,0-4-18.34c-.57-1.07-1.06-1.93-1.43-2.5A6.45,6.45,0,0,1,182.49,164.18Z" fill="#fafafa"/><path d="M184.74,176.17a11.53,11.53,0,0,0,0-8.44,3.54,3.54,0,0,1,.58,1.15,9.3,9.3,0,0,1,.52,3.07,8.76,8.76,0,0,1-.54,3.07A3.32,3.32,0,0,1,184.74,176.17Z" fill="#fafafa"/><path d="M191.43,180.42a3.45,3.45,0,0,1-1-.67,9.62,9.62,0,0,1-1.8-2.15,9.76,9.76,0,0,1-1.12-2.57,3,3,0,0,1-.18-1.15,18.88,18.88,0,0,0,1.57,3.56A20.46,20.46,0,0,0,191.43,180.42Z" fill="#fafafa"/><path d="M186.23,184.76a14.08,14.08,0,0,0,1.46-3,13.83,13.83,0,0,0,.4-3.31,5.65,5.65,0,0,1-.1,3.39A5.77,5.77,0,0,1,186.23,184.76Z" fill="#fafafa"/><path d="M189.88,189.14a5,5,0,0,1-1.08-2.46,4.87,4.87,0,0,1,0-2.69c.09,0,0,1.21.25,2.63S190,189.09,189.88,189.14Z" fill="#fafafa"/><path d="M157.28,179.57a10.44,10.44,0,0,1,.86.63,24.8,24.8,0,0,1,2.18,1.89,34,34,0,0,1,5.87,7.53,33.54,33.54,0,0,1,3.52,8.87,24.19,24.19,0,0,1,.53,2.84,5.22,5.22,0,0,1,.1,1.06,9.36,9.36,0,0,1-.22-1c-.11-.67-.32-1.63-.62-2.81a36.87,36.87,0,0,0-3.58-8.77,36.48,36.48,0,0,0-5.75-7.52c-.86-.86-1.59-1.52-2.11-2A5,5,0,0,1,157.28,179.57Z" fill="#fafafa"/><path d="M163,190.34a14.74,14.74,0,0,0-.5-4.27,14,14,0,0,0-2-3.79,3.31,3.31,0,0,1,.9.92,9.06,9.06,0,0,1,1.43,2.78,9,9,0,0,1,.4,3.08A3.92,3.92,0,0,1,163,190.34Z" fill="#fafafa"/><path d="M170.68,192.38a3.39,3.39,0,0,1-1.1-.36,9.75,9.75,0,0,1-4.22-3.62,3.29,3.29,0,0,1-.51-1,19.33,19.33,0,0,0,2.56,2.92A20.19,20.19,0,0,0,170.68,192.38Z" fill="#fafafa"/><path d="M167,198.08a13.52,13.52,0,0,0,.49-3.29,13.84,13.84,0,0,0-.61-3.28,6.64,6.64,0,0,1,.12,6.57Z" fill="#fafafa"/><path d="M171.82,201.16a6.26,6.26,0,0,1-2.53-4.6c.09,0,.32,1.16,1,2.43S171.89,201.09,171.82,201.16Z" fill="#fafafa"/><path d="M181.27,208.93A11.24,11.24,0,0,0,163,200.41l2.08,7.08,9.08,4.43Z" fill="#fafafa"/><path d="M193.38,182.07A11.09,11.09,0,0,1,187,162.42l9.33,6Z" fill="#fafafa"/></g><g opacity="0.4"><path d="M148.57,150.49l16.85-12.25,21.89,25.93a11.09,11.09,0,0,1,2.26,10l-7.38,28a9.39,9.39,0,0,1-9.73,7h0a9.38,9.38,0,0,1-8.65-10.56l3.25-25.27Z"/></g><g clip-path="url(#clip-path-3)"><path d="M157.27,141.52l16.85-12.24L196,155.21a11.07,11.07,0,0,1,2.26,10l-7.38,28a9.38,9.38,0,0,1-9.73,7h0a9.37,9.37,0,0,1-8.65-10.55l3.25-25.27Z" fill="#00b050"/><path d="M173.43,162.89a6.36,6.36,0,0,1-.44-1,26.82,26.82,0,0,1-1-2.73,33.71,33.71,0,0,1,0-18.89,28.43,28.43,0,0,1,1-2.74,7.21,7.21,0,0,1,.44-1,8.77,8.77,0,0,1-.32,1c-.24.63-.54,1.57-.86,2.75a35.72,35.72,0,0,0,0,18.77c.32,1.17.62,2.11.85,2.75A6.93,6.93,0,0,1,173.43,162.89Z" fill="#fafafa"/><path d="M173.8,150.69a14.41,14.41,0,0,0-1.69,3.95,14.62,14.62,0,0,0-.14,4.3,3.81,3.81,0,0,1-.31-1.25,9.23,9.23,0,0,1,.14-3.12,9.08,9.08,0,0,1,1.19-2.88A3.78,3.78,0,0,1,173.8,150.69Z" fill="#fafafa"/><path d="M168.18,145.11s.36.28.78.86a9.57,9.57,0,0,1,1.31,2.48,10,10,0,0,1,.54,2.76,3.09,3.09,0,0,1-.07,1.15,19.53,19.53,0,0,0-.77-3.8A19.17,19.17,0,0,0,168.18,145.11Z" fill="#fafafa"/><path d="M174.19,142a14,14,0,0,0-2.06,2.61,13.71,13.71,0,0,0-1.1,3.14,5.62,5.62,0,0,1,.82-3.29A5.78,5.78,0,0,1,174.19,142Z" fill="#fafafa"/><path d="M171.57,136.93a6.26,6.26,0,0,1-.09,5.24c-.09,0,.29-1.16.31-2.62S171.48,137,171.57,136.93Z" fill="#fafafa"/><path d="M191.78,198.52a7.21,7.21,0,0,1-.44-1,27.16,27.16,0,0,1-1-2.74,33.6,33.6,0,0,1,0-18.89,26.82,26.82,0,0,1,1-2.73,7.91,7.91,0,0,1,.44-1,6,6,0,0,1-.32,1c-.24.64-.54,1.58-.86,2.75a35.58,35.58,0,0,0,0,18.77c.31,1.17.61,2.12.85,2.75A8.77,8.77,0,0,1,191.78,198.52Z" fill="#fafafa"/><path d="M192.16,186.33a11.49,11.49,0,0,0-1.83,8.24,3.3,3.3,0,0,1-.32-1.25,9.18,9.18,0,0,1,1.33-6A3.48,3.48,0,0,1,192.16,186.33Z" fill="#fafafa"/><path d="M186.53,180.74a3.26,3.26,0,0,1,.79.86,10.17,10.17,0,0,1,1.3,2.49,9.58,9.58,0,0,1,.54,2.75,2.91,2.91,0,0,1-.07,1.16,14,14,0,0,0-2.56-7.26Z" fill="#fafafa"/><path d="M192.55,177.62a14.11,14.11,0,0,0-2.07,2.61,14.29,14.29,0,0,0-1.1,3.15,6.69,6.69,0,0,1,3.17-5.76Z" fill="#fafafa"/><path d="M189.92,172.56a6.28,6.28,0,0,1-.09,5.25c-.09,0,.29-1.17.31-2.62S189.83,172.59,189.92,172.56Z" fill="#fafafa"/><path d="M183.2,184.26a6.36,6.36,0,0,1-.44-1,26.82,26.82,0,0,1-.95-2.73,33.71,33.71,0,0,1,0-18.89,25.91,25.91,0,0,1,1-2.74,7.21,7.21,0,0,1,.44-1,8,8,0,0,1-.33,1c-.23.63-.53,1.57-.85,2.75a35.72,35.72,0,0,0,0,18.77c.32,1.17.62,2.11.85,2.75A6.93,6.93,0,0,1,183.2,184.26Z" fill="#fafafa"/><path d="M183.57,172.06a14.23,14.23,0,0,0-1.69,3.95,14.62,14.62,0,0,0-.14,4.3,3.81,3.81,0,0,1-.31-1.25,9.23,9.23,0,0,1,.14-3.12,9.08,9.08,0,0,1,1.19-2.88A3.78,3.78,0,0,1,183.57,172.06Z" fill="#fafafa"/><path d="M178,166.48s.36.28.78.86a9.28,9.28,0,0,1,1.3,2.48,9.7,9.7,0,0,1,.55,2.75,3.12,3.12,0,0,1-.07,1.16,19.53,19.53,0,0,0-.77-3.8A19.17,19.17,0,0,0,178,166.48Z" fill="#fafafa"/><path d="M184,163.36A14,14,0,0,0,181.9,166a13.15,13.15,0,0,0-1.1,3.14,5.62,5.62,0,0,1,.82-3.29A5.71,5.71,0,0,1,184,163.36Z" fill="#fafafa"/><path d="M165,151.77a7.21,7.21,0,0,1-.44-1,27.16,27.16,0,0,1-.95-2.74,33.6,33.6,0,0,1,0-18.89,26,26,0,0,1,.95-2.73,7.91,7.91,0,0,1,.44-1,6,6,0,0,1-.32,1c-.24.64-.54,1.58-.86,2.75a35.58,35.58,0,0,0,0,18.77c.31,1.17.61,2.12.85,2.75A8.77,8.77,0,0,1,165,151.77Z" fill="#fafafa"/><path d="M165.35,139.58a11.49,11.49,0,0,0-1.83,8.24,3.3,3.3,0,0,1-.32-1.25,9.18,9.18,0,0,1,1.33-6A3.3,3.3,0,0,1,165.35,139.58Z" fill="#fafafa"/><path d="M159.72,134a3.26,3.26,0,0,1,.79.86,10.17,10.17,0,0,1,1.3,2.49,9.58,9.58,0,0,1,.54,2.75,2.91,2.91,0,0,1-.07,1.16,19.55,19.55,0,0,0-.77-3.81A19.61,19.61,0,0,0,159.72,134Z" fill="#fafafa"/><path d="M165.74,130.87a14.11,14.11,0,0,0-2.07,2.61,14.29,14.29,0,0,0-1.1,3.15,6.69,6.69,0,0,1,3.17-5.76Z" fill="#fafafa"/><path d="M180.15,134.9a6.82,6.82,0,0,1,.63.85,24.85,24.85,0,0,1,1.52,2.47,33.52,33.52,0,0,1,4,18.45,26.71,26.71,0,0,1-.34,2.88,5.61,5.61,0,0,1-.23,1,7.22,7.22,0,0,1,.11-1.05c.09-.68.18-1.66.24-2.87a35.87,35.87,0,0,0-4-18.34c-.57-1.08-1.06-1.93-1.43-2.5A6.45,6.45,0,0,1,180.15,134.9Z" fill="#fafafa"/><path d="M182.4,146.89a14.39,14.39,0,0,0,.81-4.22,14.62,14.62,0,0,0-.79-4.23,3.84,3.84,0,0,1,.58,1.16,9.3,9.3,0,0,1,.52,3.07,9,9,0,0,1-.54,3.07A3.54,3.54,0,0,1,182.4,146.89Z" fill="#fafafa"/><path d="M189.09,151.14a3.45,3.45,0,0,1-1-.67,10,10,0,0,1-2.93-4.72,3.07,3.07,0,0,1-.17-1.15,19.28,19.28,0,0,0,1.56,3.55A20.64,20.64,0,0,0,189.09,151.14Z" fill="#fafafa"/><path d="M183.89,155.48a14,14,0,0,0,1.46-3,14.41,14.41,0,0,0,.4-3.3,5.64,5.64,0,0,1-.1,3.39A5.77,5.77,0,0,1,183.89,155.48Z" fill="#fafafa"/><path d="M187.54,159.86a5,5,0,0,1-1.08-2.46,5,5,0,0,1,0-2.69c.1,0,0,1.2.26,2.63S187.62,159.81,187.54,159.86Z" fill="#fafafa"/><path d="M191.19,155.22a6.36,6.36,0,0,1,.64.85,24,24,0,0,1,1.51,2.47,33.44,33.44,0,0,1,3.34,8.93,34,34,0,0,1,.7,9.52,28.36,28.36,0,0,1-.35,2.87,8.12,8.12,0,0,1-.22,1,5.1,5.1,0,0,1,.1-1.05c.09-.68.18-1.66.24-2.87a35.61,35.61,0,0,0-4-18.34c-.57-1.08-1.06-1.93-1.43-2.51A6.12,6.12,0,0,1,191.19,155.22Z" fill="#fafafa"/><path d="M193.44,167.21a14.39,14.39,0,0,0,.81-4.22,14.62,14.62,0,0,0-.79-4.23,3.68,3.68,0,0,1,.58,1.16,9.3,9.3,0,0,1,.52,3.07,9,9,0,0,1-.53,3.07A3.42,3.42,0,0,1,193.44,167.21Z" fill="#fafafa"/><path d="M200.13,171.45a3.15,3.15,0,0,1-.94-.66,9.75,9.75,0,0,1-2.93-4.72,3,3,0,0,1-.18-1.15,19,19,0,0,0,1.57,3.55A19.21,19.21,0,0,0,200.13,171.45Z" fill="#fafafa"/><path d="M194.93,175.79a13.49,13.49,0,0,0,1.46-3,13.77,13.77,0,0,0,.4-3.3,6.65,6.65,0,0,1-1.86,6.29Z" fill="#fafafa"/><path d="M198.58,180.18a5.08,5.08,0,0,1-1.08-2.46,4.87,4.87,0,0,1,.05-2.69c.09,0,0,1.2.25,2.62S198.67,180.13,198.58,180.18Z" fill="#fafafa"/><path d="M166,170.61a6.92,6.92,0,0,1,.86.62,27.14,27.14,0,0,1,2.18,1.9,33.42,33.42,0,0,1,5.87,7.52,33.81,33.81,0,0,1,3.52,8.87,24.28,24.28,0,0,1,.53,2.85,5.15,5.15,0,0,1,.1,1,8.16,8.16,0,0,1-.22-1c-.11-.67-.32-1.64-.62-2.82a35.84,35.84,0,0,0-9.33-16.28c-.86-.86-1.59-1.53-2.11-2A5.72,5.72,0,0,1,166,170.61Z" fill="#fafafa"/><path d="M171.73,181.37a14.77,14.77,0,0,0-.5-4.27,14.17,14.17,0,0,0-2-3.79,3.46,3.46,0,0,1,.9.93,9.11,9.11,0,0,1,1.43,2.77,9,9,0,0,1,.4,3.09A3.74,3.74,0,0,1,171.73,181.37Z" fill="#fafafa"/><path d="M179.38,183.41a3,3,0,0,1-1.1-.35,9.93,9.93,0,0,1-4.22-3.62,3.4,3.4,0,0,1-.51-1,19.9,19.9,0,0,0,2.56,2.92A19.69,19.69,0,0,0,179.38,183.41Z" fill="#fafafa"/><path d="M175.72,189.12a10.09,10.09,0,0,0-.12-6.57,6.64,6.64,0,0,1,.12,6.57Z" fill="#fafafa"/><path d="M180.52,192.2a5,5,0,0,1-1.77-2,4.94,4.94,0,0,1-.76-2.58c.09,0,.32,1.16,1,2.43S180.59,192.13,180.52,192.2Z" fill="#fafafa"/><g opacity="0.8"><path d="M190,200a11.24,11.24,0,0,0-18.25-8.51l2.08,7.07,9.08,4.43Z" fill="#fff"/></g><g opacity="0.8"><path d="M202.08,173.1a11.09,11.09,0,0,1-6.34-19.64l9.33,5.94Z" fill="#fff"/></g></g><rect x="441.32" y="151.83" width="29.74" height="44.51" rx="3.58" transform="translate(122.97 530.99) rotate(-67.85)" fill="#00b050"/><g opacity="0.4"><rect x="441.32" y="151.83" width="29.74" height="44.51" rx="3.58" transform="translate(122.97 530.99) rotate(-67.85)"/></g><path d="M469.12,169.22a2.12,2.12,0,0,1,.22-.53c.18-.38.41-.87.7-1.46a35.88,35.88,0,0,0,2.19-5.53,13.36,13.36,0,0,0-.18-8.57,8.73,8.73,0,0,0-3.14-3.92,24.65,24.65,0,0,0-4.94-2.52c-3.52-1.42-7.28-2.14-10.43-1.16a9.58,9.58,0,0,0-3.94,2.36,14,14,0,0,0-2.45,3.23,29.75,29.75,0,0,0-2.24,5.5l-.49,1.55a1.74,1.74,0,0,1-.2.53,2.42,2.42,0,0,1,.1-.56c.08-.36.21-.89.4-1.58a26.56,26.56,0,0,1,2.11-5.62,13.78,13.78,0,0,1,2.47-3.36,10,10,0,0,1,4.09-2.51,12.34,12.34,0,0,1,5.3-.37,22.86,22.86,0,0,1,5.47,1.5,24.78,24.78,0,0,1,5,2.59A9.31,9.31,0,0,1,472.5,153a13.68,13.68,0,0,1,.09,8.85,31.63,31.63,0,0,1-2.37,5.52c-.34.62-.6,1.1-.79,1.42A2.31,2.31,0,0,1,469.12,169.22Z" fill="#263238"/><rect x="436.17" y="149.56" width="29.74" height="44.51" rx="3.58" transform="translate(121.87 524.81) rotate(-67.85)" fill="#00b050"/><g opacity="0.7"><path d="M430.9,162.26a72.89,72.89,0,0,0,8.51,4.75c3,1.24.21,2,5.17,1.46s5.39-.56,6.5.34,1.62,2.21,2.47,2.66a24.42,24.42,0,0,0,2.38,1s3.61,1.51,4.44,1.74c5.84,1.62,7.16.22,8.83,2.67s2.74,2.59,2.74,2.59l1.13-2.78-5.28-2.15s-2.43-2-3.14-2.46-1-1.46-2.28-.93a7.53,7.53,0,0,1-3.15.49c-.74,0-3.36-.45-3.36-.45l-2.28-.93-.51-2L451,166.85l-1.11-.16-2.82-.7-3.91-.55-4-1-2.28-.93-3.46-.22Z" fill="#fff"/></g><g opacity="0.7"><path d="M430.09,167.53l5.94,4.64,3,2.53s4,2.21,5.32,2.16a11.47,11.47,0,0,1,3.5.84l2,1.66,2.79,1.13,3.08.41,2.77.07,2.41,1,3.17,1.29,2.91,1.19,1.78.72.45,1.22,1-2.52-8.26-5.61-6.2-.72-5.13-2.09-2.35-2.76-4.15-.33-3.88-1-4.21-2-4.43-1.81Z" fill="#fff"/></g><g opacity="0.7"><polygon points="427.61 170.33 430.28 177.21 432.55 180.34 439.77 183.28 435.29 176.15 431.8 173.84 428.95 170.32 428.06 169.22 427.61 170.33" fill="#fff"/></g><g opacity="0.7"><polygon points="438.85 176.86 443.67 181.33 444.46 185.19 449.15 187.1 454.6 189.31 458.19 187.75 462.66 187.29 464.56 187.32 460.89 185.83 456.37 186.06 452.87 185.59 449.25 182.49 445.2 180.84 444.04 178.97 442.09 177.59 438.85 176.86" fill="#fff"/></g><g opacity="0.7"><path d="M434.23,157.85l6.9,1.19,5.73-1.36,4-1.05,4.32,2.8,5,2.34,6.23,1.21,4,.43,3.08,2.58,1.42,4.86.09,1.24-.56,1.38-3.48-5.26a34.12,34.12,0,0,0-2.83-2.48c-.38-.16-2.12-1.31-2.91-1.19a14.85,14.85,0,0,1-5-.71c-1.82-.6-5.06-1.47-5.06-1.47l-3-1.83-1.78-.72-4.29,0-2.44.93-2.23,1.11-3.67-1.5-5.3-1.64.78-1.93Z" fill="#fff"/></g><g opacity="0.7"><polygon points="442.04 152.58 434.11 154.37 433.52 155.83 438.07 155.87 442.37 155.5 445.18 153.86 442.04 152.58" fill="#fff"/></g><path d="M462.73,192.63a4.85,4.85,0,0,0,1.41.21,3.68,3.68,0,0,0,1.64-.47,3.49,3.49,0,0,0,1.51-1.72L473,176.49l1.89-4.69c.31-.8.69-1.66,1-2.48a3.33,3.33,0,0,0-.3-2.54,3.58,3.58,0,0,0-2.09-1.66L470.68,164l-5.76-2.33-25.67-10.42a3.32,3.32,0,0,0-3.22.4,3.21,3.21,0,0,0-1,1.29c-.23.55-.46,1.11-.68,1.66q-1.37,3.32-2.67,6.54l-5.05,12.37a4.71,4.71,0,0,0-.43,1.45,3.65,3.65,0,0,0,.2,1.43,3.35,3.35,0,0,0,2,2l5.43,2.23,9.74,4,14.1,5.82,3.82,1.61,1,.43a1.71,1.71,0,0,1,.33.17,3.25,3.25,0,0,1-.35-.12l-1-.38-3.86-1.52-14.16-5.67L433.59,181l-5.44-2.2a3.84,3.84,0,0,1-2.24-2.24,4,4,0,0,1-.23-1.64,4.87,4.87,0,0,1,.45-1.59c1.61-4,3.29-8.09,5-12.38l2.66-6.55c.23-.56.44-1.1.69-1.68a3.72,3.72,0,0,1,1.21-1.49,3.86,3.86,0,0,1,3.73-.47l25.65,10.46,5.76,2.36,2.76,1.13a4,4,0,0,1,2.3,1.86,3.8,3.8,0,0,1,.32,2.87c-.32.9-.68,1.69-1,2.52l-1.92,4.67-5.83,14.1a3.61,3.61,0,0,1-3.34,2.21A2.84,2.84,0,0,1,462.73,192.63Z" fill="#263238"/><path d="M583.08,224.64s0-.23,0-.66.12-1.08.21-1.9c0-.42.12-.89.14-1.41s0-1.09,0-1.7,0-1.28,0-2-.12-1.45-.19-2.25a36.7,36.7,0,0,0-3-11.19,36.13,36.13,0,0,0-9.05-12.32l-1.63-1.42c-.58-.44-1.19-.86-1.79-1.29a37.44,37.44,0,0,0-3.89-2.4,36.3,36.3,0,0,0-9.08-3.29,37.69,37.69,0,0,0-5-.78c-.85-.1-1.73-.06-2.61-.09l-1.32,0c-.44,0-.88.07-1.33.1a34.56,34.56,0,0,0-10.69,2.36A36.48,36.48,0,0,0,516,199.15a37,37,0,0,0-5.14,24.29q.12.84.27,1.65l0,.11-.07.09-11.77,16.36-.25-.4,17.38-2.69.16,0,.09.13a36.3,36.3,0,0,0,21.36,15.05,27.13,27.13,0,0,0,4,.74l2,.25c.66.08,1.32,0,2,.08a36.28,36.28,0,0,0,14.44-2.58,37.27,37.27,0,0,0,10.74-6.61l2-1.93,1.76-2a19.82,19.82,0,0,0,1.53-2c.45-.67,1-1.27,1.33-1.93a37.9,37.9,0,0,0,3.39-6.89l.9-2.64c.18-.78.34-1.44.46-2l.3-1.2c.07-.28.11-.41.11-.41s0,.14-.07.41-.15.7-.25,1.22-.26,1.21-.43,2l-.87,2.66a37.37,37.37,0,0,1-3.34,7,22.49,22.49,0,0,1-1.33,2,19.66,19.66,0,0,1-1.52,2l-1.76,2-2.06,2a37.4,37.4,0,0,1-10.8,6.72,36.59,36.59,0,0,1-14.59,2.66c-.67,0-1.34,0-2-.07l-2-.25a27.77,27.77,0,0,1-4.08-.74A36.55,36.55,0,0,1,516.29,239l.24.1-17.38,2.71-.6.09.35-.5L510.67,225l0,.2c-.11-.55-.2-1.11-.28-1.67a37.59,37.59,0,0,1,5.23-24.64,36.94,36.94,0,0,1,18.14-14.95,35.07,35.07,0,0,1,10.83-2.37c.45,0,.9-.08,1.35-.09l1.34,0c.88,0,1.77,0,2.64.09a38.2,38.2,0,0,1,5.1.81,35.34,35.34,0,0,1,13.1,5.79c.61.45,1.22.87,1.81,1.32l1.64,1.44a36.3,36.3,0,0,1,12,23.76c.06.8.12,1.56.17,2.27s0,1.38,0,2,0,1.19,0,1.71-.12,1-.16,1.41c-.12.82-.2,1.46-.26,1.9S583.08,224.64,583.08,224.64Z" fill="#00b050"/><polygon points="558.88 204.34 563.27 237.59 530.76 237.59 535.49 204.34 558.88 204.34" fill="#005c50"/><path d="M538.13,209.17a16.93,16.93,0,0,0,1.66,3.14,8.88,8.88,0,0,0,2.83,2.5,9.37,9.37,0,0,0,4.49,1.08,9.59,9.59,0,0,0,4.5-1,7.76,7.76,0,0,0,2.79-2.52,13.91,13.91,0,0,0,1.49-3.21,2.27,2.27,0,0,1-.13,1,8.67,8.67,0,0,1-1.06,2.45,7.68,7.68,0,0,1-2.87,2.74,10.38,10.38,0,0,1-9.44-.09,8.78,8.78,0,0,1-2.9-2.71,9.5,9.5,0,0,1-1.17-2.4A2.46,2.46,0,0,1,538.13,209.17Z" fill="#fff"/></g></g></svg>