<svg id="Layer_1" height="512" viewBox="0 0 512 512" width="512" xmlns="http://www.w3.org/2000/svg" data-name="Layer 1"><path d="m288.7 40.45h-12v-14.942a5.678 5.678 0 0 0 -5.672-5.672h-30.058a5.678 5.678 0 0 0 -5.672 5.672v14.942h-12v-14.942a17.692 17.692 0 0 1 17.672-17.672h30.06a17.692 17.692 0 0 1 17.67 17.672z" fill="#6d7486"/><path d="m105.8 303h-53.7c-13.22 0-24.1 11.14-24.1 24.35v64.29c0 8.16 6.79 14.36 14.95 14.36h72.01c8.15 0 15.04-6.2 15.04-14.36v-64.29a24.525 24.525 0 0 0 -24.2-24.35z" fill="#64d0ff"/><path d="m282.85 303h-53.7a24.482 24.482 0 0 0 -24.15 24.35v64.29c0 8.16 6.84 14.36 14.99 14.36h72.02c8.15 0 14.99-6.2 14.99-14.36v-64.29a24.482 24.482 0 0 0 -24.15-24.35z" fill="#ff838f"/><path d="m459.9 303h-53.7a24.525 24.525 0 0 0 -24.2 24.35v64.29c0 8.16 6.89 14.36 15.04 14.36h72.01c8.16 0 14.95-6.2 14.95-14.36v-64.29c0-13.21-10.88-24.35-24.1-24.35z" fill="#f7e85c"/><path d="m65.52 284.86v18.52.04h26.23v-.1-18.65l-26.03-.15z" fill="#efc597"/><path d="m242.57 284.86v18.52.04h26.23v-.1-18.65l-26.04-.15z" fill="#efc597"/><path d="m419.81 284.52-.19.34v18.52.04h26.23v-.1-18.65z" fill="#efc597"/><path d="m445.85 284.67a27.314 27.314 0 0 1 -40.2-24.09v-.04a6.961 6.961 0 0 1 -5.54-8.51 5.238 5.238 0 0 1 4.68-3.99l.03-.01a2.227 2.227 0 0 0 1.17 1.49s4.05 1.63 4.08 1.23l.96-12.03a1.116 1.116 0 0 1 1.24-1.02l4.49.48a26.425 26.425 0 0 0 24.34-10.95l2.66.12a11.345 11.345 0 0 1 9.95 6.89l4.27 17.6 2.3-2.14a2.8 2.8 0 0 0 .86-1.65h.01a5.249 5.249 0 0 1 4.67 3.98 6.971 6.971 0 0 1 -5.54 8.51v.04a27.311 27.311 0 0 1 -14.43 24.09z" fill="#ffd8b7"/><path d="m432.97 207.77a28.9 28.9 0 0 1 28.83 30.89l-.64 9.18a1.492 1.492 0 0 1 -.02.21 2.8 2.8 0 0 1 -.86 1.65l-2.3 2.14-4.27-17.6a11.345 11.345 0 0 0 -9.95-6.89l-2.66-.12a26.425 26.425 0 0 1 -24.34 10.95l-4.49-.48a1.116 1.116 0 0 0 -1.24 1.02l-.96 12.03c-.03.4-4.08-1.23-4.08-1.23a2.227 2.227 0 0 1 -1.17-1.49 2.254 2.254 0 0 1 -.06-.36l-.62-9.01c-.05-.68-.07-1.35-.07-2.02a28.9 28.9 0 0 1 28.9-28.87z" fill="#6d7486"/><path d="m268.8 284.67a27.314 27.314 0 0 1 -40.2-24.09v-.04a6.961 6.961 0 0 1 -5.54-8.51 5.238 5.238 0 0 1 4.68-3.99l.03-.01a2.227 2.227 0 0 0 1.17 1.49s4.05 1.63 4.08 1.23l.96-12.03a1.116 1.116 0 0 1 1.24-1.02l4.49.48a26.425 26.425 0 0 0 24.34-10.95l2.67.12a11.342 11.342 0 0 1 9.94 6.89l4.27 17.6 2.3-2.14a2.867 2.867 0 0 0 .87-1.65 5.249 5.249 0 0 1 4.67 3.98 6.986 6.986 0 0 1 .2 1.66 6.975 6.975 0 0 1 -5.74 6.85v.04a27.311 27.311 0 0 1 -14.43 24.09z" fill="#ffd8b7"/><path d="m255.92 207.77a28.9 28.9 0 0 1 28.83 30.89l-.63 9.18c-.01.07-.01.14-.02.21a2.867 2.867 0 0 1 -.87 1.65l-2.3 2.14-4.27-17.6a11.342 11.342 0 0 0 -9.94-6.89l-2.67-.12a26.425 26.425 0 0 1 -24.34 10.95l-4.49-.48a1.116 1.116 0 0 0 -1.24 1.02l-.96 12.03c-.03.4-4.08-1.23-4.08-1.23a2.227 2.227 0 0 1 -1.17-1.49 2.254 2.254 0 0 1 -.06-.36l-.62-9.01c-.05-.68-.07-1.35-.07-2.02a28.9 28.9 0 0 1 28.9-28.87z" fill="#6d7486"/><path d="m111.72 252.03a5.239 5.239 0 0 0 -4.67-3.98 2.867 2.867 0 0 1 -.87 1.65l-2.3 2.14-4.27-17.6a11.342 11.342 0 0 0 -9.94-6.89l-2.67-.12a26.425 26.425 0 0 1 -24.34 10.95l-4.49-.48a1.116 1.116 0 0 0 -1.24 1.02l-.96 12.03c-.03.4-4.08-1.23-4.08-1.23a2.227 2.227 0 0 1 -1.17-1.49l-.03.01a5.238 5.238 0 0 0 -4.68 3.99 7.115 7.115 0 0 0 .02 1.66 6.534 6.534 0 0 0 5.97 6.85v.04a27.068 27.068 0 0 0 7.78 19.32 26.45 26.45 0 0 0 6.05 4.62 26.871 26.871 0 0 0 32.27-4.62 27.165 27.165 0 0 0 7.9-19.32v-.04a6.229 6.229 0 0 0 4.18-2.36 7.227 7.227 0 0 0 1.54-6.15z" fill="#ffd8b7"/><path d="m78.87 207.77a28.9 28.9 0 0 1 28.83 30.89l-.63 9.18c-.01.07-.01.14-.02.21a2.867 2.867 0 0 1 -.87 1.65l-2.3 2.14-4.27-17.6a11.342 11.342 0 0 0 -9.94-6.89l-2.67-.12a26.425 26.425 0 0 1 -24.34 10.95l-4.49-.48a1.116 1.116 0 0 0 -1.24 1.02l-.96 12.03c-.03.4-4.08-1.23-4.08-1.23a2.227 2.227 0 0 1 -1.17-1.49 2.254 2.254 0 0 1 -.06-.36l-.62-9.01c-.05-.68-.07-1.35-.07-2.02a28.9 28.9 0 0 1 28.9-28.87z" fill="#6d7486"/><path d="m326.05 55.01v64.72a15.569 15.569 0 0 1 -15.57 15.57h-7.78v-95.85h7.78a15.567 15.567 0 0 1 15.57 15.56z" fill="#6d7486"/><path d="m209 39h94v96h-94z" fill="#4a5160"/><path d="m209.3 39.45v95.85h-7.78a15.569 15.569 0 0 1 -15.57-15.57v-64.72a15.567 15.567 0 0 1 15.57-15.56z" fill="#6d7486"/><path d="m58 391.64v-64.29c0-13.21 10.88-24.35 24.1-24.35h-30c-13.22 0-24.1 11.14-24.1 24.35v64.29c0 8.16 6.79 14.36 14.95 14.36h30c-8.16 0-14.95-6.2-14.95-14.36z" fill="#2fa9d3"/><path d="m235 391.64v-64.29a24.482 24.482 0 0 1 24.15-24.35h-30a24.482 24.482 0 0 0 -24.15 24.35v64.29c0 8.16 6.84 14.36 14.99 14.36h30c-8.15 0-14.99-6.2-14.99-14.36z" fill="#e75163"/><path d="m412 391.64v-64.29a24.525 24.525 0 0 1 24.2-24.35h-30a24.525 24.525 0 0 0 -24.2 24.35v64.29c0 8.16 6.89 14.36 15.04 14.36h30c-8.15 0-15.04-6.2-15.04-14.36z" fill="#d3c546"/><path d="m403.38 386.29-.43.03 6.82 112.84h23.56v-.29-112.15-.43z" fill="#b0b5ca"/><path d="m225.9 386.32 6.82 112.84h23.56v-.29-112.15-.43h-29.95z" fill="#b0b5ca"/><path d="m48.85 386.32 6.82 112.84h23.56v-.29-112.15-.43h-29.95z" fill="#b0b5ca"/><g fill="#6d7486"><path d="m433.33 386.29v.43 112.15.29h23.55l6.82-112.87z"/><path d="m256.28 386.72v112.15.29h23.55l6.82-112.87h-30.37z"/><path d="m79.23 386.72v112.15.29h23.56l6.82-112.87h-30.38z"/></g><path d="m86.64 303.42 3.45 42.83-11.14 16.96-11.14-16.96 3.45-42.83z" fill="#50dd5a"/><path d="m263.69 303.42 3.45 42.83-11.14 16.96-11.14-16.96 3.45-42.83z" fill="#867af4"/><path d="m440.74 303.42 3.45 42.83-11.14 16.96-11.14-16.96 3.45-42.83z" fill="#6addc7"/><path d="m421.352 159h-159.352v-9.02a6 6 0 0 0 -12 0v9.02h-163.242c-9.744 0-17.758 7.5-17.758 17.242v11.186a6 6 0 0 0 12 0v-11.186c0-3.127 2.63-5.242 5.758-5.242h163.242v16.428a6 6 0 0 0 12 0v-16.428h159.352c3.127 0 5.648 2.115 5.648 5.242v11.186a6 6 0 0 0 12 0v-11.186a17.309 17.309 0 0 0 -17.648-17.242z" fill="#d4e1f4"/></svg>