<svg id="Capa_1" enable-background="new 0 0 512 512" height="512" viewBox="0 0 512 512" width="512" xmlns="http://www.w3.org/2000/svg" xmlns:xlink="http://www.w3.org/1999/xlink"><linearGradient id="SVGID_1_" gradientUnits="userSpaceOnUse" x1="0" x2="512" y1="256" y2="256"><stop offset="0" stop-color="#ffdbed" stop-opacity="0"/><stop offset="1" stop-color="#ffdbed"/></linearGradient><linearGradient id="SVGID_2_" gradientUnits="userSpaceOnUse" x1="256" x2="256" y1="83.867" y2="428.133"><stop offset=".0028" stop-color="#ff7eb8" stop-opacity="0"/><stop offset="1" stop-color="#ff7eb8" stop-opacity=".6"/></linearGradient><g><g><path d="m451.798 43.963c-160.556-97.87-410.51-8.612-439.594 61.949-38.908 94.394 26.578 110.528 38.743 187.874 9.761 62.061-51.182 121.495-16.394 176.282 37.882 59.663 163.465 44.681 211.198 16.447 87.376-51.682 43.309-112.012 84.684-187.299 39.408-71.707 116.244-42.625 160.961-99.99 42.5-54.521 14.311-122.402-39.598-155.263z" fill="url(#SVGID_1_)"/></g><g><g><g><g><path d="m455.47 428.133h-398.94c-8.284 0-15-6.716-15-15v-314.266c0-8.284 6.716-15 15-15h398.94c8.284 0 15 6.716 15 15v314.266c0 8.285-6.715 15-15 15z" fill="#fff"/><circle cx="256" cy="355.528" fill="#ffdbed" r="44.284"/><path d="m470.47 153.18v-54.313c0-8.284-6.716-15-15-15h-398.94c-8.284 0-15 6.716-15 15v54.313z" fill="#ff7eb8"/></g><g><g><circle cx="85.623" cy="120.768" fill="#ff5ba8" r="10.901"/><circle cx="120.424" cy="120.768" fill="#fff" r="10.901"/><circle cx="155.224" cy="120.768" fill="#02ffb3" r="10.901"/></g><path d="m432.277 133.015h-136.158v-24.495h136.158c2.761 0 5 2.239 5 5v14.496c0 2.761-2.238 4.999-5 4.999z" fill="#ffdbed"/><path d="m296.789 108.831c-5.286-5.286-13.887-5.286-19.173 0s-5.286 13.887 0 19.173c4.037 4.037 10.003 4.98 14.953 2.852l4.348 4.348c1.952 1.952 5.119 1.952 7.071 0 1.953-1.952 1.953-5.119 0-7.071l-4.348-4.348c2.129-4.951 1.186-10.917-2.851-14.954zm-12.102 7.071c1.387-1.387 3.644-1.387 5.031 0s1.387 3.644 0 5.031-3.644 1.387-5.031 0-1.387-3.644 0-5.031z" fill="#fff"/></g></g><path d="m455.47 428.133h-398.94c-8.284 0-15-6.716-15-15v-314.266c0-8.284 6.716-15 15-15h398.94c8.284 0 15 6.716 15 15v314.266c0 8.285-6.715 15-15 15z" fill="url(#SVGID_2_)"/><g><g><g><path d="m239.2 195.96v256.12c0 5.52-4.48 10-10 10h-145.58c-5.52 0-10-4.48-10-10v-256.12c0-5.52 4.48-10 10-10h145.58c5.52 0 10 4.48 10 10z" fill="#9fb0fe"/><path d="m239.2 314.54v81.97c-16.13-6.61-27.48-22.47-27.48-40.98s11.35-34.37 27.48-40.99z" fill="#8399fe"/><path d="m239.2 381.02v71.06c0 5.52-4.48 10-10 10h-145.58c-5.52 0-10-4.48-10-10v-71.06z" fill="#8399fe"/><g fill="#6583fe"><path d="m239.2 381.02v15.49c-7.85-3.23-14.59-8.63-19.41-15.49z"/><path d="m239.201 217.475h-165.579v-21.513c0-5.523 4.477-10 10-10h145.579c5.523 0 10 4.477 10 10z"/></g></g><g><circle cx="156.412" cy="283.651" fill="#02ffb3" r="33.651"/><path d="m173.028 284.789c0-9.16-7.46-16.61-16.62-16.61s-16.61 7.45-16.61 16.61c0 4.52 1.82 8.62 4.75 11.62-2.93 2.99-4.75 7.09-4.75 11.61v4.9c3.07 1.74 6.43 3.02 10 3.73v-8.63c0-3.65 2.97-6.61 6.61-6.61 3.65 0 6.62 2.96 6.62 6.61v8.63c3.57-.71 6.93-1.99 10-3.73v-4.9c0-4.52-1.82-8.62-4.76-11.61 2.94-3 4.76-7.1 4.76-11.62zm-16.62 6.62c-3.64 0-6.61-2.97-6.61-6.62 0-3.64 2.97-6.61 6.61-6.61 3.65 0 6.62 2.97 6.62 6.61 0 3.65-2.97 6.62-6.62 6.62z" fill="#fff"/></g><g><g><path d="m186.252 345.293h-59.681c-2.761 0-5-2.239-5-5s2.239-5 5-5h59.681c2.761 0 5 2.239 5 5 0 2.762-2.239 5-5 5z" fill="#4369fd"/></g><g><path d="m186.252 409.036h-59.681c-2.761 0-5-2.239-5-5s2.239-5 5-5h59.681c2.761 0 5 2.239 5 5s-2.239 5-5 5z" fill="#fff"/></g><g><path d="m186.252 428.133h-59.681c-2.761 0-5-2.239-5-5s2.239-5 5-5h59.681c2.761 0 5 2.239 5 5 0 2.762-2.239 5-5 5z" fill="#fff"/></g><g><path d="m147.252 362.75h-20.681c-2.761 0-5-2.239-5-5s2.239-5 5-5h20.681c2.761 0 5 2.239 5 5s-2.239 5-5 5z" fill="#4369fd"/></g><g><g><path d="m215.205 238.346h-11.681c-2.761 0-5-2.239-5-5s2.239-5 5-5h11.681c2.761 0 5 2.239 5 5s-2.239 5-5 5z" fill="#fff"/></g><g><path d="m215.205 253.831h-11.681c-2.761 0-5-2.239-5-5s2.239-5 5-5h11.681c2.761 0 5 2.239 5 5 0 2.762-2.239 5-5 5z" fill="#fff"/></g></g></g><g><circle cx="98.42" cy="233.346" fill="#fff" r="5.002"/></g></g><g><g><path d="m438.38 195.96v256.12c0 5.52-4.48 10-10 10h-145.58c-5.52 0-10-4.48-10-10v-256.12c0-5.52 4.48-10 10-10h145.58c5.52 0 10 4.48 10 10z" fill="#97ffd2"/><path d="m300.28 355.53c0 18.51-11.35 34.37-27.48 40.98v-81.97c16.13 6.62 27.48 22.48 27.48 40.99z" fill="#02ffb3"/><path d="m438.38 381.02v71.06c0 5.52-4.48 10-10 10h-145.58c-5.52 0-10-4.48-10-10v-71.06z" fill="#01eca5"/><path d="m292.21 381.02c-4.82 6.86-11.56 12.26-19.41 15.49v-15.49z" fill="#00d890"/><path d="m438.378 217.475h-165.579v-21.513c0-5.523 4.477-10 10-10h145.579c5.523 0 10 4.477 10 10z" fill="#01eca5"/></g><g><circle cx="355.588" cy="283.651" fill="#ff7eb8" r="33.651"/><path d="m372.205 284.789c0-9.16-7.46-16.61-16.62-16.61s-16.61 7.45-16.61 16.61c0 4.52 1.82 8.62 4.75 11.62-2.93 2.99-4.75 7.09-4.75 11.61v4.9c3.07 1.74 6.43 3.02 10 3.73v-8.63c0-3.65 2.97-6.61 6.61-6.61 3.65 0 6.62 2.96 6.62 6.61v8.63c3.57-.71 6.93-1.99 10-3.73v-4.9c0-4.52-1.82-8.62-4.76-11.61 2.94-3 4.76-7.1 4.76-11.62zm-16.62 6.62c-3.64 0-6.61-2.97-6.61-6.62 0-3.64 2.97-6.61 6.61-6.61 3.65 0 6.62 2.97 6.62 6.61 0 3.65-2.97 6.62-6.62 6.62z" fill="#fff"/></g><g><g><path d="m385.429 345.293h-59.681c-2.761 0-5-2.239-5-5s2.239-5 5-5h59.681c2.761 0 5 2.239 5 5 0 2.762-2.239 5-5 5z" fill="#ff7eb8"/></g><g><path d="m385.429 409.036h-59.681c-2.761 0-5-2.239-5-5s2.239-5 5-5h59.681c2.761 0 5 2.239 5 5s-2.239 5-5 5z" fill="#fff"/></g><g><path d="m385.429 428.133h-59.681c-2.761 0-5-2.239-5-5s2.239-5 5-5h59.681c2.761 0 5 2.239 5 5 0 2.762-2.239 5-5 5z" fill="#fff"/></g><g><path d="m346.429 362.75h-20.681c-2.761 0-5-2.239-5-5s2.239-5 5-5h20.681c2.761 0 5 2.239 5 5s-2.239 5-5 5z" fill="#ff7eb8"/></g><g><g><path d="m414.382 238.346h-11.681c-2.761 0-5-2.239-5-5s2.239-5 5-5h11.681c2.761 0 5 2.239 5 5s-2.239 5-5 5z" fill="#fff"/></g><g><path d="m414.382 253.831h-11.681c-2.761 0-5-2.239-5-5s2.239-5 5-5h11.681c2.761 0 5 2.239 5 5 0 2.762-2.239 5-5 5z" fill="#fff"/></g></g></g><g><circle cx="297.597" cy="233.346" fill="#fff" r="5.002"/></g></g></g><circle cx="256" cy="331.528" fill="#ff7eb8" r="44.284"/><g><g><path d="m269.447 328.209h-26.895c-2.022 0-3.846-1.218-4.619-3.086-.774-1.869-.347-4.019 1.084-5.449l13.447-13.448c1.951-1.952 5.119-1.952 7.07 0 1.953 1.953 1.953 5.119 0 7.071l-4.912 4.912h14.824c2.762 0 5 2.239 5 5s-2.237 5-4.999 5z" fill="#fff"/></g><g><path d="m256 358.295c-1.279 0-2.56-.488-3.535-1.464-1.953-1.953-1.953-5.119 0-7.071l4.912-4.912h-14.824c-2.762 0-5-2.239-5-5s2.238-5 5-5h26.895c2.022 0 3.846 1.218 4.619 3.086.774 1.869.347 4.019-1.084 5.449l-13.447 13.448c-.976.976-2.257 1.464-3.536 1.464z" fill="#fff"/></g></g></g><path d="m330.322 62.579c-2.762 0-5-2.238-5-5 0-3.309-2.692-6-6.001-6-2.762 0-5-2.238-5-5s2.238-5 5-5c3.309 0 6.001-2.691 6.001-6 0-2.762 2.238-5 5-5s5 2.238 5 5c0 3.309 2.691 6 5.999 6 2.762 0 5 2.238 5 5s-2.238 5-5 5c-3.308 0-5.999 2.691-5.999 6 0 2.762-2.238 5-5 5z" fill="#01eca5"/><path d="m283.647 49.87c-7.881 0-14.292-6.411-14.292-14.291 0-7.881 6.411-14.292 14.292-14.292 7.88 0 14.291 6.411 14.291 14.292.001 7.88-6.411 14.291-14.291 14.291zm0-18.583c-2.366 0-4.292 1.926-4.292 4.292s1.926 4.291 4.292 4.291 4.291-1.925 4.291-4.291c.001-2.366-1.924-4.292-4.291-4.292z" fill="#6583fe"/><path d="m41.529 476.373c-7.88 0-14.291-6.411-14.291-14.291 0-7.881 6.411-14.292 14.291-14.292 7.881 0 14.292 6.411 14.292 14.292 0 7.88-6.411 14.291-14.292 14.291zm0-18.583c-2.366 0-4.291 1.926-4.291 4.292s1.925 4.291 4.291 4.291 4.292-1.925 4.292-4.291-1.925-4.292-4.292-4.292z" fill="#ff5ba8"/><g fill="#01eca5"><path d="m231.205 62.579c-2.762 0-5-2.238-5-5 0-3.309-2.691-6-6-6-2.762 0-5-2.238-5-5s2.238-5 5-5c3.309 0 6-2.691 6-6 0-2.762 2.238-5 5-5s5 2.238 5 5c0 3.309 2.691 6 6 6 2.762 0 5 2.238 5 5s-2.238 5-5 5c-3.309 0-6 2.691-6 6 0 2.762-2.238 5-5 5z"/><path d="m471.471 491.082c-2.762 0-5-2.238-5-5 0-3.309-2.691-6-6-6-2.762 0-5-2.238-5-5s2.238-5 5-5c3.309 0 6-2.691 6-6 0-2.762 2.238-5 5-5s5 2.238 5 5c0 3.309 2.691 6 6 6 2.762 0 5 2.238 5 5s-2.238 5-5 5c-3.309 0-6 2.691-6 6 0 2.762-2.239 5-5 5z"/></g></g></g></svg>