<svg id="Capa_1" enable-background="new 0 0 512 512" height="512" viewBox="0 0 512 512" width="512" xmlns="http://www.w3.org/2000/svg" xmlns:xlink="http://www.w3.org/1999/xlink"><linearGradient id="SVGID_1_" gradientUnits="userSpaceOnUse" x1="68.572" x2="395.005" y1="430.204" y2="41.176"><stop offset="0" stop-color="#d2deff" stop-opacity="0"/><stop offset=".6852" stop-color="#d2deff"/></linearGradient><linearGradient id="SVGID_2_" gradientUnits="userSpaceOnUse" x1="256" x2="256" y1="83.513" y2="427.779"><stop offset=".0028" stop-color="#ff7eb8" stop-opacity="0"/><stop offset="1" stop-color="#ff7eb8" stop-opacity=".6"/></linearGradient><g><g><path d="m16.074 302.526c18.727 64.004 72.707 194.564 163.922 182.845 91.486-11.755 55.758-129.725 139.508-145.894 36.867-7.118 61.857 56.689 98.806 54.704 47.588-2.557 71.81-49.663 85.108-89.264 28.197-83.968-14.029-226.352-112.858-251.012-86.245-21.519-96.333 83.855-171.322 53.248-42.149-17.203-37.938-68.576-89.272-78.942-155.299-31.359-138.811 189.151-113.892 274.315z" fill="url(#SVGID_1_)"/></g><g><g><g><path d="m455.47 427.779h-398.94c-8.284 0-15-6.716-15-15v-314.266c0-8.284 6.716-15 15-15h398.94c8.284 0 15 6.716 15 15v314.266c0 8.285-6.715 15-15 15z" fill="#fff"/><g><g><path d="m428.79 427.779h-345.58v-206.119c0-5.523 4.477-10 10-10h325.58c5.523 0 10 4.477 10 10z" fill="#ffc4df"/><path d="m83.21 369.222h345.579v58.558h-345.579z" fill="#ffa8cf"/><g><g><circle cx="354.935" cy="303.831" fill="#ff7eb8" r="33.651"/><path d="m371.552 304.969c0-9.16-7.46-16.61-16.62-16.61s-16.61 7.45-16.61 16.61c0 4.52 1.82 8.62 4.75 11.62-2.93 2.99-4.75 7.09-4.75 11.61v4.9c3.07 1.74 6.43 3.02 10 3.73v-8.63c0-3.65 2.97-6.61 6.61-6.61 3.65 0 6.62 2.96 6.62 6.61v8.63c3.57-.71 6.93-1.99 10-3.73v-4.9c0-4.52-1.82-8.62-4.76-11.61 2.94-3 4.76-7.1 4.76-11.62zm-16.62 6.62c-3.64 0-6.61-2.97-6.61-6.62 0-3.64 2.97-6.61 6.61-6.61 3.65 0 6.62 2.97 6.62 6.61 0 3.65-2.97 6.62-6.62 6.62z" fill="#ffc4df"/></g><g><circle cx="157.065" cy="303.831" fill="#ff7eb8" r="33.651"/><path d="m173.682 304.969c0-9.16-7.46-16.61-16.62-16.61s-16.61 7.45-16.61 16.61c0 4.52 1.82 8.62 4.75 11.62-2.93 2.99-4.75 7.09-4.75 11.61v4.9c3.07 1.74 6.43 3.02 10 3.73v-8.63c0-3.65 2.97-6.61 6.61-6.61 3.65 0 6.62 2.96 6.62 6.61v8.63c3.57-.71 6.93-1.99 10-3.73v-4.9c0-4.52-1.82-8.62-4.76-11.61 2.94-3 4.76-7.1 4.76-11.62zm-16.62 6.62c-3.64 0-6.61-2.97-6.61-6.62 0-3.64 2.97-6.61 6.61-6.61 3.65 0 6.62 2.97 6.62 6.61 0 3.65-2.97 6.62-6.62 6.62z" fill="#ffc4df"/></g></g><path d="m428.79 246.173h-345.58v-24.513c0-5.523 4.477-10 10-10h325.58c5.523 0 10 4.477 10 10z" fill="#ff7eb8"/></g></g><path d="m470.47 152.826v-54.313c0-8.284-6.716-15-15-15h-398.94c-8.284 0-15 6.716-15 15v54.313z" fill="#ff7eb8"/></g><g><g><circle cx="85.623" cy="120.414" fill="#ff5ba8" r="10.901"/><circle cx="120.424" cy="120.414" fill="#fff" r="10.901"/><circle cx="155.224" cy="120.414" fill="#02ffb3" r="10.901"/></g><path d="m432.278 132.661h-136.159v-24.496h136.158c2.761 0 5 2.239 5 5v14.496c.001 2.762-2.238 5-4.999 5z" fill="#ffdbed"/><path d="m296.789 108.477c-5.286-5.286-13.887-5.286-19.173 0s-5.286 13.887 0 19.173c4.037 4.037 10.003 4.98 14.953 2.852l4.348 4.348c1.952 1.952 5.119 1.952 7.071 0 1.953-1.952 1.953-5.119 0-7.071l-4.348-4.348c2.129-4.951 1.186-10.917-2.851-14.954zm-12.102 7.071c1.387-1.387 3.644-1.387 5.031 0s1.387 3.644 0 5.031-3.644 1.387-5.031 0-1.387-3.644 0-5.031z" fill="#fff"/></g></g><path d="m455.47 427.779h-398.94c-8.284 0-15-6.716-15-15v-314.266c0-8.284 6.716-15 15-15h398.94c8.284 0 15 6.716 15 15v314.266c0 8.285-6.715 15-15 15z" fill="url(#SVGID_2_)"/><g><g><path d="m328.79 461.728h-145.58c-5.523 0-10-4.477-10-10v-256.12c0-5.523 4.477-10 10-10h145.58c5.523 0 10 4.477 10 10v256.119c0 5.524-4.477 10.001-10 10.001z" fill="#9fb0fe"/><path d="m173.21 380.668v71.059c0 5.523 4.477 10 10 10h145.58c5.523 0 10-4.477 10-10v-71.059z" fill="#8399fe"/><path d="m338.79 217.121h-165.58v-21.513c0-5.523 4.477-10 10-10h145.58c5.523 0 10 4.477 10 10z" fill="#6583fe"/></g></g><g><circle cx="256" cy="283.297" fill="#02ffb3" r="33.651"/><path d="m272.617 284.435c0-9.16-7.46-16.61-16.62-16.61s-16.61 7.45-16.61 16.61c0 4.52 1.82 8.62 4.75 11.62-2.93 2.99-4.75 7.09-4.75 11.61v4.9c3.07 1.74 6.43 3.02 10 3.73v-8.63c0-3.65 2.97-6.61 6.61-6.61 3.65 0 6.62 2.96 6.62 6.61v8.63c3.57-.71 6.93-1.99 10-3.73v-4.9c0-4.52-1.82-8.62-4.76-11.61 2.94-3 4.76-7.1 4.76-11.62zm-16.62 6.62c-3.64 0-6.61-2.97-6.61-6.62 0-3.64 2.97-6.61 6.61-6.61 3.65 0 6.62 2.97 6.62 6.61 0 3.65-2.97 6.62-6.62 6.62z" fill="#fff"/></g><g><g><path d="m285.84 344.939h-59.68c-2.761 0-5-2.239-5-5s2.239-5 5-5h59.681c2.761 0 5 2.239 5 5-.001 2.762-2.239 5-5.001 5z" fill="#4369fd"/></g><g><path d="m285.84 408.682h-59.68c-2.761 0-5-2.239-5-5s2.239-5 5-5h59.681c2.761 0 5 2.239 5 5s-2.239 5-5.001 5z" fill="#fff"/></g><g><path d="m285.84 427.779h-59.68c-2.761 0-5-2.239-5-5s2.239-5 5-5h59.681c2.761 0 5 2.239 5 5-.001 2.762-2.239 5-5.001 5z" fill="#fff"/></g><g><path d="m246.84 362.396h-20.68c-2.761 0-5-2.239-5-5s2.239-5 5-5h20.681c2.761 0 5 2.239 5 5-.001 2.761-2.239 5-5.001 5z" fill="#4369fd"/></g><g><g><path d="m314.793 237.992h-11.681c-2.761 0-5-2.239-5-5s2.239-5 5-5h11.681c2.761 0 5 2.239 5 5s-2.238 5-5 5z" fill="#fff"/></g><g><path d="m314.793 253.477h-11.681c-2.761 0-5-2.239-5-5s2.239-5 5-5h11.681c2.761 0 5 2.239 5 5 0 2.762-2.238 5-5 5z" fill="#fff"/></g></g></g><g><path d="m203.01 232.992c0 2.762-2.239 5.002-5.002 5.002-2.762 0-5.002-2.239-5.002-5.002 0-2.762 2.239-5.002 5.002-5.002s5.002 2.239 5.002 5.002z" fill="#fff"/></g><path d="m139.306 489.067c-2.761 0-5-2.238-5-5 0-3.309-2.691-6-6-6-2.761 0-5-2.238-5-5s2.239-5 5-5c3.309 0 6-2.691 6-6 0-2.762 2.239-5 5-5s5 2.238 5 5c0 3.309 2.691 6 6 6 2.761 0 5 2.238 5 5s-2.239 5-5 5c-3.309 0-6 2.691-6 6 0 2.762-2.239 5-5 5z" fill="#01eca5"/><path d="m90.524 480.067c-2.761 0-5-2.238-5-5 0-3.309-2.691-6-6-6-2.761 0-5-2.238-5-5s2.239-5 5-5c3.309 0 6-2.691 6-6 0-2.762 2.239-5 5-5s5 2.238 5 5c0 3.309 2.691 6 6 6 2.761 0 5 2.238 5 5s-2.239 5-5 5c-3.309 0-6 2.691-6 6 0 2.762-2.239 5-5 5z" fill="#ff5ba8"/><path d="m330.322 62.225c-2.762 0-5-2.238-5-5 0-3.309-2.692-6-6.001-6-2.762 0-5-2.238-5-5s2.238-5 5-5c3.309 0 6.001-2.691 6.001-6 0-2.762 2.238-5 5-5s5 2.238 5 5c0 3.309 2.691 6 5.999 6 2.762 0 5 2.238 5 5s-2.238 5-5 5c-3.308 0-5.999 2.691-5.999 6 0 2.762-2.238 5-5 5z" fill="#ff5ba8"/><g fill="#6583fe"><path d="m380.232 51.516c-7.881 0-14.292-6.411-14.292-14.291 0-7.881 6.411-14.292 14.292-14.292 7.88 0 14.291 6.411 14.291 14.292 0 7.88-6.411 14.291-14.291 14.291zm0-18.583c-2.366 0-4.292 1.926-4.292 4.292s1.926 4.291 4.292 4.291 4.291-1.925 4.291-4.291-1.924-4.292-4.291-4.292z"/><path d="m366.698 487.359c-7.88 0-14.291-6.411-14.291-14.292 0-7.88 6.411-14.291 14.291-14.291s14.291 6.411 14.291 14.291c0 7.881-6.411 14.292-14.291 14.292zm0-18.583c-2.366 0-4.291 1.925-4.291 4.291s1.925 4.292 4.291 4.292 4.291-1.926 4.291-4.292-1.924-4.291-4.291-4.291z"/></g></g></g></svg>