<svg id="Capa_1" enable-background="new 0 0 512 512" height="512" viewBox="0 0 512 512" width="512" xmlns="http://www.w3.org/2000/svg"><g><g><path d="m424.739 454.041h-351.763c-8.284 0-15-6.716-15-15s6.716-15 15-15h351.763c31.573 0 57.261-25.688 57.261-57.261 0-31.574-25.688-57.262-57.261-57.262h-285.616c-34.787 0-63.088-28.301-63.088-63.087 0-34.771 28.289-63.06 63.06-63.06h282.093c8.284 0 15 6.716 15 15s-6.716 15-15 15h-282.093c-18.229 0-33.06 14.831-33.06 33.06 0 18.245 14.843 33.088 33.088 33.088h285.616c48.116 0 87.261 39.146 87.261 87.262 0 48.115-39.145 87.26-87.261 87.26z" fill="#00c8c8"/></g><ellipse cx="72.976" cy="439.041" fill="#ffe14d" rx="72.976" ry="72.959"/><circle cx="330.762" cy="439.041" fill="#ffa64d" r="46.745"/><path d="m421.188 0c-50.074 0-90.813 40.728-90.813 90.79 0 33.544 36.028 79.351 66.251 111.872 6.324 6.806 15.277 10.709 24.562 10.709s18.237-3.903 24.561-10.708c30.223-32.523 66.251-78.33 66.251-111.873 0-50.062-40.739-90.79-90.812-90.79z" fill="#ff4d4d"/><circle cx="266.605" cy="294.518" fill="#ffa64d" r="46.745"/><path d="m421.188 0v213.371c9.284 0 18.237-3.903 24.561-10.708 30.223-32.523 66.251-78.33 66.251-111.873 0-50.062-40.739-90.79-90.812-90.79z" fill="#cc2929"/><g><g><g><g><path d="m421.188 106.685c7.846 0 15.363-6.899 15-15-.364-8.127-6.591-15-15-15-7.846 0-15.363 6.899-15 15 .364 8.127 6.591 15 15 15z" fill="#d7eaeb"/></g></g></g></g><path d="m313.35 294.518c0-25.775-20.97-46.745-46.745-46.745v93.49c25.776 0 46.745-20.97 46.745-46.745z" fill="#ed8600"/><path d="m377.508 439.041c0-25.775-20.97-46.745-46.745-46.745v93.49c25.775 0 46.745-20.97 46.745-46.745z" fill="#ed8600"/><path d="m145.951 439.041c0-40.23-32.737-72.959-72.976-72.959v145.918c40.24 0 72.976-32.729 72.976-72.959z" fill="#fb3"/></g></svg>