<svg id="Layer_1" enable-background="new 0 0 128 128" height="512" viewBox="0 0 128 128" width="512" xmlns="http://www.w3.org/2000/svg"><g><g fill="#e6e7e8"><path d="m120.7 63.357c-2.453-2.582-6.413-2.866-9.211-.663l-17.877 14.088c-1.217-1.59-3.092-2.54-5.126-2.54h-14.664c-3.641 0-7.26-.52-10.756-1.543l-3.425-1.003c-3.334-.983-6.622-1.342-9.778-1.062-8.723.754-12.351 5.397-14.3 7.891-.432.553-.84 1.075-1.098 1.268-.263.196-2.816 1.868-6.729 4.405-.775-.896-1.799-1.531-2.978-1.787-1.439-.312-2.914-.046-4.152.751l-8.664 5.575c-2.556 1.645-3.297 5.061-1.653 7.615l13.823 21.506c.797 1.239 2.027 2.093 3.467 2.406.393.085.788.127 1.181.127 1.046 0 2.071-.299 2.972-.879l8.664-5.575c2.555-1.644 3.297-5.061 1.654-7.615l-.842-1.311c4.359-2.678 7.709-4.623 8.279-4.802 2.312-.656 7.326.437 12.633 1.594 5.15 1.123 10.476 2.284 14.899 2.284 5.761 0 10.438-2.932 13.35-5.393l29.862-25.448c1.424-1.239 2.258-2.959 2.348-4.845.088-1.884-.578-3.676-1.879-5.044z"/><path d="m40.586 56.648h13.328v5.164c0 1.654 1.346 3 3 3h29.112c1.654 0 3-1.346 3-3v-5.164h13.328c1.654 0 3-1.346 3-3v-6.637c0-5.997-3.321-11.228-8.217-13.967 2.118-2.279 3.425-5.322 3.425-8.672 0-7.039-5.727-12.765-12.765-12.765-5.683 0-10.506 3.735-12.154 8.879-1.31-.455-2.71-.715-4.173-.715s-2.863.26-4.173.715c-1.648-5.143-6.472-8.879-12.155-8.879-7.038 0-12.765 5.726-12.765 12.765 0 3.349 1.307 6.392 3.425 8.672-4.896 2.739-8.217 7.97-8.217 13.967v6.637c.001 1.654 1.346 3 3.001 3z"/></g><g><g><g><g><path d="m115.975 60.045c-2.083-2.192-5.492-2.437-7.867-.566l-18.747 14.774c-.909-1.779-2.739-3.01-4.875-3.01h-14.664c-3.736 0-7.452-.533-11.037-1.584l-3.426-1.004c-3.054-.901-6.242-1.304-9.41-1.025-10.528.911-13.167 7.681-14.886 8.964-.471.352-6.407 4.2-7.561 4.948l12.312 19.154c1.268-.783 8.371-5.156 9.399-5.448 4.86-1.376 18.706 3.84 27.805 3.84 5.517 0 10.02-2.888 12.702-5.155 2.464-2.091 29.854-25.44 29.854-25.44 2.515-2.188 2.697-6.031.401-8.448z" fill="#ffd7e5"/><path d="m31.063 79.594c1.718-1.284 4.358-8.054 14.886-8.964 3.168-.28 6.356.124 9.41 1.025l3.426 1.004c3.585 1.05 7.301 1.584 11.037 1.584h14.664c2.135 0 3.966 1.231 4.875 3.01l18.747-14.773c2.375-1.872 5.784-1.626 7.867.566.702.739 1.17 1.612 1.412 2.53.499-1.893.043-3.998-1.412-5.53-2.083-2.192-5.492-2.437-7.867-.566l-18.747 14.773c-.909-1.779-2.74-3.01-4.875-3.01h-14.664c-3.736 0-7.452-.533-11.037-1.584l-3.426-1.004c-3.054-.901-6.242-1.304-9.41-1.025-10.528.911-13.167 7.681-14.886 8.964-.471.352-6.407 4.2-7.561 4.948l1.361 2.117c2.156-1.398 5.833-3.79 6.2-4.065z" fill="#fff"/></g><path d="m35.854 109.098-8.664 5.575c-2.096 1.349-4.889.742-6.237-1.355l-13.824-21.506c-1.347-2.095-.741-4.886 1.354-6.234l8.664-5.575c2.096-1.349 4.889-.742 6.237 1.355l13.824 21.506c1.347 2.095.741 4.886-1.354 6.234z" fill="#6dc9f7"/></g><circle cx="25.286" cy="105.722" fill="#d4fbff" r="2.5"/></g><g><g><g><path d="m91.438 29.307c-2.056 1.76-4.721 2.829-7.64 2.829-1.729 0-3.366-.382-4.844-1.052.001-.003.001-.006.001-.009-.56 2.536-1.939 4.764-3.845 6.396 5.25 2.335 8.916 7.587 8.916 13.703v.473h14.328c1.105 0 2-.895 2-2v-6.637c0-6.116-3.666-11.368-8.916-13.703z" fill="#ffd7e5"/></g><path d="m83.798 8.608c-5.622 0-10.316 3.946-11.48 9.218 4.076 1.848 6.917 5.944 6.917 10.711 0 .876-.099 1.728-.281 2.548 1.479.67 3.115 1.052 4.844 1.052 6.497 0 11.764-5.267 11.764-11.764s-5.267-11.765-11.764-11.765z" fill="#fff"/></g><g><g><path d="m55.984 31.072c.001.004.001.009.002.013-1.479.67-3.115 1.052-4.844 1.052-2.919 0-5.584-1.069-7.64-2.829-5.25 2.335-8.916 7.587-8.916 13.703v6.637c0 1.105.895 2 2 2h14.328v-.473c0-6.116 3.666-11.368 8.916-13.703-1.907-1.633-3.286-3.863-3.846-6.4z" fill="#ffd7e5"/></g><path d="m55.986 31.084c-.182-.821-.281-1.673-.281-2.548 0-4.767 2.841-8.862 6.917-10.711-1.165-5.272-5.858-9.218-11.48-9.218-6.497 0-11.764 5.267-11.764 11.764s5.267 11.764 11.764 11.764c1.729.002 3.366-.381 4.844-1.051z" fill="#fff"/></g><g><path d="m75.11 37.471c-2.056 1.76-4.721 2.829-7.64 2.829s-5.584-1.069-7.64-2.829c-5.25 2.335-8.916 7.587-8.916 13.703v6.637c0 1.105.895 2 2 2h29.113c1.105 0 2-.895 2-2v-6.637c-.001-6.116-3.667-11.368-8.917-13.703z" fill="#fa759e"/><g><circle cx="67.47" cy="28.536" fill="#fff" r="11.764"/><g fill="#3a2c60"><path d="m116.7 59.356c-2.453-2.582-6.413-2.865-9.211-.663l-17.877 14.089c-1.217-1.59-3.092-2.54-5.126-2.54h-14.664c-3.643 0-7.262-.52-10.756-1.543l-3.425-1.003c-3.333-.983-6.626-1.34-9.778-1.062-8.725.755-12.352 5.397-14.301 7.892-.432.553-.84 1.075-1.097 1.268-.263.196-2.816 1.868-6.73 4.406-.775-.896-1.799-1.531-2.977-1.787-1.439-.313-2.914-.046-4.152.751l-8.664 5.575c-2.555 1.644-3.297 5.06-1.654 7.615l13.824 21.505c.796 1.239 2.027 2.094 3.467 2.406.393.085.788.127 1.181.127 1.046 0 2.071-.299 2.972-.878l8.664-5.575c2.556-1.644 3.297-5.061 1.653-7.615l-.843-1.311c4.299-2.641 7.719-4.626 8.28-4.802 2.312-.656 7.326.437 12.633 1.594 5.15 1.123 10.476 2.284 14.899 2.284 5.763 0 10.438-2.932 13.348-5.392.57-.483 2.468-2.099 5.051-4.3l.36-.307c.421-.358.471-.989.113-1.41-.359-.421-.989-.469-1.41-.113l-.36.307c-2.581 2.199-4.478 3.814-5.046 4.296-2.653 2.244-6.898 4.918-12.056 4.918-4.208 0-9.427-1.138-14.474-2.238-5.8-1.264-10.808-2.356-13.604-1.564-.966.274-5.618 3.078-8.816 5.044l-11.242-17.49c2.672-1.734 6.382-4.148 6.78-4.444.472-.353.915-.92 1.477-1.639 1.885-2.413 5.04-6.451 12.898-7.131 2.904-.255 5.947.076 9.04.988l3.427 1.004c3.678 1.078 7.485 1.625 11.318 1.625h14.664c1.681 0 3.207.945 3.984 2.465.32.632.483 1.315.483 2.029 0 2.478-2.016 4.494-4.494 4.494h-26.155c-.553 0-1 .448-1 1s.447 1 1 1h26.156c3.581 0 6.494-2.913 6.494-6.494 0-.751-.128-1.477-.375-2.17l18.149-14.302c1.979-1.561 4.784-1.36 6.523.469.92.969 1.393 2.238 1.329 3.573-.063 1.335-.654 2.554-1.654 3.425l-11.979 10.211c-.421.358-.471.99-.112 1.41.357.421.988.469 1.409.113l11.987-10.218c1.424-1.239 2.258-2.959 2.348-4.845.088-1.886-.578-3.678-1.879-5.047zm-81.387 48.901-8.664 5.575c-.789.508-1.726.678-2.646.479-.917-.199-1.701-.744-2.209-1.533l-13.824-21.506c-1.046-1.628-.573-3.805 1.055-4.853l8.664-5.575c.574-.369 1.228-.56 1.894-.56.25 0 .502.027.752.081.917.199 1.701.744 2.209 1.533l13.824 21.506c1.046 1.629.573 3.805-1.055 4.853z"/><path d="m99.706 80.705-5.785 4.93c-.421.358-.471.989-.112 1.41.197.232.479.352.761.352.229 0 .46-.079.648-.239l5.785-4.93c.421-.358.471-.989.112-1.41-.357-.422-.989-.47-1.409-.113z"/><path d="m25.286 102.222c-1.93 0-3.5 1.57-3.5 3.5s1.57 3.5 3.5 3.5 3.5-1.57 3.5-3.5-1.57-3.5-3.5-3.5zm0 5c-.827 0-1.5-.673-1.5-1.5s.673-1.5 1.5-1.5 1.5.673 1.5 1.5-.673 1.5-1.5 1.5z"/><path d="m36.586 52.647h13.328v5.164c0 1.654 1.346 3 3 3h29.112c1.654 0 3-1.346 3-3v-5.164h13.328c1.654 0 3-1.346 3-3v-6.637c0-5.998-3.328-11.22-8.226-13.957 2.123-2.281 3.434-5.328 3.434-8.682 0-7.038-5.727-12.764-12.765-12.764-5.683 0-10.497 3.739-12.144 8.882-1.313-.457-2.717-.719-4.184-.719s-2.87.261-4.183.718c-1.647-5.143-6.461-8.882-12.144-8.882-7.038 0-12.765 5.726-12.765 12.764 0 3.354 1.311 6.401 3.434 8.682-4.898 2.737-8.226 7.958-8.226 13.957v6.637c.001 1.656 1.346 3.001 3.001 3.001zm46.44 5.164c0 .551-.448 1-1 1h-29.112c-.552 0-1-.449-1-1v-6.637c0-5.489 3.181-10.238 7.791-12.531 2.154 1.659 4.842 2.657 7.764 2.657 2.923 0 5.611-.998 7.765-2.657 4.611 2.292 7.792 7.042 7.792 12.531zm16.328-14.8v6.637c0 .551-.448 1-1 1h-13.347c-.189-5.775-3.453-10.773-8.207-13.429 1.267-1.36 2.246-2.989 2.826-4.8 1.309.457 2.709.718 4.172.718 2.923 0 5.611-.998 7.765-2.657 4.61 2.292 7.791 7.042 7.791 12.531zm-15.556-33.403c5.936 0 10.765 4.829 10.765 10.764s-4.829 10.765-10.765 10.765c-1.312 0-2.562-.249-3.723-.683.095-.627.16-1.264.16-1.917 0-4.862-2.734-9.094-6.743-11.249 1.33-4.437 5.443-7.68 10.306-7.68zm-5.564 18.928c0 5.936-4.829 10.765-10.765 10.765s-10.764-4.829-10.764-10.765 4.828-10.765 10.764-10.765 10.765 4.83 10.765 10.765zm-27.092-18.928c4.863 0 8.976 3.243 10.306 7.679-4.009 2.155-6.743 6.388-6.743 11.25 0 .653.065 1.29.16 1.917-1.162.434-2.412.683-3.723.683-5.936 0-10.765-4.829-10.765-10.765s4.83-10.764 10.765-10.764zm-15.556 33.403c0-5.489 3.181-10.239 7.792-12.531 2.154 1.659 4.842 2.657 7.765 2.657 1.463 0 2.862-.261 4.172-.718.58 1.811 1.559 3.44 2.826 4.8-4.753 2.656-8.017 7.654-8.206 13.429h-13.349c-.552 0-1-.449-1-1z"/></g></g></g></g></g></g></svg>