<svg id="Capa_1" enable-background="new 0 0 426.708 426.708" height="512" viewBox="0 0 426.708 426.708" width="512" xmlns="http://www.w3.org/2000/svg"><g><circle cx="213.429" cy="213.322" fill="#eeefee" r="203.381"/><g fill="#2cbfae"><path d="m213.356 426.543c-56.546.179-110.812-22.28-150.694-62.366l-2.914-3.221c-79.665-82.197-79.665-212.8 0-294.997v-.057l2.914-3.164c82.828-83.224 217.44-83.546 300.664-.718.24.239.479.478.718.718l2.914 3.221c79.665 82.197 79.665 212.8 0 294.997v.057l-2.914 3.164c-39.879 40.085-94.143 62.544-150.688 62.366zm-133.818-73.523c75 71.799 193.297 71.615 268.074-.416l2.467-2.69c75.366-74.778 75.842-196.493 1.064-271.859-.353-.356-.708-.711-1.064-1.064l-2.914-3.122c-74.858-72.16-193.446-71.976-268.079.415l-2.467 2.69c-75.366 74.778-75.842 196.494-1.064 271.859.353.356.708.711 1.064 1.064z"/><path d="m213.356 139.356c-56.542.186-110.808-22.263-150.694-62.34l-2.914-2.898v-8.217l2.914-3.164c82.828-83.224 217.44-83.546 300.664-.718.24.239.479.478.718.718l2.914 2.898v8.466l-2.913 2.899c-39.882 40.082-94.146 62.537-150.689 62.356zm-129.509-69.49c73.622 66.272 185.397 66.272 259.019 0-73.484-66.632-185.535-66.632-259.019 0z"/><path d="m213.356 426.543c-56.546.179-110.812-22.28-150.694-62.366l-2.914-2.898v-8.17l2.883-3.164c82.81-83.242 217.422-83.591 300.664-.781.261.26.521.52.781.781l2.883 2.898v8.44l-2.914 2.898c-39.881 40.084-94.145 62.541-150.689 62.362zm-129.535-69.527c73.631 66.307 185.445 66.307 259.076 0-73.521-66.591-185.554-66.591-259.076 0z"/><path d="m213.356 426.6c-62.543 0-111.562-93.667-111.562-213.216s49.019-213.206 111.562-213.206 111.562 93.667 111.562 213.201-49.018 213.221-111.562 213.221zm0-406.632c-49.763 0-91.778 88.567-91.778 193.416s42.015 193.427 91.778 193.427 91.778-88.577 91.778-193.427-42.015-193.416-91.778-193.416z"/><path d="m10.048 203.429h406.768v19.79h-406.768z"/><path d="m203.522 9.94h19.79v406.768h-19.79z"/></g></g></svg>