<svg xmlns="http://www.w3.org/2000/svg" width="1080" height="1080" xml:space="preserve">
    <g>
        <path style="stroke:none;stroke-width:1;stroke-dasharray:none;stroke-linecap:butt;stroke-dashoffset:0;stroke-linejoin:miter;stroke-miterlimit:4;fill:#00b050;fill-rule:nonzero;opacity:1" vector-effect="non-scaling-stroke" d="m-267.41 93.14 21.71-7.29 20.81-6.99 69.63-23.39 55.94-18.79 3.62-1.22 6.26 7.25L8.2 155.82l145.66-87.04 63.92-38.19 132.3-79.06 141.55-84.59-106.61-15.34-139.48-20.06 36.1 49.34-43.93 26.34-19.93 11.95-2.86 1.71-19.93 11.16L74.74-.65l-3.52 1.97L51.95 12.1l-3.52 1.97-20.54 11.5-97.34-117.61-2.37 1.46-3.52 2.17-19.27 11.89-2.37 1.46-1.15.71-1.94 1.2L-119.76-61l-3.1 1.92-95.52 58.93-22.79 14.06-26.24 16.2-22.79 14.06-.68.42-200.75 123.87 201.43-67.66 22.79-7.66z" transform="translate(540 672.12)"/>
        <path style="stroke:none;stroke-width:1;stroke-dasharray:none;stroke-linecap:butt;stroke-dashoffset:0;stroke-linejoin:miter;stroke-miterlimit:4;fill:#00b050;fill-rule:nonzero;opacity:1" vector-effect="non-scaling-stroke" transform="translate(-660 -659.78)" d="m961.59 1323.27 22.82-14.09V1160l120-73.12v147.28l27-16.69v-172l120-73.12v351.52l3.61-2 19.77-11.06 3.62-2V921.8l120-73.13v393.26l8.56-4.79 14.26-8.56 30.69-18.4-47.26-66 188 20.83a402.36 402.36 0 0 0 4.21-58c0-220-178.06-398.89-396.92-398.89S803.07 887.06 803.07 1107a398.27 398.27 0 0 0 93.24 256.54ZM837.41 1486.46h-58v204.14h141v-53h-83Zm71 163.11v29h-117v-179.1h34v138.23a11.86 11.86 0 0 0 11.86 11.87Z"/>
        <path style="stroke:none;stroke-width:1;stroke-dasharray:none;stroke-linecap:butt;stroke-dashoffset:0;stroke-linejoin:miter;stroke-miterlimit:4;fill:#00b050;fill-rule:nonzero;opacity:1" vector-effect="non-scaling-stroke" transform="translate(-660 -659.77)" d="M1459.47 1549.57a50.11 50.11 0 0 0-20.64-15.93c-8.26-3.57-18.71-5.39-31.08-5.39a77.67 77.67 0 0 0-23 3.88 80.48 80.48 0 0 0-17 7.53 71.47 71.47 0 0 0-13-6.89c-7.43-3-16.58-4.52-28-4.52-5.38 0-11 .24-16.56.71-5.56.47-11 1.12-16.35 2-5.35.88-10.3 1.76-15 2.78-4.7 1.02-8.78 2-12.34 2.91l-6 1.59v151.39h56v-110.37h.54c2.48-.24 4.89-.37 7.16-.37 7.78 0 9.72 3.08 10.45 4.24 1.44 2.29 3.85 8.34 3.85 23.21v83.3h56v-85.45c0-5.36-.19-10.52-.58-15.32a68.64 68.64 0 0 0-1.08-7.94c.74-.25 1.53-.49 2.36-.72a29.33 29.33 0 0 1 7-1.32c7.78 0 9.72 3.08 10.45 4.24 1.44 2.29 3.85 8.34 3.85 23.21v83.3h56v-88.22a141 141 0 0 0-2.59-28.06 58.83 58.83 0 0 0-10.44-23.79Zm.94 128h-33v-71.44c0-13.77-1.81-23.4-5.52-29.45-4-6.55-10.81-9.87-20.2-9.87a39 39 0 0 0-10 1.76c-1 .29-2 .6-3 .92A11.89 11.89 0 0 0 1381 1583a60.06 60.06 0 0 1 .88 6.63c.35 4.5.53 9.34.53 14.4v73.59h-33v-71.44c0-13.77-1.81-23.4-5.52-29.45-4-6.55-10.81-9.87-20.2-9.87-2.6 0-5.35.15-8.16.43h-.47a11.86 11.86 0 0 0-10.65 11.8v98.48h-33v-130.33c2.73-.68 5.77-1.38 9.07-2.09 4.48-1 9.32-1.86 14.38-2.65 5.06-.79 10.28-1.42 15.54-1.86 5.26-.44 10.6-.64 15.6-.64 9.87 0 17.59 1.19 23.58 3.63a60.12 60.12 0 0 1 10.93 5.73 11.87 11.87 0 0 0 12.74.38 68.28 68.28 0 0 1 14.55-6.4 66.17 66.17 0 0 1 19.56-3.34c10.78 0 19.69 1.48 26.48 4.41a38.74 38.74 0 0 1 15.93 12.16 47 47 0 0 1 8.24 19 128.45 128.45 0 0 1 2.36 25.68Z"/>
        <path style="stroke:none;stroke-width:1;stroke-dasharray:none;stroke-linecap:butt;stroke-dashoffset:0;stroke-linejoin:miter;stroke-miterlimit:4;fill:#00b050;fill-rule:nonzero;opacity:1" vector-effect="non-scaling-stroke" transform="translate(-660 -659.78)" d="M1609.84 1606.21a58.34 58.34 0 0 0-15.79-11.92 175.41 175.41 0 0 0-22.89-9.93c-4.05-1.49-7.39-2.87-10-4.09a35.07 35.07 0 0 1-5.32-3 5.74 5.74 0 0 1-.6-.48 4.11 4.11 0 0 1-.08-.89 2.12 2.12 0 0 1 0-.43c.24-.23 2.33-2 10.71-2a74.73 74.73 0 0 1 16.63 1.69 139.92 139.92 0 0 1 14.39 4.07l8.59 3 10.51-47.1-6.53-2.52a121.84 121.84 0 0 0-20.26-5.38 139.27 139.27 0 0 0-26.35-2.44c-19 0-34.43 4.49-45.74 13.33a45.87 45.87 0 0 0-13.47 16.65 49.71 49.71 0 0 0-4.48 21.34 54.45 54.45 0 0 0 3.58 20.62 44.65 44.65 0 0 0 10.26 15.31 58.6 58.6 0 0 0 15.18 10.49 191.91 191.91 0 0 0 17.84 7.58c7.55 2.85 13.15 5.38 16.62 7.51a6.53 6.53 0 0 1 2 1.7 5.15 5.15 0 0 1-.09 1c-.93.39-4 1.31-12 1.31a94.14 94.14 0 0 1-19.62-2.12 123.69 123.69 0 0 1-19.74-6l-9-3.54-10 48.55 6 2.65c3.68 1.63 9.78 3.54 18.66 5.84s20.24 3.49 33.45 3.49a118.13 118.13 0 0 0 27.51-2.93 65.52 65.52 0 0 0 21.73-9.32 43 43 0 0 0 14.52-16.49 49.63 49.63 0 0 0 4.79-22.14 63.29 63.29 0 0 0-2.37-18 40.12 40.12 0 0 0-8.64-15.41Zm-4.3 50.31a31.36 31.36 0 0 1-10.6 12 53.86 53.86 0 0 1-17.81 7.56 105.8 105.8 0 0 1-24.72 2.6c-12.21 0-22.47-1-30.49-3.11-7-1.8-11.31-3.14-14-4.11l5.22-25.3a135.35 135.35 0 0 0 17.47 5 106.3 106.3 0 0 0 22.09 2.37c7.55 0 13-.72 16.55-2.21a11.85 11.85 0 0 0 7.06-8.43 17.09 17.09 0 0 0 .36-3.29 11.88 11.88 0 0 0-2-6.81 18.24 18.24 0 0 0-5.68-5.19c-4.17-2.56-10.27-5.35-18.65-8.51h-.06a181.7 181.7 0 0 1-16.75-7.1 47.06 47.06 0 0 1-12.14-8.36 32.86 32.86 0 0 1-7.53-11.28 42.71 42.71 0 0 1-2.7-16.13 38 38 0 0 1 3.35-16.29 34.05 34.05 0 0 1 10-12.35c9.17-7.18 22.1-10.82 38.43-10.82a127.11 127.11 0 0 1 24.1 2.23 130.44 130.44 0 0 1 15.22 3.74l-5.38 24.12c-3.67-1.14-7.56-2.18-11.63-3.12a86.66 86.66 0 0 0-19.29-2c-9 0-15.21 1.71-18.9 5.24a11.88 11.88 0 0 0-3.36 5.9 13.66 13.66 0 0 0-.35 3.11 15.87 15.87 0 0 0 .38 3.51 11.81 11.81 0 0 0 3.36 5.94 17 17 0 0 0 1.84 1.53 46.72 46.72 0 0 0 7.18 4.09c2.87 1.38 6.55 2.89 10.94 4.51h.06a164.13 164.13 0 0 1 21.31 9.21 46.58 46.58 0 0 1 12.6 9.41 28.42 28.42 0 0 1 6.21 10.87 51.63 51.63 0 0 1 1.87 14.63 37.88 37.88 0 0 1-3.56 16.84ZM1213.1 1544.68c-5.66-6-13.16-10.58-22.3-13.7-8.73-3-19.6-4.48-32.3-4.48-4.9 0-9.84.24-14.69.72s-9.26 1-13.52 1.67c-4.26.67-8.37 1.43-12.06 2.27-3.69.84-6.82 1.68-9.34 2.45l-6.73 2.07 7.77 49.18 9.28-3.44a79.89 79.89 0 0 1 15.68-3.77 131.26 131.26 0 0 1 19.08-1.39c10.49 0 14.46 2.4 15.9 3.82a12.24 12.24 0 0 1 2.9 4.6 136.06 136.06 0 0 0-14.77-.68 116.35 116.35 0 0 0-24.12 2.47 69.08 69.08 0 0 0-21.76 8.43 46.58 46.58 0 0 0-16.17 16.62c-4 7-6.1 15.43-6.1 25.11 0 9.84 1.73 18.38 5.13 25.4a44.76 44.76 0 0 0 15.15 17.6 62.45 62.45 0 0 0 22.17 9.18 126.42 126.42 0 0 0 26.69 2.61 240.85 240.85 0 0 0 38.6-2.67c10.35-1.72 18.57-3.25 24.44-4.53l6.38-1.39v-90.17a99.19 99.19 0 0 0-3.26-26.16 51 51 0 0 0-12.05-21.82Zm4.31 128.53c-5.39 1.11-12.4 2.38-20.91 3.8a229.57 229.57 0 0 1-36.65 2.51 115.33 115.33 0 0 1-24.18-2.34 50.78 50.78 0 0 1-18-7.4 32.85 32.85 0 0 1-11.16-13c-2.62-5.39-3.94-12.19-3.94-20.22 0-7.56 1.51-14 4.49-19.16a35 35 0 0 1 12.1-12.44 57.27 57.27 0 0 1 18-7 104.58 104.58 0 0 1 21.67-2.21 125.2 125.2 0 0 1 13.48.65 11.89 11.89 0 0 0 12.69-8.4 12 12 0 0 0-.38-7.78 24.08 24.08 0 0 0-5.55-8.59c-4.92-4.9-12.86-7.28-24.26-7.28-6.968 0-13.927.511-20.82 1.53a98.69 98.69 0 0 0-13.74 2.95l-3.92-24.81q2.42-.64 5.39-1.33c3.41-.78 7.17-1.49 11.2-2.11 4.03-.62 8.38-1.15 12.88-1.59 4.5-.44 9-.66 13.54-.66 11.4 0 21 1.29 28.47 3.85 7.3 2.49 13.2 6.06 17.52 10.62a39.23 39.23 0 0 1 9.22 16.77 86.81 86.81 0 0 1 2.84 23Z"/>
        <path style="stroke:none;stroke-width:1;stroke-dasharray:none;stroke-linecap:butt;stroke-dashoffset:0;stroke-linejoin:miter;stroke-miterlimit:4;fill:#00b050;fill-rule:nonzero;opacity:1" vector-effect="non-scaling-stroke" transform="translate(-660 -659.78)" d="M1181.28 1615.55h-26.62c-11.046 0-20 8.954-20 20v.1c0 11.046 8.954 20 20 20h29.75v-36.89a3.13 3.13 0 0 0-3.13-3.21Zm-8.87 28h-17.25a8.21 8.21 0 0 1-8.3-7.49 8 8 0 0 1 8-8.52h17.57ZM1053.1 1544.68c-5.66-6-13.16-10.58-22.3-13.7-8.73-3-19.59-4.48-32.3-4.48-4.9 0-9.84.24-14.69.72s-9.26 1-13.52 1.67c-4.26.67-8.37 1.43-12.06 2.27-3.69.84-6.82 1.68-9.34 2.45l-6.73 2.07 7.77 49.18 9.28-3.44a79.89 79.89 0 0 1 15.68-3.77 131.26 131.26 0 0 1 19.08-1.39c10.49 0 14.46 2.4 15.9 3.82a12.24 12.24 0 0 1 2.9 4.6A136.06 136.06 0 0 0 998 1584a116.35 116.35 0 0 0-24.12 2.47 69.08 69.08 0 0 0-21.76 8.43 46.58 46.58 0 0 0-16.12 16.58c-4.05 7-6.1 15.43-6.1 25.11 0 9.84 1.73 18.38 5.13 25.4a44.76 44.76 0 0 0 15.15 17.6 62.45 62.45 0 0 0 22.17 9.18 126.42 126.42 0 0 0 26.69 2.61 240.85 240.85 0 0 0 38.6-2.67c10.35-1.72 18.57-3.25 24.44-4.53l6.38-1.39v-90.17a99.19 99.19 0 0 0-3.26-26.16 51 51 0 0 0-12.1-21.78Zm3.31 128.53c-5.39 1.11-12.4 2.38-20.91 3.8a229.57 229.57 0 0 1-36.65 2.51 115.4 115.4 0 0 1-24.18-2.34 50.78 50.78 0 0 1-18-7.4 32.85 32.85 0 0 1-11.16-13c-2.62-5.39-3.94-12.19-3.94-20.22 0-7.56 1.51-14 4.49-19.16a35 35 0 0 1 12.1-12.44 57.27 57.27 0 0 1 18-7 104.58 104.58 0 0 1 21.67-2.21 125.2 125.2 0 0 1 13.48.65 11.89 11.89 0 0 0 12.69-8.4 12 12 0 0 0-.38-7.78 23.94 23.94 0 0 0-5.55-8.59c-4.92-4.9-12.86-7.28-24.26-7.28-6.968 0-13.927.511-20.82 1.53a98.69 98.69 0 0 0-13.74 2.95l-3.92-24.81q2.42-.64 5.39-1.33c3.41-.78 7.17-1.49 11.2-2.11 4.03-.62 8.38-1.15 12.88-1.59 4.5-.44 9-.66 13.54-.66 11.4 0 21 1.29 28.47 3.85 7.3 2.49 13.2 6.06 17.52 10.62a39.23 39.23 0 0 1 9.22 16.77 86.81 86.81 0 0 1 2.84 23Z"/>
        <path style="stroke:none;stroke-width:1;stroke-dasharray:none;stroke-linecap:butt;stroke-dashoffset:0;stroke-linejoin:miter;stroke-miterlimit:4;fill:#00b050;fill-rule:nonzero;opacity:1" vector-effect="non-scaling-stroke" transform="translate(-660 -659.78)" d="M1020.28 1615.55h-26.62c-11.026.028-19.95 8.974-19.95 20v.1c0 11.026 8.924 19.972 19.95 20h29.75v-36.89a3.13 3.13 0 0 0-3.13-3.21Zm-7.87 28h-17.25a8.21 8.21 0 0 1-8.3-7.49 8 8 0 0 1 8-8.52h17.57Z"/>
    </g>
</svg>
